<?xml version="1.0" standalone="no"?>
<!DOCTYPE svg PUBLIC "-//W3C//DTD SVG 20010904//EN"
 "http://www.w3.org/TR/2001/REC-SVG-20010904/DTD/svg10.dtd">
<svg version="1.0" xmlns="http://www.w3.org/2000/svg"
 width="1920.000000pt" height="1920.000000pt" viewBox="0 0 1920.000000 1920.000000"
 preserveAspectRatio="xMidYMid meet">
<metadata>
Created by potrace 1.14, written by Peter Selinger 2001-2017
</metadata>
<g transform="translate(0.000000,1920.000000) scale(0.100000,-0.100000)"
fill="#000000" stroke="none">
<path d="M13270 12564 c-1149 -44 -2017 -120 -3035 -265 -2361 -336 -4526
-882 -6308 -1591 -169 -68 -307 -125 -307 -129 0 -3 26 -2 58 3 31 6 125 8
207 5 238 -8 376 -55 475 -164 72 -78 92 -140 98 -295 l4 -128 -231 0 -231 0
0 83 c0 103 -18 143 -80 175 -82 41 -186 23 -232 -41 -23 -32 -35 -116 -24
-161 16 -65 101 -130 326 -251 285 -154 418 -259 473 -376 48 -102 59 -289 27
-434 -38 -171 -174 -300 -367 -349 -108 -28 -267 -39 -387 -27 -195 20 -314
64 -411 153 -105 96 -143 194 -152 391 l-6 127 251 0 250 0 4 -122 c3 -108 6
-127 25 -154 32 -45 86 -68 158 -69 120 0 185 66 185 190 0 116 -67 182 -332
329 -296 164 -414 258 -473 380 -92 188 -46 486 92 596 l28 22 -25 -7 c-86
-27 -555 -256 -875 -428 -1000 -539 -1641 -1129 -1777 -1637 -29 -110 -32
-310 -5 -410 150 -559 984 -986 2332 -1194 780 -120 1491 -163 2520 -153 659
7 1007 22 1610 68 2904 221 6032 923 8342 1873 203 83 237 100 183 88 -19 -4
-109 -7 -200 -7 -188 1 -260 14 -376 70 -127 61 -203 146 -247 278 -20 59 -22
85 -25 564 -4 566 1 626 59 740 60 118 180 207 339 250 94 26 426 26 520 -1
264 -73 389 -240 390 -518 l0 -88 -230 0 -230 0 0 58 c-1 120 -24 174 -90 220
-26 17 -47 22 -102 22 -41 0 -80 -6 -97 -15 -39 -20 -78 -69 -91 -113 -13 -49
-14 -974 0 -1023 43 -153 312 -158 369 -6 6 16 11 101 11 193 l0 164 -95 0
-95 0 0 135 0 135 325 0 325 0 0 -307 c0 -397 -10 -445 -110 -571 -22 -29 -38
-52 -35 -52 14 0 413 194 604 294 665 349 1150 682 1488 1022 237 240 396 486
455 704 33 123 33 323 0 430 -169 544 -948 947 -2237 1160 -461 76 -841 116
-1440 151 -170 10 -1393 20 -1575 13z m-3132 -2013 c243 -70 351 -222 340
-481 l-3 -75 -225 0 -225 0 -5 91 c-6 100 -20 132 -73 164 -48 29 -152 28
-198 -3 -44 -29 -69 -80 -69 -141 0 -104 64 -163 340 -310 245 -132 359 -217
429 -320 52 -77 64 -122 68 -256 10 -275 -65 -425 -261 -520 -213 -104 -577
-103 -792 2 -182 89 -263 239 -264 486 l0 102 244 0 244 0 4 -119 c2 -102 6
-124 24 -148 30 -41 99 -73 159 -73 113 0 185 74 185 190 0 112 -63 174 -333
327 -298 168 -406 253 -463 364 -56 111 -67 278 -28 411 50 168 195 282 413
323 115 22 392 14 489 -14z m-4122 -236 c22 -121 78 -422 124 -670 46 -247
104 -562 130 -700 31 -170 43 -252 36 -257 -17 -12 -474 -10 -481 2 -6 10 -41
243 -186 1240 -34 234 -63 427 -65 429 -11 12 -7 36 -189 -1179 -36 -239 -69
-448 -73 -465 l-8 -30 -239 -3 c-131 -1 -242 1 -245 5 -4 5 5 76 21 158 15 83
67 359 114 615 156 842 195 1055 200 1068 4 10 91 12 412 10 l408 -3 41 -220z
m1468 208 c3 -10 23 -135 46 -278 78 -492 181 -1119 185 -1124 8 -7 12 16 55
284 125 784 179 1115 185 1125 4 6 132 10 375 10 l370 0 4 -22 c8 -40 40
-1804 33 -1821 -6 -16 -27 -17 -229 -15 l-223 3 -6 715 c-8 935 -9 961 -19
930 -9 -23 -73 -363 -236 -1255 -35 -192 -69 -360 -74 -372 -10 -23 -11 -23
-234 -23 -124 0 -227 4 -230 8 -3 5 -21 96 -41 203 -20 107 -62 336 -95 509
-32 173 -84 452 -115 620 -31 168 -59 312 -63 320 -4 8 -11 -361 -17 -820
l-10 -835 -223 -3 c-191 -2 -223 0 -228 13 -8 19 33 1822 41 1835 4 6 141 10
375 10 342 0 369 -1 374 -17z m3936 -718 c4 -546 8 -735 17 -751 21 -37 81
-83 119 -90 87 -16 174 20 212 89 16 30 17 89 20 760 l3 727 229 0 230 0 0
-727 c0 -589 -3 -741 -14 -795 -40 -186 -159 -301 -374 -360 -102 -28 -387
-31 -500 -5 -158 35 -291 126 -346 235 -61 120 -60 100 -64 896 -2 400 -1 735
2 742 5 12 45 14 233 12 l228 -3 5 -730z m2087 555 c52 -177 159 -540 298
-1014 41 -143 78 -262 81 -265 3 -3 2 242 -3 544 -4 303 -8 631 -8 730 l0 180
223 3 222 2 0 -920 0 -920 -326 2 -326 3 -114 375 c-146 481 -266 875 -310
1019 -20 62 -38 111 -40 108 -3 -3 0 -335 7 -739 7 -404 10 -742 6 -751 -6
-16 -27 -17 -224 -15 l-218 3 -3 905 c-1 498 0 911 3 918 3 10 77 12 342 10
l338 -3 52 -175z"/>
</g>
</svg>
