<?xml version="1.0" standalone="no"?>
<!DOCTYPE svg PUBLIC "-//W3C//DTD SVG 20010904//EN"
 "http://www.w3.org/TR/2001/REC-SVG-20010904/DTD/svg10.dtd">
<svg version="1.0" xmlns="http://www.w3.org/2000/svg"
 width="512.000000pt" height="512.000000pt" viewBox="0 0 512.000000 512.000000"
 preserveAspectRatio="xMidYMid meet">
<metadata>
Created by potrace 1.14, written by Peter Selinger 2001-2017
</metadata>
<g transform="translate(0.000000,512.000000) scale(0.100000,-0.100000)"
fill="#000000" stroke="none">
<path d="M415 5110 c-22 -5 -60 -16 -85 -25 -150 -53 -285 -212 -319 -373 -16
-75 -16 -4229 0 -4304 29 -137 148 -293 269 -351 126 -61 -23 -57 2280 -57
2303 0 2154 -4 2280 57 121 58 240 214 269 351 16 75 16 4229 0 4304 -29 137
-148 293 -269 351 -127 61 23 57 -2280 56 -1158 -1 -2123 -5 -2145 -9z m2417
-1085 c214 -25 518 -102 518 -132 0 -11 -50 -202 -54 -210 -1 -1 -51 14 -111
33 -61 19 -166 47 -235 61 -110 24 -148 27 -315 28 -170 0 -199 -2 -270 -23
-267 -77 -394 -261 -370 -536 23 -266 149 -390 510 -501 334 -103 407 -127
483 -165 299 -145 403 -323 402 -690 0 -202 -31 -318 -119 -452 -174 -265
-508 -397 -914 -360 -73 7 -183 21 -243 32 -103 19 -362 78 -375 86 -7 4 40
204 51 217 3 4 70 -8 147 -27 246 -60 380 -80 553 -80 119 0 170 4 220 18 107
29 186 73 259 142 118 110 163 228 163 419 0 131 -20 224 -64 307 -72 135
-206 206 -566 303 -195 52 -276 80 -393 141 -210 109 -321 255 -365 482 -19
97 -18 264 2 360 59 292 308 500 660 551 95 14 289 12 426 -4z"/>
</g>
</svg>
