<?xml version="1.0" standalone="no"?>
<!DOCTYPE svg PUBLIC "-//W3C//DTD SVG 1.1//EN" "http://www.w3.org/Graphics/SVG/1.1/DTD/svg11.dtd" >
<svg xmlns="http://www.w3.org/2000/svg" xmlns:xlink="http://www.w3.org/1999/xlink" version="1.1">
<metadata>
Created by FontForge 20170731 at Thu Apr 17 11:59:05 2014
 By Aleksey,,,
Copyright (c) 2014 by Vyacheslav Kirilenko, Gayane Bagdasaryan. All rights reserved.
</metadata>
<defs>
<font id="Formular-LightItalic" horiz-adv-x="586" >
  <font-face 
    font-family="Formular"
    font-weight="300"
    font-style="italic"
    font-stretch="normal"
    units-per-em="1000"
    panose-1="2 0 0 0 0 0 0 0 0 0"
    ascent="800"
    descent="-200"
    x-height="500"
    cap-height="714"
    bbox="-97 -215 1463 966"
    underline-thickness="50"
    underline-position="-250"
    slope="-10"
    unicode-range="U+000D-FEFF"
  />
<missing-glyph horiz-adv-x="525" 
d="M113 0v714h412v-714h-412zM179 60h280v594h-280v-594z" />
    <glyph glyph-name="fi" unicode="fi" horiz-adv-x="578" 
d="M397 444h-138l-78 -444h-62l78 444h-91l10 56h91l12 70q28 157 186 157h42l-10 -56h-41q-96 0 -115 -101l-12 -70h138zM578 500l-88 -500h-63l88 500h63zM607 648h-69l14 79h69z" />
    <glyph glyph-name="fl" unicode="fl" horiz-adv-x="575" 
d="M397 444h-138l-78 -444h-62l78 444h-91l10 56h91l12 70q28 157 186 157h42l-10 -56h-41q-96 0 -115 -101l-12 -70h138zM618 727l-128 -727h-63l128 727h63z" />
    <glyph glyph-name=".notdef" horiz-adv-x="525" 
d="M113 0v714h412v-714h-412zM179 60h280v594h-280v-594z" />
    <glyph glyph-name=".null" horiz-adv-x="0" 
 />
    <glyph glyph-name="nonmarkingreturn" horiz-adv-x="333" 
 />
    <glyph glyph-name="NULL" horiz-adv-x="0" 
 />
    <glyph glyph-name="NULL" horiz-adv-x="0" 
 />
    <glyph glyph-name="CR" unicode="&#xd;" horiz-adv-x="278" 
 />
    <glyph glyph-name="space" unicode=" " horiz-adv-x="278" 
 />
    <glyph glyph-name="exclam" unicode="!" horiz-adv-x="302" 
d="M243 714h66l-52 -297l-55 -239h-41l30 239zM193 0h-84l17 102h84z" />
    <glyph glyph-name="quotedbl" unicode="&#x22;" horiz-adv-x="366" 
d="M163 473l42 241h63l-42 -241h-63zM306 473l42 241h63l-42 -241h-63z" />
    <glyph glyph-name="numbersign" unicode="#" horiz-adv-x="577" 
d="M372 0l31 200h-145l-31 -200h-57l31 200h-100v52h109l31 196h-101v52h109l32 200h56l-32 -200h146l32 200h56l-32 -200h101v-52h-109l-31 -196h101v-52h-109l-31 -200h-57zM297 448l-31 -196h146l31 196h-146z" />
    <glyph glyph-name="dollar" unicode="$" horiz-adv-x="635" 
d="M487 798l-16 -91q68 -14 115 -60.5t53 -115.5h-65q-8 47 -38 78t-75 39l-46 -259l32 -10q71 -22 112.5 -69.5t41.5 -117.5q0 -90 -64 -147.5t-169 -57.5q-15 0 -24 1l-15 -86h-50l15 90q-82 10 -137 60t-63 135h65q9 -60 46 -92t100 -44l52 293l-29 9q-66 22 -107 59.5
t-41 104.5q0 87 61 142t156 55q6 0 15 -0.5t10 -0.5l15 85h50zM423 323l-19 6l-50 -283q9 -1 24 -1q66 0 112 35.5t46 109.5q0 53 -27.5 84t-85.5 49zM352 409l15 -5l45 251q-11 1 -23 1q-63 0 -103.5 -36t-40.5 -100q0 -45 27.5 -70.5t79.5 -40.5z" />
    <glyph glyph-name="percent" unicode="%" horiz-adv-x="896" 
d="M268 0h-68l548 700h67zM462 563q0 -95 -49.5 -161t-134.5 -66q-61 0 -99 42.5t-38 107.5q0 94 49.5 161t134.5 67q61 0 99 -43t38 -108zM283 387q55 0 88 52t33 120q0 104 -85 104q-54 0 -87 -52.5t-33 -120.5q0 -103 84 -103zM874 214q0 -95 -49.5 -161t-134.5 -66
q-61 0 -99 42.5t-38 107.5q0 94 49.5 161t134.5 67q61 0 99 -43t38 -108zM695 38q55 0 88 52t33 120q0 104 -85 104q-54 0 -87 -52.5t-33 -120.5q0 -103 84 -103z" />
    <glyph glyph-name="ampersand" unicode="&#x26;" horiz-adv-x="683" 
d="M232 376l32 16l3 20l-11 16q-48 70 -48 130q0 67 47 111.5t121 44.5q70 0 116 -40t46 -103q0 -54 -27 -89.5t-84 -66.5l-62 -33l158 -220q51 67 76 159h65q-28 -118 -106 -208l82 -113h-80l-40 56h-22q-90 -69 -194 -69q-94 0 -151.5 51t-57.5 137q0 127 137 201zM309 45
q94 0 169 69l-169 238l-46 -24q-106 -57 -106 -153q0 -61 42.5 -95.5t109.5 -34.5zM273 557q0 -49 41 -104l18 -26l54 28q43 23 65 48.5t22 64.5q0 40 -28.5 64t-69.5 24q-47 0 -74.5 -27t-27.5 -72z" />
    <glyph glyph-name="quotesingle" unicode="'" horiz-adv-x="223" 
d="M163 473l42 241h63l-42 -241h-63z" />
    <glyph glyph-name="parenleft" unicode="(" horiz-adv-x="290" 
d="M256 -141h-62q-99 150 -99 347q0 159 66 300t181 253h74q-256 -256 -256 -553q0 -189 96 -347z" />
    <glyph glyph-name="parenright" unicode=")" horiz-adv-x="291" 
d="M144 759h62q99 -150 99 -347q0 -159 -66 -300t-181 -253h-74q256 256 256 553q0 189 -96 347z" />
    <glyph glyph-name="asterisk" unicode="*" horiz-adv-x="463" 
d="M529 545l-172 -49l82 -137l-50 -33l-73 143l-126 -142l-40 36l128 137l-151 50l21 51l152 -59l19 172h58l-27 -172l168 57z" />
    <glyph glyph-name="plus" unicode="+" horiz-adv-x="684" 
d="M364 309v225h54v-225h225v-54h-225v-225h-54v225h-225v54h225z" />
    <glyph glyph-name="comma" unicode="," horiz-adv-x="244" 
d="M123 0h-43l18 102h84l-21 -119l-64 -87h-41l64 87z" />
    <glyph glyph-name="hyphen" unicode="-" horiz-adv-x="360" 
d="M353 247h-260l10 57h260z" />
    <glyph glyph-name="period" unicode="." horiz-adv-x="244" 
d="M164 0h-84l17 102h84z" />
    <glyph glyph-name="slash" unicode="/" horiz-adv-x="391" 
d="M38 -141h-63l459 900h61z" />
    <glyph glyph-name="zero" unicode="0" horiz-adv-x="615" 
d="M116 243q0 208 82 339.5t217 131.5q95 0 151.5 -66t56.5 -190q0 -208 -82 -339.5t-217 -131.5q-95 0 -151.5 66t-56.5 190zM181 243q0 -94 39.5 -146t106.5 -52q61 0 108 38.5t72.5 102t38 132.5t12.5 140q0 94 -39.5 146t-106.5 52q-61 0 -107.5 -38.5t-72.5 -102
t-38.5 -132.5t-12.5 -140z" />
    <glyph glyph-name="one" unicode="1" horiz-adv-x="486" 
d="M60 0l10 58h167l100 570h-20l-165 -102l12 72l166 102h84l-113 -642h155l-10 -58h-386z" />
    <glyph glyph-name="two" unicode="2" horiz-adv-x="564" 
d="M524 58l-10 -58h-459l13 78q24 18 65.5 50.5t53.5 41.5q119 90 192 151q28 22 44.5 38t40 43.5t35 61t11.5 72.5q0 56 -39 88t-101 32q-140 0 -171 -142h-64q19 100 86 150t160 50q83 0 138.5 -48t55.5 -127q0 -43 -14 -81.5t-43 -74t-52.5 -58.5t-63.5 -56
q-18 -15 -144 -114l-100 -77l-3 -20h369z" />
    <glyph glyph-name="three" unicode="3" horiz-adv-x="554" 
d="M575 622l-220 -170l-3 -20q94 -3 141.5 -60t47.5 -134q0 -109 -70 -180t-185 -71q-95 0 -159 56t-64 146h65q5 -68 48.5 -106t116.5 -38q81 0 132 55t51 136q0 68 -39 105t-106 37q-39 0 -63 -6l14 84l211 166l4 20h-313l8 58h395z" />
    <glyph glyph-name="four" unicode="4" horiz-adv-x="595" 
d="M490 229h98l-10 -58h-98l-30 -171h-64l30 171h-346l13 78l385 451h105zM155 229h271l69 399h-20l-317 -379z" />
    <glyph glyph-name="five" unicode="5" horiz-adv-x="587" 
d="M598 642h-333l-54 -225h21q48 52 131 52q95 0 152.5 -57t57.5 -148q0 -130 -74 -203.5t-178 -73.5q-106 0 -167 59.5t-61 142.5h64q4 -69 48 -106.5t119 -37.5t129.5 56t54.5 160q0 69 -39.5 109.5t-112.5 40.5q-98 0 -155 -72h-69l88 361h387z" />
    <glyph glyph-name="six" unicode="6" horiz-adv-x="591" 
d="M374 452q94 0 153 -57t59 -143q0 -112 -68 -188.5t-183 -76.5q-93 0 -156 65t-63 188q0 59 9 120t31.5 125.5t55.5 114.5t86.5 82t118.5 32q80 0 132 -42.5t62 -116.5h-65q-19 101 -131 101q-85 0 -143.5 -76.5t-75.5 -188.5h20q61 61 158 61zM344 45q86 0 131.5 58.5
t45.5 140.5q0 68 -41.5 109t-114.5 41q-85 0 -132.5 -55t-47.5 -137q0 -69 40.5 -113t118.5 -44z" />
    <glyph glyph-name="seven" unicode="7" horiz-adv-x="532" 
d="M586 622l-397 -622h-69l396 622l4 20h-357l10 58h427z" />
    <glyph glyph-name="eight" unicode="8" horiz-adv-x="600" 
d="M493 367l-4 -19q86 -56 86 -150q0 -96 -72.5 -153.5t-178.5 -57.5q-97 0 -165 52t-68 138q0 133 138 190l4 19q-71 46 -71 133q0 85 67 140t167 55q88 0 151 -48.5t63 -130.5q0 -56 -31.5 -101t-85.5 -67zM227 517q0 -57 44 -90t107 -33q74 0 120.5 37.5t46.5 101.5
q0 55 -44.5 89t-106.5 34q-73 0 -120 -38.5t-47 -100.5zM156 181q0 -62 49.5 -99t121.5 -37q81 0 132 41.5t51 111.5q0 65 -49.5 101.5t-123.5 36.5q-80 0 -130.5 -42t-50.5 -113z" />
    <glyph glyph-name="nine" unicode="9" horiz-adv-x="591" 
d="M341 249q-94 0 -153 57t-59 143q0 112 68 188.5t183 76.5q93 0 156 -65t63 -188q0 -59 -9 -120t-31.5 -125.5t-55.5 -114.5t-86.5 -82t-118.5 -32q-80 0 -132 42.5t-62 116.5h65q19 -101 131 -101q85 0 143.5 76.5t75.5 188.5h-20q-61 -61 -158 -61zM371 656
q-86 0 -131.5 -58.5t-45.5 -140.5q0 -67 41 -108.5t115 -41.5q85 0 132.5 55t47.5 137q0 69 -40.5 113t-118.5 44z" />
    <glyph glyph-name="colon" unicode=":" horiz-adv-x="244" 
d="M164 0h-84l17 102h84zM226 398h-84l17 102h84z" />
    <glyph glyph-name="semicolon" unicode=";" horiz-adv-x="244" 
d="M123 0h-43l18 102h84l-21 -119l-64 -87h-41l64 87zM226 398h-84l17 102h84z" />
    <glyph glyph-name="less" unicode="&#x3c;" horiz-adv-x="684" 
d="M643 91v-57l-504 219v57l504 219v-57l-417 -181v-20z" />
    <glyph glyph-name="equal" unicode="=" horiz-adv-x="683" 
d="M642 211v-54h-503v54h503zM642 407v-54h-503v54h503z" />
    <glyph glyph-name="greater" unicode="&#x3e;" horiz-adv-x="684" 
d="M139 34v57l417 180v20l-417 181v57l504 -219v-57z" />
    <glyph glyph-name="question" unicode="?" horiz-adv-x="534" 
d="M372 727q82 0 135.5 -46t53.5 -121q0 -70 -36 -121t-110 -96q-50 -31 -72 -57t-31 -79l-5 -29h-63l5 29q11 66 40.5 102t100.5 81q56 34 82 73t26 95q0 51 -35.5 83.5t-96.5 32.5q-136 0 -161 -145h-62q35 198 229 198zM289 0h-81l17 101h81z" />
    <glyph glyph-name="at" unicode="@" horiz-adv-x="973" 
d="M735 -66l29 -48q-116 -76 -260 -76q-183 0 -290.5 110.5t-107.5 292.5q0 206 131 343.5t339 137.5q79 0 149 -23.5t124 -67t85.5 -112.5t31.5 -153q0 -123 -59.5 -211.5t-160.5 -88.5q-80 0 -103 56h-20q-56 -56 -129 -56q-75 0 -117.5 48.5t-42.5 132.5q0 103 59 174.5
t155 71.5q39 0 68.5 -15.5t40.5 -34.5h20l8 36h55l-42 -254l-3 -21q-3 -11 -3 -32q0 -24 16 -38t43 -14q62 0 107 69t45 181q0 133 -92.5 215.5t-244.5 82.5q-171 0 -284 -119t-113 -307q0 -71 20 -133t60 -111t106.5 -77.5t152.5 -28.5q118 0 227 70zM501 92q66 0 106 54
t42 141v5q0 119 -106 119q-65 0 -105.5 -58.5t-40.5 -133.5q0 -56 25 -91.5t79 -35.5z" />
    <glyph glyph-name="A" unicode="A" horiz-adv-x="666" 
d="M516 714l128 -714h-69l-40 231h-322l-120 -231h-72l374 714h121zM427 644l-183 -353h281l-60 353h-38z" />
    <glyph glyph-name="B" unicode="B" horiz-adv-x="686" 
d="M586 380l-4 -21q37 -21 58.5 -58t21.5 -81q0 -106 -74 -163t-184 -57h-310l125 714h283q81 0 137 -43t56 -120q0 -58 -30 -104.5t-79 -66.5zM275 654l-44 -250h221q80 0 128.5 33.5t48.5 108.5q0 53 -39 80.5t-95 27.5h-220zM170 60h223q89 0 146 40t57 123q0 61 -45 91
t-110 30h-221z" />
    <glyph glyph-name="C" unicode="C" horiz-adv-x="695" 
d="M623 193h70q-33 -93 -108.5 -149.5t-181.5 -56.5q-127 0 -207 82t-80 216q0 117 41 216t124.5 162.5t194.5 63.5q100 0 168 -51.5t86 -140.5h-69q-15 62 -62.5 97t-124.5 35q-73 0 -131 -35t-92 -92t-51.5 -121.5t-17.5 -130.5q0 -106 58.5 -173.5t165.5 -67.5
q80 0 135.5 39.5t81.5 106.5z" />
    <glyph glyph-name="D" unicode="D" horiz-adv-x="726" 
d="M94 0l125 714h208q142 0 224.5 -70t82.5 -217q0 -82 -22 -155t-67 -135.5t-124.5 -99.5t-184.5 -37h-242zM170 60h182q74 0 131.5 25t91.5 63.5t56 89.5t29.5 97.5t7.5 93.5q0 225 -237 225h-156z" />
    <glyph glyph-name="E" unicode="E" horiz-adv-x="639" 
d="M170 60h428l-10 -60h-494l125 714h478l-10 -60h-412l-45 -252h335l-10 -60h-335z" />
    <glyph glyph-name="F" unicode="F" horiz-adv-x="621" 
d="M690 654h-415l-46 -262h339l-11 -60h-339l-58 -332h-66l125 714h481z" />
    <glyph glyph-name="G" unicode="G" horiz-adv-x="740" 
d="M406 -13q-127 0 -208.5 82t-81.5 216q0 118 42 217t127 162t197 63q102 0 169.5 -51.5t85.5 -140.5h-70q-15 62 -63 97t-126 35q-73 0 -132 -34.5t-93.5 -91t-52.5 -121.5t-18 -132q0 -106 59.5 -173.5t167.5 -67.5q107 0 174 67.5t81 195.5h-243l12 60h306
q-3 -79 -23.5 -146t-59 -121t-102.5 -85t-148 -31z" />
    <glyph glyph-name="H" unicode="H" horiz-adv-x="746" 
d="M710 714h66l-125 -714h-66l59 338h-425l-59 -338h-66l125 714h66l-55 -314h425z" />
    <glyph glyph-name="I" unicode="I" horiz-adv-x="269" 
d="M226 714h66l-125 -714h-66z" />
    <glyph glyph-name="J" unicode="J" horiz-adv-x="570" 
d="M275 -13q-87 0 -143.5 49t-56.5 136q0 12 2 38h66q-2 -24 -2 -28q0 -66 35 -100.5t99 -34.5q144 0 177 184l85 483h66l-88 -499q-19 -107 -79.5 -167.5t-160.5 -60.5z" />
    <glyph glyph-name="K" unicode="K" horiz-adv-x="695" 
d="M94 0l125 714h66l-66 -374l455 374h85l-265 -225l165 -489h-70l-147 432h-20l-218 -178l-44 -254h-66z" />
    <glyph glyph-name="L" unicode="L" horiz-adv-x="604" 
d="M170 62h404l-10 -62h-470l125 714h66z" />
    <glyph glyph-name="M" unicode="M" horiz-adv-x="842" 
d="M94 0l125 714h111l142 -354h19l262 354h119l-125 -714h-66l113 644h-20l-268 -359h-69l-144 359h-20l-113 -644h-66z" />
    <glyph glyph-name="N" unicode="N" horiz-adv-x="749" 
d="M713 714h66l-125 -714h-117l-244 644h-20l-113 -644h-66l125 714h117l245 -644h19z" />
    <glyph glyph-name="O" unicode="O" horiz-adv-x="758" 
d="M478 727q127 0 207.5 -82t80.5 -216q0 -115 -40.5 -214t-124.5 -163.5t-197 -64.5q-127 0 -207.5 82t-80.5 216q0 115 40.5 214t124.5 163.5t197 64.5zM407 47q60 0 110 24t83 62.5t56.5 88.5t33.5 101.5t10 102.5q0 105 -59 173t-166 68q-74 0 -132.5 -35.5t-92 -93
t-51 -121.5t-17.5 -129q0 -105 59 -173t166 -68z" />
    <glyph glyph-name="P" unicode="P" horiz-adv-x="661" 
d="M219 714h286q87 0 144.5 -49t57.5 -135q0 -115 -75.5 -173.5t-194.5 -58.5h-225l-52 -298h-66zM494 654h-219l-52 -296h226q86 0 139 43t53 128q0 61 -41.5 93t-105.5 32z" />
    <glyph glyph-name="Q" unicode="Q" horiz-adv-x="758" 
d="M478 727q127 0 207.5 -82t80.5 -216q0 -105 -37 -201t-104 -157l61 -134h-65l-44 97q-74 -47 -173 -47q-127 0 -207.5 82t-80.5 216q0 115 40.5 214t124.5 163.5t197 64.5zM407 47q82 0 144 43l-98 219h65l80 -178q50 56 76 135.5t26 159.5q0 105 -59 173t-166 68
q-74 0 -132.5 -35.5t-92 -93t-51 -121.5t-17.5 -129q0 -105 59 -173t166 -68z" />
    <glyph glyph-name="R" unicode="R" horiz-adv-x="687" 
d="M214 311l-54 -311h-66l125 714h304q84 0 140 -48t56 -131q0 -153 -141 -205l59 -330h-66l-57 315q-25 -4 -56 -4h-244zM513 654h-238l-50 -283h245q83 0 133.5 41t50.5 122q0 59 -39.5 89.5t-101.5 30.5z" />
    <glyph glyph-name="S" unicode="S" horiz-adv-x="646" 
d="M342 415l129 -32q162 -42 162 -185q0 -98 -78 -154.5t-192 -56.5q-115 0 -192.5 50.5t-88.5 153.5h69q22 -144 215 -144q81 0 141 36.5t60 110.5q0 100 -117 130l-135 34q-158 40 -158 167q0 96 69 149t180 53q100 0 170 -50t80 -136h-67q-28 126 -187 126
q-45 0 -83.5 -12t-67 -44t-28.5 -80q0 -88 119 -116z" />
    <glyph glyph-name="T" unicode="T" horiz-adv-x="578" 
d="M684 714l-10 -60h-237l-115 -654h-66l115 654h-237l10 60h540z" />
    <glyph glyph-name="U" unicode="U" horiz-adv-x="726" 
d="M693 714h66l-82 -465q-22 -126 -97.5 -194t-202.5 -68q-110 0 -178 58t-68 151q0 26 7 70l79 448h66l-79 -449q-7 -44 -7 -66q0 -72 48 -112t135 -40q103 0 159 55.5t75 163.5z" />
    <glyph glyph-name="V" unicode="V" horiz-adv-x="646" 
d="M251 0l-106 714h68l94 -644h51l319 644h72l-356 -714h-142z" />
    <glyph glyph-name="W" unicode="W" horiz-adv-x="848" 
d="M455 458h95l79 -388h19l195 644h65l-216 -714h-111l-78 391h-19l-215 -391h-116l34 714h65l-31 -644h19z" />
    <glyph glyph-name="X" unicode="X" horiz-adv-x="621" 
d="M524 0l-130 337h-38l-253 -337h-80l284 378l-127 336h69l112 -294h38l216 294h78l-246 -332l149 -382h-72z" />
    <glyph glyph-name="Y" unicode="Y" horiz-adv-x="620" 
d="M357 373h28l263 341h74l-331 -434l-49 -280h-66l49 280l-180 434h69z" />
    <glyph glyph-name="Z" unicode="Z" horiz-adv-x="629" 
d="M689 714l-14 -80l-527 -554l-4 -20h444l-10 -60h-528l14 81l528 553l4 20h-405l10 60h488z" />
    <glyph glyph-name="bracketleft" unicode="[" horiz-adv-x="298" 
d="M216 -141h-161l158 900h161l-9 -54h-98l-140 -792h98z" />
    <glyph glyph-name="backslash" unicode="\" horiz-adv-x="393" 
d="M368 -141h-64l-141 900h61z" />
    <glyph glyph-name="bracketright" unicode="]" horiz-adv-x="298" 
d="M193 -141h-161l9 54h98l140 792h-98l9 54h161z" />
    <glyph glyph-name="asciicircum" unicode="^" horiz-adv-x="530" 
d="M158 302h-61l263 389h52l127 -389h-55l-101 312h-16z" />
    <glyph glyph-name="underscore" unicode="_" horiz-adv-x="501" 
d="M480 -125h-503l10 54h503z" />
    <glyph glyph-name="grave" unicode="`" horiz-adv-x="234" 
d="M247 582l-79 145h78l57 -145h-56z" />
    <glyph glyph-name="a" unicode="a" horiz-adv-x="547" 
d="M405 0l9 55h-20q-63 -68 -157 -68q-78 0 -121.5 43t-43.5 106q0 80 54 128t147 48h185l3 16q5 18 5 43q0 39 -29.5 62.5t-90.5 23.5q-62 0 -99.5 -23t-44.5 -63h-63q13 68 70 105t143 37q81 0 128.5 -38t47.5 -101q0 -33 -5 -51l-57 -323h-61zM250 43q71 0 125 49.5
t66 121.5l8 45h-163q-67 0 -108.5 -30.5t-41.5 -88.5q0 -45 30 -71t84 -26z" />
    <glyph glyph-name="b" unicode="b" horiz-adv-x="601" 
d="M593 294q0 -55 -16 -108t-46.5 -98t-81 -73t-113.5 -28q-113 0 -158 79h-20l-12 -66h-61l128 727h63l-50 -282h20q22 30 62.5 49t86.5 19q94 0 146 -62.5t52 -156.5zM392 457q-94 0 -147 -77.5t-53 -170.5q0 -78 37 -122t107 -44q77 0 135.5 67t58.5 183q0 72 -35.5 118
t-102.5 46z" />
    <glyph glyph-name="c" unicode="c" horiz-adv-x="529" 
d="M454 143h65q-20 -73 -77 -114.5t-139 -41.5q-88 0 -147.5 59t-59.5 155q0 129 69.5 220.5t186.5 91.5q78 0 129.5 -43t61.5 -109h-64q-9 44 -42.5 70t-86.5 26q-87 0 -139 -76t-52 -177q0 -75 40.5 -118t108.5 -43q54 0 93 27t53 73z" />
    <glyph glyph-name="d" unicode="d" horiz-adv-x="601" 
d="M96 206q0 55 16 108t46.5 98t81 73t113.5 28q111 0 156 -79h20l52 293h63l-128 -727h-61l10 55h-20q-22 -30 -63.5 -49t-87.5 -19q-94 0 -146 62.5t-52 156.5zM297 43q94 0 147 77.5t53 170.5q0 78 -37 122t-107 44q-77 0 -135.5 -67t-58.5 -183q0 -72 35.5 -118
t102.5 -46z" />
    <glyph glyph-name="e" unicode="e" horiz-adv-x="550" 
d="M453 132h64q-21 -67 -76 -106t-134 -39q-89 0 -150 60t-61 157q0 134 70 221.5t192 87.5q94 0 143.5 -63t49.5 -156q0 -21 -1 -33h-387q-4 -25 -4 -54q0 -74 42.5 -119t114.5 -45q100 0 137 89zM354 457q-66 0 -111.5 -38t-66.5 -102h311q-4 64 -36.5 102t-96.5 38z" />
    <glyph glyph-name="f" unicode="f" horiz-adv-x="350" 
d="M397 444h-138l-78 -444h-62l78 444h-91l10 56h91l12 70q28 157 186 157h42l-10 -56h-41q-96 0 -115 -101l-12 -70h138z" />
    <glyph glyph-name="g" unicode="g" horiz-adv-x="598" 
d="M96 212q0 73 28.5 140t90 114t143.5 47q95 0 151 -82h20l12 69h61l-82 -466q-19 -115 -88.5 -177.5t-170.5 -62.5q-83 0 -139 39.5t-60 107.5h61q11 -91 147 -91q151 0 187 184l7 35h-19q-22 -30 -64.5 -49.5t-87.5 -19.5q-94 0 -145.5 60t-51.5 152zM299 56
q64 0 111 38.5t67.5 91t20.5 109.5q0 75 -38 118.5t-106 43.5q-77 0 -136 -66.5t-59 -179.5q0 -70 36 -112.5t104 -42.5z" />
    <glyph glyph-name="h" unicode="h" 
d="M509 0h-63l52 295q6 34 6 56q0 106 -116 106q-73 0 -125 -53t-67 -134l-48 -270h-63l129 727h63l-50 -282h17q54 68 159 68q78 0 121 -41.5t43 -114.5q0 -21 -6 -61z" />
    <glyph glyph-name="i" unicode="i" horiz-adv-x="236" 
d="M236 500l-88 -500h-63l88 500h63zM265 648h-69l14 79h69z" />
    <glyph glyph-name="j" unicode="j" horiz-adv-x="245" 
d="M-24 -200h-62l10 56h46q53 0 80.5 25.5t37.5 80.5l95 538h63l-97 -546q-29 -154 -173 -154zM274 648h-69l14 79h69z" />
    <glyph glyph-name="k" unicode="k" horiz-adv-x="527" 
d="M514 0h-65l-100 287h-20l-156 -142l-25 -145h-63l128 727h63l-88 -497l298 270h80l-170 -154z" />
    <glyph glyph-name="l" unicode="l" horiz-adv-x="233" 
d="M276 727l-128 -727h-63l128 727h63z" />
    <glyph glyph-name="m" unicode="m" horiz-adv-x="823" 
d="M666 513q67 0 102.5 -37t35.5 -99q0 -30 -5 -59l-56 -318h-63l55 314q6 34 6 61q0 82 -87 82q-64 0 -103.5 -43t-52.5 -112l-53 -302h-63l57 327q5 25 5 48q0 82 -85 82q-65 0 -106.5 -50.5t-52.5 -117.5l-52 -289h-63l88 500h61l-8 -50h19q45 63 129 63q90 0 119 -68h20
q60 68 153 68z" />
    <glyph glyph-name="n" unicode="n" 
d="M509 0h-63l52 295q6 34 6 56q0 106 -116 106q-73 0 -125 -53t-67 -134l-48 -270h-63l89 500h61l-10 -55h18q60 68 160 68q78 0 121 -41.5t43 -114.5q0 -21 -6 -61z" />
    <glyph glyph-name="o" unicode="o" horiz-adv-x="594" 
d="M364 513q96 0 159 -58.5t63 -159.5q0 -133 -72 -220.5t-196 -87.5q-96 0 -159 58.5t-63 159.5q0 133 72 220.5t196 87.5zM322 43q94 0 147.5 73.5t53.5 176.5q0 74 -45 119t-118 45q-94 0 -147.5 -73.5t-53.5 -176.5q0 -75 44.5 -119.5t118.5 -44.5z" />
    <glyph glyph-name="p" unicode="p" horiz-adv-x="601" 
d="M593 294q0 -55 -16 -108t-46.5 -98t-81 -73t-113.5 -28q-111 0 -156 79h-20l-47 -266h-63l123 700h61l-10 -55h20q22 30 63.5 49t87.5 19q94 0 146 -62.5t52 -156.5zM392 457q-94 0 -147 -77.5t-53 -170.5q0 -78 37 -122t107 -44q77 0 135.5 67t58.5 183q0 72 -35.5 118
t-102.5 46z" />
    <glyph glyph-name="q" unicode="q" horiz-adv-x="600" 
d="M96 206q0 55 16 108t46.5 98t81 73t113.5 28q113 0 158 -79h20l12 66h61l-123 -700h-63l45 255h-20q-22 -30 -62.5 -49t-86.5 -19q-94 0 -146 62.5t-52 156.5zM297 43q94 0 147 77.5t53 170.5q0 78 -37 122t-107 44q-77 0 -135.5 -67t-58.5 -183q0 -72 35.5 -118
t102.5 -46z" />
    <glyph glyph-name="r" unicode="r" horiz-adv-x="372" 
d="M433 500l-11 -58h-37q-72 0 -123.5 -45.5t-65.5 -125.5l-48 -271h-63l89 500h61l-11 -61h19q61 61 157 61h33z" />
    <glyph glyph-name="s" unicode="s" horiz-adv-x="502" 
d="M304 457q-52 0 -88 -22t-36 -66q0 -29 19 -42t63 -27l94 -26q125 -35 125 -131q0 -68 -56.5 -112t-146.5 -44q-87 0 -147 37t-66 115h62q3 -43 45 -69.5t110 -26.5q57 0 96.5 25.5t39.5 71.5q0 54 -84 78l-93 26q-61 17 -92.5 46t-31.5 78q0 70 54 107.5t137 37.5
q78 0 132 -36.5t60 -102.5h-62q-5 38 -40 60.5t-94 22.5z" />
    <glyph glyph-name="t" unicode="t" horiz-adv-x="370" 
d="M270 500h130l-10 -56h-130l-54 -304q-4 -15 -4 -38q0 -46 70 -46h49l-9 -56h-35q-70 0 -104 22.5t-34 73.5q0 22 6 52l52 296h-91l10 56h91l27 155h63z" />
    <glyph glyph-name="u" unicode="u" 
d="M166 500h63l-52 -295q-6 -34 -6 -56q0 -106 116 -106q73 0 125 53t67 134l48 270h63l-89 -500h-61l10 55h-18q-60 -68 -160 -68q-78 0 -121 41.5t-43 114.5q0 21 6 61z" />
    <glyph glyph-name="v" unicode="v" horiz-adv-x="517" 
d="M196 0l-84 500h63l74 -438h38l225 438h70l-263 -500h-123z" />
    <glyph glyph-name="w" unicode="w" horiz-adv-x="661" 
d="M341 325h92l45 -263h19l138 438h61l-157 -500h-104l-47 265h-20l-140 -265h-110l19 500h60l-17 -438h20z" />
    <glyph glyph-name="x" unicode="x" horiz-adv-x="524" 
d="M417 0l-95 221h-34l-176 -221h-74l205 256l-100 244h63l86 -209h34l162 209h71l-187 -241l113 -259h-68z" />
    <glyph glyph-name="y" unicode="y" horiz-adv-x="513" 
d="M159 -200h-67l148 248l-128 452h63l99 -353h27l209 353h68z" />
    <glyph glyph-name="z" unicode="z" horiz-adv-x="507" 
d="M448 0h-398l13 76l375 349l4 19h-297l10 56h381l-14 -75l-375 -349l-4 -20h314z" />
    <glyph glyph-name="braceleft" unicode="{" horiz-adv-x="375" 
d="M219 319l-4 -20q36 -13 36 -63q0 -24 -6 -46l-30 -174q-4 -17 -4 -42q0 -61 75 -61h33l-9 -54h-33q-129 0 -129 109q0 28 5 48l29 169q5 32 5 47q0 50 -48 50h-10l10 54h10q36 0 52 23t25 74l31 177q26 149 166 149h45l-9 -54h-36q-86 0 -103 -96l-34 -192
q-15 -81 -67 -98z" />
    <glyph glyph-name="bar" unicode="|" horiz-adv-x="243" 
d="M65 -141l158 900h63l-158 -900h-63z" />
    <glyph glyph-name="braceright" unicode="}" horiz-adv-x="375" 
d="M265 299l4 20q-36 13 -36 63q0 24 6 46l30 174q4 17 4 42q0 61 -75 61h-33l9 54h33q59 0 94 -27t35 -82q0 -28 -5 -48l-29 -169q-5 -32 -5 -47q0 -50 48 -50h10l-10 -54h-10q-36 0 -52 -23t-25 -74l-31 -177q-26 -149 -166 -149h-45l9 54h36q86 0 103 96l34 192
q15 81 67 98z" />
    <glyph glyph-name="asciitilde" unicode="~" horiz-adv-x="669" 
d="M574 333h54q0 -136 -123 -136q-34 0 -70 18.5t-61.5 40t-57.5 40t-59 18.5q-64 0 -64 -85h-54q0 136 123 136q35 0 71 -18.5t61.5 -40t57.5 -40t58 -18.5q64 0 64 85z" />
    <glyph glyph-name="uni00A0" unicode="&#xa0;" horiz-adv-x="278" 
 />
    <glyph glyph-name="exclamdown" unicode="&#xa1;" horiz-adv-x="302" 
d="M140 -200h-66l50 283l54 239h41l-29 -239zM253 398h-84l17 102h84z" />
    <glyph glyph-name="cent" unicode="&#xa2;" horiz-adv-x="530" 
d="M454 143h65q-21 -73 -77.5 -114.5t-140.5 -41.5l-12 -67h-51l13 73q-69 16 -112 71t-43 137q0 127 67 217t180 94l12 68h51l-13 -71q62 -11 102 -51t49 -97h-64q-9 37 -33.5 61.5t-63.5 31.5l-72 -411q53 0 90 27t53 73zM159 204q0 -62 27 -102.5t75 -52.5l72 407
q-80 -6 -127 -81t-47 -171z" />
    <glyph glyph-name="sterling" unicode="&#xa3;" horiz-adv-x="622" 
d="M207 58h385l-10 -58h-517l10 58h21q70 0 87 94l25 138h-92l10 58h92l28 160q36 206 219 206q78 0 127 -40t49 -113q0 -19 -3 -42h-64q3 18 3 35q0 47 -29 74.5t-85 27.5q-69 0 -103.5 -39.5t-48.5 -109.5l-28 -159h212l-10 -58h-212l-23 -129q-5 -22 -7.5 -31.5t-11 -25
t-21.5 -26.5z" />
    <glyph glyph-name="currency" unicode="&#xa4;" horiz-adv-x="725" 
d="M643 10l-68 67q-73 -58 -163 -58q-92 0 -164 58l-68 -67l-41 41l67 68q-58 72 -58 164q0 91 58 163l-67 68l41 41l68 -67q73 57 164 57q90 0 163 -57l68 67l41 -41l-67 -68q57 -73 57 -163q0 -91 -57 -164l67 -68zM412 73q84 0 141.5 60.5t57.5 149.5q0 88 -57.5 148
t-141.5 60t-142.5 -60t-58.5 -148q0 -89 58.5 -149.5t142.5 -60.5z" />
    <glyph glyph-name="yen" unicode="&#xa5;" horiz-adv-x="591" 
d="M168 296l9 52h99l-129 352h66l128 -352h28l252 352h72l-255 -352h101l-9 -52h-130l-27 -38l-7 -40h150l-9 -52h-150l-29 -166h-64l29 166h-148l9 52h148l7 40l-14 38h-127z" />
    <glyph glyph-name="brokenbar" unicode="&#xa6;" horiz-adv-x="243" 
d="M163 417l60 342h63l-60 -342h-63zM65 -141l60 342h63l-60 -342h-63z" />
    <glyph glyph-name="section" unicode="&#xa7;" horiz-adv-x="584" 
d="M91 21h64q0 -2 -0.5 -6.5t-0.5 -6.5q0 -54 35.5 -89t99.5 -35q63 0 100.5 31.5t37.5 82.5q0 34 -16.5 54t-53.5 35l-124 49q-120 48 -120 142q0 63 33.5 99t74.5 51l4 20q-36 32 -36 94q0 75 56 123.5t146 48.5q87 0 141 -48.5t54 -128.5q0 -10 -1 -18h-64q1 8 1 16
q0 55 -35.5 88t-99.5 33t-98.5 -31t-34.5 -83q0 -61 70 -89l124 -49q120 -48 120 -141q0 -63 -35 -101t-74 -49l-3 -20q36 -35 36 -95q0 -76 -58.5 -124t-148.5 -48q-88 0 -141.5 48t-53.5 128q0 3 0.5 9.5t0.5 9.5zM422 351l-148 58q-96 -43 -96 -126q0 -34 20 -55t61 -38
l147 -59q14 5 28 14t31 23.5t27.5 38t10.5 50.5q0 34 -20 55.5t-61 38.5z" />
    <glyph glyph-name="dieresis" unicode="&#xa8;" horiz-adv-x="318" 
d="M223 648h-69l14 79h69zM399 648h-69l14 79h69z" />
    <glyph glyph-name="copyright" unicode="&#xa9;" horiz-adv-x="863" 
d="M495 727q153 0 260 -108.5t107 -261.5t-107 -261.5t-260 -108.5t-260 108.5t-107 261.5t107 261.5t260 108.5zM495 43q129 0 219 91.5t90 222.5q0 132 -90 224t-219 92t-219 -92t-90 -224q0 -131 90 -222.5t219 -91.5zM610 295h53q-9 -59 -51 -97.5t-106 -38.5
q-83 0 -131 56t-48 141q0 87 48 142.5t131 55.5q62 0 103.5 -35t49.5 -92h-53q-18 81 -100 81q-63 0 -94.5 -43.5t-31.5 -108.5t31.5 -107t94.5 -42q85 0 104 88z" />
    <glyph glyph-name="ordfeminine" unicode="&#xaa;" horiz-adv-x="425" 
d="M377 333v44h-5q-44 -51 -124 -51q-65 0 -101.5 36t-36.5 87q0 52 34.5 87.5t107.5 35.5h123v21q0 35 -23 56.5t-70 21.5q-41 0 -64.5 -17.5t-25.5 -46.5h-57q4 53 44 83.5t102 30.5q69 0 109 -33.5t40 -93.5v-261h-53zM254 375q49 0 85 32.5t36 77.5v40h-111
q-47 0 -73 -20t-26 -54q0 -36 25 -56t64 -20z" />
    <glyph glyph-name="guillemotleft" unicode="&#xab;" horiz-adv-x="526" 
d="M169 289l-4 -20l128 -165h-68l-120 149l10 59l169 148h74zM360 289l-4 -20l128 -165h-68l-120 149l10 59l169 148h74z" />
    <glyph glyph-name="logicalnot" unicode="&#xac;" horiz-adv-x="683" 
d="M569 111v214h-450v53h503v-267h-53z" />
    <glyph glyph-name="uni00AD" unicode="&#xad;" horiz-adv-x="360" 
d="M353 247h-260l10 57h260z" />
    <glyph glyph-name="registered" unicode="&#xae;" horiz-adv-x="863" 
d="M495 727q153 0 260 -108.5t107 -261.5t-107 -261.5t-260 -108.5t-260 108.5t-107 261.5t107 261.5t260 108.5zM495 43q129 0 219 91.5t90 222.5q0 132 -90 224t-219 92t-219 -92t-90 -224q0 -131 90 -222.5t219 -91.5zM359 547h170q60 0 92 -29t32 -81q0 -71 -57 -97
l61 -174h-54l-57 161h-135v-161h-52v381zM411 373h111q79 0 79 64q0 63 -79 63h-111v-127z" />
    <glyph glyph-name="overscore" unicode="&#xaf;" horiz-adv-x="347" 
d="M428 648h-274l9 54h274z" />
    <glyph glyph-name="degree" unicode="&#xb0;" horiz-adv-x="475" 
d="M131 523q0 85 56.5 141.5t140.5 56.5q85 0 141.5 -56.5t56.5 -141.5q0 -84 -56.5 -140.5t-141.5 -56.5q-84 0 -140.5 56.5t-56.5 140.5zM186 523q0 -64 40 -107.5t102 -43.5q63 0 103 43.5t40 107.5t-40 108t-103 44q-62 0 -102 -44t-40 -108z" />
    <glyph glyph-name="plusminus" unicode="&#xb1;" horiz-adv-x="684" 
d="M119 0v54h504v-54h-504zM344 354v180h54v-180h225v-54h-225v-180h-54v180h-224v54h224z" />
    <glyph glyph-name="twosuperior" unicode="&#xb2;" horiz-adv-x="352" 
d="M381 382l-10 -49h-272l12 62l169 118q70 47 70 99q0 26 -18.5 43t-49.5 17q-72 0 -87 -77h-55q12 63 50.5 94.5t95.5 31.5q51 0 85 -29t34 -75q0 -34 -17.5 -64t-35.5 -45.5t-46 -34.5l-112 -78l-3 -13h190z" />
    <glyph glyph-name="threesuperior" unicode="&#xb3;" horiz-adv-x="367" 
d="M413 659l-101 -74l-2 -12q43 -8 64.5 -38.5t21.5 -67.5q0 -64 -39.5 -102.5t-108.5 -38.5q-57 0 -95.5 34.5t-38.5 89.5h54q2 -35 24.5 -55t58.5 -20q42 0 66 26t24 65q0 30 -19.5 48t-52.5 18q-24 0 -39 -4l10 58l86 64l3 15h-156l8 49h241z" />
    <glyph glyph-name="acute" unicode="&#xb4;" horiz-adv-x="234" 
d="M331 727l-131 -145h-60l109 145h82z" />
    <glyph glyph-name="mu" unicode="&#xb5;" horiz-adv-x="601" 
d="M126 500h63v-307q0 -150 139 -150q72 0 118.5 54t46.5 129v274h63v-500h-61v56h-20q-21 -30 -63.5 -49.5t-92.5 -19.5q-80 0 -130 41v-228h-63v700z" />
    <glyph glyph-name="paragraph" unicode="&#xb6;" horiz-adv-x="639" 
d="M399 714h315l-8 -50h-79l-149 -841h-59l149 841h-120l-149 -841h-59l87 491q-91 0 -144.5 42.5t-53.5 126.5q0 112 76.5 171.5t193.5 59.5z" />
    <glyph glyph-name="middot" unicode="&#xb7;" horiz-adv-x="244" 
d="M211 264h-84l17 102h84z" />
    <glyph glyph-name="cedilla" unicode="&#xb8;" horiz-adv-x="241" 
d="M102 28h41l-49 -86h13q14 8 28 8q24 0 39 -18t15 -48q0 -39 -26.5 -64t-68.5 -25q-35 0 -56.5 18t-22.5 46h47q7 -23 35 -23q19 0 31 12.5t12 32.5q0 14 -9.5 23t-24.5 9q-19 0 -30 -11h-47z" />
    <glyph glyph-name="onesuperior" unicode="&#xb9;" horiz-adv-x="329" 
d="M263 382h97l-8 -49h-249l8 49h97l47 264h-16l-89 -47l10 57l108 58h54z" />
    <glyph glyph-name="ordmasculine" unicode="&#xba;" horiz-adv-x="442" 
d="M291 721q84 0 132.5 -56t48.5 -141t-48.5 -141.5t-132.5 -56.5t-132.5 56.5t-48.5 141.5t48.5 141t132.5 56zM291 375q60 0 93 44t33 105t-33 104t-93 43t-93 -43t-33 -104t33 -105t93 -44z" />
    <glyph glyph-name="guillemotright" unicode="&#xbb;" horiz-adv-x="526" 
d="M455 275l4 20l-128 165h68l120 -149l-10 -59l-169 -148h-74zM264 275l4 20l-128 165h68l120 -149l-10 -59l-169 -148h-74z" />
    <glyph glyph-name="onequarter" unicode="&#xbc;" horiz-adv-x="891" 
d="M285 0h-62l547 700h61zM820 139h55l-9 -49h-55l-15 -90h-55l15 90h-196l9 53l217 238h77zM640 139h125l29 168h-15l-136 -153zM263 382h97l-8 -49h-249l8 49h97l47 264h-16l-89 -47l10 57l108 58h54z" />
    <glyph glyph-name="onehalf" unicode="&#xbd;" horiz-adv-x="909" 
d="M286 0h-62l547 700h61zM263 382h97l-8 -49h-249l8 49h97l47 264h-16l-89 -47l10 57l108 58h54zM879 49l-10 -49h-272l12 62l169 118q19 13 31.5 23.5t25.5 31.5t13 44q0 26 -18.5 43t-49.5 17q-72 0 -87 -77h-55q12 63 50.5 94.5t95.5 31.5q51 0 85 -29t34 -75
q0 -34 -17.5 -64t-35.5 -45.5t-46 -34.5l-112 -78l-3 -13h190z" />
    <glyph glyph-name="threequarters" unicode="&#xbe;" horiz-adv-x="905" 
d="M299 0h-62l547 700h61zM834 139h55l-9 -49h-55l-15 -90h-55l15 90h-196l9 53l217 238h77zM654 139h125l29 168h-15l-136 -153zM413 659l-101 -74l-2 -12q43 -8 64.5 -38.5t21.5 -67.5q0 -64 -39.5 -102.5t-108.5 -38.5q-57 0 -95.5 34.5t-38.5 89.5h54q2 -35 24.5 -55
t58.5 -20q42 0 66 26t24 65q0 30 -19.5 48t-52.5 18q-24 0 -39 -4l10 58l86 64l3 15h-156l8 49h241z" />
    <glyph glyph-name="questiondown" unicode="&#xbf;" horiz-adv-x="521" 
d="M245 -206q-81 0 -136.5 48t-55.5 122q0 72 35 121.5t111 92.5q56 34 70 50q22 26 31 76l3 18h63l-3 -18q-11 -67 -39 -100.5t-100 -74.5q-56 -32 -82 -70t-26 -94q0 -51 36.5 -84.5t98.5 -33.5q133 0 158 145h62q-35 -198 -226 -198zM323 500h81l-17 -101h-81z" />
    <glyph glyph-name="Agrave" unicode="&#xc0;" horiz-adv-x="666" 
d="M516 714l128 -714h-69l-40 231h-322l-120 -231h-72l374 714h121zM427 644l-183 -353h281l-60 353h-38zM431 767l-83 129h78l61 -129h-56z" />
    <glyph glyph-name="Aacute" unicode="&#xc1;" horiz-adv-x="666" 
d="M516 714l128 -714h-69l-40 231h-322l-120 -231h-72l374 714h121zM427 644l-183 -353h281l-60 353h-38zM618 896l-127 -129h-60l105 129h82z" />
    <glyph glyph-name="Acircumflex" unicode="&#xc2;" horiz-adv-x="666" 
d="M516 714l128 -714h-69l-40 231h-322l-120 -231h-72l374 714h121zM427 644l-183 -353h281l-60 353h-38zM322 767l127 129h70l83 -129h-61l-51 79h-20l-79 -79h-69z" />
    <glyph glyph-name="Atilde" unicode="&#xc3;" horiz-adv-x="667" 
d="M516 714l128 -714h-69l-40 231h-322l-120 -231h-72l374 714h121zM427 644l-183 -353h281l-60 353h-38zM597 896h48q-22 -129 -109 -129q-22 0 -43 12.5t-34.5 27.5t-29.5 27.5t-29 12.5q-41 0 -55 -80h-48q22 129 109 129q22 0 43 -12.5t34.5 -27.5t29.5 -27.5t29 -12.5
q41 0 55 80z" />
    <glyph glyph-name="Adieresis" unicode="&#xc4;" horiz-adv-x="666" 
d="M516 714l128 -714h-69l-40 231h-322l-120 -231h-72l374 714h121zM427 644l-183 -353h281l-60 353h-38zM417 817h-69l13 79h69zM593 817h-69l13 79h69z" />
    <glyph glyph-name="Aring" unicode="&#xc5;" horiz-adv-x="666" 
d="M467 897q43 0 74 -30.5t31 -74.5q0 -61 -54 -93l126 -699h-69l-40 231h-322l-120 -231h-72l374 714q-34 31 -34 78q0 43 31 74t75 31zM427 644l-183 -353h281l-60 353h-38zM467 732q26 0 43 17t17 43t-17 43t-43 17t-43 -17t-17 -43t17 -43t43 -17z" />
    <glyph glyph-name="AE" unicode="&#xc6;" horiz-adv-x="978" 
d="M511 714h525l-10 -60h-362l-45 -252h286l-10 -60h-286l-50 -282h379l-10 -60h-445l40 231h-276l-160 -231h-77zM540 654l-252 -363h246l63 363h-57z" />
    <glyph glyph-name="Ccedilla" unicode="&#xc7;" horiz-adv-x="695" 
d="M623 193h70q-33 -93 -108.5 -149.5t-181.5 -56.5q-9 0 -31 2l-26 -47h13q14 8 28 8q24 0 39 -18t15 -48q0 -39 -26.5 -64t-68.5 -25q-35 0 -56.5 18t-22.5 46h47q7 -23 35 -23q19 0 31 12.5t12 32.5q0 14 -9.5 23t-24.5 9q-19 0 -30 -11h-47l53 92q-99 20 -158.5 98
t-59.5 193q0 117 41 216t124.5 162.5t194.5 63.5q100 0 168 -51.5t86 -140.5h-69q-15 62 -62.5 97t-124.5 35q-73 0 -131 -35t-92 -92t-51.5 -121.5t-17.5 -130.5q0 -106 58.5 -173.5t165.5 -67.5q80 0 135.5 39.5t81.5 106.5z" />
    <glyph glyph-name="Egrave" unicode="&#xc8;" horiz-adv-x="639" 
d="M170 60h428l-10 -60h-494l125 714h478l-10 -60h-412l-45 -252h335l-10 -60h-335zM466 767l-83 129h78l61 -129h-56z" />
    <glyph glyph-name="Eacute" unicode="&#xc9;" horiz-adv-x="639" 
d="M170 60h428l-10 -60h-494l125 714h478l-10 -60h-412l-45 -252h335l-10 -60h-335zM593 896l-127 -129h-60l105 129h82z" />
    <glyph glyph-name="Ecircumflex" unicode="&#xca;" horiz-adv-x="639" 
d="M170 60h428l-10 -60h-494l125 714h478l-10 -60h-412l-45 -252h335l-10 -60h-335zM329 767l127 129h70l83 -129h-61l-51 79h-20l-79 -79h-69z" />
    <glyph glyph-name="Edieresis" unicode="&#xcb;" horiz-adv-x="639" 
d="M170 60h428l-10 -60h-494l125 714h478l-10 -60h-412l-45 -252h335l-10 -60h-335zM420 817h-69l13 79h69zM596 817h-69l13 79h69z" />
    <glyph glyph-name="Igrave" unicode="&#xcc;" horiz-adv-x="269" 
d="M226 714h66l-125 -714h-66zM241 767l-83 129h78l61 -129h-56z" />
    <glyph glyph-name="Iacute" unicode="&#xcd;" horiz-adv-x="269" 
d="M226 714h66l-125 -714h-66zM427 896l-127 -129h-60l105 129h82z" />
    <glyph glyph-name="Icircumflex" unicode="&#xce;" horiz-adv-x="269" 
d="M226 714h66l-125 -714h-66zM124 767l127 129h70l83 -129h-61l-51 79h-20l-79 -79h-69z" />
    <glyph glyph-name="Idieresis" unicode="&#xcf;" horiz-adv-x="269" 
d="M226 714h66l-125 -714h-66zM220 817h-69l13 79h69zM396 817h-69l13 79h69z" />
    <glyph glyph-name="Eth" unicode="&#xd0;" horiz-adv-x="750" 
d="M80 344l10 56h98l55 314h208q142 0 224.5 -70t82.5 -217q0 -82 -22 -155t-67 -135.5t-124.5 -99.5t-184.5 -37h-242l60 344h-98zM194 60h182q74 0 131.5 25t91.5 63.5t56 89.5t29.5 97.5t7.5 93.5q0 225 -237 225h-156l-45 -254h228l-10 -56h-228z" />
    <glyph glyph-name="Ntilde" unicode="&#xd1;" horiz-adv-x="749" 
d="M713 714h66l-125 -714h-117l-244 644h-20l-113 -644h-66l125 714h117l245 -644h19zM651 896h48q-22 -129 -109 -129q-22 0 -43 12.5t-34.5 27.5t-29.5 27.5t-29 12.5q-41 0 -55 -80h-48q22 129 109 129q22 0 43 -12.5t34.5 -27.5t29.5 -27.5t29 -12.5q41 0 55 80z" />
    <glyph glyph-name="Ograve" unicode="&#xd2;" horiz-adv-x="758" 
d="M478 727q127 0 207.5 -82t80.5 -216q0 -115 -40.5 -214t-124.5 -163.5t-197 -64.5q-127 0 -207.5 82t-80.5 216q0 115 40.5 214t124.5 163.5t197 64.5zM407 47q60 0 110 24t83 62.5t56.5 88.5t33.5 101.5t10 102.5q0 105 -59 173t-166 68q-74 0 -132.5 -35.5t-92 -93
t-51 -121.5t-17.5 -129q0 -105 59 -173t166 -68zM503 767l-83 129h78l61 -129h-56z" />
    <glyph glyph-name="Oacute" unicode="&#xd3;" horiz-adv-x="758" 
d="M478 727q127 0 207.5 -82t80.5 -216q0 -115 -40.5 -214t-124.5 -163.5t-197 -64.5q-127 0 -207.5 82t-80.5 216q0 115 40.5 214t124.5 163.5t197 64.5zM407 47q60 0 110 24t83 62.5t56.5 88.5t33.5 101.5t10 102.5q0 105 -59 173t-166 68q-74 0 -132.5 -35.5t-92 -93
t-51 -121.5t-17.5 -129q0 -105 59 -173t166 -68zM672 896l-127 -129h-60l105 129h82z" />
    <glyph glyph-name="Ocircumflex" unicode="&#xd4;" horiz-adv-x="758" 
d="M478 727q127 0 207.5 -82t80.5 -216q0 -115 -40.5 -214t-124.5 -163.5t-197 -64.5q-127 0 -207.5 82t-80.5 216q0 115 40.5 214t124.5 163.5t197 64.5zM407 47q60 0 110 24t83 62.5t56.5 88.5t33.5 101.5t10 102.5q0 105 -59 173t-166 68q-74 0 -132.5 -35.5t-92 -93
t-51 -121.5t-17.5 -129q0 -105 59 -173t166 -68zM379 767l127 129h70l83 -129h-61l-51 79h-20l-79 -79h-69z" />
    <glyph glyph-name="Otilde" unicode="&#xd5;" horiz-adv-x="758" 
d="M478 727q127 0 207.5 -82t80.5 -216q0 -115 -40.5 -214t-124.5 -163.5t-197 -64.5q-127 0 -207.5 82t-80.5 216q0 115 40.5 214t124.5 163.5t197 64.5zM407 47q60 0 110 24t83 62.5t56.5 88.5t33.5 101.5t10 102.5q0 105 -59 173t-166 68q-74 0 -132.5 -35.5t-92 -93
t-51 -121.5t-17.5 -129q0 -105 59 -173t166 -68zM657 896h48q-22 -129 -109 -129q-22 0 -43 12.5t-34.5 27.5t-29.5 27.5t-29 12.5q-41 0 -55 -80h-48q22 129 109 129q22 0 43 -12.5t34.5 -27.5t29.5 -27.5t29 -12.5q41 0 55 80z" />
    <glyph glyph-name="Odieresis" unicode="&#xd6;" horiz-adv-x="758" 
d="M474 817h-69l13 79h69zM650 817h-69l13 79h69zM478 727q127 0 207.5 -82t80.5 -216q0 -115 -40.5 -214t-124.5 -163.5t-197 -64.5q-127 0 -207.5 82t-80.5 216q0 115 40.5 214t124.5 163.5t197 64.5zM407 47q60 0 110 24t83 62.5t56.5 88.5t33.5 101.5t10 102.5
q0 105 -59 173t-166 68q-74 0 -132.5 -35.5t-92 -93t-51 -121.5t-17.5 -129q0 -105 59 -173t166 -68z" />
    <glyph glyph-name="multiply" unicode="&#xd7;" horiz-adv-x="632" 
d="M327 282l-188 189l37 37l189 -189l189 189l37 -37l-189 -189l189 -189l-37 -37l-189 188l-189 -188l-37 37z" />
    <glyph glyph-name="Oslash" unicode="&#xd8;" horiz-adv-x="758" 
d="M478 727q128 0 208 -83l69 70h71l-108 -111q48 -73 48 -174q0 -115 -40.5 -214t-124.5 -163.5t-197 -64.5q-128 0 -208 82l-68 -69h-71l107 109q-48 74 -48 176q0 115 40.5 214t124.5 163.5t197 64.5zM182 288q0 -74 29 -130l431 440q-63 69 -167 69q-74 0 -132.5 -35.5
t-92 -93t-51 -121.5t-17.5 -129zM407 47q60 0 110 24t83 62.5t56.5 88.5t33.5 101.5t10 102.5q0 69 -29 129l-431 -440q62 -68 167 -68z" />
    <glyph glyph-name="Ugrave" unicode="&#xd9;" horiz-adv-x="726" 
d="M693 714h66l-82 -465q-22 -126 -97.5 -194t-202.5 -68q-110 0 -178 58t-68 151q0 26 7 70l79 448h66l-79 -449q-7 -44 -7 -66q0 -72 48 -112t135 -40q103 0 159 55.5t75 163.5zM495 767l-83 129h78l61 -129h-56z" />
    <glyph glyph-name="Uacute" unicode="&#xda;" horiz-adv-x="726" 
d="M693 714h66l-82 -465q-22 -126 -97.5 -194t-202.5 -68q-110 0 -178 58t-68 151q0 26 7 70l79 448h66l-79 -449q-7 -44 -7 -66q0 -72 48 -112t135 -40q103 0 159 55.5t75 163.5zM634 896l-127 -129h-60l105 129h82z" />
    <glyph glyph-name="Ucircumflex" unicode="&#xdb;" horiz-adv-x="726" 
d="M693 714h66l-82 -465q-22 -126 -97.5 -194t-202.5 -68q-110 0 -178 58t-68 151q0 26 7 70l79 448h66l-79 -449q-7 -44 -7 -66q0 -72 48 -112t135 -40q103 0 159 55.5t75 163.5zM356 767l127 129h70l83 -129h-61l-51 79h-20l-79 -79h-69z" />
    <glyph glyph-name="Udieresis" unicode="&#xdc;" horiz-adv-x="726" 
d="M693 714h66l-82 -465q-22 -126 -97.5 -194t-202.5 -68q-110 0 -178 58t-68 151q0 26 7 70l79 448h66l-79 -449q-7 -44 -7 -66q0 -72 48 -112t135 -40q103 0 159 55.5t75 163.5zM447 817h-69l13 79h69zM623 817h-69l13 79h69z" />
    <glyph glyph-name="Yacute" unicode="&#xdd;" horiz-adv-x="620" 
d="M357 373h28l263 341h74l-331 -434l-49 -280h-66l49 280l-180 434h69zM581 896l-127 -129h-60l105 129h82z" />
    <glyph glyph-name="Thorn" unicode="&#xde;" horiz-adv-x="633" 
d="M259 556h205q83 0 138 -47t55 -128q0 -110 -72.5 -166t-185.5 -56h-210l-29 -159h-66l126 714h67zM454 496h-206l-49 -277h212q80 0 130 40t50 120q0 58 -39 87.5t-98 29.5z" />
    <glyph glyph-name="germandbls" unicode="&#xdf;" horiz-adv-x="601" 
d="M204 500l6 34q36 193 217 193q82 0 134.5 -46t52.5 -120q0 -55 -26 -98.5t-73 -66.5l-3 -19q93 -50 93 -154q0 -101 -70 -162t-179 -61h-77l10 56h69q82 0 133 46.5t51 123.5q0 60 -44.5 96.5t-105.5 36.5h-50l10 56h68q60 0 95.5 40.5t35.5 99.5q0 54 -36 85t-90 31
q-130 0 -155 -145l-92 -526h-62l78 444h-96l10 56h96z" />
    <glyph glyph-name="agrave" unicode="&#xe0;" horiz-adv-x="547" 
d="M405 0l9 55h-20q-63 -68 -157 -68q-78 0 -121.5 43t-43.5 106q0 80 54 128t147 48h185l3 16q5 18 5 43q0 39 -29.5 62.5t-90.5 23.5q-62 0 -99.5 -23t-44.5 -63h-63q13 68 70 105t143 37q81 0 128.5 -38t47.5 -101q0 -33 -5 -51l-57 -323h-61zM250 43q71 0 125 49.5
t66 121.5l8 45h-163q-67 0 -108.5 -30.5t-41.5 -88.5q0 -45 30 -71t84 -26zM369 582l-79 145h78l57 -145h-56z" />
    <glyph glyph-name="aacute" unicode="&#xe1;" horiz-adv-x="547" 
d="M405 0l9 55h-20q-63 -68 -157 -68q-78 0 -121.5 43t-43.5 106q0 80 54 128t147 48h185l3 16q5 18 5 43q0 39 -29.5 62.5t-90.5 23.5q-62 0 -99.5 -23t-44.5 -63h-63q13 68 70 105t143 37q81 0 128.5 -38t47.5 -101q0 -33 -5 -51l-57 -323h-61zM250 43q71 0 125 49.5
t66 121.5l8 45h-163q-67 0 -108.5 -30.5t-41.5 -88.5q0 -45 30 -71t84 -26zM523 727l-131 -145h-60l109 145h82z" />
    <glyph glyph-name="acircumflex" unicode="&#xe2;" horiz-adv-x="547" 
d="M405 0l9 55h-20q-63 -68 -157 -68q-78 0 -121.5 43t-43.5 106q0 80 54 128t147 48h185l3 16q5 18 5 43q0 39 -29.5 62.5t-90.5 23.5q-62 0 -99.5 -23t-44.5 -63h-63q13 68 70 105t143 37q81 0 128.5 -38t47.5 -101q0 -33 -5 -51l-57 -323h-61zM250 43q71 0 125 49.5
t66 121.5l8 45h-163q-67 0 -108.5 -30.5t-41.5 -88.5q0 -45 30 -71t84 -26zM442 727l79 -145h-60l-51 95h-20l-85 -95h-64l131 145h70z" />
    <glyph glyph-name="atilde" unicode="&#xe3;" horiz-adv-x="541" 
d="M405 0l9 55h-20q-63 -68 -157 -68q-78 0 -121.5 43t-43.5 106q0 80 54 128t147 48h185l3 16q5 18 5 43q0 39 -29.5 62.5t-90.5 23.5q-62 0 -99.5 -23t-44.5 -63h-63q13 68 70 105t143 37q81 0 128.5 -38t47.5 -101q0 -33 -5 -51l-57 -323h-61zM250 43q71 0 125 49.5
t66 121.5l8 45h-163q-67 0 -108.5 -30.5t-41.5 -88.5q0 -45 30 -71t84 -26zM517 718h48q-22 -129 -109 -129q-22 0 -43 12.5t-34.5 27.5t-29.5 27.5t-29 12.5q-41 0 -55 -80h-48q22 129 109 129q22 0 43 -12.5t34.5 -27.5t29.5 -27.5t29 -12.5q41 0 55 80z" />
    <glyph glyph-name="adieresis" unicode="&#xe4;" horiz-adv-x="547" 
d="M405 0l9 55h-20q-63 -68 -157 -68q-78 0 -121.5 43t-43.5 106q0 80 54 128t147 48h185l3 16q5 18 5 43q0 39 -29.5 62.5t-90.5 23.5q-62 0 -99.5 -23t-44.5 -63h-63q13 68 70 105t143 37q81 0 128.5 -38t47.5 -101q0 -33 -5 -51l-57 -323h-61zM250 43q71 0 125 49.5
t66 121.5l8 45h-163q-67 0 -108.5 -30.5t-41.5 -88.5q0 -45 30 -71t84 -26zM336 648h-69l14 79h69zM512 648h-69l14 79h69z" />
    <glyph glyph-name="aring" unicode="&#xe5;" horiz-adv-x="547" 
d="M405 0l9 55h-20q-63 -68 -157 -68q-78 0 -121.5 43t-43.5 106q0 80 54 128t147 48h185l3 16q5 18 5 43q0 39 -29.5 62.5t-90.5 23.5q-62 0 -99.5 -23t-44.5 -63h-63q13 68 70 105t143 37q81 0 128.5 -38t47.5 -101q0 -33 -5 -51l-57 -323h-61zM250 43q71 0 125 49.5
t66 121.5l8 45h-163q-67 0 -108.5 -30.5t-41.5 -88.5q0 -45 30 -71t84 -26zM394 793q44 0 74.5 -30.5t30.5 -74.5t-31 -75t-74 -31q-44 0 -75 31t-31 75q0 43 31 74t75 31zM394 628q26 0 43 17t17 43t-17 43t-43 17t-43 -17t-17 -43t17 -43t43 -17z" />
    <glyph glyph-name="ae" unicode="&#xe6;" horiz-adv-x="895" 
d="M798 132h64q-22 -66 -78 -105.5t-133 -39.5q-58 0 -105 26.5t-74 74.5h-32q-82 -101 -205 -101q-77 0 -120 42.5t-43 106.5q0 80 54 128t147 48h185l3 16q5 18 5 43q0 39 -30 62.5t-91 23.5t-97.5 -23.5t-45.5 -62.5h-63q14 67 71 104.5t141 37.5q118 0 162 -78h18
q69 78 171 78q93 0 143.5 -63t50.5 -156q0 -23 -1 -35h-388q-3 -25 -3 -52q0 -74 42.5 -119t114.5 -45q97 0 137 89zM250 43q71 0 125 49.5t66 121.5l8 45h-163q-67 0 -108.5 -30.5t-41.5 -88.5q0 -45 30 -71t84 -26zM523 323l-4 -11h313q-9 145 -133 145q-127 0 -176 -134z
" />
    <glyph glyph-name="ccedilla" unicode="&#xe7;" horiz-adv-x="529" 
d="M454 143h65q-20 -73 -77 -114.5t-139 -41.5q-3 0 -7 0.5t-6 0.5l-26 -46h13q14 8 28 8q24 0 39 -18t15 -48q0 -39 -26.5 -64t-68.5 -25q-35 0 -56.5 18t-22.5 46h47q7 -23 35 -23q19 0 31 12.5t12 32.5q0 14 -9.5 23t-24.5 9q-19 0 -30 -11h-47l52 91q-69 16 -112 71
t-43 137q0 129 69.5 220.5t186.5 91.5q78 0 129.5 -43t61.5 -109h-64q-9 44 -42.5 70t-86.5 26q-87 0 -139 -76t-52 -177q0 -75 40.5 -118t108.5 -43q54 0 93 27t53 73z" />
    <glyph glyph-name="egrave" unicode="&#xe8;" horiz-adv-x="550" 
d="M453 132h64q-21 -67 -76 -106t-134 -39q-89 0 -150 60t-61 157q0 134 70 221.5t192 87.5q94 0 143.5 -63t49.5 -156q0 -21 -1 -33h-387q-4 -25 -4 -54q0 -74 42.5 -119t114.5 -45q100 0 137 89zM354 457q-66 0 -111.5 -38t-66.5 -102h311q-4 64 -36.5 102t-96.5 38z
M364 582l-79 145h78l57 -145h-56z" />
    <glyph glyph-name="eacute" unicode="&#xe9;" horiz-adv-x="550" 
d="M453 132h64q-21 -67 -76 -106t-134 -39q-89 0 -150 60t-61 157q0 134 70 221.5t192 87.5q94 0 143.5 -63t49.5 -156q0 -21 -1 -33h-387q-4 -25 -4 -54q0 -74 42.5 -119t114.5 -45q100 0 137 89zM354 457q-66 0 -111.5 -38t-66.5 -102h311q-4 64 -36.5 102t-96.5 38z
M523 727l-131 -145h-60l109 145h82z" />
    <glyph glyph-name="ecircumflex" unicode="&#xea;" horiz-adv-x="550" 
d="M453 132h64q-21 -67 -76 -106t-134 -39q-89 0 -150 60t-61 157q0 134 70 221.5t192 87.5q94 0 143.5 -63t49.5 -156q0 -21 -1 -33h-387q-4 -25 -4 -54q0 -74 42.5 -119t114.5 -45q100 0 137 89zM354 457q-66 0 -111.5 -38t-66.5 -102h311q-4 64 -36.5 102t-96.5 38z
M437 727l79 -145h-60l-51 95h-20l-85 -95h-64l131 145h70z" />
    <glyph glyph-name="edieresis" unicode="&#xeb;" horiz-adv-x="550" 
d="M453 132h64q-21 -67 -76 -106t-134 -39q-89 0 -150 60t-61 157q0 134 70 221.5t192 87.5q94 0 143.5 -63t49.5 -156q0 -21 -1 -33h-387q-4 -25 -4 -54q0 -74 42.5 -119t114.5 -45q100 0 137 89zM354 457q-66 0 -111.5 -38t-66.5 -102h311q-4 64 -36.5 102t-96.5 38z
M331 648h-69l14 79h69zM507 648h-69l14 79h69z" />
    <glyph glyph-name="igrave" unicode="&#xec;" horiz-adv-x="232" 
d="M236 500l-88 -500h-63l88 500h63zM191 582l-79 145h78l57 -145h-56z" />
    <glyph glyph-name="iacute" unicode="&#xed;" horiz-adv-x="232" 
d="M236 500l-88 -500h-63l88 500h63zM382 727l-131 -145h-60l109 145h82z" />
    <glyph glyph-name="icircumflex" unicode="&#xee;" horiz-adv-x="232" 
d="M236 500l-88 -500h-63l88 500h63zM274 727l79 -145h-60l-51 95h-20l-85 -95h-64l131 145h70z" />
    <glyph glyph-name="idieresis" unicode="&#xef;" horiz-adv-x="232" 
d="M236 500l-88 -500h-63l88 500h63zM173 648h-69l14 79h69zM349 648h-69l14 79h69z" />
    <glyph glyph-name="eth" unicode="&#xf0;" horiz-adv-x="570" 
d="M198 602h179q-55 67 -142 125h82q79 -60 127 -125h124l-10 -48h-82q81 -132 81 -274q0 -127 -68 -210t-186 -83q-90 0 -148.5 56.5t-58.5 144.5q0 120 67 202t175 82q76 0 118 -46h24q-19 56 -69 128h-222zM306 43q86 0 138 68.5t52 160.5q0 66 -41.5 105t-107.5 39
q-86 0 -138 -68t-52 -157q0 -66 41.5 -107t107.5 -41z" />
    <glyph glyph-name="ntilde" unicode="&#xf1;" 
d="M509 0h-63l52 295q6 34 6 56q0 106 -116 106q-73 0 -125 -53t-67 -134l-48 -270h-63l89 500h61l-10 -55h18q60 68 160 68q78 0 121 -41.5t43 -114.5q0 -21 -6 -61zM547 718h48q-22 -129 -109 -129q-22 0 -43 12.5t-34.5 27.5t-29.5 27.5t-29 12.5q-41 0 -55 -80h-48
q22 129 109 129q22 0 43 -12.5t34.5 -27.5t29.5 -27.5t29 -12.5q41 0 55 80z" />
    <glyph glyph-name="ograve" unicode="&#xf2;" horiz-adv-x="594" 
d="M364 513q96 0 159 -58.5t63 -159.5q0 -133 -72 -220.5t-196 -87.5q-96 0 -159 58.5t-63 159.5q0 133 72 220.5t196 87.5zM322 43q94 0 147.5 73.5t53.5 176.5q0 74 -45 119t-118 45q-94 0 -147.5 -73.5t-53.5 -176.5q0 -75 44.5 -119.5t118.5 -44.5zM379 582l-79 145h78
l57 -145h-56z" />
    <glyph glyph-name="oacute" unicode="&#xf3;" horiz-adv-x="594" 
d="M364 513q96 0 159 -58.5t63 -159.5q0 -133 -72 -220.5t-196 -87.5q-96 0 -159 58.5t-63 159.5q0 133 72 220.5t196 87.5zM322 43q94 0 147.5 73.5t53.5 176.5q0 74 -45 119t-118 45q-94 0 -147.5 -73.5t-53.5 -176.5q0 -75 44.5 -119.5t118.5 -44.5zM536 727l-131 -145
h-60l109 145h82z" />
    <glyph glyph-name="ocircumflex" unicode="&#xf4;" horiz-adv-x="594" 
d="M364 513q96 0 159 -58.5t63 -159.5q0 -133 -72 -220.5t-196 -87.5q-96 0 -159 58.5t-63 159.5q0 133 72 220.5t196 87.5zM322 43q94 0 147.5 73.5t53.5 176.5q0 74 -45 119t-118 45q-94 0 -147.5 -73.5t-53.5 -176.5q0 -75 44.5 -119.5t118.5 -44.5zM447 727l79 -145h-60
l-51 95h-20l-85 -95h-64l131 145h70z" />
    <glyph glyph-name="otilde" unicode="&#xf5;" horiz-adv-x="594" 
d="M364 513q96 0 159 -58.5t63 -159.5q0 -133 -72 -220.5t-196 -87.5q-96 0 -159 58.5t-63 159.5q0 133 72 220.5t196 87.5zM322 43q94 0 147.5 73.5t53.5 176.5q0 74 -45 119t-118 45q-94 0 -147.5 -73.5t-53.5 -176.5q0 -75 44.5 -119.5t118.5 -44.5zM519 718h48
q-22 -129 -109 -129q-22 0 -43 12.5t-34.5 27.5t-29.5 27.5t-29 12.5q-41 0 -55 -80h-48q22 129 109 129q22 0 43 -12.5t34.5 -27.5t29.5 -27.5t29 -12.5q41 0 55 80z" />
    <glyph glyph-name="odieresis" unicode="&#xf6;" horiz-adv-x="594" 
d="M364 513q96 0 159 -58.5t63 -159.5q0 -133 -72 -220.5t-196 -87.5q-96 0 -159 58.5t-63 159.5q0 133 72 220.5t196 87.5zM322 43q94 0 147.5 73.5t53.5 176.5q0 74 -45 119t-118 45q-94 0 -147.5 -73.5t-53.5 -176.5q0 -75 44.5 -119.5t118.5 -44.5zM341 648h-69l14 79
h69zM517 648h-69l14 79h69z" />
    <glyph glyph-name="divide" unicode="&#xf7;" horiz-adv-x="683" 
d="M642 255h-503v54h503v-54zM428 433h-76v101h76v-101zM428 30h-76v101h76v-101z" />
    <glyph glyph-name="oslash" unicode="&#xf8;" horiz-adv-x="594" 
d="M364 513q85 0 144 -47l35 34h66l-68 -66q45 -58 45 -139q0 -133 -72 -220.5t-196 -87.5q-104 0 -166 65l-53 -52h-66l91 89q-28 49 -28 116q0 133 72 220.5t196 87.5zM322 43q94 0 147.5 73.5t53.5 176.5q0 57 -27 97l-300 -295q44 -52 126 -52zM159 207q0 -42 13 -71
l293 287q-43 34 -105 34q-94 0 -147.5 -73.5t-53.5 -176.5z" />
    <glyph glyph-name="ugrave" unicode="&#xf9;" 
d="M362 582l-79 145h78l57 -145h-56zM166 500h63l-52 -295q-6 -34 -6 -56q0 -106 116 -106q73 0 125 53t67 134l48 270h63l-89 -500h-61l10 55h-18q-60 -68 -160 -68q-78 0 -121 41.5t-43 114.5q0 21 6 61z" />
    <glyph glyph-name="uacute" unicode="&#xfa;" 
d="M520 727l-131 -145h-60l109 145h82zM166 500h63l-52 -295q-6 -34 -6 -56q0 -106 116 -106q73 0 125 53t67 134l48 270h63l-89 -500h-61l10 55h-18q-60 -68 -160 -68q-78 0 -121 41.5t-43 114.5q0 21 6 61z" />
    <glyph glyph-name="ucircumflex" unicode="&#xfb;" 
d="M445 727l79 -145h-60l-51 95h-20l-85 -95h-64l131 145h70zM166 500h63l-52 -295q-6 -34 -6 -56q0 -106 116 -106q73 0 125 53t67 134l48 270h63l-89 -500h-61l10 55h-18q-60 -68 -160 -68q-78 0 -121 41.5t-43 114.5q0 21 6 61z" />
    <glyph glyph-name="udieresis" unicode="&#xfc;" 
d="M339 648h-69l14 79h69zM515 648h-69l14 79h69zM166 500h63l-52 -295q-6 -34 -6 -56q0 -106 116 -106q73 0 125 53t67 134l48 270h63l-89 -500h-61l10 55h-18q-60 -68 -160 -68q-78 0 -121 41.5t-43 114.5q0 21 6 61z" />
    <glyph glyph-name="yacute" unicode="&#xfd;" horiz-adv-x="513" 
d="M159 -200h-67l148 248l-128 452h63l99 -353h27l209 353h68zM492 727l-131 -145h-60l109 145h82z" />
    <glyph glyph-name="thorn" unicode="&#xfe;" horiz-adv-x="601" 
d="M593 294q0 -55 -16 -108t-46.5 -98t-81 -73t-113.5 -28q-111 0 -156 79h-20l-47 -266h-63l163 927h63l-50 -282h20q22 30 62.5 49t86.5 19q94 0 146 -62.5t52 -156.5zM392 457q-94 0 -147 -77.5t-53 -170.5q0 -78 37 -122t107 -44q77 0 135.5 67t58.5 183q0 72 -35.5 118
t-102.5 46z" />
    <glyph glyph-name="ydieresis" unicode="&#xff;" horiz-adv-x="513" 
d="M159 -200h-67l148 248l-128 452h63l99 -353h27l209 353h68zM301 648h-69l14 79h69zM477 648h-69l14 79h69z" />
    <glyph glyph-name="Amacron" unicode="&#x100;" horiz-adv-x="666" 
d="M516 714l128 -714h-69l-40 231h-322l-120 -231h-72l374 714h121zM427 644l-183 -353h281l-60 353h-38zM607 817h-274l9 54h274z" />
    <glyph glyph-name="amacron" unicode="&#x101;" horiz-adv-x="547" 
d="M405 0l9 55h-20q-63 -68 -157 -68q-78 0 -121.5 43t-43.5 106q0 80 54 128t147 48h185l3 16q5 18 5 43q0 39 -29.5 62.5t-90.5 23.5q-62 0 -99.5 -23t-44.5 -63h-63q13 68 70 105t143 37q81 0 128.5 -38t47.5 -101q0 -33 -5 -51l-57 -323h-61zM250 43q71 0 125 49.5
t66 121.5l8 45h-163q-67 0 -108.5 -30.5t-41.5 -88.5q0 -45 30 -71t84 -26zM528 648h-274l9 54h274z" />
    <glyph glyph-name="Abreve" unicode="&#x102;" horiz-adv-x="666" 
d="M516 714l128 -714h-69l-40 231h-322l-120 -231h-72l374 714h121zM427 644l-183 -353h281l-60 353h-38zM564 896h53q-12 -64 -54.5 -96.5t-101.5 -32.5q-51 0 -85.5 27.5t-34.5 73.5q0 10 2 28h53q-2 -14 -2 -19q0 -62 72 -62q78 0 98 81z" />
    <glyph glyph-name="abreve" unicode="&#x103;" horiz-adv-x="547" 
d="M405 0l9 55h-20q-63 -68 -157 -68q-78 0 -121.5 43t-43.5 106q0 80 54 128t147 48h185l3 16q5 18 5 43q0 39 -29.5 62.5t-90.5 23.5q-62 0 -99.5 -23t-44.5 -63h-63q13 68 70 105t143 37q81 0 128.5 -38t47.5 -101q0 -33 -5 -51l-57 -323h-61zM250 43q71 0 125 49.5
t66 121.5l8 45h-163q-67 0 -108.5 -30.5t-41.5 -88.5q0 -45 30 -71t84 -26zM490 727h52q-11 -72 -54 -108.5t-103 -36.5q-52 0 -85.5 28.5t-33.5 78.5q0 23 4 38h51q-3 -17 -3 -29q0 -33 19.5 -50.5t52.5 -17.5q80 0 100 97z" />
    <glyph glyph-name="Aogonek" unicode="&#x104;" horiz-adv-x="666" 
d="M516 714l128 -714q-93 -46 -93 -108q0 -45 70 -45l-9 -46q-9 -1 -23 -1q-47 0 -72.5 20.5t-25.5 57.5q0 38 23.5 70.5t60.5 51.5l-40 231h-322l-120 -231h-72l374 714h121zM427 644l-183 -353h281l-60 353h-38z" />
    <glyph glyph-name="aogonek" unicode="&#x105;" horiz-adv-x="547" 
d="M523 323l-57 -323q-93 -46 -93 -108q0 -45 70 -45l-9 -46q-9 -1 -23 -1q-47 0 -72.5 20.5t-25.5 57.5q0 40 26 73t66 51l9 53h-20q-63 -68 -157 -68q-78 0 -121.5 43t-43.5 106q0 80 54 128t147 48h185l3 16q5 18 5 43q0 39 -29.5 62.5t-90.5 23.5q-62 0 -99.5 -23
t-44.5 -63h-63q13 68 70 105t143 37q81 0 128.5 -38t47.5 -101q0 -33 -5 -51zM250 43q71 0 125 49.5t66 121.5l8 45h-163q-67 0 -108.5 -30.5t-41.5 -88.5q0 -45 30 -71t84 -26z" />
    <glyph glyph-name="Cacute" unicode="&#x106;" horiz-adv-x="695" 
d="M623 193h70q-33 -93 -108.5 -149.5t-181.5 -56.5q-127 0 -207 82t-80 216q0 117 41 216t124.5 162.5t194.5 63.5q100 0 168 -51.5t86 -140.5h-69q-15 62 -62.5 97t-124.5 35q-73 0 -131 -35t-92 -92t-51.5 -121.5t-17.5 -130.5q0 -106 58.5 -173.5t165.5 -67.5
q80 0 135.5 39.5t81.5 106.5zM653 896l-127 -129h-60l105 129h82z" />
    <glyph glyph-name="cacute" unicode="&#x107;" horiz-adv-x="529" 
d="M454 143h65q-20 -73 -77 -114.5t-139 -41.5q-88 0 -147.5 59t-59.5 155q0 129 69.5 220.5t186.5 91.5q78 0 129.5 -43t61.5 -109h-64q-9 44 -42.5 70t-86.5 26q-87 0 -139 -76t-52 -177q0 -75 40.5 -118t108.5 -43q54 0 93 27t53 73zM538 727l-131 -145h-60l109 145h82z
" />
    <glyph glyph-name="Ccaron" unicode="&#x10c;" horiz-adv-x="715" 
d="M623 193h70q-33 -93 -108.5 -149.5t-181.5 -56.5q-127 0 -207 82t-80 216q0 117 41 216t124.5 162.5t194.5 63.5q100 0 168 -51.5t86 -140.5h-69q-15 62 -62.5 97t-124.5 35q-73 0 -131 -35t-92 -92t-51.5 -121.5t-17.5 -130.5q0 -106 58.5 -173.5t165.5 -67.5
q80 0 135.5 39.5t81.5 106.5zM465 767l-83 129h63l52 -79h20l78 79h67l-127 -129h-70z" />
    <glyph glyph-name="ccaron" unicode="&#x10d;" horiz-adv-x="529" 
d="M454 143h65q-20 -73 -77 -114.5t-139 -41.5q-88 0 -147.5 59t-59.5 155q0 129 69.5 220.5t186.5 91.5q78 0 129.5 -43t61.5 -109h-64q-9 44 -42.5 70t-86.5 26q-87 0 -139 -76t-52 -177q0 -75 40.5 -118t108.5 -43q54 0 93 27t53 73zM341 582l-79 145h60l51 -95h20l85 95
h64l-131 -145h-70z" />
    <glyph glyph-name="Dcaron" unicode="&#x10e;" horiz-adv-x="726" 
d="M94 0l125 714h208q142 0 224.5 -70t82.5 -217q0 -82 -22 -155t-67 -135.5t-124.5 -99.5t-184.5 -37h-242zM170 60h182q74 0 131.5 25t91.5 63.5t56 89.5t29.5 97.5t7.5 93.5q0 225 -237 225h-156zM432 767l-83 129h63l52 -79h20l78 79h67l-127 -129h-70z" />
    <glyph glyph-name="dcaron" unicode="&#x10f;" horiz-adv-x="684" 
d="M770 635h-41l17 92h84l-20 -109l-55 -67h-43l55 67zM96 206q0 55 16 108t46.5 98t81 73t113.5 28q111 0 156 -79h20l52 293h63l-128 -727h-61l10 55h-20q-22 -30 -63.5 -49t-87.5 -19q-94 0 -146 62.5t-52 156.5zM297 43q94 0 147 77.5t53 170.5q0 78 -37 122t-107 44
q-77 0 -135.5 -67t-58.5 -183q0 -72 35.5 -118t102.5 -46z" />
    <glyph glyph-name="Dcroat" unicode="&#x110;" horiz-adv-x="750" 
d="M80 344l10 56h98l55 314h208q142 0 224.5 -70t82.5 -217q0 -82 -22 -155t-67 -135.5t-124.5 -99.5t-184.5 -37h-242l60 344h-98zM194 60h182q74 0 131.5 25t91.5 63.5t56 89.5t29.5 97.5t7.5 93.5q0 225 -237 225h-156l-45 -254h228l-10 -56h-228z" />
    <glyph glyph-name="dslash" unicode="&#x111;" horiz-adv-x="611" 
d="M96 206q0 55 16 108t46.5 98t81 73t113.5 28q111 0 156 -79h20l27 152h-159l9 50h159l16 91h63l-16 -91h85l-9 -50h-85l-103 -586h-61l10 55h-20q-22 -30 -63.5 -49t-87.5 -19q-94 0 -146 62.5t-52 156.5zM297 43q94 0 147 77.5t53 170.5q0 78 -37 122t-107 44
q-77 0 -135.5 -67t-58.5 -183q0 -72 35.5 -118t102.5 -46z" />
    <glyph glyph-name="Emacron" unicode="&#x112;" horiz-adv-x="639" 
d="M170 60h428l-10 -60h-494l125 714h478l-10 -60h-412l-45 -252h335l-10 -60h-335zM616 817h-274l9 54h274z" />
    <glyph glyph-name="emacron" unicode="&#x113;" horiz-adv-x="550" 
d="M453 132h64q-21 -67 -76 -106t-134 -39q-89 0 -150 60t-61 157q0 134 70 221.5t192 87.5q94 0 143.5 -63t49.5 -156q0 -21 -1 -33h-387q-4 -25 -4 -54q0 -74 42.5 -119t114.5 -45q100 0 137 89zM354 457q-66 0 -111.5 -38t-66.5 -102h311q-4 64 -36.5 102t-96.5 38z
M535 648h-274l9 54h274z" />
    <glyph glyph-name="Edotaccent" unicode="&#x116;" horiz-adv-x="639" 
d="M170 60h428l-10 -60h-494l125 714h478l-10 -60h-412l-45 -252h335l-10 -60h-335zM504 817h-69l13 79h69z" />
    <glyph glyph-name="edotaccent" unicode="&#x117;" horiz-adv-x="550" 
d="M453 132h64q-21 -67 -76 -106t-134 -39q-89 0 -150 60t-61 157q0 134 70 221.5t192 87.5q94 0 143.5 -63t49.5 -156q0 -21 -1 -33h-387q-4 -25 -4 -54q0 -74 42.5 -119t114.5 -45q100 0 137 89zM354 457q-66 0 -111.5 -38t-66.5 -102h311q-4 64 -36.5 102t-96.5 38z
M421 648h-69l14 79h69z" />
    <glyph glyph-name="Eogonek" unicode="&#x118;" horiz-adv-x="639" 
d="M170 60h428l-10 -60q-93 -46 -93 -108q0 -45 70 -45l-9 -46q-9 -1 -23 -1q-47 0 -72.5 20.5t-25.5 57.5q0 38 25 71t63 51h-429l125 714h478l-10 -60h-412l-45 -252h335l-10 -60h-335z" />
    <glyph glyph-name="eogonek" unicode="&#x119;" horiz-adv-x="550" 
d="M453 132h64q-27 -88 -118 -128q-104 -49 -104 -112q0 -45 70 -45l-9 -46q-9 -1 -23 -1q-47 0 -72.5 20.5t-25.5 57.5q0 65 65 109q-87 2 -145.5 61.5t-58.5 155.5q0 134 70 221.5t192 87.5q94 0 143.5 -63t49.5 -156q0 -21 -1 -33h-387q-4 -25 -4 -54q0 -74 42.5 -119
t114.5 -45q100 0 137 89zM354 457q-66 0 -111.5 -38t-66.5 -102h311q-4 64 -36.5 102t-96.5 38z" />
    <glyph glyph-name="Ecaron" unicode="&#x11a;" horiz-adv-x="639" 
d="M170 60h428l-10 -60h-494l125 714h478l-10 -60h-412l-45 -252h335l-10 -60h-335zM425 767l-83 129h63l52 -79h20l78 79h67l-127 -129h-70z" />
    <glyph glyph-name="ecaron" unicode="&#x11b;" horiz-adv-x="550" 
d="M453 132h64q-21 -67 -76 -106t-134 -39q-89 0 -150 60t-61 157q0 134 70 221.5t192 87.5q94 0 143.5 -63t49.5 -156q0 -21 -1 -33h-387q-4 -25 -4 -54q0 -74 42.5 -119t114.5 -45q100 0 137 89zM354 457q-66 0 -111.5 -38t-66.5 -102h311q-4 64 -36.5 102t-96.5 38z
M338 582l-79 145h60l51 -95h20l85 95h64l-131 -145h-70z" />
    <glyph glyph-name="uni0122" unicode="&#x122;" horiz-adv-x="740" 
d="M406 -13q-127 0 -208.5 82t-81.5 216q0 118 42 217t127 162t197 63q102 0 169.5 -51.5t85.5 -140.5h-70q-15 62 -63 97t-126 35q-73 0 -132 -34.5t-93.5 -91t-52.5 -121.5t-18 -132q0 -106 59.5 -173.5t167.5 -67.5q107 0 174 67.5t81 195.5h-243l12 60h306
q-3 -79 -23.5 -146t-59 -121t-102.5 -85t-148 -31zM350 -215h-43l58 60l3 17h-41l14 79h84l-17 -96z" />
    <glyph glyph-name="uni0123" unicode="&#x123;" horiz-adv-x="598" 
d="M96 212q0 73 28.5 140t90 114t143.5 47q95 0 151 -82h20l12 69h61l-82 -466q-19 -115 -88.5 -177.5t-170.5 -62.5q-83 0 -139 39.5t-60 107.5h61q11 -91 147 -91q151 0 187 184l7 35h-19q-22 -30 -64.5 -49.5t-87.5 -19.5q-94 0 -145.5 60t-51.5 152zM299 56
q64 0 111 38.5t67.5 91t20.5 109.5q0 75 -38 118.5t-106 43.5q-77 0 -136 -66.5t-59 -179.5q0 -70 36 -112.5t104 -42.5zM427 727h43l-58 -60l-3 -17h41l-14 -79h-84l17 96z" />
    <glyph glyph-name="Itilde" unicode="&#x128;" horiz-adv-x="269" 
d="M226 714h66l-125 -714h-66zM406 896h48q-22 -129 -109 -129q-22 0 -43 12.5t-34.5 27.5t-29.5 27.5t-29 12.5q-41 0 -55 -80h-48q22 129 109 129q22 0 43 -12.5t34.5 -27.5t29.5 -27.5t29 -12.5q41 0 55 80z" />
    <glyph glyph-name="itilde" unicode="&#x129;" horiz-adv-x="232" 
d="M236 500l-88 -500h-63l88 500h63zM358 718h48q-22 -129 -109 -129q-22 0 -43 12.5t-34.5 27.5t-29.5 27.5t-29 12.5q-41 0 -55 -80h-48q22 129 109 129q22 0 43 -12.5t34.5 -27.5t29.5 -27.5t29 -12.5q41 0 55 80z" />
    <glyph glyph-name="Imacron" unicode="&#x12a;" horiz-adv-x="269" 
d="M226 714h66l-125 -714h-66zM410 817h-274l9 54h274z" />
    <glyph glyph-name="imacron" unicode="&#x12b;" horiz-adv-x="232" 
d="M236 500l-88 -500h-63l88 500h63zM361 648h-274l9 54h274z" />
    <glyph glyph-name="Iogonek" unicode="&#x12e;" horiz-adv-x="269" 
d="M226 714h66l-125 -714q-93 -46 -93 -108q0 -45 70 -45l-9 -46q-9 -1 -23 -1q-47 0 -72.5 20.5t-25.5 57.5q0 38 25 71t62 51z" />
    <glyph glyph-name="iogonek" unicode="&#x12f;" horiz-adv-x="236" 
d="M236 500l-88 -500q-93 -46 -93 -108q0 -45 70 -45l-9 -46q-9 -1 -23 -1q-47 0 -72.5 20.5t-25.5 57.5q0 39 25.5 72t64.5 51l88 499h63zM265 648h-69l14 79h69z" />
    <glyph glyph-name="dotlessi" unicode="&#x131;" horiz-adv-x="232" 
d="M236 500l-88 -500h-63l88 500h63z" />
    <glyph glyph-name="uni0136" unicode="&#x136;" horiz-adv-x="695" 
d="M94 0l125 714h66l-66 -374l455 374h85l-265 -225l165 -489h-70l-147 432h-20l-218 -178l-44 -254h-66zM329 -215h-43l58 60l3 17h-41l14 79h84l-17 -96z" />
    <glyph glyph-name="uni0137" unicode="&#x137;" horiz-adv-x="527" 
d="M514 0h-65l-100 287h-20l-156 -142l-25 -145h-63l128 727h63l-88 -497l298 270h80l-170 -154zM253 -215h-43l58 60l3 17h-41l14 79h84l-17 -96z" />
    <glyph glyph-name="kgreenlandic" unicode="&#x138;" horiz-adv-x="527" 
d="M514 0h-65l-100 287h-20l-156 -142l-25 -145h-63l88 500h63l-48 -270l298 270h80l-170 -154z" />
    <glyph glyph-name="Lacute" unicode="&#x139;" horiz-adv-x="604" 
d="M170 62h404l-10 -62h-470l125 714h66zM418 896l-127 -129h-60l105 129h82z" />
    <glyph glyph-name="lacute" unicode="&#x13a;" horiz-adv-x="233" 
d="M276 727l-128 -727h-63l128 727h63zM407 896l-127 -129h-60l105 129h82z" />
    <glyph glyph-name="uni013B" unicode="&#x13b;" horiz-adv-x="604" 
d="M170 62h404l-10 -62h-470l125 714h66zM296 -215h-43l58 60l3 17h-41l14 79h84l-17 -96z" />
    <glyph glyph-name="uni013C" unicode="&#x13c;" horiz-adv-x="233" 
d="M276 727l-128 -727h-63l128 727h63zM74 -215h-43l58 60l3 17h-41l14 79h84l-17 -96z" />
    <glyph glyph-name="Lcaron" unicode="&#x13d;" horiz-adv-x="604" 
d="M434 622h-41l17 92h84l-20 -109l-55 -67h-43l55 67zM170 62h404l-10 -62h-470l125 714h66z" />
    <glyph glyph-name="lcaron" unicode="&#x13e;" horiz-adv-x="310" 
d="M396 635h-41l17 92h84l-20 -109l-55 -67h-43l55 67zM276 727l-128 -727h-63l128 727h63z" />
    <glyph glyph-name="Lslash" unicode="&#x141;" horiz-adv-x="619" 
d="M185 62h404l-10 -62h-470l53 305l-99 -56l12 65l99 56l60 344h66l-54 -303l187 105l-11 -65l-187 -105z" />
    <glyph glyph-name="lslash" unicode="&#x142;" horiz-adv-x="319" 
d="M321 727l-53 -301l106 61l-11 -65l-107 -60l-63 -362h-63l56 322l-111 -63l12 65l111 63l60 340h63z" />
    <glyph glyph-name="Nacute" unicode="&#x143;" horiz-adv-x="749" 
d="M713 714h66l-125 -714h-117l-244 644h-20l-113 -644h-66l125 714h117l245 -644h19zM655 896l-127 -129h-60l105 129h82z" />
    <glyph glyph-name="nacute" unicode="&#x144;" 
d="M509 0h-63l52 295q6 34 6 56q0 106 -116 106q-73 0 -125 -53t-67 -134l-48 -270h-63l89 500h61l-10 -55h18q60 68 160 68q78 0 121 -41.5t43 -114.5q0 -21 -6 -61zM557 727l-131 -145h-60l109 145h82z" />
    <glyph glyph-name="uni0145" unicode="&#x145;" horiz-adv-x="749" 
d="M713 714h66l-125 -714h-117l-244 644h-20l-113 -644h-66l125 714h117l245 -644h19zM325 -215h-43l58 60l3 17h-41l14 79h84l-17 -96z" />
    <glyph glyph-name="uni0146" unicode="&#x146;" 
d="M509 0h-63l52 295q6 34 6 56q0 106 -116 106q-73 0 -125 -53t-67 -134l-48 -270h-63l89 500h61l-10 -55h18q60 68 160 68q78 0 121 -41.5t43 -114.5q0 -21 -6 -61zM275 -215h-43l58 60l3 17h-41l14 79h84l-17 -96z" />
    <glyph glyph-name="Ncaron" unicode="&#x147;" horiz-adv-x="749" 
d="M713 714h66l-125 -714h-117l-244 644h-20l-113 -644h-66l125 714h117l245 -644h19zM478 767l-83 129h63l52 -79h20l78 79h67l-127 -129h-70z" />
    <glyph glyph-name="ncaron" unicode="&#x148;" 
d="M509 0h-63l52 295q6 34 6 56q0 106 -116 106q-73 0 -125 -53t-67 -134l-48 -270h-63l89 500h61l-10 -55h18q60 68 160 68q78 0 121 -41.5t43 -114.5q0 -21 -6 -61zM366 582l-79 145h60l51 -95h20l85 95h64l-131 -145h-70z" />
    <glyph glyph-name="Eng" unicode="&#x14a;" horiz-adv-x="749" 
d="M537 0l-244 644h-20l-113 -644h-66l125 714h117l245 -644h19l113 644h66l-120 -686q-19 -107 -79.5 -167.5t-160.5 -60.5h-66l11 60h55q125 0 167 140h-49z" />
    <glyph glyph-name="eng" unicode="&#x14b;" 
d="M328 -200h-62l10 56h46q53 0 80.5 25.5t37.5 80.5l58 333q6 34 6 56q0 106 -116 106q-73 0 -125 -53t-67 -134l-48 -270h-63l89 500h61l-10 -55h18q60 68 160 68q78 0 121 -41.5t43 -114.5q0 -21 -6 -61l-60 -342q-29 -154 -173 -154z" />
    <glyph glyph-name="Omacron" unicode="&#x14c;" horiz-adv-x="758" 
d="M478 727q127 0 207.5 -82t80.5 -216q0 -115 -40.5 -214t-124.5 -163.5t-197 -64.5q-127 0 -207.5 82t-80.5 216q0 115 40.5 214t124.5 163.5t197 64.5zM407 47q60 0 110 24t83 62.5t56.5 88.5t33.5 101.5t10 102.5q0 105 -59 173t-166 68q-74 0 -132.5 -35.5t-92 -93
t-51 -121.5t-17.5 -129q0 -105 59 -173t166 -68zM665 817h-274l9 54h274z" />
    <glyph glyph-name="omacron" unicode="&#x14d;" horiz-adv-x="594" 
d="M364 513q96 0 159 -58.5t63 -159.5q0 -133 -72 -220.5t-196 -87.5q-96 0 -159 58.5t-63 159.5q0 133 72 220.5t196 87.5zM322 43q94 0 147.5 73.5t53.5 176.5q0 74 -45 119t-118 45q-94 0 -147.5 -73.5t-53.5 -176.5q0 -75 44.5 -119.5t118.5 -44.5zM531 648h-274l9 54
h274z" />
    <glyph glyph-name="Ohungarumlaut" unicode="&#x150;" horiz-adv-x="758" 
d="M478 727q127 0 207.5 -82t80.5 -216q0 -115 -40.5 -214t-124.5 -163.5t-197 -64.5q-127 0 -207.5 82t-80.5 216q0 115 40.5 214t124.5 163.5t197 64.5zM407 47q60 0 110 24t83 62.5t56.5 88.5t33.5 101.5t10 102.5q0 105 -59 173t-166 68q-74 0 -132.5 -35.5t-92 -93
t-51 -121.5t-17.5 -129q0 -105 59 -173t166 -68zM577 896l-117 -129h-56l95 129h78zM721 896l-117 -129h-56l95 129h78z" />
    <glyph glyph-name="ohungarumlaut" unicode="&#x151;" horiz-adv-x="594" 
d="M364 513q96 0 159 -58.5t63 -159.5q0 -133 -72 -220.5t-196 -87.5q-96 0 -159 58.5t-63 159.5q0 133 72 220.5t196 87.5zM322 43q94 0 147.5 73.5t53.5 176.5q0 74 -45 119t-118 45q-94 0 -147.5 -73.5t-53.5 -176.5q0 -75 44.5 -119.5t118.5 -44.5zM453 727l-121 -145
h-56l99 145h78zM597 727l-121 -145h-56l99 145h78z" />
    <glyph glyph-name="OE" unicode="&#x152;" horiz-adv-x="1074" 
d="M654 60h379l-10 -60h-445l9 52h-20q-71 -65 -171 -65q-128 0 -204 80t-76 222q0 86 23.5 163.5t67.5 139.5t115 98.5t159 36.5q118 0 191 -73h20l11 60h429l-10 -60h-363l-45 -252h286l-10 -60h-286zM407 47q133 0 200 119l67 382q-24 54 -76.5 86.5t-123.5 32.5
q-73 0 -131 -34t-92 -89.5t-51.5 -120.5t-17.5 -133q0 -116 59.5 -179.5t165.5 -63.5z" />
    <glyph glyph-name="oe" unicode="&#x153;" horiz-adv-x="952" 
d="M855 132h65q-21 -66 -75.5 -105.5t-130.5 -39.5q-57 0 -103.5 27t-72.5 75h-21q-72 -102 -203 -102q-94 0 -156 58t-62 160q0 133 70.5 220.5t192.5 87.5q61 0 110 -25.5t78 -73.5h20q70 99 194 99q92 0 142 -63t50 -156q0 -21 -1 -33h-376q-3 -27 -3 -54
q0 -75 40 -119.5t109 -44.5q93 0 133 89zM318 43q91 0 143.5 73.5t52.5 176.5q0 75 -43.5 119.5t-115.5 44.5q-92 0 -144 -73.5t-52 -176.5q0 -77 43 -120.5t116 -43.5zM757 457q-129 0 -170 -140h301q-4 64 -36 102t-95 38z" />
    <glyph glyph-name="Racute" unicode="&#x154;" horiz-adv-x="687" 
d="M214 311l-54 -311h-66l125 714h304q84 0 140 -48t56 -131q0 -153 -141 -205l59 -330h-66l-57 315q-25 -4 -56 -4h-244zM513 654h-238l-50 -283h245q83 0 133.5 41t50.5 122q0 59 -39.5 89.5t-101.5 30.5zM599 896l-127 -129h-60l105 129h82z" />
    <glyph glyph-name="racute" unicode="&#x155;" horiz-adv-x="372" 
d="M433 500l-11 -58h-37q-72 0 -123.5 -45.5t-65.5 -125.5l-48 -271h-63l89 500h61l-11 -61h19q61 61 157 61h33zM448 727l-131 -145h-60l109 145h82z" />
    <glyph glyph-name="uni0156" unicode="&#x156;" horiz-adv-x="687" 
d="M214 311l-54 -311h-66l125 714h304q84 0 140 -48t56 -131q0 -153 -141 -205l59 -330h-66l-57 315q-25 -4 -56 -4h-244zM513 654h-238l-50 -283h245q83 0 133.5 41t50.5 122q0 59 -39.5 89.5t-101.5 30.5zM304 -215h-43l58 60l3 17h-41l14 79h84l-17 -96z" />
    <glyph glyph-name="uni0157" unicode="&#x157;" horiz-adv-x="372" 
d="M433 500l-11 -58h-37q-72 0 -123.5 -45.5t-65.5 -125.5l-48 -271h-63l89 500h61l-11 -61h19q61 61 157 61h33zM79 -215h-43l58 60l3 17h-41l14 79h84l-17 -96z" />
    <glyph glyph-name="Rcaron" unicode="&#x158;" horiz-adv-x="687" 
d="M214 311l-54 -311h-66l125 714h304q84 0 140 -48t56 -131q0 -153 -141 -205l59 -330h-66l-57 315q-25 -4 -56 -4h-244zM513 654h-238l-50 -283h245q83 0 133.5 41t50.5 122q0 59 -39.5 89.5t-101.5 30.5zM423 767l-83 129h63l52 -79h20l78 79h67l-127 -129h-70z" />
    <glyph glyph-name="rcaron" unicode="&#x159;" horiz-adv-x="372" 
d="M433 500l-11 -58h-37q-72 0 -123.5 -45.5t-65.5 -125.5l-48 -271h-63l89 500h61l-11 -61h19q61 61 157 61h33zM278 582l-79 145h60l51 -95h20l85 95h64l-131 -145h-70z" />
    <glyph glyph-name="Sacute" unicode="&#x15a;" horiz-adv-x="646" 
d="M342 415l129 -32q162 -42 162 -185q0 -98 -78 -154.5t-192 -56.5q-115 0 -192.5 50.5t-88.5 153.5h69q22 -144 215 -144q81 0 141 36.5t60 110.5q0 100 -117 130l-135 34q-158 40 -158 167q0 96 69 149t180 53q100 0 170 -50t80 -136h-67q-28 126 -187 126
q-45 0 -83.5 -12t-67 -44t-28.5 -80q0 -88 119 -116zM576 896l-127 -129h-60l105 129h82z" />
    <glyph glyph-name="sacute" unicode="&#x15b;" horiz-adv-x="502" 
d="M304 457q-52 0 -88 -22t-36 -66q0 -29 19 -42t63 -27l94 -26q125 -35 125 -131q0 -68 -56.5 -112t-146.5 -44q-87 0 -147 37t-66 115h62q3 -43 45 -69.5t110 -26.5q57 0 96.5 25.5t39.5 71.5q0 54 -84 78l-93 26q-61 17 -92.5 46t-31.5 78q0 70 54 107.5t137 37.5
q78 0 132 -36.5t60 -102.5h-62q-5 38 -40 60.5t-94 22.5zM455 727l-131 -145h-60l109 145h82z" />
    <glyph glyph-name="Scedilla" unicode="&#x15e;" horiz-adv-x="646" 
d="M342 415l129 -32q162 -42 162 -185q0 -98 -78 -154.5t-192 -56.5q-15 0 -22 1l-26 -46h13q14 8 28 8q24 0 39 -18t15 -48q0 -39 -26.5 -64t-68.5 -25q-35 0 -56.5 18t-22.5 46h47q7 -23 35 -23q19 0 31 12.5t12 32.5q0 14 -9.5 23t-24.5 9q-19 0 -30 -11h-47l51 89
q-92 13 -151 62.5t-68 137.5h69q22 -144 215 -144q81 0 141 36.5t60 110.5q0 100 -117 130l-135 34q-158 40 -158 167q0 96 69 149t180 53q100 0 170 -50t80 -136h-67q-28 126 -187 126q-45 0 -83.5 -12t-67 -44t-28.5 -80q0 -88 119 -116z" />
    <glyph glyph-name="scedilla" unicode="&#x15f;" horiz-adv-x="502" 
d="M304 457q-52 0 -88 -22t-36 -66q0 -29 19 -42t63 -27l94 -26q125 -35 125 -131q0 -68 -56.5 -112t-146.5 -44h-10l-25 -45h13q14 8 28 8q24 0 39 -18t15 -48q0 -39 -26.5 -64t-68.5 -25q-35 0 -56.5 18t-22.5 46h47q7 -23 35 -23q19 0 31 12.5t12 32.5q0 14 -9.5 23
t-24.5 9q-19 0 -30 -11h-47l51 89q-69 9 -114.5 45.5t-49.5 102.5h62q3 -43 45 -69.5t110 -26.5q57 0 96.5 25.5t39.5 71.5q0 54 -84 78l-93 26q-61 17 -92.5 46t-31.5 78q0 70 54 107.5t137 37.5q78 0 132 -36.5t60 -102.5h-62q-5 38 -40 60.5t-94 22.5z" />
    <glyph glyph-name="Scaron" unicode="&#x160;" horiz-adv-x="646" 
d="M342 415l129 -32q162 -42 162 -185q0 -98 -78 -154.5t-192 -56.5q-115 0 -192.5 50.5t-88.5 153.5h69q22 -144 215 -144q81 0 141 36.5t60 110.5q0 100 -117 130l-135 34q-158 40 -158 167q0 96 69 149t180 53q100 0 170 -50t80 -136h-67q-28 126 -187 126
q-45 0 -83.5 -12t-67 -44t-28.5 -80q0 -88 119 -116zM393 767l-83 129h63l52 -79h20l78 79h67l-127 -129h-70z" />
    <glyph glyph-name="scaron" unicode="&#x161;" horiz-adv-x="502" 
d="M304 457q-52 0 -88 -22t-36 -66q0 -29 19 -42t63 -27l94 -26q125 -35 125 -131q0 -68 -56.5 -112t-146.5 -44q-87 0 -147 37t-66 115h62q3 -43 45 -69.5t110 -26.5q57 0 96.5 25.5t39.5 71.5q0 54 -84 78l-93 26q-61 17 -92.5 46t-31.5 78q0 70 54 107.5t137 37.5
q78 0 132 -36.5t60 -102.5h-62q-5 38 -40 60.5t-94 22.5zM289 582l-79 145h60l51 -95h20l85 95h64l-131 -145h-70z" />
    <glyph glyph-name="uni0162" unicode="&#x162;" horiz-adv-x="578" 
d="M684 714l-10 -60h-237l-115 -654h-66l115 654h-237l10 60h540zM245 -215h-43l58 60l3 17h-41l14 79h84l-17 -96z" />
    <glyph glyph-name="uni0163" unicode="&#x163;" horiz-adv-x="370" 
d="M270 500h130l-10 -56h-130l-54 -304q-4 -15 -4 -38q0 -46 70 -46h49l-9 -56h-35q-70 0 -104 22.5t-34 73.5q0 22 6 52l52 296h-91l10 56h91l27 155h63zM169 -215h-43l58 60l3 17h-41l14 79h84l-17 -96z" />
    <glyph glyph-name="Tcaron" unicode="&#x164;" horiz-adv-x="578" 
d="M684 714l-10 -60h-237l-115 -654h-66l115 654h-237l10 60h540zM386 767l-83 129h63l52 -79h20l78 79h67l-127 -129h-70z" />
    <glyph glyph-name="tcaron" unicode="&#x165;" horiz-adv-x="359" 
d="M445 635h-41l17 92h84l-20 -109l-55 -67h-43l55 67zM270 500h130l-10 -56h-130l-54 -304q-4 -15 -4 -38q0 -46 70 -46h49l-9 -56h-35q-70 0 -104 22.5t-34 73.5q0 22 6 52l52 296h-91l10 56h91l27 155h63z" />
    <glyph glyph-name="Tbar" unicode="&#x166;" horiz-adv-x="578" 
d="M684 714l-10 -60h-237l-45 -254h167l-10 -56h-167l-60 -344h-66l60 344h-168l10 56h168l45 254h-237l10 60h540z" />
    <glyph glyph-name="tbar" unicode="&#x167;" horiz-adv-x="370" 
d="M270 500h130l-10 -56h-130l-23 -129h129l-10 -56h-129l-21 -119q-4 -15 -4 -38q0 -46 70 -46h49l-9 -56h-35q-70 0 -104 22.5t-34 73.5q0 22 6 52l19 111h-90l10 56h90l23 129h-91l10 56h91l27 155h63z" />
    <glyph glyph-name="Utilde" unicode="&#x168;" horiz-adv-x="726" 
d="M693 714h66l-82 -465q-22 -126 -97.5 -194t-202.5 -68q-110 0 -178 58t-68 151q0 26 7 70l79 448h66l-79 -449q-7 -44 -7 -66q0 -72 48 -112t135 -40q103 0 159 55.5t75 163.5zM634 896h48q-22 -129 -109 -129q-22 0 -43 12.5t-34.5 27.5t-29.5 27.5t-29 12.5
q-41 0 -55 -80h-48q22 129 109 129q22 0 43 -12.5t34.5 -27.5t29.5 -27.5t29 -12.5q41 0 55 80z" />
    <glyph glyph-name="utilde" unicode="&#x169;" 
d="M166 500h63l-52 -295q-6 -34 -6 -56q0 -106 116 -106q73 0 125 53t67 134l48 270h63l-89 -500h-61l10 55h-18q-60 -68 -160 -68q-78 0 -121 41.5t-43 114.5q0 21 6 61zM528 718h48q-22 -129 -109 -129q-22 0 -43 12.5t-34.5 27.5t-29.5 27.5t-29 12.5q-41 0 -55 -80h-48
q22 129 109 129q22 0 43 -12.5t34.5 -27.5t29.5 -27.5t29 -12.5q41 0 55 80z" />
    <glyph glyph-name="Umacron" unicode="&#x16a;" horiz-adv-x="726" 
d="M693 714h66l-82 -465q-22 -126 -97.5 -194t-202.5 -68q-110 0 -178 58t-68 151q0 26 7 70l79 448h66l-79 -449q-7 -44 -7 -66q0 -72 48 -112t135 -40q103 0 159 55.5t75 163.5zM637 817h-274l9 54h274z" />
    <glyph glyph-name="umacron" unicode="&#x16b;" 
d="M533 648h-274l9 54h274zM166 500h63l-52 -295q-6 -34 -6 -56q0 -106 116 -106q73 0 125 53t67 134l48 270h63l-89 -500h-61l10 55h-18q-60 -68 -160 -68q-78 0 -121 41.5t-43 114.5q0 21 6 61z" />
    <glyph glyph-name="Uring" unicode="&#x16e;" horiz-adv-x="726" 
d="M693 714h66l-82 -465q-22 -126 -97.5 -194t-202.5 -68q-110 0 -178 58t-68 151q0 26 7 70l79 448h66l-79 -449q-7 -44 -7 -66q0 -72 48 -112t135 -40q103 0 159 55.5t75 163.5zM498 966q44 0 74.5 -31t30.5 -74q0 -44 -31 -75t-74 -31q-44 0 -75 31.5t-31 74.5t31 74
t75 31zM498 801q26 0 43 17t17 43t-17 43t-43 17t-43 -17t-17 -43t17 -43t43 -17z" />
    <glyph glyph-name="uring" unicode="&#x16f;" 
d="M393 793q43 0 74 -30.5t31 -74.5t-31 -75t-74 -31t-74.5 31t-31.5 75q0 43 31 74t75 31zM393 628q26 0 43 17t17 43t-17 43t-43 17t-43 -17t-17 -43t17 -43t43 -17zM166 500h63l-52 -295q-6 -34 -6 -56q0 -106 116 -106q73 0 125 53t67 134l48 270h63l-89 -500h-61l10 55
h-18q-60 -68 -160 -68q-78 0 -121 41.5t-43 114.5q0 21 6 61z" />
    <glyph glyph-name="Uhungarumlaut" unicode="&#x170;" horiz-adv-x="726" 
d="M693 714h66l-82 -465q-22 -126 -97.5 -194t-202.5 -68q-110 0 -178 58t-68 151q0 26 7 70l79 448h66l-79 -449q-7 -44 -7 -66q0 -72 48 -112t135 -40q103 0 159 55.5t75 163.5zM552 896l-117 -129h-56l95 129h78zM696 896l-117 -129h-56l95 129h78z" />
    <glyph glyph-name="uhungarumlaut" unicode="&#x171;" 
d="M447 727l-121 -145h-56l99 145h78zM591 727l-121 -145h-56l99 145h78zM166 500h63l-52 -295q-6 -34 -6 -56q0 -106 116 -106q73 0 125 53t67 134l48 270h63l-89 -500h-61l10 55h-18q-60 -68 -160 -68q-78 0 -121 41.5t-43 114.5q0 21 6 61z" />
    <glyph glyph-name="Uogonek" unicode="&#x172;" horiz-adv-x="726" 
d="M693 714h66l-82 -465q-31 -176 -164 -236q-67 -30 -97.5 -56.5t-30.5 -64.5q0 -45 70 -45l-9 -46q-9 -1 -23 -1q-47 0 -72.5 20.5t-25.5 57.5q0 65 65 109h-13q-110 0 -178 58t-68 151q0 26 7 70l79 448h66l-79 -449q-7 -44 -7 -66q0 -72 48 -112t135 -40q103 0 159 55.5
t75 163.5z" />
    <glyph glyph-name="uogonek" unicode="&#x173;" 
d="M166 500h63l-52 -295q-6 -34 -6 -56q0 -106 116 -106q73 0 125 53t67 134l48 270h63l-89 -500q-93 -46 -93 -108q0 -45 70 -45l-9 -46q-9 -1 -23 -1q-47 0 -72.5 20.5t-25.5 57.5q0 40 26 73t66 51l10 53h-18q-60 -68 -160 -68q-78 0 -121 41.5t-43 114.5q0 21 6 61z" />
    <glyph glyph-name="Ydieresis" unicode="&#x178;" horiz-adv-x="620" 
d="M357 373h28l263 341h74l-331 -434l-49 -280h-66l49 280l-180 434h69zM380 817h-69l13 79h69zM556 817h-69l13 79h69z" />
    <glyph glyph-name="Zacute" unicode="&#x179;" horiz-adv-x="629" 
d="M689 714l-14 -80l-527 -554l-4 -20h444l-10 -60h-528l14 81l528 553l4 20h-405l10 60h488zM596 896l-127 -129h-60l105 129h82z" />
    <glyph glyph-name="zacute" unicode="&#x17a;" horiz-adv-x="507" 
d="M448 0h-398l13 76l375 349l4 19h-297l10 56h381l-14 -75l-375 -349l-4 -20h314zM496 727l-131 -145h-60l109 145h82z" />
    <glyph glyph-name="Zdotaccent" unicode="&#x17b;" horiz-adv-x="629" 
d="M689 714l-14 -80l-527 -554l-4 -20h444l-10 -60h-528l14 81l528 553l4 20h-405l10 60h488zM487 817h-69l13 79h69z" />
    <glyph glyph-name="zdotaccent" unicode="&#x17c;" horiz-adv-x="507" 
d="M448 0h-398l13 76l375 349l4 19h-297l10 56h381l-14 -75l-375 -349l-4 -20h314zM396 648h-69l14 79h69z" />
    <glyph glyph-name="Zcaron" unicode="&#x17d;" horiz-adv-x="629" 
d="M689 714l-14 -80l-527 -554l-4 -20h444l-10 -60h-528l14 81l528 553l4 20h-405l10 60h488zM415 767l-83 129h63l52 -79h20l78 79h67l-127 -129h-70z" />
    <glyph glyph-name="zcaron" unicode="&#x17e;" horiz-adv-x="507" 
d="M448 0h-398l13 76l375 349l4 19h-297l10 56h381l-14 -75l-375 -349l-4 -20h314zM319 582l-79 145h60l51 -95h20l85 95h64l-131 -145h-70z" />
    <glyph glyph-name="florin" unicode="&#x192;" horiz-adv-x="413" 
d="M175 -200h-63l99 562h-95v56h105l26 148q15 84 60.5 122.5t126.5 38.5h35v-56h-41q-99 0 -119 -115l-25 -138h127v-56h-137z" />
    <glyph glyph-name="circumflex" unicode="&#x2c6;" horiz-adv-x="353" 
d="M343 727l79 -145h-60l-51 95h-20l-85 -95h-64l131 145h70z" />
    <glyph glyph-name="caron" unicode="&#x2c7;" horiz-adv-x="353" 
d="M247 582l-79 145h60l51 -95h20l85 95h64l-131 -145h-70z" />
    <glyph glyph-name="breve" unicode="&#x2d8;" horiz-adv-x="345" 
d="M388 727h52q-11 -72 -54 -108.5t-103 -36.5q-52 0 -85.5 28.5t-33.5 78.5q0 23 4 38h51q-3 -17 -3 -29q0 -33 19.5 -50.5t52.5 -17.5q80 0 100 97z" />
    <glyph glyph-name="dotaccent" unicode="&#x2d9;" horiz-adv-x="142" 
d="M223 648h-69l14 79h69z" />
    <glyph glyph-name="ring" unicode="&#x2da;" horiz-adv-x="284" 
d="M246 793q44 0 74.5 -30.5t30.5 -74.5t-31 -75t-74 -31q-44 0 -75 31t-31 75q0 43 31 74t75 31zM246 628q26 0 43 17t17 43t-17 43t-43 17t-43 -17t-17 -43t17 -43t43 -17z" />
    <glyph glyph-name="ogonek" unicode="&#x2db;" horiz-adv-x="209" 
d="M105 6l51 -6q-93 -46 -93 -108q0 -45 70 -45l-9 -46q-9 -1 -23 -1q-47 0 -72.5 20.5t-25.5 57.5q0 41 30 76t72 52z" />
    <glyph glyph-name="tilde" unicode="&#x2dc;" horiz-adv-x="398" 
d="M443 718h48q-22 -129 -109 -129q-22 0 -43 12.5t-34.5 27.5t-29.5 27.5t-29 12.5q-41 0 -55 -80h-48q22 129 109 129q22 0 43 -12.5t34.5 -27.5t29.5 -27.5t29 -12.5q41 0 55 80z" />
    <glyph glyph-name="hungarumlaut" unicode="&#x2dd;" horiz-adv-x="372" 
d="M319 727l-121 -145h-56l99 145h78zM463 727l-121 -145h-56l99 145h78z" />
    <glyph glyph-name="uni03A9" unicode="&#x3a9;" horiz-adv-x="752" 
d="M613 80v-20h139v-60h-267v59q203 117 203 319q0 131 -69.5 210t-183.5 79t-183.5 -79t-69.5 -210q0 -202 203 -319v-59h-267v60h139v20q-141 122 -141 298q0 155 87 252t232 97t232 -97t87 -252q0 -176 -141 -298z" />
    <glyph glyph-name="pi" unicode="&#x3c0;" horiz-adv-x="650" 
d="M629 0h-35q-64 0 -92.5 32t-28.5 98v314h-223v-444h-63v444h-81v56h523v-56h-93v-314q0 -39 16.5 -56.5t54.5 -17.5h22v-56z" />
    <glyph glyph-name="uni0401" unicode="&#x401;" horiz-adv-x="639" 
d="M170 60h428l-10 -60h-494l125 714h478l-10 -60h-412l-45 -252h335l-10 -60h-335zM414 817h-69l13 79h69zM590 817h-69l13 79h69z" />
    <glyph glyph-name="uni0402" unicode="&#x402;" horiz-adv-x="780" 
d="M443 -8l11 60q15 -5 63 -5q77 0 128.5 46.5t51.5 120.5q0 66 -46.5 105t-146.5 39q-83 0 -164 -22l-59 -336h-66l115 654h-196l10 60h519l-10 -60h-257l-45 -256q82 20 164 20q121 0 184.5 -58.5t63.5 -145.5q0 -104 -69.5 -165.5t-186.5 -61.5q-46 0 -64 5z" />
    <glyph glyph-name="uni0403" unicode="&#x403;" horiz-adv-x="610" 
d="M679 654h-403l-115 -654h-66l125 714h469zM591 902l-131 -145h-60l109 145h82z" />
    <glyph glyph-name="uni0404" unicode="&#x404;" horiz-adv-x="693" 
d="M406 47q78 0 132 38t82 102h71q-35 -91 -109 -145.5t-179 -54.5q-127 0 -207 82t-80 216q0 117 41 216t124.5 162.5t194.5 63.5q98 0 165.5 -49.5t86.5 -136.5h-69q-15 59 -62.5 92.5t-122.5 33.5q-112 0 -182.5 -76.5t-97.5 -191.5h352l-11 -60h-351q-2 -13 -2 -51
q0 -106 58.5 -173.5t165.5 -67.5z" />
    <glyph glyph-name="uni0405" unicode="&#x405;" horiz-adv-x="646" 
d="M342 415l129 -32q162 -42 162 -185q0 -98 -78 -154.5t-192 -56.5q-115 0 -192.5 50.5t-88.5 153.5h69q22 -144 215 -144q81 0 141 36.5t60 110.5q0 100 -117 130l-135 34q-158 40 -158 167q0 96 69 149t180 53q100 0 170 -50t80 -136h-67q-28 126 -187 126
q-45 0 -83.5 -12t-67 -44t-28.5 -80q0 -88 119 -116z" />
    <glyph glyph-name="uni0406" unicode="&#x406;" horiz-adv-x="269" 
d="M226 714h66l-125 -714h-66z" />
    <glyph glyph-name="uni0407" unicode="&#x407;" horiz-adv-x="269" 
d="M226 714h66l-125 -714h-66zM223 817h-69l13 79h69zM399 817h-69l13 79h69z" />
    <glyph glyph-name="uni0408" unicode="&#x408;" horiz-adv-x="570" 
d="M275 -13q-87 0 -143.5 49t-56.5 136q0 12 2 38h66q-2 -24 -2 -28q0 -66 35 -100.5t99 -34.5q144 0 177 184l85 483h66l-88 -499q-19 -107 -79.5 -167.5t-160.5 -60.5z" />
    <glyph glyph-name="uni0409" unicode="&#x409;" horiz-adv-x="1088" 
d="M663 429h199q90 0 149.5 -50.5t59.5 -138.5q0 -119 -78 -179.5t-201 -60.5h-270l115 654h-291l-37 -208q-30 -175 -69.5 -273t-88.5 -135.5t-124 -37.5h-17l11 66h17q51 0 84 28t64.5 112t58.5 240l47 268h421zM852 369h-200l-54 -309h207q89 0 144.5 45t55.5 134
q0 63 -43 96.5t-110 33.5z" />
    <glyph glyph-name="uni040A" unicode="&#x40a;" horiz-adv-x="1141" 
d="M713 413h210q87 0 144 -48.5t57 -133.5q0 -115 -75 -173t-194 -58h-280l62 351h-415l-62 -351h-66l125 714h66l-52 -301h415l52 301h66zM914 351h-212l-51 -291h219q84 0 136 42.5t52 126.5q0 59 -41 90.5t-103 31.5z" />
    <glyph glyph-name="uni040B" unicode="&#x40b;" horiz-adv-x="783" 
d="M723 0h-66l37 209q6 24 6 57q0 43 -36.5 67.5t-132.5 24.5q-99 0 -191 -21l-59 -337h-66l115 654h-196l10 60h519l-10 -60h-257l-45 -256q98 20 186 20q128 0 178.5 -39t50.5 -107q0 -22 -7 -66z" />
    <glyph glyph-name="uni040C" unicode="&#x40c;" horiz-adv-x="667" 
d="M94 0l125 714h66l-55 -315h229l201 315h71l-218 -347l102 -367h-70l-94 339h-232l-59 -339h-66zM580 887l-131 -145h-60l109 145h82z" />
    <glyph glyph-name="uni040E" unicode="&#x40e;" horiz-adv-x="617" 
d="M253 0h-72l140 216l-175 498h70l141 -398h28l260 398h74zM558 904h59q-14 -74 -65.5 -115t-123.5 -41q-64 0 -106.5 33t-42.5 91q0 16 3 32h57q-2 -14 -2 -20q0 -38 26 -60t68 -22q49 0 84 27.5t43 74.5z" />
    <glyph glyph-name="uni040F" unicode="&#x40f;" horiz-adv-x="735" 
d="M302 -175l30 175h-238l125 714h66l-115 -654h414l115 654h66l-125 -714h-242l-30 -175h-66z" />
    <glyph glyph-name="uni0410" unicode="&#x410;" horiz-adv-x="666" 
d="M516 714l128 -714h-69l-40 231h-322l-120 -231h-72l374 714h121zM427 644l-183 -353h281l-60 353h-38z" />
    <glyph glyph-name="uni0411" unicode="&#x411;" horiz-adv-x="672" 
d="M442 356h-219l-52 -296h226q86 0 139 43t53 128q0 61 -41.5 93t-105.5 32zM94 0l125 714h469l-10 -60h-403l-42 -238h220q87 0 144.5 -49t57.5 -135q0 -115 -75.5 -173.5t-194.5 -58.5h-291z" />
    <glyph glyph-name="uni0412" unicode="&#x412;" horiz-adv-x="686" 
d="M586 380l-4 -21q37 -21 58.5 -58t21.5 -81q0 -106 -74 -163t-184 -57h-310l125 714h283q81 0 137 -43t56 -120q0 -58 -30 -104.5t-79 -66.5zM275 654l-44 -250h221q80 0 128.5 33.5t48.5 108.5q0 53 -39 80.5t-95 27.5h-220zM170 60h223q89 0 146 40t57 123q0 61 -45 91
t-110 30h-221z" />
    <glyph glyph-name="uni0413" unicode="&#x413;" horiz-adv-x="610" 
d="M679 654h-403l-115 -654h-66l125 714h469z" />
    <glyph glyph-name="uni0414" unicode="&#x414;" horiz-adv-x="737" 
d="M618 60h101l-41 -235h-66l31 175h-561l-31 -175h-65l40 235h73q132 217 185 510l25 144h424zM552 60l105 594h-292l-15 -84q-53 -296 -177 -510h379z" />
    <glyph glyph-name="uni0415" unicode="&#x415;" horiz-adv-x="639" 
d="M170 60h428l-10 -60h-494l125 714h478l-10 -60h-412l-45 -252h335l-10 -60h-335z" />
    <glyph glyph-name="uni0416" unicode="&#x416;" horiz-adv-x="999" 
d="M788 334h-200l-58 -334h-66l58 334h-194l-194 -334h-74l211 362l-77 352h69l70 -320h200l56 320h66l-56 -320h194l182 320h74l-201 -352l85 -362h-68z" />
    <glyph glyph-name="uni0417" unicode="&#x417;" horiz-adv-x="643" 
d="M299 404h121q75 0 120.5 34.5t45.5 103.5q0 59 -44 92t-114 33q-151 0 -188 -126h-67q21 87 86 136.5t170 49.5q101 0 162 -51t61 -123q0 -62 -30 -105.5t-84 -60.5l-3 -18q90 -42 90 -137q0 -111 -81.5 -178t-204.5 -67q-119 0 -185 53.5t-71 147.5h68q6 -70 55 -105.5
t135 -35.5q90 0 154 45.5t64 130.5q0 55 -37 88t-117 33h-117z" />
    <glyph glyph-name="uni0418" unicode="&#x418;" horiz-adv-x="749" 
d="M219 714h66l-113 -644h20l470 644h117l-125 -714h-66l113 644h-20l-472 -644h-115z" />
    <glyph glyph-name="uni0419" unicode="&#x419;" horiz-adv-x="749" 
d="M219 714h66l-113 -644h20l470 644h117l-125 -714h-66l113 644h-20l-472 -644h-115zM633 904h59q-14 -74 -65.5 -115t-123.5 -41q-64 0 -106.5 33t-42.5 91q0 16 3 32h57q-2 -14 -2 -20q0 -38 26 -60t68 -22q49 0 84 27.5t43 74.5z" />
    <glyph glyph-name="uni041A" unicode="&#x41a;" horiz-adv-x="667" 
d="M94 0l125 714h66l-55 -315h229l201 315h71l-218 -347l102 -367h-70l-94 339h-232l-59 -339h-66z" />
    <glyph glyph-name="uni041B" unicode="&#x41b;" horiz-adv-x="703" 
d="M21 66h17q51 0 84 28t64.5 112t58.5 240l47 268h441l-125 -714h-66l115 654h-311l-37 -208q-30 -175 -69.5 -273t-88.5 -135.5t-124 -37.5h-17z" />
    <glyph glyph-name="uni041C" unicode="&#x41c;" horiz-adv-x="842" 
d="M94 0l125 714h111l142 -354h19l262 354h119l-125 -714h-66l113 644h-20l-268 -359h-69l-144 359h-20l-113 -644h-66z" />
    <glyph glyph-name="uni041D" unicode="&#x41d;" horiz-adv-x="746" 
d="M710 714h66l-125 -714h-66l59 338h-425l-59 -338h-66l125 714h66l-55 -314h425z" />
    <glyph glyph-name="uni041E" unicode="&#x41e;" horiz-adv-x="758" 
d="M478 727q127 0 207.5 -82t80.5 -216q0 -115 -40.5 -214t-124.5 -163.5t-197 -64.5q-127 0 -207.5 82t-80.5 216q0 115 40.5 214t124.5 163.5t197 64.5zM407 47q60 0 110 24t83 62.5t56.5 88.5t33.5 101.5t10 102.5q0 105 -59 173t-166 68q-74 0 -132.5 -35.5t-92 -93
t-51 -121.5t-17.5 -129q0 -105 59 -173t166 -68z" />
    <glyph glyph-name="uni041F" unicode="&#x41f;" horiz-adv-x="739" 
d="M219 714h550l-125 -714h-66l115 654h-419l-114 -654h-66z" />
    <glyph glyph-name="uni0420" unicode="&#x420;" horiz-adv-x="661" 
d="M219 714h286q87 0 144.5 -49t57.5 -135q0 -115 -75.5 -173.5t-194.5 -58.5h-225l-52 -298h-66zM494 654h-219l-52 -296h226q86 0 139 43t53 128q0 61 -41.5 93t-105.5 32z" />
    <glyph glyph-name="uni0421" unicode="&#x421;" horiz-adv-x="695" 
d="M623 193h70q-33 -93 -108.5 -149.5t-181.5 -56.5q-127 0 -207 82t-80 216q0 117 41 216t124.5 162.5t194.5 63.5q100 0 168 -51.5t86 -140.5h-69q-15 62 -62.5 97t-124.5 35q-73 0 -131 -35t-92 -92t-51.5 -121.5t-17.5 -130.5q0 -106 58.5 -173.5t165.5 -67.5
q80 0 135.5 39.5t81.5 106.5z" />
    <glyph glyph-name="uni0422" unicode="&#x422;" horiz-adv-x="578" 
d="M684 714l-10 -60h-237l-115 -654h-66l115 654h-237l10 60h540z" />
    <glyph glyph-name="uni0423" unicode="&#x423;" horiz-adv-x="617" 
d="M253 0h-72l140 216l-175 498h70l141 -398h28l260 398h74z" />
    <glyph glyph-name="uni0424" unicode="&#x424;" horiz-adv-x="837" 
d="M383 -13l16 91q-134 8 -212 75.5t-78 177.5q0 155 99 240t269 85h24l14 81h66l-14 -81q133 -8 211.5 -76t78.5 -178q0 -155 -99 -239.5t-269 -84.5h-24l-16 -91h-66zM476 138h23q129 0 210.5 68.5t81.5 189.5q0 90 -60.5 142.5t-173.5 57.5zM491 596h-23
q-129 0 -210.5 -68.5t-81.5 -189.5q0 -90 60.5 -142.5t173.5 -57.5z" />
    <glyph glyph-name="uni0425" unicode="&#x425;" horiz-adv-x="621" 
d="M524 0l-130 337h-38l-253 -337h-80l284 378l-127 336h69l112 -294h38l216 294h78l-246 -332l149 -382h-72z" />
    <glyph glyph-name="uni0426" unicode="&#x426;" horiz-adv-x="769" 
d="M643 -175l31 175h-580l125 714h66l-115 -654h414l115 654h66l-115 -654h100l-41 -235h-66z" />
    <glyph glyph-name="uni0427" unicode="&#x427;" horiz-adv-x="663" 
d="M185 714h66l-37 -209q-6 -24 -6 -57q0 -43 36.5 -67.5t132.5 -24.5q99 0 191 21l59 337h66l-125 -714h-66l55 316q-98 -20 -186 -20q-128 0 -178.5 39t-50.5 107q0 22 7 66z" />
    <glyph glyph-name="uni0428" unicode="&#x428;" horiz-adv-x="979" 
d="M884 0h-790l125 714h66l-115 -654h296l115 654h66l-115 -654h296l115 654h66z" />
    <glyph glyph-name="uni0429" unicode="&#x429;" horiz-adv-x="1013" 
d="M888 -175l31 175h-825l125 714h66l-115 -654h296l115 654h66l-115 -654h296l115 654h66l-115 -654h101l-41 -235h-66z" />
    <glyph glyph-name="uni042A" unicode="&#x42a;" horiz-adv-x="759" 
d="M324 429h209q90 0 149.5 -50.5t59.5 -138.5q0 -119 -78 -179.5t-201 -60.5h-280l114 654h-182l10 60h249zM523 369h-210l-54 -309h217q89 0 144.5 45t55.5 134q0 63 -43 96.5t-110 33.5z" />
    <glyph glyph-name="uni042B" unicode="&#x42b;" horiz-adv-x="866" 
d="M830 714h66l-125 -714h-66zM235 429h199q90 0 149.5 -50.5t59.5 -138.5q0 -119 -78 -179.5t-201 -60.5h-270l125 714h66zM424 369h-200l-54 -309h207q89 0 144.5 45t55.5 134q0 63 -43 96.5t-110 33.5z" />
    <glyph glyph-name="uni042C" unicode="&#x42c;" horiz-adv-x="670" 
d="M235 429h209q90 0 149.5 -50.5t59.5 -138.5q0 -119 -78 -179.5t-201 -60.5h-280l125 714h66zM434 369h-210l-54 -309h217q89 0 144.5 45t55.5 134q0 63 -43 96.5t-110 33.5z" />
    <glyph glyph-name="uni042D" unicode="&#x42d;" horiz-adv-x="703" 
d="M83 187h69q11 -64 66.5 -102t136.5 -38q115 0 188.5 85t93.5 207h-356l11 60h352q1 9 1 27q0 101 -57 171t-162 70q-155 0 -214 -126h-70q33 92 108.5 139t181.5 47q128 0 203.5 -86t75.5 -214q0 -117 -41 -215.5t-126 -161.5t-199 -63q-103 0 -174 55.5t-88 144.5z" />
    <glyph glyph-name="uni042E" unicode="&#x42e;" horiz-adv-x="1003" 
d="M1011 429q0 -115 -39.5 -214t-121.5 -163.5t-191 -64.5q-124 0 -202 82.5t-78 215.5q0 27 2 53h-162l-59 -338h-66l125 714h66l-55 -314h160q28 142 117 234.5t224 92.5q124 0 202 -82.5t78 -215.5zM662 47q58 0 106 24t80 62.5t54.5 88.5t32.5 101.5t10 102.5
q0 105 -56.5 173t-160.5 68q-58 0 -106 -24t-80 -62.5t-54.5 -88.5t-32.5 -101.5t-10 -102.5q0 -105 57 -173t160 -68z" />
    <glyph glyph-name="uni042F" unicode="&#x42f;" horiz-adv-x="701" 
d="M731 714l-125 -714h-66l54 311h-229q-30 0 -57 6l-164 -317h-72l176 339q-83 46 -83 148q0 112 73.5 169.5t188.5 57.5h304zM372 370h233l51 284h-241q-83 0 -133.5 -41t-50.5 -123q0 -60 39.5 -90t101.5 -30z" />
    <glyph glyph-name="uni0430" unicode="&#x430;" horiz-adv-x="547" 
d="M405 0l9 55h-20q-63 -68 -157 -68q-78 0 -121.5 43t-43.5 106q0 80 54 128t147 48h185l3 16q5 18 5 43q0 39 -29.5 62.5t-90.5 23.5q-62 0 -99.5 -23t-44.5 -63h-63q13 68 70 105t143 37q81 0 128.5 -38t47.5 -101q0 -33 -5 -51l-57 -323h-61zM250 43q71 0 125 49.5
t66 121.5l8 45h-163q-67 0 -108.5 -30.5t-41.5 -88.5q0 -45 30 -71t84 -26z" />
    <glyph glyph-name="uni0431" unicode="&#x431;" horiz-adv-x="596" 
d="M391 500q92 0 144.5 -58t52.5 -145q0 -125 -70.5 -217.5t-194.5 -92.5q-96 0 -152 59t-56 172q0 56 6.5 109.5t24.5 112.5t45.5 104.5t74.5 79t108 41.5l152 21q25 4 34 11t16 30h62q-7 -44 -32 -68.5t-80 -32.5l-152 -21q-131 -17 -171 -179h18q67 74 170 74zM330 42
q60 0 106 37.5t67.5 92.5t21.5 116q0 72 -41.5 114.5t-110.5 42.5q-60 0 -106 -37.5t-67.5 -92.5t-21.5 -116q0 -72 41 -114.5t111 -42.5z" />
    <glyph glyph-name="uni0432" unicode="&#x432;" horiz-adv-x="552" 
d="M462 273l-4 -20q68 -27 68 -100q0 -70 -52 -111.5t-136 -41.5h-253l88 500h225q66 0 102.5 -29.5t36.5 -84.5q0 -85 -75 -113zM395 444h-168l-28 -159h173q47 0 74.5 23t27.5 69q0 34 -22 50.5t-57 16.5zM377 229h-188l-31 -173h193q49 0 80.5 25.5t31.5 74.5
q0 36 -24 54.5t-62 18.5z" />
    <glyph glyph-name="uni0433" unicode="&#x433;" horiz-adv-x="484" 
d="M531 500l-10 -56h-295l-78 -444h-63l88 500h358z" />
    <glyph glyph-name="uni0434" unicode="&#x434;" horiz-adv-x="627" 
d="M519 56h91l-35 -199h-63l26 143h-449l-26 -143h-63l34 199h62q92 133 123 310l24 134h355zM456 56l69 388h-232l-14 -78q-34 -195 -114 -310h291z" />
    <glyph glyph-name="uni0435" unicode="&#x435;" horiz-adv-x="550" 
d="M453 132h64q-21 -67 -76 -106t-134 -39q-89 0 -150 60t-61 157q0 134 70 221.5t192 87.5q94 0 143.5 -63t49.5 -156q0 -21 -1 -33h-387q-4 -25 -4 -54q0 -74 42.5 -119t114.5 -45q100 0 137 89zM354 457q-66 0 -111.5 -38t-66.5 -102h311q-4 64 -36.5 102t-96.5 38z" />
    <glyph glyph-name="uni0436" unicode="&#x436;" horiz-adv-x="752" 
d="M246 228l-137 -228h-69l155 257l-60 243h64l53 -216h141l38 216h63l-38 -216h136l130 216h68l-147 -243l66 -257h-65l-58 228h-140l-40 -228h-63l40 228h-137z" />
    <glyph glyph-name="uni0437" unicode="&#x437;" horiz-adv-x="513" 
d="M235 283h86q49 0 85.5 22t36.5 70q0 39 -31 60.5t-81 21.5q-113 0 -137 -88h-62q30 144 202 144q79 0 125.5 -36t46.5 -91q0 -93 -80 -117l-3 -20q61 -23 61 -90q0 -82 -61 -127t-157 -45q-89 0 -141.5 41t-54.5 108h62q6 -48 44 -70.5t95 -22.5q60 0 105 28.5t45 82.5
q0 73 -107 73h-88z" />
    <glyph glyph-name="uni0438" unicode="&#x438;" horiz-adv-x="595" 
d="M198 0h-113l88 500h63l-78 -438h20l303 438h118l-88 -500h-63l77 438h-20z" />
    <glyph glyph-name="uni0439" unicode="&#x439;" horiz-adv-x="595" 
d="M198 0h-113l88 500h63l-78 -438h20l303 438h118l-88 -500h-63l77 438h-20zM502 727h53q-12 -69 -57 -107t-108 -38q-56 0 -92.5 30.5t-36.5 85.5q0 14 3 29h51q-2 -14 -2 -21q0 -35 22 -55t59 -20q42 0 71 25.5t37 70.5z" />
    <glyph glyph-name="uni043A" unicode="&#x43a;" horiz-adv-x="532" 
d="M427 0l-73 230h-166l-40 -230h-63l88 500h63l-38 -214h163l144 214h69l-163 -241l82 -259h-66z" />
    <glyph glyph-name="uni043B" unicode="&#x43b;" 
d="M26 0l10 58h17q53 0 85.5 55t58.5 200l33 187h360l-88 -500h-63l78 444h-238l-23 -131q-32 -175 -80 -244t-133 -69h-17z" />
    <glyph glyph-name="uni043C" unicode="&#x43c;" horiz-adv-x="669" 
d="M85 0l88 500h108l88 -242h20l171 242h113l-88 -500h-63l77 438h-17l-170 -238h-83l-86 238h-18l-77 -438h-63z" />
    <glyph glyph-name="uni043D" unicode="&#x43d;" horiz-adv-x="594" 
d="M598 500l-88 -500h-63l40 230h-299l-40 -230h-63l88 500h63l-38 -214h299l38 214h63z" />
    <glyph glyph-name="uni043E" unicode="&#x43e;" horiz-adv-x="594" 
d="M364 513q96 0 159 -58.5t63 -159.5q0 -133 -72 -220.5t-196 -87.5q-96 0 -159 58.5t-63 159.5q0 133 72 220.5t196 87.5zM322 43q94 0 147.5 73.5t53.5 176.5q0 74 -45 119t-118 45q-94 0 -147.5 -73.5t-53.5 -176.5q0 -75 44.5 -119.5t118.5 -44.5z" />
    <glyph glyph-name="uni043F" unicode="&#x43f;" horiz-adv-x="590" 
d="M506 0h-63l78 444h-295l-78 -444h-63l88 500h421z" />
    <glyph glyph-name="uni0440" unicode="&#x440;" horiz-adv-x="601" 
d="M593 294q0 -55 -16 -108t-46.5 -98t-81 -73t-113.5 -28q-111 0 -156 79h-20l-47 -266h-63l123 700h61l-10 -55h20q22 30 63.5 49t87.5 19q94 0 146 -62.5t52 -156.5zM392 457q-94 0 -147 -77.5t-53 -170.5q0 -78 37 -122t107 -44q77 0 135.5 67t58.5 183q0 72 -35.5 118
t-102.5 46z" />
    <glyph glyph-name="uni0441" unicode="&#x441;" horiz-adv-x="529" 
d="M454 143h65q-20 -73 -77 -114.5t-139 -41.5q-88 0 -147.5 59t-59.5 155q0 129 69.5 220.5t186.5 91.5q78 0 129.5 -43t61.5 -109h-64q-9 44 -42.5 70t-86.5 26q-87 0 -139 -76t-52 -177q0 -75 40.5 -118t108.5 -43q54 0 93 27t53 73z" />
    <glyph glyph-name="uni0442" unicode="&#x442;" horiz-adv-x="471" 
d="M108 444l10 56h411l-10 -56h-174l-78 -444h-63l78 444h-174z" />
    <glyph glyph-name="uni0443" unicode="&#x443;" horiz-adv-x="513" 
d="M159 -200h-67l148 248l-128 452h63l99 -353h27l209 353h68z" />
    <glyph glyph-name="uni0444" unicode="&#x444;" horiz-adv-x="690" 
d="M396 0h-20l-35 -200h-63l35 200q-90 4 -153.5 58t-63.5 150q0 141 80.5 216.5t205.5 75.5h20l40 227h63l-40 -227q90 -4 153.5 -58t63.5 -150q0 -141 -80.5 -216.5t-205.5 -75.5zM159 209q0 -72 47 -111.5t117 -41.5l69 388h-20q-105 0 -159 -67.5t-54 -167.5zM619 291
q0 72 -47 111.5t-117 41.5l-69 -388h20q105 0 159 67.5t54 167.5z" />
    <glyph glyph-name="uni0445" unicode="&#x445;" horiz-adv-x="524" 
d="M417 0l-95 221h-34l-176 -221h-74l205 256l-100 244h63l86 -209h34l162 209h71l-187 -241l113 -259h-68z" />
    <glyph glyph-name="uni0446" unicode="&#x446;" horiz-adv-x="619" 
d="M590 500l-78 -444h90l-35 -199h-63l25 143h-444l88 500h63l-78 -444h291l78 444h63z" />
    <glyph glyph-name="uni0447" unicode="&#x447;" horiz-adv-x="537" 
d="M144 500h63l-25 -143q-5 -20 -5 -45q0 -30 26 -46.5t95 -16.5q66 0 138 15l42 236h63l-88 -500h-63l36 208q-72 -15 -138 -15q-98 0 -136.5 29.5t-38.5 80.5q0 22 6 56z" />
    <glyph glyph-name="uni0448" unicode="&#x448;" horiz-adv-x="781" 
d="M722 500h63l-88 -500h-612l88 500h63l-78 -444h212l78 444h63l-78 -444h211z" />
    <glyph glyph-name="uni0449" unicode="&#x449;" horiz-adv-x="814" 
d="M722 500h63l-78 -444h90l-35 -199h-63l25 143h-639l88 500h63l-78 -444h212l78 444h63l-78 -444h211z" />
    <glyph glyph-name="uni044A" unicode="&#x44a;" horiz-adv-x="616" 
d="M98 444l10 56h213l-31 -175h156q67 0 112.5 -38.5t45.5 -105.5q0 -89 -59.5 -135t-151.5 -46h-223l78 444h-150zM435 269h-155l-37 -213h160q62 0 100 30.5t38 92.5q0 44 -30 67t-76 23z" />
    <glyph glyph-name="uni044B" unicode="&#x44b;" horiz-adv-x="702" 
d="M85 0l88 500h63l-31 -175h144q67 0 112.5 -38.5t45.5 -105.5q0 -89 -59.5 -135t-151.5 -46h-211zM338 269h-143l-37 -213h148q62 0 100 30.5t38 92.5q0 44 -30 67t-76 23zM555 0l88 500h63l-88 -500h-63z" />
    <glyph glyph-name="uni044C" unicode="&#x44c;" horiz-adv-x="531" 
d="M350 269h-155l-37 -213h160q62 0 100 30.5t38 92.5q0 44 -30 67t-76 23zM85 0l88 500h63l-31 -175h156q67 0 112.5 -38.5t45.5 -105.5q0 -89 -59.5 -135t-151.5 -46h-223z" />
    <glyph glyph-name="uni044D" unicode="&#x44d;" horiz-adv-x="542" 
d="M175 366h-64q22 68 76.5 107.5t135.5 39.5q95 0 153 -61.5t58 -155.5q0 -133 -72.5 -221t-192.5 -88q-80 0 -136 43t-60 108h64q5 -42 41.5 -68.5t95.5 -26.5q71 0 123.5 46t67.5 137h-244l10 56h240v16q0 68 -40.5 113.5t-108.5 45.5q-112 0 -147 -91z" />
    <glyph glyph-name="uni044E" unicode="&#x44e;" horiz-adv-x="784" 
d="M571 513q86 0 145.5 -59t59.5 -155q0 -129 -69 -220.5t-185 -91.5q-88 0 -147 59t-59 155q0 18 1 29h-129l-40 -230h-63l88 500h63l-38 -214h126q20 100 85.5 163.5t161.5 63.5zM525 43q87 0 137.5 76.5t50.5 176.5q0 74 -40 117.5t-107 43.5q-87 0 -137 -76.5
t-50 -176.5q0 -73 39.5 -117t106.5 -44z" />
    <glyph glyph-name="uni044F" unicode="&#x44f;" horiz-adv-x="562" 
d="M566 500l-88 -500h-63l37 211h-178q-17 0 -25 1l-118 -212h-67l128 231q-59 34 -59 108q0 79 53 120t135 41h245zM284 267h178l31 177h-182q-51 0 -83 -25.5t-32 -76.5q0 -36 25 -55.5t63 -19.5z" />
    <glyph glyph-name="uni0451" unicode="&#x451;" horiz-adv-x="550" 
d="M453 132h64q-21 -67 -76 -106t-134 -39q-89 0 -150 60t-61 157q0 134 70 221.5t192 87.5q94 0 143.5 -63t49.5 -156q0 -21 -1 -33h-387q-4 -25 -4 -54q0 -74 42.5 -119t114.5 -45q100 0 137 89zM354 457q-66 0 -111.5 -38t-66.5 -102h311q-4 64 -36.5 102t-96.5 38z
M331 648h-69l14 79h69zM507 648h-69l14 79h69z" />
    <glyph glyph-name="uni0452" unicode="&#x452;" horiz-adv-x="607" 
d="M123 586l9 50h85l16 91h63l-16 -91h213l-9 -50h-213l-30 -171h17q54 68 159 68q78 0 121 -41.5t43 -114.5q0 -21 -6 -61l-53 -298q-15 -78 -60 -123t-117 -45h-62l10 56h47q53 0 81 28.5t38 84.5l53 296q6 34 6 56q0 106 -116 106q-73 0 -125 -53t-67 -134l-43 -240h-63
l104 586h-85z" />
    <glyph glyph-name="uni0453" unicode="&#x453;" horiz-adv-x="484" 
d="M531 500l-10 -56h-295l-78 -444h-63l88 500h358zM519 727l-131 -145h-60l109 145h82z" />
    <glyph glyph-name="uni0454" unicode="&#x454;" horiz-adv-x="528" 
d="M452 138h65q-23 -72 -78.5 -111.5t-135.5 -39.5q-88 0 -147.5 59t-59.5 155q0 129 69.5 220.5t186.5 91.5q77 0 128.5 -41t61.5 -106h-64q-21 91 -129 91q-68 0 -115.5 -50t-65.5 -125h235l-10 -56h-234v-22q0 -73 40 -117t107 -44q53 0 91 25t55 70z" />
    <glyph glyph-name="uni0455" unicode="&#x455;" horiz-adv-x="502" 
d="M304 457q-52 0 -88 -22t-36 -66q0 -29 19 -42t63 -27l94 -26q125 -35 125 -131q0 -68 -56.5 -112t-146.5 -44q-87 0 -147 37t-66 115h62q3 -43 45 -69.5t110 -26.5q57 0 96.5 25.5t39.5 71.5q0 54 -84 78l-93 26q-61 17 -92.5 46t-31.5 78q0 70 54 107.5t137 37.5
q78 0 132 -36.5t60 -102.5h-62q-5 38 -40 60.5t-94 22.5z" />
    <glyph glyph-name="uni0456" unicode="&#x456;" horiz-adv-x="236" 
d="M236 500l-88 -500h-63l88 500h63zM265 648h-69l14 79h69z" />
    <glyph glyph-name="uni0457" unicode="&#x457;" horiz-adv-x="232" 
d="M236 500l-88 -500h-63l88 500h63zM178 648h-69l14 79h69zM354 648h-69l14 79h69z" />
    <glyph glyph-name="uni0458" unicode="&#x458;" horiz-adv-x="245" 
d="M-24 -200h-62l10 56h46q53 0 80.5 25.5t37.5 80.5l95 538h63l-97 -546q-29 -154 -173 -154zM274 648h-69l14 79h69z" />
    <glyph glyph-name="uni0459" unicode="&#x459;" horiz-adv-x="865" 
d="M429 0l78 444h-228l-23 -131q-32 -175 -80 -244t-133 -69h-17l10 58h17q53 0 85.5 55t58.5 200l33 187h350l-31 -175h146q67 0 112.5 -38.5t45.5 -105.5q0 -89 -59.5 -135t-151.5 -46h-213zM684 269h-145l-37 -213h150q62 0 100 30.5t38 92.5q0 44 -30 67t-76 23z" />
    <glyph glyph-name="uni045A" unicode="&#x45a;" horiz-adv-x="854" 
d="M417 0l40 230h-269l-40 -230h-63l88 500h63l-38 -214h269l38 214h63l-31 -175h147q67 0 112.5 -38.5t45.5 -105.5q0 -89 -59.5 -135t-151.5 -46h-214zM673 269h-146l-37 -213h151q62 0 100 30.5t38 92.5q0 44 -30 67t-76 23z" />
    <glyph glyph-name="uni045B" unicode="&#x45b;" horiz-adv-x="607" 
d="M123 586l9 50h85l16 91h63l-16 -91h213l-9 -50h-213l-30 -171h17q54 68 159 68q78 0 121 -41.5t43 -114.5q0 -21 -6 -61l-47 -266h-63l47 265q6 34 6 56q0 106 -116 106q-73 0 -125 -53t-67 -134l-43 -240h-63l104 586h-85z" />
    <glyph glyph-name="uni045C" unicode="&#x45c;" horiz-adv-x="532" 
d="M427 0l-73 230h-166l-40 -230h-63l88 500h63l-38 -214h163l144 214h69l-163 -241l82 -259h-66zM511 727l-131 -145h-60l109 145h82z" />
    <glyph glyph-name="uni045E" unicode="&#x45e;" horiz-adv-x="513" 
d="M159 -200h-67l148 248l-128 452h63l99 -353h27l209 353h68zM460 727h53q-12 -69 -57 -107t-108 -38q-56 0 -92.5 30.5t-36.5 85.5q0 14 3 29h51q-2 -14 -2 -21q0 -35 22 -55t59 -20q42 0 71 25.5t37 70.5z" />
    <glyph glyph-name="uni045F" unicode="&#x45f;" 
d="M590 500l-88 -500h-179l-25 -143h-63l25 143h-175l88 500h63l-78 -444h291l78 444h63z" />
    <glyph glyph-name="uni0490" unicode="&#x490;" horiz-adv-x="610" 
d="M275 654l-115 -654h-65l125 714h402l27 150h67l-37 -210h-404z" />
    <glyph glyph-name="uni0491" unicode="&#x491;" horiz-adv-x="484" 
d="M479 615h62l-30 -171h-286l-78 -444h-62l88 500h286z" />
    <glyph glyph-name="uni0492" unicode="&#x492;" horiz-adv-x="641" 
d="M87 327l10 56h97l58 331h468l-10 -60h-402l-48 -271h256l-10 -56h-256l-57 -327h-66l57 327h-97z" />
    <glyph glyph-name="uni0493" unicode="&#x493;" horiz-adv-x="512" 
d="M61 205l10 56h89l42 239h357l-10 -56h-295l-32 -183h196l-10 -56h-196l-36 -205h-62l36 205h-89z" />
    <glyph glyph-name="uni049A" unicode="&#x49a;" horiz-adv-x="699" 
d="M94 0l125 714h66l-55 -315h229l201 315h71l-218 -347l85 -307h86l-41 -235h-65l31 175h-64l-94 339h-232l-59 -339h-66z" />
    <glyph glyph-name="uni049B" unicode="&#x49b;" horiz-adv-x="573" 
d="M427 0l-73 230h-166l-40 -230h-63l88 500h63l-38 -214h163l144 214h69l-163 -241l64 -203h78l-35 -199h-62l26 143h-55z" />
    <glyph glyph-name="uni04A2" unicode="&#x4a2;" horiz-adv-x="780" 
d="M710 714h66l-115 -654h101l-41 -235h-65l31 175h-102l59 338h-425l-59 -338h-66l125 714h66l-55 -314h425z" />
    <glyph glyph-name="uni04A3" unicode="&#x4a3;" horiz-adv-x="627" 
d="M598 500l-79 -444h91l-35 -199h-62l26 143h-92l40 230h-300l-40 -230h-62l88 500h62l-38 -214h300l38 214h63z" />
    <glyph glyph-name="uni04AE" unicode="&#x4ae;" horiz-adv-x="620" 
d="M357 373h28l263 341h74l-331 -434l-49 -280h-66l49 280l-180 434h69z" />
    <glyph glyph-name="uni04AF" unicode="&#x4af;" horiz-adv-x="517" 
d="M190 -34l-78 534h61l69 -478h37l232 478h71l-269 -534h-29l-29 -166h-63l29 166h-31z" />
    <glyph glyph-name="uni04B0" unicode="&#x4b0;" horiz-adv-x="620" 
d="M357 373h28l263 341h74l-304 -398h161l-10 -56h-182l-45 -260h-66l45 260h-183l10 56h162l-165 398h69z" />
    <glyph glyph-name="uni04B1" unicode="&#x4b1;" horiz-adv-x="517" 
d="M75 -56l10 56h100l-73 500h61l69 -478h37l232 478h71l-252 -500h103l-10 -56h-143l-25 -144h-63l25 144h-142z" />
    <glyph glyph-name="uni04BA" unicode="&#x4ba;" horiz-adv-x="663" 
d="M602 0h-66l37 209q6 24 6 57q0 43 -36.5 67.5t-132.5 24.5q-99 0 -191 -21l-59 -337h-66l125 714h66l-55 -316q98 20 186 20q128 0 178.5 -39t50.5 -107q0 -22 -7 -66z" />
    <glyph glyph-name="uni04BB" unicode="&#x4bb;" 
d="M509 0h-63l52 295q6 34 6 56q0 106 -116 106q-73 0 -125 -53t-67 -134l-48 -270h-63l129 727h63l-50 -282h17q54 68 159 68q78 0 121 -41.5t43 -114.5q0 -21 -6 -61z" />
    <glyph glyph-name="uni04D8" unicode="&#x4d8;" horiz-adv-x="740" 
d="M251 541h-71q31 84 107 135t180 51q126 0 203.5 -82t77.5 -216q0 -85 -23 -163.5t-66 -141t-111.5 -100t-152.5 -37.5q-125 0 -202 82t-77 216q0 50 11 114h554q1 9 1 27q0 105 -56 173t-162 68q-79 0 -134.5 -35.5t-78.5 -90.5zM398 47q61 0 111 25t82.5 67.5t53.5 92.5
t30 107h-491q-3 -25 -3 -51q0 -106 55.5 -173.5t161.5 -67.5z" />
    <glyph glyph-name="uni04D9" unicode="&#x4d9;" horiz-adv-x="550" 
d="M185 368h-64q22 67 77.5 106t134.5 39q87 0 148 -59.5t61 -157.5q0 -134 -70 -221.5t-192 -87.5q-94 0 -143.5 64t-49.5 160q0 44 3 61h388q1 7 1 21q0 74 -43 119t-108 45q-59 0 -91 -22.5t-52 -66.5zM284 43q76 0 123.5 47.5t64.5 126.5h-322v-6q0 -168 134 -168z" />
    <glyph glyph-name="uni04E8" unicode="&#x4e8;" horiz-adv-x="758" 
d="M478 727q127 0 207.5 -82t80.5 -216q0 -115 -40.5 -214t-124.5 -163.5t-197 -64.5q-127 0 -207.5 82t-80.5 216q0 115 40.5 214t124.5 163.5t197 64.5zM407 47q62 0 113.5 25t85 67.5t55.5 92.5t31 107h-508q-2 -13 -2 -51q0 -105 59 -173t166 -68zM475 667
q-58 0 -107 -22.5t-82.5 -61.5t-56 -85t-35.5 -99h505q1 9 1 27q0 105 -59 173t-166 68z" />
    <glyph glyph-name="uni04E9" unicode="&#x4e9;" horiz-adv-x="594" 
d="M364 513q96 0 159 -58.5t63 -159.5q0 -133 -72 -220.5t-196 -87.5q-96 0 -159 58.5t-63 159.5q0 133 72 220.5t196 87.5zM322 43q78 0 127.5 51t66.5 132h-357v-19q0 -75 44.5 -119.5t118.5 -44.5zM360 457q-76 0 -125.5 -49t-67.5 -126h356v11q0 74 -45 119t-118 45z
" />
    <glyph glyph-name="endash" unicode="&#x2013;" horiz-adv-x="615" 
d="M608 247h-515l10 57h515z" />
    <glyph glyph-name="emdash" unicode="&#x2014;" horiz-adv-x="875" 
d="M868 247h-775l10 57h775z" />
    <glyph glyph-name="quoteleft" unicode="&#x2018;" horiz-adv-x="244" 
d="M223 610h43l-18 -102h-84l21 119l64 87h41l-64 -87z" />
    <glyph glyph-name="quoteright" unicode="&#x2019;" horiz-adv-x="244" 
d="M224 612h-43l18 102h84l-21 -119l-64 -87h-41l64 87z" />
    <glyph glyph-name="quotesinglbase" unicode="&#x201a;" horiz-adv-x="244" 
d="M123 0h-43l18 102h84l-21 -119l-64 -87h-41l64 87z" />
    <glyph glyph-name="quotedblleft" unicode="&#x201c;" horiz-adv-x="400" 
d="M223 610h43l-18 -102h-84l21 119l64 87h41l-64 -87zM379 610h43l-18 -102h-84l21 119l64 87h41l-64 -87z" />
    <glyph glyph-name="quotedblright" unicode="&#x201d;" horiz-adv-x="400" 
d="M224 612h-43l18 102h84l-21 -119l-64 -87h-41l64 87zM380 612h-43l18 102h84l-21 -119l-64 -87h-41l64 87z" />
    <glyph glyph-name="quotedblbase" unicode="&#x201e;" horiz-adv-x="400" 
d="M123 0h-43l18 102h84l-21 -119l-64 -87h-41l64 87zM279 0h-43l18 102h84l-21 -119l-64 -87h-41l64 87z" />
    <glyph glyph-name="dagger" unicode="&#x2020;" horiz-adv-x="550" 
d="M322 447h-193l10 53h193l37 214h63l-37 -214h194l-10 -53h-194l-105 -599h-63z" />
    <glyph glyph-name="daggerdbl" unicode="&#x2021;" horiz-adv-x="550" 
d="M322 447h-193l10 53h193l37 214h63l-37 -214h194l-10 -53h-194l-58 -332h193l-10 -53h-193l-37 -214h-63l37 214h-194l10 53h194z" />
    <glyph glyph-name="bullet" unicode="&#x2022;" horiz-adv-x="434" 
d="M132 356q0 61 43 104t104 43t104 -43t43 -104t-43 -104t-104 -43t-104 43t-43 104z" />
    <glyph glyph-name="ellipsis" unicode="&#x2026;" horiz-adv-x="712" 
d="M164 0h-84l17 102h84zM164 0h-84l17 102h84zM398 0h-84l17 102h84zM632 0h-84l17 102h84z" />
    <glyph glyph-name="perthousand" unicode="&#x2030;" horiz-adv-x="1268" 
d="M268 0h-68l548 700h67zM462 563q0 -95 -49.5 -161t-134.5 -66q-61 0 -99 42.5t-38 107.5q0 94 49.5 161t134.5 67q61 0 99 -43t38 -108zM283 387q55 0 88 52t33 120q0 104 -85 104q-54 0 -87 -52.5t-33 -120.5q0 -103 84 -103zM1246 214q0 -95 -49.5 -161t-134.5 -66
q-61 0 -99 42.5t-38 107.5q0 94 49.5 161t134.5 67q61 0 99 -43t38 -108zM1067 38q55 0 88 52t33 120q0 104 -85 104q-54 0 -87 -52.5t-33 -120.5q0 -103 84 -103zM874 214q0 -95 -49.5 -161t-134.5 -66q-61 0 -99 42.5t-38 107.5q0 94 49.5 161t134.5 67q61 0 99 -43
t38 -108zM695 38q55 0 88 52t33 120q0 104 -85 104q-54 0 -87 -52.5t-33 -120.5q0 -103 84 -103z" />
    <glyph glyph-name="guilsinglleft" unicode="&#x2039;" horiz-adv-x="335" 
d="M169 289l-4 -20l128 -165h-68l-120 149l10 59l169 148h74z" />
    <glyph glyph-name="guilsinglright" unicode="&#x203a;" horiz-adv-x="335" 
d="M264 275l4 20l-128 165h68l120 -149l-10 -59l-169 -148h-74z" />
    <glyph glyph-name="fraction" unicode="&#x2044;" horiz-adv-x="271" 
d="M-35 0h-62l547 700h61z" />
    <glyph glyph-name="Euro" unicode="&#x20ac;" horiz-adv-x="677" 
d="M110 397l27 52h61q37 123 113 194t180 71q88 0 143.5 -50t66.5 -145h-66q-6 66 -46.5 101.5t-100.5 35.5q-82 0 -139 -57.5t-84 -149.5h266l-27 -52h-252q-8 -29 -13 -78h224l-26 -52h-202v-24q0 -93 44 -145.5t120 -52.5q72 0 120 39t69 107h65q-29 -98 -96 -151
t-161 -53q-98 0 -162 68t-64 188v24h-83l27 52h59q5 41 12 78h-75z" />
    <glyph glyph-name="uni20B4" unicode="&#x20b4;" horiz-adv-x="634" 
d="M554 177h67q-21 -90 -87.5 -140t-173.5 -50q-108 0 -170 52t-62 135q0 44 22 90h-67l9 52h553l-9 -52h-418q-25 -38 -25 -87q0 -62 45 -97t124 -35q76 0 125.5 33.5t66.5 98.5zM659 394h-553l9 52h421q32 39 32 91q0 55 -42.5 87t-103.5 32q-136 0 -168 -113h-65
q15 76 75.5 123.5t159.5 47.5q93 0 151 -49.5t58 -127.5q0 -51 -27 -91h62z" />
    <glyph glyph-name="uni20B8" unicode="&#x20b8;" horiz-adv-x="515" 
d="M112 518l9 52h477l-9 -52h-206l-91 -518h-65l91 518h-206zM135 648l9 52h477l-9 -52h-477z" />
    <glyph glyph-name="uni20BD" unicode="&#x20bd;" horiz-adv-x="664" 
d="M104 304l9 52h98l60 344h247q83 0 137.5 -47t54.5 -128q0 -109 -72.5 -165t-184.5 -56h-186l-14 -78h264l-9 -52h-264l-31 -174h-64l30 174h-98l9 52h98l14 78h-98zM277 356h185q81 0 132 43.5t51 124.5q0 58 -39 88t-100 30h-179z" />
    <glyph glyph-name="uni2116" unicode="&#x2116;" horiz-adv-x="1131" 
d="M702 700h65l-123 -700h-117l-238 631h-19l-111 -631h-65l123 700h116l239 -631h19zM1099 217h-314l9 51h314zM1155 563q0 -95 -49.5 -161t-134.5 -66q-61 0 -99 42.5t-38 107.5q0 94 49.5 161t134.5 67q61 0 99 -43t38 -108zM976 387q55 0 88 52t33 120q0 104 -85 104
q-54 0 -87 -52.5t-33 -120.5q0 -103 84 -103z" />
    <glyph glyph-name="trademark" unicode="&#x2122;" horiz-adv-x="842" 
d="M462 333l67 381h88l63 -181h12l125 181h90l-67 -381h-52l58 328h-10l-128 -184h-60l-66 184h-10l-58 -328h-52zM465 714l-8 -46h-131l-59 -335h-52l59 335h-132l8 46h315z" />
    <glyph glyph-name="Omega" unicode="&#x2126;" horiz-adv-x="752" 
d="M613 80v-20h139v-60h-267v59q203 117 203 319q0 131 -69.5 210t-183.5 79t-183.5 -79t-69.5 -210q0 -202 203 -319v-59h-267v60h139v20q-141 122 -141 298q0 155 87 252t232 97t232 -97t87 -252q0 -176 -141 -298z" />
    <glyph glyph-name="arrowleft" unicode="&#x2190;" horiz-adv-x="822" 
d="M338 500h78l-201 -201v-21h587v-56h-587v-21l201 -201h-78l-250 250z" />
    <glyph glyph-name="arrowup" unicode="&#x2191;" horiz-adv-x="680" 
d="M649 464v-78l-201 201h-21v-587h-56v587h-21l-201 -201v78l250 250z" />
    <glyph glyph-name="arrowright" unicode="&#x2192;" horiz-adv-x="822" 
d="M476 500h78l250 -250l-250 -250h-78l201 201v21h-587v56h587v21z" />
    <glyph glyph-name="arrowdown" unicode="&#x2193;" horiz-adv-x="680" 
d="M649 328v-78l-250 -250l-250 250v78l201 -201h21v587h56v-587h21z" />
    <glyph glyph-name="uni2196" unicode="&#x2196;" horiz-adv-x="704" 
d="M224 306l-55 55v353h353l55 -55h-284l-15 -15l415 -415l-39 -39l-415 415l-15 -15v-284z" />
    <glyph glyph-name="uni2197" unicode="&#x2197;" horiz-adv-x="704" 
d="M663 361l-55 -55v284l-15 15l-415 -415l-39 39l415 415l-15 15h-284l55 55h353v-353z" />
    <glyph glyph-name="uni2198" unicode="&#x2198;" horiz-adv-x="704" 
d="M160 339l55 55v-284l15 -15l415 415l39 -39l-415 -415l15 -15h284l-55 -55h-353v353z" />
    <glyph glyph-name="uni2199" unicode="&#x2199;" horiz-adv-x="704" 
d="M598 394l55 -55v-353h-353l-55 55h284l15 15l-415 415l39 39l415 -415l15 15v284z" />
    <glyph glyph-name="partialdiff" unicode="&#x2202;" horiz-adv-x="582" 
d="M334 43q88 0 132 53t44 133t-44 133.5t-132 53.5t-132.5 -53.5t-44.5 -133.5t44.5 -133t132.5 -53zM215 727h79q278 -206 278 -472q0 -118 -61 -193t-179 -75q-107 0 -171.5 70.5t-64.5 172.5t64 172t170 70q83 0 130 -47h23q-62 149 -268 302z" />
    <glyph glyph-name="increment" unicode="&#x2206;" horiz-adv-x="634" 
d="M387 700l232 -620v-80h-554v80l232 620h90zM555 60v20l-203 550h-20l-203 -550v-20h426z" />
    <glyph glyph-name="product" unicode="&#x220f;" 
d="M539 -200h-68v854h-196v-854h-68v854h-97v60h526v-60h-97v-854z" />
    <glyph glyph-name="summation" unicode="&#x2211;" horiz-adv-x="546" 
d="M168 60h398v-60h-476v81l210 266v20l-201 267v80h451v-60h-373v-20l201 -267v-20l-210 -267v-20z" />
    <glyph glyph-name="minus" unicode="&#x2212;" horiz-adv-x="684" 
d="M139 309h504v-54h-504v54z" />
    <glyph glyph-name="radical" unicode="&#x221a;" horiz-adv-x="634" 
d="M133 500h62l132 -430h20l209 630h144v-54h-101l-216 -646h-94z" />
    <glyph glyph-name="infinity" unicode="&#x221e;" horiz-adv-x="937" 
d="M505 324h25q24 25 32 33t33 30t41.5 30.5t43 17.5t52.5 9q73 0 118.5 -44t45.5 -118t-45.5 -118t-118.5 -44q-42 0 -83 21t-65 43t-54 56h-25q-30 -34 -54 -56t-65 -43t-83 -21q-73 0 -118.5 44t-45.5 118t45.5 118t118.5 44q26 0 52.5 -9t43 -17.5t41.5 -30.5t33 -30
t32 -33zM474 282q-28 34 -47.5 53.5t-53.5 38.5t-67 19q-48 0 -80 -29.5t-32 -81.5t32 -81.5t80 -29.5t88 30.5t80 80.5zM561 282q40 -50 80 -80.5t88 -30.5t80 29.5t32 81.5t-32 81.5t-80 29.5q-33 0 -67 -19t-53.5 -38.5t-47.5 -53.5z" />
    <glyph glyph-name="integral" unicode="&#x222b;" horiz-adv-x="454" 
d="M475 727h35v-56h-41q-99 0 -119 -115l-105 -595q-15 -84 -60.5 -122.5t-125.5 -38.5h-35v56h40q99 0 119 115l105 595q15 84 60.5 122.5t126.5 38.5z" />
    <glyph glyph-name="approxequal" unicode="&#x2248;" horiz-adv-x="669" 
d="M574 450h54q0 -136 -123 -136q-34 0 -70 18.5t-61.5 40t-57.5 40t-59 18.5q-64 0 -64 -85h-54q0 136 123 136q35 0 71 -18.5t61.5 -40t57.5 -40t58 -18.5q64 0 64 85zM574 244h54q0 -136 -123 -136q-34 0 -70 18.5t-61.5 40t-57.5 40t-59 18.5q-64 0 -64 -85h-54
q0 136 123 136q35 0 71 -18.5t61.5 -40t57.5 -40t58 -18.5q64 0 64 85z" />
    <glyph glyph-name="notequal" unicode="&#x2260;" horiz-adv-x="683" 
d="M632 407v-54h-175l-92 -142h267v-54h-302l-81 -127h-61l82 127h-141v54h176l93 142h-269v54h304l83 127h57l-82 -127h141z" />
    <glyph glyph-name="lessequal" unicode="&#x2264;" horiz-adv-x="684" 
d="M623 120l-504 175v64l504 175v-60l-417 -137v-20l417 -137v-60zM119 0v54h504v-54h-504z" />
    <glyph glyph-name="greaterequal" unicode="&#x2265;" horiz-adv-x="684" 
d="M643 295l-504 -175v60l417 137v20l-417 137v60l504 -175v-64zM643 54v-54h-504v54h504z" />
    <glyph glyph-name="lozenge" unicode="&#x25ca;" horiz-adv-x="518" 
d="M353 714l162 -357l-162 -357h-74l-162 357l162 357h74zM326 70l124 287l-124 287h-20l-124 -287l124 -287h20z" />
    <glyph glyph-name="commaaccent" unicode="&#xf6c3;" horiz-adv-x="149" 
d="M40 -215h-43l58 60l3 17h-41l14 79h84l-17 -96z" />
    <glyph glyph-name="uniFEFF" unicode="&#xfeff;" horiz-adv-x="0" 
 />
    <glyph glyph-name="seven.numr" horiz-adv-x="306" 
d="M147 714h260l-9 -50l-232 -331h-60l218 311l4 21h-190z" />
    <glyph glyph-name="eight.numr" horiz-adv-x="373" 
d="M424 619q0 -52 -58 -86l-2 -12q42 -31 42 -75q0 -55 -43 -87.5t-106 -32.5q-59 0 -98.5 29t-39.5 79q0 68 67 99l2 12q-29 29 -29 67q0 48 39 78.5t99 30.5q53 0 90 -27t37 -75zM258 375q43 0 68 19t25 52q0 29 -24.5 45.5t-62.5 16.5q-39 0 -64.5 -20t-25.5 -52
q0 -29 23.5 -45t60.5 -16zM286 557q37 0 60 16t23 45q0 25 -22 39.5t-51 14.5q-36 0 -59.5 -16.5t-23.5 -45.5q0 -25 21.5 -39t51.5 -14z" />
    <glyph glyph-name="nine.numr" horiz-adv-x="365" 
d="M255 461q-54 0 -87 32t-33 81q0 62 39 104.5t107 42.5q58 0 95 -36t37 -105q0 -37 -8.5 -77.5t-27 -82t-54.5 -68t-83 -26.5q-48 0 -80 25.5t-40 73.5h55q7 -50 66 -50q40 0 69.5 34.5t35.5 80.5h-15q-25 -29 -76 -29zM276 672q-42 0 -64 -27.5t-22 -66.5q0 -30 20 -49
t56 -19q43 0 66 25.5t23 65.5q0 31 -20.5 51t-58.5 20z" />
    <glyph glyph-name="zero.dnom" horiz-adv-x="378" 
d="M245 388q58 0 91.5 -36.5t33.5 -106.5q0 -112 -47.5 -182t-127.5 -70q-59 0 -92.5 36t-33.5 106q0 112 48 182.5t128 70.5zM197 42q41 0 69 33.5t38.5 77t10.5 92.5q0 45 -19.5 69.5t-51.5 24.5q-60 0 -90 -63t-30 -141q0 -44 20 -68.5t53 -24.5z" />
    <glyph glyph-name="one.dnom" horiz-adv-x="329" 
d="M204 49h97l-8 -49h-249l8 49h97l47 264h-16l-89 -47l10 57l108 58h54z" />
    <glyph glyph-name="two.dnom" horiz-adv-x="352" 
d="M322 49l-10 -49h-272l12 62l169 118q19 13 31.5 23.5t25.5 31.5t13 44q0 26 -18.5 43t-49.5 17q-72 0 -87 -77h-55q12 63 50.5 94.5t95.5 31.5q51 0 85 -29t34 -75q0 -34 -17.5 -64t-35.5 -45.5t-46 -34.5l-112 -78l-3 -13h190z" />
    <glyph glyph-name="six.numr" horiz-adv-x="365" 
d="M286 586q54 0 87 -32t33 -81q0 -62 -39 -104.5t-107 -42.5q-58 0 -95 36t-37 105q0 37 8.5 77.5t27 82t54.5 68t83 26.5q48 0 80 -25.5t40 -73.5h-55q-7 50 -66 50q-40 0 -69.5 -34.5t-35.5 -80.5h15q25 29 76 29zM265 375q42 0 64 27.5t22 66.5q0 30 -20 49t-56 19
q-43 0 -66 -25.5t-23 -65.5q0 -31 20.5 -51t58.5 -20z" />
    <glyph glyph-name="four.dnom" horiz-adv-x="387" 
d="M316 139h55l-9 -49h-55l-15 -90h-55l15 90h-196l9 53l217 238h77zM136 139h125l29 168h-15l-136 -153z" />
    <glyph glyph-name="five.dnom" horiz-adv-x="359" 
d="M352 332h-185l-24 -89h20q21 18 61 18q51 0 83 -31.5t32 -82.5q0 -73 -42.5 -113.5t-104.5 -40.5q-63 0 -99.5 37t-36.5 86h53q3 -35 25 -54.5t59 -19.5t64 25.5t27 72.5q0 33 -20 52.5t-55 19.5q-50 0 -78 -37h-56l52 205h233z" />
    <glyph glyph-name="six.dnom" horiz-adv-x="365" 
d="M227 253q54 0 87 -32t33 -81q0 -62 -39 -104.5t-107 -42.5q-58 0 -95 36t-37 105q0 37 8.5 77.5t27 82t54.5 68t83 26.5q48 0 80 -25.5t40 -73.5h-55q-7 50 -66 50q-40 0 -69.5 -34.5t-35.5 -80.5h15q25 29 76 29zM206 42q42 0 64 27.5t22 66.5q0 30 -20 49t-56 19
q-43 0 -66 -25.5t-23 -65.5q0 -31 20.5 -51t58.5 -20z" />
    <glyph glyph-name="seven.dnom" horiz-adv-x="306" 
d="M88 381h260l-9 -50l-232 -331h-60l218 311l4 21h-190z" />
    <glyph glyph-name="eight.dnom" horiz-adv-x="373" 
d="M365 286q0 -52 -58 -86l-2 -12q42 -31 42 -75q0 -55 -43 -87.5t-106 -32.5q-59 0 -98.5 29t-39.5 79q0 68 67 99l2 12q-29 29 -29 67q0 48 39 78.5t99 30.5q53 0 90 -27t37 -75zM199 42q43 0 68 19t25 52q0 29 -25 45.5t-62 16.5q-39 0 -64.5 -20t-25.5 -52
q0 -29 23.5 -45t60.5 -16zM227 224q37 0 60 16t23 45q0 25 -22 39.5t-51 14.5q-36 0 -59.5 -16.5t-23.5 -45.5q0 -25 21.5 -39t51.5 -14z" />
    <glyph glyph-name="nine.dnom" horiz-adv-x="365" 
d="M200 128q-54 0 -87 32t-33 81q0 62 39 104.5t107 42.5q58 0 95 -36t37 -105q0 -37 -8.5 -77.5t-27 -82t-54.5 -68t-83 -26.5q-48 0 -80 25.5t-40 73.5h55q7 -50 66 -50q40 0 69.5 34.5t35.5 80.5h-15q-25 -29 -76 -29zM221 339q-42 0 -64 -27.5t-22 -66.5q0 -30 20 -49
t56 -19q43 0 66 25.5t23 65.5q0 31 -20.5 51t-58.5 20z" />
    <glyph glyph-name="zero.onum" horiz-adv-x="608" 
d="M370 513q98 0 164 -60t66 -163q0 -133 -73.5 -218t-200.5 -85q-98 0 -164 60t-66 163q0 135 73.5 219t200.5 84zM330 43q96 0 151.5 71.5t55.5 174.5q0 77 -47.5 122.5t-123.5 45.5q-96 0 -151.5 -71t-55.5 -175q0 -76 47.5 -122t123.5 -46z" />
    <glyph glyph-name="one.onum" horiz-adv-x="437" 
d="M60 0l10 56h142l67 377h-19l-138 -82l12 68l138 81h82l-79 -444h132l-10 -56h-337z" />
    <glyph glyph-name="two.onum" horiz-adv-x="543" 
d="M500 56l-10 -56h-435l13 75l234 109q35 16 58.5 29.5t50 34t40 47t13.5 57.5q0 47 -34.5 76t-96.5 29q-145 0 -166 -146h-63q10 88 71 145t161 57q91 0 141 -47t50 -112q0 -41 -16 -74.5t-48 -60t-62 -43.5t-75 -38l-136 -63l-3 -19h313z" />
    <glyph glyph-name="three.onum" horiz-adv-x="555" 
d="M540 424l-220 -167l-3 -20q94 -3 141 -59.5t47 -133.5q0 -109 -69 -179.5t-185 -70.5q-96 0 -159 55.5t-63 146.5h63q5 -68 49 -107t117 -39q82 0 133 55.5t51 136.5q0 68 -39.5 105.5t-106.5 37.5q-39 0 -63 -6l14 85l209 160l4 20h-311l8 56h395z" />
    <glyph glyph-name="four.onum" horiz-adv-x="603" 
d="M465 56h100l-10 -56h-100l-35 -200h-63l35 200h-352l13 76l386 424h104zM124 56h278l66 375h-20l-321 -355z" />
    <glyph glyph-name="five.onum" horiz-adv-x="583" 
d="M563 444h-334l-54 -222h21q48 52 132 52q95 0 152 -56.5t57 -147.5q0 -130 -73.5 -203t-177.5 -73q-105 0 -165 60t-62 142h62q5 -69 49.5 -107.5t118.5 -38.5q75 0 130 57t55 160q0 69 -40 109.5t-113 40.5q-98 0 -155 -73h-68l88 356h386z" />
    <glyph glyph-name="six.onum" horiz-adv-x="581" 
d="M368 452q94 0 152.5 -57t58.5 -143q0 -112 -67 -188.5t-183 -76.5q-93 0 -155.5 65t-62.5 188q0 55 8.5 114.5t30 125t53.5 116.5t85 84.5t118 33.5q80 0 133.5 -42.5t64.5 -116.5h-63q-9 49 -45.5 76t-91.5 27q-84 0 -140.5 -78.5t-73.5 -188.5h20q61 61 158 61zM338 43
q86 0 132 59.5t46 141.5q0 67 -42 109.5t-115 42.5q-85 0 -133 -56t-48 -138q0 -69 41.5 -114t118.5 -45z" />
    <glyph glyph-name="seven.onum" horiz-adv-x="538" 
d="M552 426l-398 -626h-69l397 626l4 20h-357l9 54h427z" />
    <glyph glyph-name="eight.onum" horiz-adv-x="600" 
d="M492 369l-4 -19q85 -55 85 -151q0 -95 -72.5 -153.5t-177.5 -58.5q-97 0 -164.5 52.5t-67.5 138.5q0 135 137 191l4 19q-68 44 -68 132q0 86 65 140t166 54q88 0 149.5 -48t61.5 -130q0 -56 -30.5 -100.5t-83.5 -66.5zM227 518q0 -58 44 -91t106 -33q72 0 119 38t47 102
q0 56 -44.5 90t-105.5 34q-71 0 -118.5 -39t-47.5 -101zM154 182q0 -63 50 -101t122 -38q80 0 132 43t52 113q0 66 -50 103.5t-124 37.5q-80 0 -131 -43.5t-51 -114.5z" />
    <glyph glyph-name="nine.onum" horiz-adv-x="581" 
d="M306 48q-94 0 -152.5 57t-58.5 143q0 112 67 188.5t183 76.5q93 0 155.5 -65t62.5 -188q0 -71 -15 -145.5t-46.5 -149.5t-92 -123t-141.5 -48q-80 0 -133.5 42.5t-64.5 116.5h63q9 -49 45.5 -76t91.5 -27q85 0 141 75t73 184h-20q-61 -61 -158 -61zM336 457
q-86 0 -132 -59.5t-46 -141.5q0 -67 42 -109.5t115 -42.5q85 0 133 56t48 138q0 69 -41.5 114t-118.5 45z" />
    <glyph glyph-name="zero.tnum" horiz-adv-x="630" 
d="M123 243q0 208 82 339.5t217 131.5q95 0 151.5 -66t56.5 -190q0 -208 -82 -339.5t-217 -131.5q-95 0 -151.5 66t-56.5 190zM188 243q0 -63 18 -107l311 477q-37 43 -98 43t-107.5 -38.5t-72.5 -102t-38.5 -132.5t-12.5 -140zM565 458q0 57 -17 103l-311 -475
q38 -41 97 -41q61 0 108 38.5t72.5 102t38 132.5t12.5 140z" />
    <glyph glyph-name="one.tnum" horiz-adv-x="630" 
d="M63 0l10 58h238l101 572h-19l-191 -112l12 70l191 112h84l-113 -642h204l-10 -58h-507z" />
    <glyph glyph-name="two.tnum" horiz-adv-x="630" 
d="M557 58l-10 -58h-459l13 78q24 18 65.5 50.5t53.5 41.5q119 90 192 151q28 22 44.5 38t40 43.5t35 61t11.5 72.5q0 56 -39 88t-101 32q-140 0 -171 -142h-64q19 100 86 150t160 50q83 0 138.5 -48t55.5 -127q0 -43 -14 -81.5t-43 -74t-52.5 -58.5t-63.5 -56
q-18 -15 -144 -114l-100 -77l-3 -20h369z" />
    <glyph glyph-name="three.tnum" horiz-adv-x="630" 
d="M613 622l-220 -170l-3 -20q94 -3 141.5 -60t47.5 -134q0 -109 -70 -180t-185 -71q-95 0 -159 56t-64 146h65q5 -68 48.5 -106t116.5 -38q81 0 132 55t51 136q0 68 -39 105t-106 37q-39 0 -63 -6l14 84l211 166l4 20h-313l8 58h395z" />
    <glyph glyph-name="four.tnum" horiz-adv-x="630" 
d="M507 229h98l-10 -58h-98l-30 -171h-64l30 171h-346l13 78l385 451h105zM172 229h271l69 399h-20l-317 -379z" />
    <glyph glyph-name="five.tnum" horiz-adv-x="630" 
d="M620 642h-333l-54 -225h21q48 52 131 52q95 0 152.5 -57t57.5 -148q0 -130 -74 -203.5t-178 -73.5q-106 0 -167 59.5t-61 142.5h64q4 -69 48 -106.5t119 -37.5t129.5 56t54.5 160q0 69 -39.5 109.5t-112.5 40.5q-98 0 -155 -72h-69l88 361h387z" />
    <glyph glyph-name="six.tnum" horiz-adv-x="630" 
d="M393 452q94 0 153 -57t59 -143q0 -112 -68 -188.5t-183 -76.5q-93 0 -156 65t-63 188q0 59 9 120t31.5 125.5t55.5 114.5t86.5 82t118.5 32q80 0 132 -42.5t62 -116.5h-65q-19 101 -131 101q-85 0 -143.5 -76.5t-75.5 -188.5h20q61 61 158 61zM363 45q86 0 131.5 58.5
t45.5 140.5q0 68 -41 109t-115 41q-85 0 -132.5 -55t-47.5 -137q0 -69 40.5 -113t118.5 -44z" />
    <glyph glyph-name="seven.tnum" horiz-adv-x="630" 
d="M635 622l-397 -622h-69l396 622l4 20h-357l10 58h427z" />
    <glyph glyph-name="eight.tnum" horiz-adv-x="630" 
d="M508 367l-4 -19q86 -56 86 -150q0 -96 -72.5 -153.5t-178.5 -57.5q-97 0 -165 52t-68 138q0 133 138 190l4 19q-71 46 -71 133q0 85 67 140t167 55q88 0 151 -48.5t63 -130.5q0 -56 -31.5 -101t-85.5 -67zM242 517q0 -57 44 -90t107 -33q74 0 120.5 37.5t46.5 101.5
q0 55 -44.5 89t-106.5 34q-73 0 -120 -38.5t-47 -100.5zM171 181q0 -62 49.5 -99t121.5 -37q81 0 132 41.5t51 111.5q0 65 -49.5 101.5t-123.5 36.5q-80 0 -130.5 -42t-50.5 -113z" />
    <glyph glyph-name="nine.tnum" horiz-adv-x="630" 
d="M360 249q-94 0 -153 57t-59 143q0 112 68 188.5t183 76.5q93 0 156 -65t63 -188q0 -59 -9 -120t-31.5 -125.5t-55.5 -114.5t-86.5 -82t-118.5 -32q-80 0 -132 42.5t-62 116.5h65q19 -101 131 -101q85 0 143.5 76.5t75.5 188.5h-20q-61 -61 -158 -61zM390 656
q-86 0 -131.5 -58.5t-45.5 -140.5q0 -67 41.5 -108.5t114.5 -41.5q85 0 132.5 55t47.5 137q0 69 -40.5 113t-118.5 44z" />
    <glyph glyph-name="dollar.tnum" horiz-adv-x="630" 
d="M476 798l-16 -91q65 -15 108.5 -61t53.5 -115h-65q-18 92 -107 118l-46 -260l31 -10q69 -22 109.5 -70t40.5 -117q0 -92 -68 -148.5t-175 -56.5h-8l-15 -85h-51l15 90q-78 13 -130.5 62t-61.5 133h65q16 -113 138 -137l51 294l-26 9q-145 48 -145 165q0 88 65.5 142
t162.5 54h8l15 84h51zM411 323l-17 5l-50 -283h8q72 0 120 37.5t48 105.5q0 101 -109 135zM342 409l14 -5l44 252h-6q-67 0 -111 -33t-44 -99q0 -47 25.5 -73t77.5 -42z" />
    <glyph glyph-name="Euro.tnum" horiz-adv-x="630" 
d="M86 397l27 52h59q37 123 111.5 194t175.5 71q86 0 139.5 -50.5t63.5 -144.5h-65q-6 66 -44.5 101.5t-96.5 35.5q-80 0 -134 -57t-82 -150h262l-27 -52h-249q-8 -45 -12 -78h220l-27 -52h-197v-24q0 -93 42.5 -145.5t115.5 -52.5q70 0 116 39.5t67 106.5h64
q-28 -97 -93 -150.5t-157 -53.5q-94 0 -157 68.5t-63 187.5v24h-82l27 52h58q4 41 12 78h-74z" />
    <glyph glyph-name="sterling.tnum" horiz-adv-x="630" 
d="M211 58h385l-10 -58h-517l10 58h21q70 0 87 94l25 138h-92l10 58h92l28 160q36 206 219 206q78 0 127 -40t49 -113q0 -19 -3 -42h-64q3 18 3 35q0 47 -29 74.5t-85 27.5q-69 0 -103.5 -39.5t-48.5 -109.5l-28 -159h212l-10 -58h-212l-23 -129q-5 -22 -7.5 -31.5t-11 -25
t-21.5 -26.5z" />
    <glyph glyph-name="yen.tnum" horiz-adv-x="630" 
d="M188 296l9 52h99l-129 352h66l128 -352h28l252 352h72l-255 -352h101l-9 -52h-130l-27 -38l-7 -40h150l-9 -52h-150l-29 -166h-64l29 166h-148l9 52h148l7 40l-14 38h-127z" />
    <glyph glyph-name="uni20BD.tnum" horiz-adv-x="630" 
d="M93 304l9 52h91l60 344h223q83 0 137.5 -47t54.5 -128q0 -109 -72.5 -165t-184.5 -56h-162l-14 -78h240l-9 -52h-240l-31 -174h-64l30 174h-91l9 52h91l14 78h-91zM259 356h161q81 0 132 43.5t51 124.5q0 58 -39 88t-100 30h-155z" />
    <glyph glyph-name="uni20B4.tnum" horiz-adv-x="630" 
d="M541 177h67q-24 -90 -89 -140t-166 -50q-102 0 -160.5 53.5t-58.5 136.5q0 46 23 87h-62l8 52h526l-9 -52h-393q-28 -40 -28 -90q0 -58 42 -93.5t114 -35.5q71 0 119.5 33.5t66.5 98.5zM642 394h-525l8 52h397q33 38 33 91q0 54 -38 86.5t-91 32.5q-130 0 -168 -113h-65
q19 76 79 123.5t155 47.5q86 0 139.5 -50.5t53.5 -126.5q0 -47 -28 -91h59z" />
    <glyph glyph-name="uni20B8.tnum" horiz-adv-x="630" 
d="M169 518l9 52h477l-9 -52h-206l-91 -518h-65l91 518h-206zM192 648l9 52h477l-9 -52h-477z" />
    <glyph glyph-name="cent.tnum" horiz-adv-x="630" 
d="M497 143h65q-21 -73 -77.5 -114.5t-140.5 -41.5l-12 -67h-51l13 73q-69 16 -112 71t-43 137q0 127 67 217t180 94l12 68h51l-13 -71q62 -11 102 -51t49 -97h-64q-9 37 -33.5 61.5t-63.5 31.5l-72 -411q53 0 90 27t53 73zM202 204q0 -62 27 -102.5t75 -52.5l72 407
q-80 -6 -127 -81t-47 -171z" />
    <glyph glyph-name="hungarumlaut.cap" horiz-adv-x="372" 
d="M248 896l-117 -129h-56l95 129h78zM392 896l-117 -129h-56l95 129h78z" />
    <glyph glyph-name="breve.cap" horiz-adv-x="345" 
d="M314 896h53q-12 -64 -54.5 -96.5t-101.5 -32.5q-51 0 -85.5 27.5t-34.5 73.5q0 10 2 28h53q-2 -14 -2 -19q0 -62 72 -62q78 0 98 81z" />
    <glyph glyph-name="dotaccent.cap" horiz-adv-x="142" 
d="M153 817h-69l13 79h69z" />
    <glyph glyph-name="caron.cap" horiz-adv-x="353" 
d="M180 767l-83 129h63l52 -79h20l78 79h67l-127 -129h-70z" />
    <glyph glyph-name="ring.cap" horiz-adv-x="284" 
d="M186 966q44 0 74.5 -31t30.5 -74q0 -44 -31 -75t-74 -31q-44 0 -75 31.5t-31 74.5t31 74t75 31zM186 801q26 0 43 17t17 43t-17 43t-43 17t-43 -17t-17 -43t17 -43t43 -17z" />
    <glyph glyph-name="tilde.cap" horiz-adv-x="398" 
d="M375 896h48q-22 -129 -109 -129q-22 0 -43 12.5t-34.5 27.5t-29.5 27.5t-29 12.5q-41 0 -55 -80h-48q22 129 109 129q22 0 43 -12.5t34.5 -27.5t29.5 -27.5t29 -12.5q41 0 55 80z" />
    <glyph glyph-name="grave.cap" horiz-adv-x="234" 
d="M180 767l-83 129h78l61 -129h-56z" />
    <glyph glyph-name="macron.cap" horiz-adv-x="347" 
d="M358 817h-274l9 54h274z" />
    <glyph glyph-name="acute.cap" horiz-adv-x="234" 
d="M260 896l-127 -129h-60l105 129h82z" />
    <glyph glyph-name="dieresis.cap" horiz-adv-x="318" 
d="M153 817h-69l13 79h69zM329 817h-69l13 79h69z" />
    <glyph glyph-name="circumflex.cap" horiz-adv-x="353" 
d="M75 767l127 129h70l83 -129h-61l-51 79h-20l-79 -79h-69z" />
    <glyph glyph-name="cyrbreve" horiz-adv-x="400" 
d="M423 727h53q-12 -69 -57 -107t-108 -38q-56 0 -92.5 30.5t-36.5 85.5q0 14 3 29h51q-2 -14 -2 -21q0 -35 22 -55t59 -20q42 0 71 25.5t37 70.5z" />
    <glyph glyph-name="cyrbreve.cap" horiz-adv-x="409" 
d="M376 904h59q-14 -74 -65.5 -115t-123.5 -41q-64 0 -106.5 33t-42.5 91q0 16 3 32h57q-2 -14 -2 -20q0 -38 26 -60t68 -22q49 0 84 27.5t43 74.5z" />
    <glyph glyph-name="hyphen.case" horiz-adv-x="360" 
d="M368 332h-260l10 57h260z" />
    <glyph glyph-name="endash.case" horiz-adv-x="615" 
d="M623 332h-515l10 57h515z" />
    <glyph glyph-name="emdash.case" horiz-adv-x="875" 
d="M883 332h-775l10 57h775z" />
    <glyph glyph-name="emdash.ss02.case" horiz-adv-x="1445" 
d="M1453 332h-1345l10 57h1345z" />
    <glyph glyph-name="bracketleft.case" horiz-adv-x="298" 
d="M224 -93h-161l158 900h161l-9 -54h-98l-140 -792h98z" />
    <glyph glyph-name="bracketright.case" horiz-adv-x="298" 
d="M198 807h161l-158 -900h-161l9 54h98l140 792h-98z" />
    <glyph glyph-name="braceleft.case" horiz-adv-x="375" 
d="M227 367l-4 -20q36 -13 36 -63q0 -24 -6 -46l-30 -174q-4 -17 -4 -42q0 -61 75 -61h33l-9 -54h-33q-129 0 -129 109q0 28 5 48l29 169q5 32 5 47q0 50 -48 50h-10l10 54h10q36 0 52 23t25 74l31 177q26 149 166 149h45l-9 -54h-36q-86 0 -103 -96l-34 -192
q-15 -81 -67 -98z" />
    <glyph glyph-name="braceright.case" horiz-adv-x="375" 
d="M280 347l4 20q-36 13 -36 63q0 24 6 46l30 174q4 17 4 42q0 61 -75 61h-33l9 54h33q129 0 129 -109q0 -28 -5 -48l-29 -169q-5 -32 -5 -47q0 -50 48 -50h10l-10 -54h-10q-36 0 -52 -23t-25 -74l-31 -177q-26 -149 -166 -149h-45l9 54h36q86 0 103 96l34 192q15 81 67 98z
" />
    <glyph glyph-name="parenleft.case" horiz-adv-x="286" 
d="M260 -93h-62q-99 150 -99 347q0 159 66 300t181 253h74q-256 -256 -256 -553q0 -189 96 -347z" />
    <glyph glyph-name="parenright.case" horiz-adv-x="287" 
d="M143 807h62q99 -150 99 -347q0 -159 -66 -300t-181 -253h-74q256 256 256 553q0 189 -96 347z" />
    <glyph glyph-name="guillemotright.case" horiz-adv-x="526" 
d="M465 341l4 20l-128 165h68l120 -149l-10 -59l-169 -148h-74zM274 341l4 20l-128 165h68l120 -149l-10 -59l-169 -148h-74z" />
    <glyph glyph-name="guillemotleft.case" horiz-adv-x="526" 
d="M180 355l-4 -20l128 -165h-68l-120 149l10 59l169 148h74zM371 355l-4 -20l128 -165h-68l-120 149l10 59l169 148h74z" />
    <glyph glyph-name="guilsinglright.case" horiz-adv-x="335" 
d="M274 341l4 20l-128 165h68l120 -149l-10 -59l-169 -148h-74z" />
    <glyph glyph-name="guilsinglleft.case" horiz-adv-x="335" 
d="M180 355l-4 -20l128 -165h-68l-120 149l10 59l169 148h74z" />
    <glyph glyph-name="exclamdown.case" horiz-adv-x="302" 
d="M175 0h-66l52 297l55 239h41l-30 -239zM225 714h84l-17 -102h-84z" />
    <glyph glyph-name="questiondown.case" horiz-adv-x="534" 
d="M289 -13q-82 0 -135.5 46t-53.5 121q0 70 36 121t110 96q50 31 72 57t31 79l5 29h63l-5 -29q-11 -66 -40.5 -102t-100.5 -81q-56 -34 -82 -73t-26 -95q0 -51 35.5 -83.5t96.5 -32.5q136 0 161 145h62q-35 -198 -229 -198zM372 714h81l-17 -101h-81z" />
    <glyph glyph-name="a.ss03" horiz-adv-x="600" 
d="M96 206q0 55 16 108t46.5 98t81 73t113.5 28q113 0 158 -79h20l12 66h61l-88 -500h-61l10 55h-20q-22 -30 -63.5 -49t-87.5 -19q-94 0 -146 62.5t-52 156.5zM297 43q94 0 147 77.5t53 170.5q0 78 -37 122t-107 44q-77 0 -135.5 -67t-58.5 -183q0 -72 35.5 -118t102.5 -46
z" />
    <glyph glyph-name="atilde.ss03" horiz-adv-x="600" 
d="M96 206q0 55 16 108t46.5 98t81 73t113.5 28q113 0 158 -79h20l12 66h61l-88 -500h-61l10 55h-20q-22 -30 -63.5 -49t-87.5 -19q-94 0 -146 62.5t-52 156.5zM297 43q94 0 147 77.5t53 170.5q0 78 -37 122t-107 44q-77 0 -135.5 -67t-58.5 -183q0 -72 35.5 -118t102.5 -46
zM536 718h48q-22 -129 -109 -129q-22 0 -43 12.5t-34.5 27.5t-29.5 27.5t-29 12.5q-41 0 -55 -80h-48q22 129 109 129q22 0 43 -12.5t34.5 -27.5t29.5 -27.5t29 -12.5q41 0 55 80z" />
    <glyph glyph-name="adieresis.ss03" horiz-adv-x="600" 
d="M96 206q0 55 16 108t46.5 98t81 73t113.5 28q113 0 158 -79h20l12 66h61l-88 -500h-61l10 55h-20q-22 -30 -63.5 -49t-87.5 -19q-94 0 -146 62.5t-52 156.5zM297 43q94 0 147 77.5t53 170.5q0 78 -37 122t-107 44q-77 0 -135.5 -67t-58.5 -183q0 -72 35.5 -118t102.5 -46
zM355 648h-69l14 79h69zM531 648h-69l14 79h69z" />
    <glyph glyph-name="acircumflex.ss03" horiz-adv-x="600" 
d="M96 206q0 55 16 108t46.5 98t81 73t113.5 28q113 0 158 -79h20l12 66h61l-88 -500h-61l10 55h-20q-22 -30 -63.5 -49t-87.5 -19q-94 0 -146 62.5t-52 156.5zM297 43q94 0 147 77.5t53 170.5q0 78 -37 122t-107 44q-77 0 -135.5 -67t-58.5 -183q0 -72 35.5 -118t102.5 -46
zM458 727l79 -145h-60l-51 95h-20l-85 -95h-64l131 145h70z" />
    <glyph glyph-name="agrave.ss03" horiz-adv-x="600" 
d="M96 206q0 55 16 108t46.5 98t81 73t113.5 28q113 0 158 -79h20l12 66h61l-88 -500h-61l10 55h-20q-22 -30 -63.5 -49t-87.5 -19q-94 0 -146 62.5t-52 156.5zM297 43q94 0 147 77.5t53 170.5q0 78 -37 122t-107 44q-77 0 -135.5 -67t-58.5 -183q0 -72 35.5 -118t102.5 -46
zM378 582l-79 145h78l57 -145h-56z" />
    <glyph glyph-name="aacute.ss03" horiz-adv-x="600" 
d="M96 206q0 55 16 108t46.5 98t81 73t113.5 28q113 0 158 -79h20l12 66h61l-88 -500h-61l10 55h-20q-22 -30 -63.5 -49t-87.5 -19q-94 0 -146 62.5t-52 156.5zM297 43q94 0 147 77.5t53 170.5q0 78 -37 122t-107 44q-77 0 -135.5 -67t-58.5 -183q0 -72 35.5 -118t102.5 -46
zM551 727l-131 -145h-60l109 145h82z" />
    <glyph glyph-name="aring.ss03" horiz-adv-x="600" 
d="M96 206q0 55 16 108t46.5 98t81 73t113.5 28q113 0 158 -79h20l12 66h61l-88 -500h-61l10 55h-20q-22 -30 -63.5 -49t-87.5 -19q-94 0 -146 62.5t-52 156.5zM297 43q94 0 147 77.5t53 170.5q0 78 -37 122t-107 44q-77 0 -135.5 -67t-58.5 -183q0 -72 35.5 -118t102.5 -46
zM411 793q43 0 74 -30.5t31 -74.5t-31 -75t-74 -31t-74.5 31t-31.5 75q0 43 31 74t75 31zM411 628q26 0 43 17t17 43t-17 43t-43 17t-43 -17t-17 -43t17 -43t43 -17z" />
    <glyph glyph-name="amacron.ss03" horiz-adv-x="600" 
d="M96 206q0 55 16 108t46.5 98t81 73t113.5 28q113 0 158 -79h20l12 66h61l-88 -500h-61l10 55h-20q-22 -30 -63.5 -49t-87.5 -19q-94 0 -146 62.5t-52 156.5zM297 43q94 0 147 77.5t53 170.5q0 78 -37 122t-107 44q-77 0 -135.5 -67t-58.5 -183q0 -72 35.5 -118t102.5 -46
zM558 648h-274l9 54h274z" />
    <glyph glyph-name="abreve.ss03" horiz-adv-x="600" 
d="M96 206q0 55 16 108t46.5 98t81 73t113.5 28q113 0 158 -79h20l12 66h61l-88 -500h-61l10 55h-20q-22 -30 -63.5 -49t-87.5 -19q-94 0 -146 62.5t-52 156.5zM297 43q94 0 147 77.5t53 170.5q0 78 -37 122t-107 44q-77 0 -135.5 -67t-58.5 -183q0 -72 35.5 -118t102.5 -46
zM510 727h52q-11 -72 -54 -108.5t-103 -36.5q-52 0 -85.5 28.5t-33.5 78.5q0 23 4 38h51q-3 -17 -3 -29q0 -33 19.5 -50.5t52.5 -17.5q80 0 100 97z" />
    <glyph glyph-name="aogonek.ss03" horiz-adv-x="600" 
d="M96 206q0 55 16 108t46.5 98t81 73t113.5 28q113 0 158 -79h20l12 66h61l-88 -500q-93 -46 -93 -108q0 -45 70 -45l-9 -46q-9 -1 -23 -1q-47 0 -72.5 20.5t-25.5 57.5q0 40 26 73t66 51l10 53h-20q-22 -30 -63.5 -49t-87.5 -19q-94 0 -146 62.5t-52 156.5zM297 43
q94 0 147 77.5t53 170.5q0 78 -37 122t-107 44q-77 0 -135.5 -67t-58.5 -183q0 -72 35.5 -118t102.5 -46z" />
    <glyph glyph-name="t.ss04" horiz-adv-x="340" 
d="M181 0h-62l78 444h-91l10 56h91l27 155h62l-27 -155h131l-10 -56h-131z" />
    <glyph glyph-name="tcaron.ss04" horiz-adv-x="359" 
d="M445 635h-41l17 92h84l-20 -109l-55 -67h-43l55 67zM181 0h-62l78 444h-91l10 56h91l27 155h62l-27 -155h131l-10 -56h-131z" />
    <glyph glyph-name="uni0163.ss04" horiz-adv-x="340" 
d="M181 0h-62l78 444h-91l10 56h91l27 155h62l-27 -155h131l-10 -56h-131zM111 -215h-43l58 60l3 17h-41l14 79h84l-17 -96z" />
    <glyph glyph-name="Y.ss05" horiz-adv-x="617" 
d="M253 0h-72l140 216l-175 498h70l141 -398h28l260 398h74z" />
    <glyph glyph-name="Ydieresis.ss05" horiz-adv-x="617" 
d="M253 0h-72l140 216l-175 498h70l141 -398h28l260 398h74zM433 817h-69l13 79h69zM609 817h-69l13 79h69z" />
    <glyph glyph-name="Yacute.ss05" horiz-adv-x="617" 
d="M253 0h-72l140 216l-175 498h70l141 -398h28l260 398h74zM605 896l-127 -129h-60l105 129h82z" />
    <glyph glyph-name="ampersand.ss06" horiz-adv-x="639" 
d="M672 407l-10 -58h-70l-24 -139q-19 -107 -89 -165t-178 -58q-97 0 -157 54.5t-60 135.5q0 87 45 137t106 66l3 19q-29 14 -49.5 47.5t-20.5 80.5q0 86 60 136.5t152 50.5q80 0 138 -43t64 -111h-64q-9 47 -46.5 71.5t-90.5 24.5q-70 0 -109 -37t-39 -94q0 -51 32.5 -84.5
t90.5 -33.5h47l-10 -58h-47q-90 0 -143.5 -44t-53.5 -121q0 -63 44 -101t115 -38q165 0 196 165l34 197h134z" />
    <glyph glyph-name="zero.ss07" horiz-adv-x="615" 
d="M117 243q0 208 82 339.5t217 131.5q95 0 151.5 -66t56.5 -190q0 -208 -82 -339.5t-217 -131.5q-95 0 -151.5 66t-56.5 190zM182 243q0 -63 18 -107l311 477q-37 43 -98 43t-107.5 -38.5t-72.5 -102t-38.5 -132.5t-12.5 -140zM559 458q0 57 -17 103l-311 -475
q38 -41 97 -41q61 0 108 38.5t72.5 102t38 132.5t12.5 140z" />
    <glyph glyph-name="uni0430.ss03" horiz-adv-x="600" 
d="M96 206q0 55 16 108t46.5 98t81 73t113.5 28q113 0 158 -79h20l12 66h61l-88 -500h-61l10 55h-20q-22 -30 -63.5 -49t-87.5 -19q-94 0 -146 62.5t-52 156.5zM297 43q94 0 147 77.5t53 170.5q0 78 -37 122t-107 44q-77 0 -135.5 -67t-58.5 -183q0 -72 35.5 -118t102.5 -46
z" />
    <glyph glyph-name="emdash.ss02" horiz-adv-x="1445" 
d="M1438 247h-1345l10 57h1345z" />
    <glyph glyph-name="uni0423.ss08" horiz-adv-x="611" 
d="M104 0l11 64h25q42 0 69 15.5t58 63.5l48 73l-175 498h70l141 -398h28l260 398h74l-365 -560q-55 -86 -102 -120t-117 -34h-25z" />
    <glyph glyph-name="uni040E.ss08" horiz-adv-x="611" 
d="M104 0l11 64h25q42 0 69 15.5t58 63.5l48 73l-175 498h70l141 -398h28l260 398h74l-365 -560q-55 -86 -102 -120t-117 -34h-25zM555 904h59q-14 -74 -65.5 -115t-123.5 -41q-64 0 -106.5 33t-42.5 91q0 16 3 32h57q-2 -14 -2 -20q0 -38 26 -60t68 -22q49 0 84 27.5
t43 74.5z" />
    <glyph glyph-name="five.numr" horiz-adv-x="359" 
d="M411 665h-185l-24 -89h20q21 18 61 18q51 0 83 -31.5t32 -82.5q0 -73 -42.5 -113.5t-104.5 -40.5q-63 0 -99.5 37t-36.5 86h53q3 -35 25 -54.5t59 -19.5t64 25.5t27 72.5q0 33 -20 52.5t-55 19.5q-50 0 -78 -37h-56l52 205h233z" />
    <glyph glyph-name="four.numr" horiz-adv-x="387" 
d="M375 472h55l-9 -49h-55l-15 -90h-55l15 90h-196l9 53l217 238h77zM195 472h125l29 168h-15l-136 -153z" />
    <glyph glyph-name="three.numr" horiz-adv-x="367" 
d="M413 659l-101 -74l-2 -12q43 -8 64.5 -38.5t21.5 -67.5q0 -64 -39.5 -102.5t-108.5 -38.5q-57 0 -95.5 34.5t-38.5 89.5h54q2 -35 24.5 -55t58.5 -20q42 0 66 26t24 65q0 30 -19.5 48t-52.5 18q-24 0 -39 -4l10 58l86 64l3 15h-156l8 49h241z" />
    <glyph glyph-name="two.numr" horiz-adv-x="352" 
d="M381 382l-10 -49h-272l12 62l169 118q70 47 70 99q0 26 -18.5 43t-49.5 17q-72 0 -87 -77h-55q12 63 50.5 94.5t95.5 31.5q51 0 85 -29t34 -75q0 -34 -17.5 -64t-35.5 -45.5t-46 -34.5l-112 -78l-3 -13h190z" />
    <glyph glyph-name="one.numr" horiz-adv-x="329" 
d="M263 382h97l-8 -49h-249l8 49h97l47 264h-16l-89 -47l10 57l108 58h54z" />
    <glyph glyph-name="quotedbl.ss01" horiz-adv-x="317" 
d="M163 473l42 241h34l-42 -241h-34zM286 473l42 241h34l-42 -241h-34z" />
    <glyph glyph-name="numbersign.ss01" horiz-adv-x="551" 
d="M366 0l32 208h-159l-32 -208h-34l32 208h-104v31h110l34 222h-102v31h107l33 208h34l-34 -208h161l33 208h34l-33 -208h104v-31h-109l-35 -222h103v-31h-108l-32 -208h-35zM279 461l-35 -222h160l35 222h-160z" />
    <glyph glyph-name="quotesingle.ss01" horiz-adv-x="194" 
d="M163 473l42 241h34l-42 -241h-34z" />
    <glyph glyph-name="parenleft.ss01" horiz-adv-x="256" 
d="M333 759h45q-246 -233 -246 -552q0 -174 87 -348h-37q-84 161 -84 349q0 153 60.5 295t174.5 256z" />
    <glyph glyph-name="parenright.ss01" horiz-adv-x="256" 
d="M32 -141h-45q246 233 246 552q0 174 -87 348h37q84 -161 84 -349q0 -153 -60.5 -295t-174.5 -256z" />
    <glyph glyph-name="bracketleft.ss01" horiz-adv-x="255" 
d="M173 -141h-118l158 900h118l-5 -31h-84l-148 -838h84z" />
    <glyph glyph-name="bracketright.ss01" horiz-adv-x="255" 
d="M190 759h118l-158 -900h-118l5 31h84l148 838h-84z" />
    <glyph glyph-name="braceleft.ss01" horiz-adv-x="337" 
d="M193 318l-4 -18q25 -9 25 -48q0 -18 -5 -43l-38 -215q-3 -20 -3 -37q0 -36 18.5 -51.5t60.5 -15.5h30l-5 -31h-30q-108 0 -108 95q0 24 4 41l36 204q6 31 6 52q0 43 -36 43h-13l6 30h13q29 0 41 21.5t21 73.5l36 204q14 73 51.5 104.5t100.5 31.5h30l-5 -31h-30
q-51 0 -77 -24.5t-35 -79.5l-38 -215q-14 -77 -52 -91z" />
    <glyph glyph-name="braceright.ss01" horiz-adv-x="337" 
d="M252 300l4 18q-25 9 -25 48q0 18 5 43l38 215q3 20 3 37q0 36 -18.5 51.5t-60.5 15.5h-30l5 31h30q108 0 108 -95q0 -24 -4 -41l-36 -204q-6 -32 -6 -52q0 -43 36 -43h13l-6 -30h-13q-29 0 -41 -21.5t-21 -73.5l-36 -204q-14 -73 -51.5 -104.5t-100.5 -31.5h-30l5 31h30
q51 0 77 24.5t35 79.5l38 215q14 77 52 91z" />
    <glyph glyph-name="asterisk.ss01" horiz-adv-x="448" 
d="M513 559l-178 -50l84 -145l-31 -19l-77 147l-134 -147l-24 25l137 140l-160 54l13 34l158 -63l18 179h36l-25 -179l177 58z" />
    <glyph glyph-name="plus.ss01" horiz-adv-x="684" 
d="M375 298v236h33v-236h235v-31h-235v-237h-33v237h-236v31h236z" />
    <glyph glyph-name="minus.ss01" horiz-adv-x="684" 
d="M139 298h504v-31h-504v31z" />
    <glyph glyph-name="less.ss01" horiz-adv-x="684" 
d="M643 76v-33l-504 216v44l504 216v-33l-454 -196v-18z" />
    <glyph glyph-name="equal.ss01" horiz-adv-x="683" 
d="M642 201v-31h-503v31h503zM642 393v-31h-503v31h503z" />
    <glyph glyph-name="greater.ss01" horiz-adv-x="684" 
d="M139 43v33l454 196v18l-454 196v33l504 -216v-44z" />
    <glyph glyph-name="hyphen.ss01" horiz-adv-x="360" 
d="M355 260h-260l6 31h260z" />
    <glyph glyph-name="endash.ss01" horiz-adv-x="615" 
d="M610 260h-515l6 31h515z" />
    <glyph glyph-name="emdash.ss01" horiz-adv-x="875" 
d="M870 260h-775l6 31h775z" />
    <glyph glyph-name="emdash.ss01.ss02" horiz-adv-x="1445" 
d="M1440 260h-1345l6 31h1345z" />
    <glyph glyph-name="underscore.ss01" horiz-adv-x="501" 
d="M482 -113h-503l6 31h503z" />
    <glyph glyph-name="slash.ss01" horiz-adv-x="363" 
d="M10 -141h-35l459 900h33z" />
    <glyph glyph-name="bar.ss01" horiz-adv-x="214" 
d="M65 -141l158 900h34l-158 -900h-34z" />
    <glyph glyph-name="backslash.ss01" horiz-adv-x="365" 
d="M340 -141h-34l-141 900h31z" />
    <glyph glyph-name="degree.ss01" horiz-adv-x="461" 
d="M131 523q0 85 54.5 141.5t135.5 56.5t136 -56.5t55 -141.5q0 -84 -55 -140.5t-136 -56.5t-135.5 56t-54.5 141zM165 523q0 -71 44 -118.5t112 -47.5t112.5 47.5t44.5 118.5q0 72 -44 119.5t-113 47.5q-68 0 -112 -47.5t-44 -119.5z" />
    <glyph glyph-name="guillemotleft.ss01" horiz-adv-x="483" 
d="M146 287l-3 -18l130 -165h-41l-127 158l7 39l182 159h47zM311 287l-3 -18l130 -165h-41l-127 158l7 39l182 159h47z" />
    <glyph glyph-name="guillemotright.ss01" horiz-adv-x="483" 
d="M435 277l3 18l-130 165h41l127 -158l-7 -39l-182 -159h-47zM270 277l3 18l-130 165h41l127 -158l-7 -39l-182 -159h-47z" />
    <glyph glyph-name="guilsinglleft.ss01" horiz-adv-x="318" 
d="M146 287l-3 -18l130 -165h-41l-127 158l7 39l182 159h47z" />
    <glyph glyph-name="guilsinglright.ss01" horiz-adv-x="318" 
d="M270 277l3 18l-130 165h41l127 -158l-7 -39l-182 -159h-47z" />
    <glyph glyph-name="quoteleft.ss01" horiz-adv-x="224" 
d="M213 610h33l-18 -102h-64l21 119l64 87h31l-64 -87z" />
    <glyph glyph-name="quoteright.ss01" horiz-adv-x="224" 
d="M214 612h-33l18 102h64l-21 -119l-64 -87h-31l64 87z" />
    <glyph glyph-name="quotesinglbase.ss01" horiz-adv-x="224" 
d="M113 0h-33l18 102h64l-21 -119l-64 -87h-31l64 87z" />
    <glyph glyph-name="quotedblleft.ss01" horiz-adv-x="359" 
d="M348 610h33l-18 -102h-64l21 119l64 87h31l-64 -87zM211 610h33l-18 -102h-64l21 119l64 87h31l-64 -87z" />
    <glyph glyph-name="quotedblright.ss01" horiz-adv-x="361" 
d="M214 612h-33l18 102h64l-21 -119l-64 -87h-31l64 87zM351 612h-33l18 102h64l-21 -119l-64 -87h-31l64 87z" />
    <glyph glyph-name="quotedblbase.ss01" horiz-adv-x="361" 
d="M113 0h-33l18 102h64l-21 -119l-64 -87h-31l64 87zM250 0h-33l18 102h64l-21 -119l-64 -87h-31l64 87z" />
    <glyph glyph-name="arrowleft.ss01" horiz-adv-x="822" 
d="M338 500h46l-213 -214v-20h631v-31h-631v-21l213 -214h-46l-250 250z" />
    <glyph glyph-name="arrowup.ss01" horiz-adv-x="680" 
d="M649 464v-46l-214 215h-19v-633h-34v633h-19l-214 -215v46l250 250z" />
    <glyph glyph-name="arrowright.ss01" horiz-adv-x="822" 
d="M508 500h46l250 -250l-250 -250h-46l213 214v21h-631v31h631v20z" />
    <glyph glyph-name="arrowdown.ss01" horiz-adv-x="680" 
d="M149 250v46l214 -215h19v633h34v-633h19l214 215v-46l-250 -250z" />
    <glyph glyph-name="uni2196.ss01" horiz-adv-x="696" 
d="M522 714l32 -32h-301l-13 -14l445 -447l-23 -23l-447 446l-13 -14v-302l-33 33v353h353z" />
    <glyph glyph-name="uni2197.ss01" horiz-adv-x="696" 
d="M270 682l32 32h353v-353l-33 -33v302l-13 14l-447 -446l-23 23l445 447l-13 14h-301z" />
    <glyph glyph-name="uni2198.ss01" horiz-adv-x="696" 
d="M545 32l-32 -32h-353v353l33 33v-302l13 -14l447 446l23 -23l-445 -447l13 -14h301z" />
    <glyph glyph-name="uni2199.ss01" horiz-adv-x="696" 
d="M292 0l-32 32h301l13 14l-445 447l23 23l447 -446l13 14v302l33 -33v-353h-353z" />
    <glyph glyph-name="parenleft.ss01.case" horiz-adv-x="256" 
d="M348 807h45q-246 -233 -246 -552q0 -174 87 -348h-37q-84 161 -84 349q0 153 60.5 295t174.5 256z" />
    <glyph glyph-name="parenright.ss01.case" horiz-adv-x="257" 
d="M47 -93h-45q246 233 246 552q0 174 -87 348h37q84 -161 84 -349q0 -153 -60.5 -295t-174.5 -256z" />
    <glyph glyph-name="bracketleft.ss01.case" horiz-adv-x="255" 
d="M181 -93h-118l158 900h118l-5 -31h-84l-148 -838h84z" />
    <glyph glyph-name="bracketright.ss01.case" horiz-adv-x="255" 
d="M198 807h118l-158 -900h-118l5 31h84l148 838h-84z" />
    <glyph glyph-name="braceleft.ss01.case" horiz-adv-x="337" 
d="M201 366l-4 -18q25 -9 25 -48q0 -18 -5 -43l-38 -215q-3 -20 -3 -37q0 -36 18.5 -51.5t60.5 -15.5h30l-5 -31h-30q-108 0 -108 95q0 24 4 41l36 204q6 31 6 52q0 43 -36 43h-13l6 30h13q29 0 41 21.5t21 73.5l36 204q14 73 51.5 104.5t100.5 31.5h30l-5 -31h-30
q-51 0 -77 -24.5t-35 -79.5l-38 -215q-14 -77 -52 -91z" />
    <glyph glyph-name="braceright.ss01.case" horiz-adv-x="337" 
d="M261 348l4 18q-25 9 -25 48q0 18 5 43l38 215q3 20 3 37q0 36 -18.5 51.5t-60.5 15.5h-30l5 31h30q108 0 108 -95q0 -24 -4 -41l-36 -204q-6 -31 -6 -52q0 -43 36 -43h13l-6 -30h-13q-29 0 -41 -21.5t-21 -73.5l-36 -204q-14 -73 -51.5 -104.5t-100.5 -31.5h-30l5 31h30
q51 0 77 24.5t35 79.5l38 215q14 77 52 91z" />
    <glyph glyph-name="guillemotleft.ss01.case" horiz-adv-x="483" 
d="M157 353l-3 -18l130 -165h-41l-127 158l7 39l182 159h47zM322 353l-3 -18l130 -165h-41l-127 158l7 39l182 159h47z" />
    <glyph glyph-name="guillemotright.ss01.case" horiz-adv-x="483" 
d="M445 343l3 18l-130 165h41l127 -158l-7 -39l-182 -159h-47zM280 343l3 18l-130 165h41l127 -158l-7 -39l-182 -159h-47z" />
    <glyph glyph-name="guilsinglleft.ss01.case" horiz-adv-x="318" 
d="M157 353l-3 -18l130 -165h-41l-127 158l7 39l182 159h47z" />
    <glyph glyph-name="guilsinglright.ss01.case" horiz-adv-x="318" 
d="M280 343l3 18l-130 165h41l127 -158l-7 -39l-182 -159h-47z" />
    <glyph glyph-name="hyphen.ss01.case" horiz-adv-x="356" 
d="M368 345h-260l6 31h260z" />
    <glyph glyph-name="endash.ss01.case" horiz-adv-x="611" 
d="M623 345h-515l6 31h515z" />
    <glyph glyph-name="emdash.ss01.case" horiz-adv-x="871" 
d="M883 345h-775l6 31h775z" />
    <glyph glyph-name="emdash.ss01.ss02.case" horiz-adv-x="1441" 
d="M1453 345h-1345l6 31h1345z" />
    <glyph glyph-name="zero.numr" horiz-adv-x="378" 
d="M304 721q58 0 91.5 -36.5t33.5 -106.5q0 -112 -47.5 -182t-127.5 -70q-59 0 -92.5 36t-33.5 106q0 112 48 182.5t128 70.5zM256 375q41 0 69 33.5t38.5 77t10.5 92.5q0 45 -19.5 69.5t-51.5 24.5q-60 0 -90 -63t-30 -141q0 -44 20 -68.5t53 -24.5z" />
    <glyph glyph-name="three.dnom" horiz-adv-x="367" 
d="M354 326l-101 -74l-2 -12q43 -8 64.5 -38.5t21.5 -67.5q0 -64 -39.5 -102.5t-108.5 -38.5q-57 0 -95.5 34.5t-38.5 89.5h54q2 -35 24.5 -55t58.5 -20q42 0 66 26t24 65q0 30 -19.5 48t-52.5 18q-24 0 -39 -4l10 58l86 64l3 15h-156l8 49h241z" />
    </font>
</defs>
</svg>
