<?xml version="1.0" standalone="no"?>
<!DOCTYPE svg PUBLIC "-//W3C//DTD SVG 1.1//EN" "http://www.w3.org/Graphics/SVG/1.1/DTD/svg11.dtd" >
<svg xmlns="http://www.w3.org/2000/svg" xmlns:xlink="http://www.w3.org/1999/xlink" version="1.1">
<metadata>
Created by FontForge 20170731 at Thu Apr 17 11:59:08 2014
 By Aleksey,,,
Copyright (c) 2014 by Vyacheslav Kirilenko, Gayane Bagdasaryan. All rights reserved.
</metadata>
<defs>
<font id="Formular" horiz-adv-x="630" >
  <font-face 
    font-family="Formular"
    font-weight="400"
    font-stretch="normal"
    units-per-em="1000"
    panose-1="2 0 0 0 0 0 0 0 0 0"
    ascent="800"
    descent="-200"
    x-height="504"
    cap-height="714"
    bbox="-134 -220 1396 970"
    underline-thickness="50"
    underline-position="-250"
    unicode-range="U+000D-FEFF"
  />
<missing-glyph horiz-adv-x="528" 
d="M58 0v714h412v-714h-412zM126 63h276v588h-276v-588z" />
    <glyph glyph-name="fi" unicode="fi" horiz-adv-x="610" 
d="M336 430h-137v-430h-85v430h-87v74h87v58q0 165 173 165h49v-74h-48q-89 0 -89 -94v-55h137v-74zM528 635h-90v92h90v-92zM525 504v-504h-85v504h85z" />
    <glyph glyph-name="fl" unicode="fl" horiz-adv-x="605" 
d="M336 430h-137v-430h-85v430h-87v74h87v58q0 165 173 165h49v-74h-48q-89 0 -89 -94v-55h137v-74zM438 727h85v-727h-85v727z" />
    <glyph glyph-name=".notdef" horiz-adv-x="528" 
d="M58 0v714h412v-714h-412zM126 63h276v588h-276v-588z" />
    <glyph glyph-name=".null" horiz-adv-x="0" 
 />
    <glyph glyph-name="nonmarkingreturn" horiz-adv-x="333" 
 />
    <glyph glyph-name="NULL" horiz-adv-x="0" 
 />
    <glyph glyph-name="NULL" horiz-adv-x="0" 
 />
    <glyph glyph-name="CR" unicode="&#xd;" horiz-adv-x="278" 
 />
    <glyph glyph-name="space" unicode=" " horiz-adv-x="278" 
 />
    <glyph glyph-name="exclam" unicode="!" horiz-adv-x="314" 
d="M113 714h88v-295l-17 -230h-55l-16 230v295zM209 0h-104v116h104v-116z" />
    <glyph glyph-name="quotedbl" unicode="&#x22;" horiz-adv-x="396" 
d="M78 460v254h81v-254h-81zM237 460v254h81v-254h-81z" />
    <glyph glyph-name="numbersign" unicode="#" horiz-adv-x="595" 
d="M70 506h113l31 194h71l-31 -194h136l31 194h71l-31 -194h100v-68h-111l-27 -176h101v-68h-112l-31 -194h-72l31 194h-135l-31 -194h-72l31 194h-100v68h111l28 176h-102v68zM243 438l-27 -176h135l28 176h-136z" />
    <glyph glyph-name="dollar" unicode="$" 
d="M342 402l44 -10q88 -16 136.5 -66t48.5 -133q0 -81 -62 -140.5t-168 -65.5v-85h-58v86q-102 8 -162.5 63t-72.5 145h87q11 -58 50.5 -91t97.5 -39v266l-40 9q-170 36 -170 180q0 77 57 133t153 60v84h59v-85q87 -7 142 -58.5t67 -129.5h-86q-21 100 -123 110v-233z
M365 316l-23 5v-256q61 2 101.5 37.5t40.5 88.5q0 99 -119 125zM160 522q0 -47 26.5 -70t96.5 -39v223q-55 -2 -89 -33t-34 -81z" />
    <glyph glyph-name="percent" unicode="%" horiz-adv-x="880" 
d="M267 0h-77l424 700h76zM209 714q77 0 119 -53.5t42 -135.5t-42 -135.5t-119 -53.5t-119 53.5t-42 135.5t42 135.5t119 53.5zM209 399q45 0 68.5 34.5t23.5 91.5t-23.5 91.5t-68.5 34.5t-68.5 -34.5t-23.5 -91.5t23.5 -91.5t68.5 -34.5zM670 365q77 0 119 -53.5t42 -135.5
t-42 -135.5t-119 -53.5t-119 53.5t-42 135.5t42 135.5t119 53.5zM670 50q45 0 68.5 34.5t23.5 91.5t-23.5 91.5t-68.5 34.5t-68.5 -34.5t-23.5 -91.5t23.5 -91.5t68.5 -34.5z" />
    <glyph glyph-name="ampersand" unicode="&#x26;" horiz-adv-x="719" 
d="M540 330h84q-13 -109 -72 -193l133 -137h-108l-66 68h-22q-87 -81 -200 -81q-102 0 -166.5 52.5t-64.5 146.5q0 58 28.5 104.5t71.5 74.5l29 19v22l-20 23q-55 63 -55 130q0 69 46.5 112t121.5 43q77 0 127.5 -42t50.5 -111q0 -84 -99 -153l-41 -29l177 -183
q36 61 45 134zM288 65q93 0 159 69l-195 203l-35 -23q-75 -48 -75 -127q0 -57 42 -89.5t104 -32.5zM241 459l28 -30l41 30q66 48 66 101q0 37 -27 59t-67 22t-64 -21t-24 -61q0 -49 47 -100z" />
    <glyph glyph-name="quotesingle" unicode="'" horiz-adv-x="237" 
d="M78 460v254h81v-254h-81z" />
    <glyph glyph-name="parenleft" unicode="(" horiz-adv-x="294" 
d="M128 312q0 -239 161 -453h-82q-159 188 -159 453q0 254 152 447h82q-154 -210 -154 -447z" />
    <glyph glyph-name="parenright" unicode=")" horiz-adv-x="294" 
d="M166 312q0 237 -154 447h82q152 -193 152 -447q0 -265 -159 -453h-82q161 214 161 453z" />
    <glyph glyph-name="asterisk" unicode="*" horiz-adv-x="475" 
d="M204 714h67l-5 -169l160 58l21 -65l-162 -48l103 -133l-55 -41l-96 139l-95 -139l-55 41l103 133l-161 48l21 65l159 -58z" />
    <glyph glyph-name="plus" unicode="+" horiz-adv-x="682" 
d="M304 321v217h73v-217h218v-73h-218v-217h-73v217h-217v73h217z" />
    <glyph glyph-name="comma" unicode="," horiz-adv-x="258" 
d="M127 0h-50v116h104v-135l-56 -96h-54l56 96v19z" />
    <glyph glyph-name="hyphen" unicode="-" horiz-adv-x="371" 
d="M322 240h-273v75h273v-75z" />
    <glyph glyph-name="period" unicode="." horiz-adv-x="258" 
d="M181 0h-104v116h104v-116z" />
    <glyph glyph-name="slash" unicode="/" horiz-adv-x="406" 
d="M79 -141h-80l302 900h77z" />
    <glyph glyph-name="zero" unicode="0" horiz-adv-x="625" 
d="M312 714q117 0 187.5 -91.5t70.5 -272.5t-70.5 -272t-187.5 -91t-187 91t-70 272q0 182 70 273t187 91zM312 65q85 0 127.5 75.5t42.5 209.5q0 135 -42.5 210.5t-127.5 75.5t-127 -75.5t-42 -210.5q0 -134 42 -209.5t127 -75.5z" />
    <glyph glyph-name="one" unicode="1" horiz-adv-x="504" 
d="M59 0v78h166v530h-20l-147 -99v92l146 99h109v-622h153v-78h-407z" />
    <glyph glyph-name="two" unicode="2" horiz-adv-x="582" 
d="M141 507h-88q6 101 70.5 154t162.5 53q102 0 164.5 -55.5t62.5 -157.5q0 -124 -155 -253l-176 -148v-22h353v-78h-481v99l103 84q96 77 159 135q24 21 38.5 36t33 39.5t28 51.5t9.5 56q0 65 -38 100t-103 35q-61 0 -98.5 -32.5t-44.5 -96.5z" />
    <glyph glyph-name="three" unicode="3" horiz-adv-x="569" 
d="M79 700h409v-98l-175 -150v-21q93 -2 150.5 -58t57.5 -155q0 -107 -69 -169t-178 -62q-105 0 -172 59t-73 150h88q6 -59 49.5 -95t107.5 -36q73 0 116 41t43 112q0 70 -41 109.5t-117 39.5q-37 0 -61 -6v93l171 148v22h-306v76z" />
    <glyph glyph-name="four" unicode="4" horiz-adv-x="612" 
d="M471 242h96v-78h-96v-164h-86v164h-346v100l309 436h123v-458zM131 242h255v359h-22l-233 -337v-22z" />
    <glyph glyph-name="five" unicode="5" horiz-adv-x="595" 
d="M317 471q102 0 163.5 -67t61.5 -167q0 -113 -66.5 -181.5t-173.5 -68.5q-111 0 -174.5 58t-69.5 151h87q8 -64 48 -97.5t105 -33.5q70 0 113 45.5t43 122.5q0 73 -41.5 118.5t-111.5 45.5q-94 0 -139 -66h-88l31 369h400v-76h-329l-16 -202h22q54 49 135 49z" />
    <glyph glyph-name="six" unicode="6" horiz-adv-x="593" 
d="M326 456q96 0 160 -64.5t64 -163.5q0 -103 -64.5 -172t-173.5 -69q-119 0 -188 82t-69 262q0 169 67.5 276t198.5 107q87 0 142.5 -46.5t67.5 -120.5h-87q-26 89 -123 89q-83 0 -130 -66t-51 -182h22q22 27 64.5 47.5t99.5 20.5zM311 65q66 0 108.5 42t42.5 117t-43 115
t-110 40q-66 0 -109 -41t-43 -113q0 -74 44 -117t110 -43z" />
    <glyph glyph-name="seven" unicode="7" horiz-adv-x="548" 
d="M495 602l-303 -602h-92l304 602v22h-355v76h446v-98z" />
    <glyph glyph-name="eight" unicode="8" horiz-adv-x="611" 
d="M449 380v-22q41 -14 75 -58.5t34 -108.5q0 -88 -69.5 -146t-183.5 -58t-183.5 58t-69.5 146q0 63 34 108t75 59v22q-33 14 -60.5 53t-27.5 94q0 83 65 135t167 52t167 -52t65 -135q0 -53 -28 -93t-60 -54zM305 638q-63 0 -104.5 -30.5t-41.5 -84.5t41.5 -85t104.5 -31
t104.5 31t41.5 85t-41.5 84.5t-104.5 30.5zM305 65q77 0 121.5 36.5t44.5 97.5q0 62 -44 97t-122 35t-122 -35t-44 -97q0 -61 44.5 -97.5t121.5 -36.5z" />
    <glyph glyph-name="nine" unicode="9" horiz-adv-x="593" 
d="M267 245q-96 0 -160 64.5t-64 163.5q0 103 64.5 172t173.5 69q119 0 188 -82t69 -262q0 -169 -67.5 -276t-198.5 -107q-87 0 -142.5 46.5t-67.5 120.5h87q26 -89 123 -89q83 0 130 66t51 182h-22q-22 -27 -64.5 -47.5t-99.5 -20.5zM282 636q-66 0 -108.5 -42t-42.5 -117
t43 -115t110 -40q66 0 109 41t43 113q0 74 -44 117t-110 43z" />
    <glyph glyph-name="colon" unicode=":" horiz-adv-x="258" 
d="M181 0h-104v116h104v-116zM181 388h-104v116h104v-116z" />
    <glyph glyph-name="semicolon" unicode=";" horiz-adv-x="258" 
d="M127 0h-50v116h104v-135l-56 -96h-54l56 96v19zM181 388h-104v116h104v-116z" />
    <glyph glyph-name="less" unicode="&#x3c;" horiz-adv-x="678" 
d="M591 104v-76l-504 221v69l504 221v-76l-388 -169v-22z" />
    <glyph glyph-name="equal" unicode="=" horiz-adv-x="680" 
d="M593 221v-73h-506v73h506zM593 420v-73h-506v73h506z" />
    <glyph glyph-name="greater" unicode="&#x3e;" horiz-adv-x="678" 
d="M87 28v76l387 168v22l-387 169v76l504 -221v-69z" />
    <glyph glyph-name="question" unicode="?" horiz-adv-x="547" 
d="M267 727q98 0 156.5 -52.5t58.5 -140.5q0 -38 -7.5 -66t-29 -54t-35.5 -39t-50 -42q-40 -31 -52.5 -50.5t-12.5 -65.5v-28h-86v28q0 43 11.5 72.5t29 48t55.5 49.5q33 27 49 42.5t29 42.5t13 62q0 49 -34.5 84t-93.5 35q-129 0 -136 -133h-86q4 97 62.5 152t158.5 55z
M304 0h-104v116h104v-116z" />
    <glyph glyph-name="at" unicode="@" horiz-adv-x="977" 
d="M688 -64l29 -50q-116 -76 -261 -76q-183 0 -291 110.5t-108 291.5q0 207 131 344.5t339 137.5q166 0 280 -97t114 -262q0 -122 -59.5 -210t-162.5 -88q-85 0 -110 57h-19q-53 -57 -129 -57q-75 0 -117.5 48t-42.5 133q0 102 59.5 174.5t154.5 72.5q38 0 66.5 -15
t39.5 -34h20l8 35h71l-42 -254l-2 -21q-3 -21 -3 -30q0 -52 57 -52q60 0 103.5 66t43.5 178q0 133 -93 216t-246 83q-171 0 -284 -118t-113 -306q0 -70 20 -131t59.5 -109.5t106.5 -77t153 -28.5q120 0 228 69zM456 102q59 0 98 51.5t39 131.5q0 67 -27 91t-70 24
q-59 0 -97 -55.5t-38 -125.5q0 -54 23 -85.5t72 -31.5z" />
    <glyph glyph-name="A" unicode="A" horiz-adv-x="687" 
d="M573 0l-74 219h-313l-74 -219h-92l247 714h152l248 -714h-94zM322 622l-109 -321h258l-109 321h-40z" />
    <glyph glyph-name="B" unicode="B" horiz-adv-x="701" 
d="M552 388v-22q45 -21 72.5 -66t27.5 -99q0 -90 -62 -145.5t-180 -55.5h-319v714h311q109 0 168.5 -51.5t59.5 -129.5q0 -103 -78 -145zM181 634v-223h219q139 0 139 114q0 56 -40 82.5t-101 26.5h-217zM181 80h223q69 0 113 29.5t44 98.5q0 65 -43.5 94.5t-112.5 29.5
h-224v-252z" />
    <glyph glyph-name="C" unicode="C" horiz-adv-x="718" 
d="M573 203h95q-23 -99 -96 -157.5t-187 -58.5q-156 0 -243 103t-87 267t88 267t243 103q108 0 180 -53.5t94 -146.5h-95q-42 118 -179 118q-118 0 -179 -83t-61 -205q0 -123 60.5 -205.5t178.5 -82.5q74 0 122 35.5t66 98.5z" />
    <glyph glyph-name="D" unicode="D" horiz-adv-x="743" 
d="M91 714h267q161 0 245.5 -96t84.5 -261t-85 -261t-245 -96h-267v714zM181 82h177q122 0 180.5 76.5t58.5 198.5t-58.5 198.5t-180.5 76.5h-177v-550z" />
    <glyph glyph-name="E" unicode="E" horiz-adv-x="652" 
d="M181 82h423v-82h-513v714h497v-82h-407v-221h328v-82h-328v-247z" />
    <glyph glyph-name="F" unicode="F" horiz-adv-x="634" 
d="M590 632h-409v-232h331v-82h-331v-318h-90v714h499v-82z" />
    <glyph glyph-name="G" unicode="G" horiz-adv-x="744" 
d="M373 379h313v-72q0 -64 -17 -119.5t-51.5 -101.5t-94 -72.5t-137.5 -26.5q-157 0 -244 104t-87 266q0 163 88 266.5t245 103.5q111 0 183 -53t93 -146h-94q-37 117 -182 117q-119 0 -180.5 -82t-61.5 -206q0 -79 24 -142.5t80 -104.5t137 -41q105 0 156 61t51 156v13
h-221v80z" />
    <glyph glyph-name="H" unicode="H" horiz-adv-x="761" 
d="M580 714h90v-714h-90v326h-399v-326h-90v714h90v-304h399v304z" />
    <glyph glyph-name="I" unicode="I" horiz-adv-x="284" 
d="M97 714h90v-714h-90v714z" />
    <glyph glyph-name="J" unicode="J" horiz-adv-x="582" 
d="M268 -13q-100 0 -161.5 59.5t-68.5 168.5h90q12 -146 142 -146q62 0 97.5 39.5t35.5 118.5v487h90v-486q0 -114 -59.5 -177.5t-165.5 -63.5z" />
    <glyph glyph-name="K" unicode="K" horiz-adv-x="718" 
d="M91 0v714h90v-354l367 354h110l-224 -224l251 -490h-96l-214 412h-22l-172 -165v-247h-90z" />
    <glyph glyph-name="L" unicode="L" horiz-adv-x="623" 
d="M181 85h401v-85h-491v714h90v-629z" />
    <glyph glyph-name="M" unicode="M" horiz-adv-x="862" 
d="M91 0v714h150l180 -335h22l177 335h151v-714h-88v612h-22l-183 -339h-94l-183 339h-22v-612h-88z" />
    <glyph glyph-name="N" unicode="N" horiz-adv-x="766" 
d="M587 714h88v-714h-142l-332 597h-22v-597h-88v714h142l332 -597h22v597z" />
    <glyph glyph-name="O" unicode="O" horiz-adv-x="776" 
d="M388 727q157 0 245 -105t88 -265t-88 -265t-245 -105q-158 0 -245.5 104.5t-87.5 265.5t87.5 265.5t245.5 104.5zM388 69q120 0 181 83t61 205t-61 205t-181 83t-181 -83t-61 -205t61 -205t181 -83z" />
    <glyph glyph-name="P" unicode="P" horiz-adv-x="687" 
d="M91 714h302q116 0 179 -56t63 -157q0 -102 -63 -158.5t-179 -56.5h-212v-286h-90v714zM181 366h197q166 0 166 134t-166 134h-197v-268z" />
    <glyph glyph-name="Q" unicode="Q" horiz-adv-x="776" 
d="M388 727q157 0 245 -105t88 -265q0 -167 -91 -270l97 -154h-92l-64 104q-80 -50 -183 -50q-158 0 -245.5 104.5t-87.5 265.5t87.5 265.5t245.5 104.5zM388 69q83 0 138 41l-126 205h87l93 -148q50 74 50 190q0 122 -61 205t-181 83t-181 -83t-61 -205t61 -205t181 -83z
" />
    <glyph glyph-name="R" unicode="R" horiz-adv-x="709" 
d="M91 714h316q113 0 174 -54.5t61 -153.5q0 -135 -109 -183l114 -323h-93l-107 302q-28 -3 -58 -3h-208v-299h-90v714zM181 379h213q157 0 157 127q0 63 -37 95.5t-120 32.5h-213v-255z" />
    <glyph glyph-name="S" unicode="S" horiz-adv-x="664" 
d="M291 427q40 -6 135 -27q86 -19 132.5 -66.5t46.5 -134.5q0 -90 -70.5 -151t-199.5 -61q-123 0 -201 59t-86 153h91q11 -68 65 -99t135 -31q77 0 126 34t49 94q0 54 -31 81.5t-90 40.5q-17 4 -70 14.5t-71 14.5q-173 35 -173 181q0 86 67 142t184 56q109 0 178 -52.5
t81 -140.5h-91q-26 111 -170 111q-68 0 -113 -30t-45 -84q0 -47 32.5 -69.5t88.5 -34.5z" />
    <glyph glyph-name="T" unicode="T" horiz-adv-x="597" 
d="M578 714v-80h-234v-634h-90v634h-236v80h560z" />
    <glyph glyph-name="U" unicode="U" horiz-adv-x="740" 
d="M561 714h90v-459q0 -128 -72.5 -198t-208.5 -70t-208.5 70t-72.5 198v459h90v-458q0 -86 49.5 -136.5t141.5 -50.5t141.5 50.5t49.5 136.5v458z" />
    <glyph glyph-name="V" unicode="V" horiz-adv-x="668" 
d="M248 0l-228 714h95l195 -622h50l195 622h93l-228 -714h-172z" />
    <glyph glyph-name="W" unicode="W" horiz-adv-x="876" 
d="M376 471h126l130 -370h22l76 613h87l-90 -714h-144l-133 382h-22l-134 -382h-144l-90 714h88l76 -613h22z" />
    <glyph glyph-name="X" unicode="X" horiz-adv-x="647" 
d="M522 0l-180 324h-37l-185 -324h-98l214 377l-183 337h97l156 -285h37l158 285h96l-185 -333l213 -381h-103z" />
    <glyph glyph-name="Y" unicode="Y" horiz-adv-x="643" 
d="M307 389h28l191 325h97l-257 -441v-273h-90v273l-257 441h97z" />
    <glyph glyph-name="Z" unicode="Z" horiz-adv-x="645" 
d="M582 714v-103l-423 -507v-22h437v-82h-548v104l424 506v22h-397v82h507z" />
    <glyph glyph-name="bracketleft" unicode="[" horiz-adv-x="324" 
d="M266 -141h-189v900h189v-68h-109v-764h109v-68z" />
    <glyph glyph-name="backslash" unicode="\" horiz-adv-x="406" 
d="M407 -141h-80l-299 900h77z" />
    <glyph glyph-name="bracketright" unicode="]" horiz-adv-x="324" 
d="M247 -141h-189v68h109v764h-109v68h189v-900z" />
    <glyph glyph-name="asciicircum" unicode="^" horiz-adv-x="547" 
d="M121 294h-79l200 398h63l199 -398h-78l-144 288h-18z" />
    <glyph glyph-name="underscore" unicode="_" horiz-adv-x="505" 
d="M506 -133h-507v64h507v-64z" />
    <glyph glyph-name="grave" unicode="`" horiz-adv-x="264" 
d="M148 582l-108 145h98l86 -145h-76z" />
    <glyph glyph-name="a" unicode="a" horiz-adv-x="557" 
d="M403 0v53h-22q-52 -66 -157 -66q-83 0 -132 48t-49 116q0 69 48 118t145 49h164v20q0 48 -30 76.5t-93 28.5q-110 0 -117 -73h-85q5 69 59.5 108t140.5 39q97 0 152.5 -45t55.5 -129v-343h-80zM245 61q63 0 109 41.5t46 101.5v46h-151q-121 0 -121 -96q0 -43 30.5 -68
t86.5 -25z" />
    <glyph glyph-name="b" unicode="b" horiz-adv-x="615" 
d="M343 517q102 0 161.5 -74t59.5 -191q0 -115 -59.5 -190t-161.5 -75q-103 0 -157 67h-22v-54h-82v727h85v-277h22q50 67 154 67zM324 61q74 0 114.5 52.5t40.5 138.5t-40.5 138.5t-114.5 52.5q-79 0 -118.5 -55t-39.5 -136t39.5 -136t118.5 -55z" />
    <glyph glyph-name="c" unicode="c" horiz-adv-x="553" 
d="M423 152h85q-15 -76 -70.5 -120.5t-141.5 -44.5q-114 0 -179.5 74.5t-65.5 190.5q0 117 65 191t180 74q87 0 141.5 -43.5t67.5 -115.5h-85q-27 85 -124 85q-81 0 -120.5 -53.5t-39.5 -135.5q0 -83 40 -138t120 -55q106 0 127 91z" />
    <glyph glyph-name="d" unicode="d" horiz-adv-x="615" 
d="M448 727h85v-727h-82v54h-22q-54 -67 -157 -67q-102 0 -161.5 75t-59.5 190q0 117 59.5 191t161.5 74t154 -67h22v277zM291 61q79 0 118.5 55t39.5 136t-39.5 136t-118.5 55q-74 0 -114.5 -52.5t-40.5 -138.5t40.5 -138.5t114.5 -52.5z" />
    <glyph glyph-name="e" unicode="e" horiz-adv-x="569" 
d="M519 282v-29h-384q2 -91 43 -141.5t118 -50.5q104 0 128 78h86q-13 -68 -68.5 -110t-145.5 -42q-115 0 -180 75t-65 195q0 118 65 189t178 71q107 0 165 -67.5t60 -167.5zM292 443q-65 0 -104 -33.5t-48 -85.5h291q-4 51 -41 85t-98 34z" />
    <glyph glyph-name="f" unicode="f" horiz-adv-x="368" 
d="M336 430h-137v-430h-85v430h-87v74h87v58q0 165 173 165h49v-74h-48q-89 0 -89 -94v-55h137v-74z" />
    <glyph glyph-name="g" unicode="g" horiz-adv-x="615" 
d="M451 504h82v-479q0 -107 -62.5 -169.5t-172.5 -62.5q-98 0 -157.5 40t-70.5 114h84q20 -82 143 -82q76 0 113.5 43t37.5 121v40h-22q-52 -67 -151 -67q-102 0 -163 72t-61 185t61 185.5t163 72.5t154 -67h22v54zM291 76q77 0 118 53t41 130q0 78 -41 131t-118 53
q-73 0 -114 -50t-41 -134q0 -83 41 -133t114 -50z" />
    <glyph glyph-name="h" unicode="h" horiz-adv-x="604" 
d="M530 0h-85v302q0 139 -128 139q-66 0 -108 -49.5t-42 -118.5v-273h-85v727h85v-277h22q21 30 60.5 48.5t89.5 18.5q91 0 141 -52.5t50 -144.5v-320z" />
    <glyph glyph-name="i" unicode="i" horiz-adv-x="254" 
d="M172 635h-90v92h90v-92zM169 504v-504h-85v504h85z" />
    <glyph glyph-name="j" unicode="j" horiz-adv-x="265" 
d="M183 635h-90v92h90v-92zM19 -200h-63v74h46q50 0 72 25.5t22 76.5v528h85v-531q0 -83 -42 -128t-120 -45z" />
    <glyph glyph-name="k" unicode="k" horiz-adv-x="553" 
d="M540 0h-91l-144 274h-22l-116 -128v-146h-85v727h85v-476l238 253h101l-145 -155z" />
    <glyph glyph-name="l" unicode="l" horiz-adv-x="249" 
d="M82 727h85v-727h-85v727z" />
    <glyph glyph-name="m" unicode="m" horiz-adv-x="851" 
d="M611 517q84 0 125 -50.5t41 -140.5v-326h-85v317q0 124 -97 124q-58 0 -90.5 -40.5t-32.5 -105.5v-295h-85v315q0 126 -96 126q-61 0 -92.5 -45t-31.5 -117v-279h-85v504h82v-49h22q40 62 128 62q93 0 133 -67h22q46 67 142 67z" />
    <glyph glyph-name="n" unicode="n" horiz-adv-x="604" 
d="M530 0h-85v302q0 139 -128 139q-66 0 -108 -49.5t-42 -118.5v-273h-85v504h82v-54h22q22 30 62 48.5t90 18.5q92 0 142 -52.5t50 -144.5v-320z" />
    <glyph glyph-name="o" unicode="o" horiz-adv-x="598" 
d="M299 517q115 0 181.5 -75t66.5 -190t-66.5 -190t-181.5 -75t-181.5 75t-66.5 190t66.5 190t181.5 75zM299 61q79 0 121 55.5t42 135.5t-42 135.5t-121 55.5t-121 -55.5t-42 -135.5t42 -135.5t121 -55.5z" />
    <glyph glyph-name="p" unicode="p" horiz-adv-x="615" 
d="M324 443q-79 0 -118.5 -55t-39.5 -136t39.5 -136t118.5 -55q74 0 114.5 52.5t40.5 138.5t-40.5 138.5t-114.5 52.5zM82 504h82v-54h22q54 67 157 67q102 0 161.5 -75t59.5 -190q0 -117 -59.5 -191t-161.5 -74q-104 0 -154 67h-22v-254h-85v704z" />
    <glyph glyph-name="q" unicode="q" horiz-adv-x="615" 
d="M291 443q-74 0 -114.5 -52.5t-40.5 -138.5t40.5 -138.5t114.5 -52.5q79 0 118.5 55t39.5 136t-39.5 136t-118.5 55zM451 504h82v-704h-85v254h-22q-52 -67 -154 -67t-161.5 74t-59.5 191q0 115 59.5 190t161.5 75q103 0 157 -67h22v54z" />
    <glyph glyph-name="r" unicode="r" horiz-adv-x="399" 
d="M370 504v-80h-42q-76 0 -118.5 -45t-42.5 -127v-252h-85v504h82v-60h22q48 60 146 60h38z" />
    <glyph glyph-name="s" unicode="s" horiz-adv-x="514" 
d="M222 314l48 -8l57 -9q144 -25 144 -152q0 -66 -55 -112t-152 -46q-104 0 -159.5 42t-64.5 117h86q12 -85 134 -85q59 0 92.5 21t33.5 61q0 33 -22 52t-70 27l-113 19q-121 22 -121 127q0 66 50.5 107.5t148.5 41.5q88 0 139.5 -38.5t59.5 -105.5h-85q-5 35 -37 52.5
t-81 17.5q-50 0 -79.5 -17.5t-29.5 -49.5q0 -28 18 -42t58 -20z" />
    <glyph glyph-name="t" unicode="t" horiz-adv-x="384" 
d="M199 504h127v-74h-127v-277q0 -40 20.5 -58.5t69.5 -18.5h37v-76h-39q-86 0 -129.5 32t-43.5 109v289h-87v74h87v152h85v-152z" />
    <glyph glyph-name="u" unicode="u" horiz-adv-x="604" 
d="M74 504h85v-302q0 -139 128 -139q65 0 107.5 49t42.5 119v273h85v-504h-82v54h-22q-22 -30 -62 -48.5t-90 -18.5q-92 0 -142 52.5t-50 144.5v320z" />
    <glyph glyph-name="v" unicode="v" horiz-adv-x="539" 
d="M189 0l-167 504h88l141 -424h41l136 424h89l-169 -504h-159z" />
    <glyph glyph-name="w" unicode="w" horiz-adv-x="691" 
d="M294 339h108l84 -249h22l58 414h82l-73 -504h-130l-88 255h-21l-88 -255h-132l-72 504h82l60 -414h22z" />
    <glyph glyph-name="x" unicode="x" horiz-adv-x="552" 
d="M419 0l-125 211h-36l-128 -211h-93l157 258l-141 246h90l116 -200h36l118 200h89l-143 -243l156 -261h-96z" />
    <glyph glyph-name="y" unicode="y" horiz-adv-x="538" 
d="M218 -200h-86l104 247l-215 457h91l154 -332h25l140 332h89z" />
    <glyph glyph-name="z" unicode="z" horiz-adv-x="515" 
d="M467 0h-419v96l307 313v21h-290v74h399v-95l-306 -313v-22h309v-74z" />
    <glyph glyph-name="braceleft" unicode="{" horiz-adv-x="390" 
d="M174 320v-22q55 -18 55 -105v-167q0 -99 89 -99h33v-68h-39q-73 0 -118 41.5t-45 117.5v160q0 49 -13.5 72.5t-49.5 23.5h-14v70h14q36 0 49.5 23.5t13.5 72.5v160q0 76 45 117.5t118 41.5h39v-68h-33q-89 0 -89 -99v-167q0 -87 -55 -105z" />
    <glyph glyph-name="bar" unicode="|" horiz-adv-x="251" 
d="M87 -141v900h77v-900h-77z" />
    <glyph glyph-name="braceright" unicode="}" horiz-adv-x="390" 
d="M216 298v22q-55 18 -55 105v167q0 99 -89 99h-33v68h39q73 0 118 -41.5t45 -117.5v-160q0 -49 13.5 -72.5t49.5 -23.5h14v-70h-14q-36 0 -49.5 -23.5t-13.5 -72.5v-160q0 -76 -45 -117.5t-118 -41.5h-39v68h33q89 0 89 99v167q0 87 55 105z" />
    <glyph glyph-name="asciitilde" unicode="~" horiz-adv-x="670" 
d="M516 343h67q0 -75 -34.5 -111.5t-94.5 -36.5q-33 0 -68.5 17t-61 37.5t-56 37.5t-55.5 17q-59 0 -59 -80h-67q0 148 129 148q34 0 69 -17t60 -37.5t56 -37.5t56 -17q59 0 59 80z" />
    <glyph glyph-name="uni00A0" unicode="&#xa0;" horiz-adv-x="278" 
 />
    <glyph glyph-name="exclamdown" unicode="&#xa1;" horiz-adv-x="314" 
d="M201 -200h-88v285l16 230h55l17 -230v-285zM209 388h-104v116h104v-116z" />
    <glyph glyph-name="cent" unicode="&#xa2;" horiz-adv-x="553" 
d="M423 152h85q-13 -70 -62.5 -113.5t-126.5 -50.5v-68h-55v69q-100 10 -156.5 82.5t-56.5 180.5t56 179.5t157 83.5v69h55v-68q77 -6 125.5 -48.5t60.5 -109.5h-85q-24 73 -101 83v-379q85 10 104 90zM136 254q0 -74 32 -127t96 -64v377q-66 -11 -97 -61.5t-31 -124.5z" />
    <glyph glyph-name="sterling" unicode="&#xa3;" horiz-adv-x="635" 
d="M213 78h384v-78h-537v77h19q38 0 54.5 23t16.5 69v116h-90v74h90v139q0 102 55.5 159t154.5 57q94 0 147.5 -53t56.5 -148h-87q-5 123 -116 123q-63 0 -93 -37.5t-30 -100.5v-139h216v-74h-216v-105q0 -30 -4.5 -47t-20.5 -33v-22z" />
    <glyph glyph-name="currency" unicode="&#xa4;" horiz-adv-x="724" 
d="M590 7l-68 67q-69 -55 -159 -55t-161 55l-68 -67l-47 47l67 68q-55 71 -55 161t55 159l-67 68l47 48l68 -67q74 54 161 54t159 -54l68 67l47 -48l-67 -68q55 -69 55 -159q0 -91 -55 -160l67 -69zM363 83q81 0 135.5 57t54.5 143q0 85 -54.5 141.5t-135.5 56.5t-137 -57
t-56 -141q0 -86 55.5 -143t137.5 -57z" />
    <glyph glyph-name="yen" unicode="&#xa5;" horiz-adv-x="613" 
d="M105 302v57h97l-180 341h92l178 -341h28l179 341h92l-181 -341h98v-57h-128l-30 -58l-1 -15h159v-57h-159v-172h-86v172h-158v57h158v15l-31 58h-127z" />
    <glyph glyph-name="brokenbar" unicode="&#xa6;" horiz-adv-x="251" 
d="M87 414v345h77v-345h-77zM87 -141v345h77v-345h-77z" />
    <glyph glyph-name="section" unicode="&#xa7;" horiz-adv-x="593" 
d="M229 194l149 -45q74 42 74 99q0 40 -21 61.5t-68 36.5l-149 46q-27 -10 -50.5 -36t-23.5 -64q0 -40 21 -61.5t68 -36.5zM533 260q0 -48 -27.5 -85t-59.5 -48v-22q49 -38 49 -112q0 -71 -57.5 -119t-147.5 -48q-93 0 -151.5 52t-60.5 146h81q2 -59 35.5 -92.5t97.5 -33.5
q58 0 89.5 28t31.5 68q0 67 -74 90l-134 40q-79 24 -113 60.5t-34 96.5q0 48 28 85t60 48v22q-49 37 -49 112q0 72 55.5 119t146.5 47q92 0 149.5 -51.5t61.5 -145.5h-81q-2 58 -35.5 92t-97.5 34q-57 0 -87 -28t-30 -68q0 -68 73 -90q12 0 135 -41q79 -24 112.5 -60.5
t33.5 -95.5z" />
    <glyph glyph-name="dieresis" unicode="&#xa8;" horiz-adv-x="345" 
d="M305 635h-83v92h83v-92zM123 635h-83v92h83v-92z" />
    <glyph glyph-name="copyright" unicode="&#xa9;" horiz-adv-x="857" 
d="M536 296h63q-9 -60 -51.5 -98.5t-108.5 -38.5q-84 0 -132.5 56t-48.5 141q0 87 48 142.5t133 55.5q63 0 105.5 -35t50.5 -93h-63q-14 72 -93 72q-59 0 -88.5 -39.5t-29.5 -102.5q0 -62 29.5 -101t88.5 -39q82 0 97 80zM429 727q154 0 261 -108t107 -262t-107 -262
t-261 -108t-261 108t-107 262t107 262t261 108zM429 43q130 0 219 91t89 223t-89 223t-219 91t-219 -91t-89 -223t89 -223t219 -91z" />
    <glyph glyph-name="ordfeminine" unicode="&#xaa;" horiz-adv-x="429" 
d="M303 334v41h-8q-42 -49 -120 -49q-65 0 -100.5 36t-35.5 88q0 51 35 87t109 36h117v18q0 71 -86 71q-78 0 -84 -56h-67q3 53 44 84t105 31q71 0 112.5 -33.5t41.5 -97.5v-256h-63zM188 383q46 0 79 29.5t33 72.5v36h-103q-42 0 -67 -19t-25 -49q0 -32 23 -51t60 -19z" />
    <glyph glyph-name="guillemotleft" unicode="&#xab;" horiz-adv-x="564" 
d="M135 295v-22l162 -172h-94l-145 150v65l145 151h94zM344 295v-22l162 -172h-94l-146 150v65l146 151h94z" />
    <glyph glyph-name="logicalnot" unicode="&#xac;" horiz-adv-x="683" 
d="M524 108v207h-437v72h509v-279h-72z" />
    <glyph glyph-name="uni00AD" unicode="&#xad;" horiz-adv-x="369" 
d="M322 240h-273v75h273v-75z" />
    <glyph glyph-name="registered" unicode="&#xae;" horiz-adv-x="857" 
d="M290 547h173q62 0 94.5 -29.5t32.5 -83.5q0 -69 -56 -98l60 -170h-64l-55 156h-123v-156h-62v381zM352 376h102q74 0 74 58q0 57 -74 57h-102v-115zM429 727q154 0 261 -108t107 -262t-107 -262t-261 -108t-261 108t-107 262t107 262t261 108zM429 43q130 0 219 91
t89 223t-89 223t-219 91t-219 -91t-89 -223t89 -223t219 -91z" />
    <glyph glyph-name="overscore" unicode="&#xaf;" horiz-adv-x="362" 
d="M322 639h-282v64h282v-64z" />
    <glyph glyph-name="degree" unicode="&#xb0;" horiz-adv-x="472" 
d="M431 523q0 -85 -56 -141.5t-140 -56.5t-140 56.5t-56 141.5t56 141.5t140 56.5t140 -56.5t56 -141.5zM235 383q57 0 95 40t38 100t-38 100t-95 40t-95 -40t-38 -100t38 -100t95 -40z" />
    <glyph glyph-name="plusminus" unicode="&#xb1;" horiz-adv-x="682" 
d="M87 0v73h508v-73h-508zM304 379v165h73v-165h218v-73h-218v-160h-73v160h-216v73h216z" />
    <glyph glyph-name="twosuperior" unicode="&#xb2;" horiz-adv-x="362" 
d="M139 391h184v-58h-284v72l45 32q13 10 39.5 28t35.5 25q28 20 41 30.5t29 33.5t16 45q0 29 -18 46t-49 17q-73 0 -74 -69h-65q2 64 40.5 96t99.5 32q59 0 95 -31t36 -88q0 -69 -77 -127l-94 -69v-15z" />
    <glyph glyph-name="threesuperior" unicode="&#xb3;" horiz-adv-x="368" 
d="M229 584v-14q43 -6 71 -36.5t28 -79.5q0 -59 -40.5 -93.5t-104.5 -34.5q-63 0 -103.5 35.5t-42.5 90.5h64q3 -31 26 -49t56 -18q36 0 58 19t22 51q0 33 -21.5 51.5t-57.5 18.5q-24 0 -36 -3v59l76 59v16h-159v58h247v-66z" />
    <glyph glyph-name="acute" unicode="&#xb4;" horiz-adv-x="264" 
d="M224 727l-109 -145h-75l86 145h98z" />
    <glyph glyph-name="mu" unicode="&#xb5;" horiz-adv-x="612" 
d="M82 504h85v-302q0 -139 128 -139q65 0 107.5 49t42.5 119v273h85v-504h-82v54h-22q-22 -30 -62 -48.5t-90 -18.5q-63 0 -107 25v-212h-85v704z" />
    <glyph glyph-name="paragraph" unicode="&#xb6;" horiz-adv-x="655" 
d="M335 -177h-77v491q-97 0 -158.5 50t-61.5 150q0 101 58.5 150.5t161.5 49.5h349v-65h-80v-826h-77v826h-115v-826z" />
    <glyph glyph-name="middot" unicode="&#xb7;" horiz-adv-x="258" 
d="M181 264h-104v116h104v-116z" />
    <glyph glyph-name="cedilla" unicode="&#xb8;" horiz-adv-x="262" 
d="M99 23h45l-33 -83h13q11 8 32 8q28 0 48 -22t20 -56q0 -35 -24 -60t-71 -25q-40 0 -63.5 20.5t-25.5 48.5h54q6 -24 36 -24q17 0 27 10.5t10 27.5t-10 27t-26 10q-20 0 -31 -11h-52z" />
    <glyph glyph-name="onesuperior" unicode="&#xb9;" horiz-adv-x="331" 
d="M199 391h93v-58h-253v58h94v246h-16l-78 -45v65l95 57h65v-323z" />
    <glyph glyph-name="ordmasculine" unicode="&#xba;" horiz-adv-x="446" 
d="M223 721q85 0 134.5 -56t49.5 -141t-50 -141.5t-134 -56.5t-134 56.5t-50 141.5t49.5 141t134.5 56zM223 385q56 0 87 41.5t31 97.5q0 57 -31 97t-87 40q-57 0 -87.5 -40t-30.5 -97t31 -98t87 -41z" />
    <glyph glyph-name="guillemotright" unicode="&#xbb;" horiz-adv-x="564" 
d="M220 273v22l-162 172h94l145 -151v-65l-145 -150h-94zM428 273v22l-162 172h94l146 -151v-65l-146 -150h-94z" />
    <glyph glyph-name="onequarter" unicode="&#xbc;" horiz-adv-x="865" 
d="M267 0h-77l424 700h76zM199 391h93v-58h-253v58h94v246h-16l-78 -45v65l95 57h65v-323zM774 144h52v-58h-52v-86h-65v86h-192v64l171 231h86v-237zM590 144h120v158h-16l-104 -142v-16z" />
    <glyph glyph-name="onehalf" unicode="&#xbd;" horiz-adv-x="874" 
d="M268 0h-77l424 700h76zM199 391h93v-58h-253v58h94v246h-16l-78 -45v65l95 57h65v-323zM651 58h184v-58h-284v72l45 32q13 10 39.5 28t35.5 25q28 20 41 30.5t29 33.5t16 45q0 29 -18 46t-49 17q-73 0 -74 -69h-65q2 64 40.5 96t99.5 32q59 0 95 -31t36 -88
q0 -69 -77 -127l-94 -69v-15z" />
    <glyph glyph-name="threequarters" unicode="&#xbe;" horiz-adv-x="869" 
d="M271 0h-77l424 700h76zM778 144h52v-58h-52v-86h-65v86h-192v64l171 231h86v-237zM594 144h120v158h-16l-104 -142v-16zM228 584v-14q43 -6 71 -36.5t28 -79.5q0 -59 -40.5 -93.5t-104.5 -34.5q-63 0 -103.5 35.5t-42.5 90.5h64q3 -31 26 -49t56 -18q36 0 58 19t22 51
q0 33 -21.5 51.5t-57.5 18.5q-24 0 -36 -3v59l76 59v16h-159v58h247v-66z" />
    <glyph glyph-name="questiondown" unicode="&#xbf;" horiz-adv-x="542" 
d="M269 -207q-98 0 -156.5 52.5t-58.5 140.5q0 38 8 66t28.5 53.5t35.5 39t50 41.5q40 31 52.5 50t12.5 63v16h86v-16q0 -60 -20 -91.5t-76 -75.5q-54 -46 -68 -66q-23 -33 -23 -80q0 -49 34.5 -84t93.5 -35q129 0 136 133h86q-4 -97 -62.5 -152t-158.5 -55zM232 504h104
v-116h-104v116z" />
    <glyph glyph-name="Agrave" unicode="&#xc0;" horiz-adv-x="687" 
d="M573 0l-74 219h-313l-74 -219h-92l247 714h152l248 -714h-94zM322 622l-109 -321h258l-109 321h-40zM304 767l-108 129h99l86 -129h-77z" />
    <glyph glyph-name="Aacute" unicode="&#xc1;" horiz-adv-x="687" 
d="M573 0l-74 219h-313l-74 -219h-92l247 714h152l248 -714h-94zM322 622l-109 -321h258l-109 321h-40zM489 896l-109 -129h-76l85 129h100z" />
    <glyph glyph-name="Acircumflex" unicode="&#xc2;" horiz-adv-x="687" 
d="M573 0l-74 219h-313l-74 -219h-92l247 714h152l248 -714h-94zM322 622l-109 -321h258l-109 321h-40zM387 896l106 -129h-79l-60 71h-22l-60 -71h-77l106 129h86z" />
    <glyph glyph-name="Atilde" unicode="&#xc3;" horiz-adv-x="687" 
d="M573 0l-74 219h-313l-74 -219h-92l247 714h152l248 -714h-94zM322 622l-109 -321h258l-109 321h-40zM455 896h51q0 -129 -94 -129q-28 0 -55.5 17.5t-50.5 35.5t-39 18q-38 0 -38 -71h-51q0 129 94 129q28 0 55.5 -18t50.5 -35.5t39 -17.5q38 0 38 71z" />
    <glyph glyph-name="Adieresis" unicode="&#xc4;" horiz-adv-x="687" 
d="M573 0l-74 219h-313l-74 -219h-92l247 714h152l248 -714h-94zM322 622l-109 -321h258l-109 321h-40zM477 807h-83v89h83v-89zM295 807h-83v89h83v-89z" />
    <glyph glyph-name="Aring" unicode="&#xc5;" horiz-adv-x="687" 
d="M344 898q45 0 76.5 -32t31.5 -76q0 -45 -33 -78l248 -712h-94l-74 219h-313l-74 -219h-92l246 713q-32 30 -32 77q0 44 32 76t78 32zM322 622l-109 -321h258l-109 321h-40zM344 732q24 0 40.5 16.5t16.5 41.5q0 24 -16.5 40.5t-40.5 16.5q-25 0 -41.5 -16.5t-16.5 -40.5
q0 -25 16.5 -41.5t41.5 -16.5z" />
    <glyph glyph-name="AE" unicode="&#xc6;" horiz-adv-x="1009" 
d="M392 714h554v-82h-357v-221h277v-82h-277v-247h372v-82h-462v219h-272l-116 -219h-103zM441 632l-174 -331h232v331h-58z" />
    <glyph glyph-name="Ccedilla" unicode="&#xc7;" horiz-adv-x="718" 
d="M573 203h95q-23 -99 -96 -157.5t-187 -58.5h-6l-19 -47h13q11 8 32 8q28 0 48 -22t20 -56q0 -35 -24 -60t-71 -25q-40 0 -63.5 20.5t-25.5 48.5h54q6 -24 36 -24q17 0 27 10.5t10 27.5t-10 27t-26 10q-20 0 -31 -11h-52l38 96q-133 18 -206.5 117.5t-73.5 249.5
q0 164 88 267t243 103q108 0 180 -53.5t94 -146.5h-95q-42 118 -179 118q-118 0 -179 -83t-61 -205q0 -123 60.5 -205.5t178.5 -82.5q74 0 122 35.5t66 98.5z" />
    <glyph glyph-name="Egrave" unicode="&#xc8;" horiz-adv-x="652" 
d="M181 82h423v-82h-513v714h497v-82h-407v-221h328v-82h-328v-247zM324 767l-108 129h99l86 -129h-77z" />
    <glyph glyph-name="Eacute" unicode="&#xc9;" horiz-adv-x="652" 
d="M181 82h423v-82h-513v714h497v-82h-407v-221h328v-82h-328v-247zM450 896l-109 -129h-76l85 129h100z" />
    <glyph glyph-name="Ecircumflex" unicode="&#xca;" horiz-adv-x="652" 
d="M181 82h423v-82h-513v714h497v-82h-407v-221h328v-82h-328v-247zM382 896l106 -129h-79l-60 71h-22l-60 -71h-77l106 129h86z" />
    <glyph glyph-name="Edieresis" unicode="&#xcb;" horiz-adv-x="652" 
d="M181 82h423v-82h-513v714h497v-82h-407v-221h328v-82h-328v-247zM467 807h-83v89h83v-89zM285 807h-83v89h83v-89z" />
    <glyph glyph-name="Igrave" unicode="&#xcc;" horiz-adv-x="284" 
d="M97 714h90v-714h-90v714zM106 767l-108 129h99l86 -129h-77z" />
    <glyph glyph-name="Iacute" unicode="&#xcd;" horiz-adv-x="284" 
d="M97 714h90v-714h-90v714zM290 896l-109 -129h-76l85 129h100z" />
    <glyph glyph-name="Icircumflex" unicode="&#xce;" horiz-adv-x="284" 
d="M97 714h90v-714h-90v714zM187 896l106 -129h-79l-60 71h-22l-60 -71h-77l106 129h86z" />
    <glyph glyph-name="Idieresis" unicode="&#xcf;" horiz-adv-x="284" 
d="M97 714h90v-714h-90v714zM276 807h-83v89h83v-89zM94 807h-83v89h83v-89z" />
    <glyph glyph-name="Eth" unicode="&#xd0;" horiz-adv-x="768" 
d="M20 332v74h96v308h267q161 0 245.5 -96t84.5 -261t-85 -261t-245 -96h-267v332h-96zM206 82h177q122 0 180.5 76.5t58.5 198.5t-58.5 198.5t-180.5 76.5h-177v-226h215v-74h-215v-250z" />
    <glyph glyph-name="Ntilde" unicode="&#xd1;" horiz-adv-x="766" 
d="M587 714h88v-714h-142l-332 597h-22v-597h-88v714h142l332 -597h22v597zM496 896h51q0 -129 -94 -129q-28 0 -55.5 17.5t-50.5 35.5t-39 18q-38 0 -38 -71h-51q0 129 94 129q28 0 55.5 -18t50.5 -35.5t39 -17.5q38 0 38 71z" />
    <glyph glyph-name="Ograve" unicode="&#xd2;" horiz-adv-x="776" 
d="M388 727q157 0 245 -105t88 -265t-88 -265t-245 -105q-158 0 -245.5 104.5t-87.5 265.5t87.5 265.5t245.5 104.5zM388 69q120 0 181 83t61 205t-61 205t-181 83t-181 -83t-61 -205t61 -205t181 -83zM360 767l-108 129h99l86 -129h-77z" />
    <glyph glyph-name="Oacute" unicode="&#xd3;" horiz-adv-x="776" 
d="M388 727q157 0 245 -105t88 -265t-88 -265t-245 -105q-158 0 -245.5 104.5t-87.5 265.5t87.5 265.5t245.5 104.5zM388 69q120 0 181 83t61 205t-61 205t-181 83t-181 -83t-61 -205t61 -205t181 -83zM531 896l-109 -129h-76l85 129h100z" />
    <glyph glyph-name="Ocircumflex" unicode="&#xd4;" horiz-adv-x="776" 
d="M388 727q157 0 245 -105t88 -265t-88 -265t-245 -105q-158 0 -245.5 104.5t-87.5 265.5t87.5 265.5t245.5 104.5zM388 69q120 0 181 83t61 205t-61 205t-181 83t-181 -83t-61 -205t61 -205t181 -83zM432 896l106 -129h-79l-60 71h-22l-60 -71h-77l106 129h86z" />
    <glyph glyph-name="Otilde" unicode="&#xd5;" horiz-adv-x="776" 
d="M388 727q157 0 245 -105t88 -265t-88 -265t-245 -105q-158 0 -245.5 104.5t-87.5 265.5t87.5 265.5t245.5 104.5zM388 69q120 0 181 83t61 205t-61 205t-181 83t-181 -83t-61 -205t61 -205t181 -83zM501 896h51q0 -129 -94 -129q-28 0 -55.5 17.5t-50.5 35.5t-39 18
q-38 0 -38 -71h-51q0 129 94 129q28 0 55.5 -18t50.5 -35.5t39 -17.5q38 0 38 71z" />
    <glyph glyph-name="Odieresis" unicode="&#xd6;" horiz-adv-x="776" 
d="M388 727q157 0 245 -105t88 -265t-88 -265t-245 -105q-158 0 -245.5 104.5t-87.5 265.5t87.5 265.5t245.5 104.5zM388 69q120 0 181 83t61 205t-61 205t-181 83t-181 -83t-61 -205t61 -205t181 -83zM520 807h-83v89h83v-89zM338 807h-83v89h83v-89z" />
    <glyph glyph-name="multiply" unicode="&#xd7;" horiz-adv-x="639" 
d="M269 284l-182 183l50 50l183 -183l182 183l50 -50l-182 -183l182 -183l-50 -50l-182 182l-183 -182l-50 50z" />
    <glyph glyph-name="Oslash" unicode="&#xd8;" horiz-adv-x="776" 
d="M55 0l81 99q-81 99 -81 258q0 161 87.5 265.5t245.5 104.5q123 0 208 -69l47 56h78l-82 -99q82 -101 82 -258q0 -160 -88 -265t-245 -105q-126 0 -209 69l-46 -56h-78zM388 69q120 0 181 83t61 205q0 111 -49 187l-347 -421q60 -54 154 -54zM146 357q0 -112 48 -188
l348 422q-60 54 -154 54q-120 0 -181 -83t-61 -205z" />
    <glyph glyph-name="Ugrave" unicode="&#xd9;" horiz-adv-x="740" 
d="M561 714h90v-459q0 -128 -72.5 -198t-208.5 -70t-208.5 70t-72.5 198v459h90v-458q0 -86 49.5 -136.5t141.5 -50.5t141.5 50.5t49.5 136.5v458zM351 767l-108 129h99l86 -129h-77z" />
    <glyph glyph-name="Uacute" unicode="&#xda;" horiz-adv-x="740" 
d="M561 714h90v-459q0 -128 -72.5 -198t-208.5 -70t-208.5 70t-72.5 198v459h90v-458q0 -86 49.5 -136.5t141.5 -50.5t141.5 50.5t49.5 136.5v458zM496 896l-109 -129h-76l85 129h100z" />
    <glyph glyph-name="Ucircumflex" unicode="&#xdb;" horiz-adv-x="740" 
d="M561 714h90v-459q0 -128 -72.5 -198t-208.5 -70t-208.5 70t-72.5 198v459h90v-458q0 -86 49.5 -136.5t141.5 -50.5t141.5 50.5t49.5 136.5v458zM414 896l106 -129h-79l-60 71h-22l-60 -71h-77l106 129h86z" />
    <glyph glyph-name="Udieresis" unicode="&#xdc;" horiz-adv-x="740" 
d="M561 714h90v-459q0 -128 -72.5 -198t-208.5 -70t-208.5 70t-72.5 198v459h90v-458q0 -86 49.5 -136.5t141.5 -50.5t141.5 50.5t49.5 136.5v458zM503 807h-83v89h83v-89zM321 807h-83v89h83v-89z" />
    <glyph glyph-name="Yacute" unicode="&#xdd;" horiz-adv-x="643" 
d="M307 389h28l191 325h97l-257 -441v-273h-90v273l-257 441h97zM462 896l-109 -129h-76l85 129h100z" />
    <glyph glyph-name="Thorn" unicode="&#xde;" horiz-adv-x="647" 
d="M181 562h183q111 0 171 -54t60 -151t-60 -150.5t-171 -53.5h-183v-153h-90v714h90v-152zM181 233h170q153 0 153 124q0 125 -153 125h-170v-249z" />
    <glyph glyph-name="germandbls" unicode="&#xdf;" horiz-adv-x="618" 
d="M447 403v-21q56 -13 92 -59t36 -113q0 -101 -62 -155.5t-166 -54.5h-62v73h50q155 0 155 137q0 67 -43.5 104t-127.5 37h-15v73h15q70 0 102 31t32 81q0 54 -33 85.5t-90 31.5q-132 0 -132 -156v-497h-85v430h-94v74h94q0 106 56 165t162 59q94 0 150 -51.5t56 -130.5
q0 -54 -24 -91.5t-66 -51.5z" />
    <glyph glyph-name="agrave" unicode="&#xe0;" horiz-adv-x="558" 
d="M403 0v53h-22q-52 -66 -157 -66q-83 0 -132 48t-49 116q0 69 48 118t145 49h164v20q0 48 -30 76.5t-93 28.5q-110 0 -117 -73h-85q5 69 59.5 108t140.5 39q97 0 152.5 -45t55.5 -129v-343h-80zM245 61q63 0 109 41.5t46 101.5v46h-151q-121 0 -121 -96q0 -43 30.5 -68
t86.5 -25zM261 582l-108 145h98l86 -145h-76z" />
    <glyph glyph-name="aacute" unicode="&#xe1;" horiz-adv-x="558" 
d="M403 0v53h-22q-52 -66 -157 -66q-83 0 -132 48t-49 116q0 69 48 118t145 49h164v20q0 48 -30 76.5t-93 28.5q-110 0 -117 -73h-85q5 69 59.5 108t140.5 39q97 0 152.5 -45t55.5 -129v-343h-80zM245 61q63 0 109 41.5t46 101.5v46h-151q-121 0 -121 -96q0 -43 30.5 -68
t86.5 -25zM409 727l-109 -145h-75l86 145h98z" />
    <glyph glyph-name="acircumflex" unicode="&#xe2;" horiz-adv-x="558" 
d="M403 0v53h-22q-52 -66 -157 -66q-83 0 -132 48t-49 116q0 69 48 118t145 49h164v20q0 48 -30 76.5t-93 28.5q-110 0 -117 -73h-85q5 69 59.5 108t140.5 39q97 0 152.5 -45t55.5 -129v-343h-80zM245 61q63 0 109 41.5t46 101.5v46h-151q-121 0 -121 -96q0 -43 30.5 -68
t86.5 -25zM326 727l106 -145h-75l-64 86h-22l-63 -86h-74l107 145h85z" />
    <glyph glyph-name="atilde" unicode="&#xe3;" horiz-adv-x="558" 
d="M403 0v53h-22q-52 -66 -157 -66q-83 0 -132 48t-49 116q0 69 48 118t145 49h164v20q0 48 -30 76.5t-93 28.5q-110 0 -117 -73h-85q5 69 59.5 108t140.5 39q97 0 152.5 -45t55.5 -129v-343h-80zM245 61q63 0 109 41.5t46 101.5v46h-151q-121 0 -121 -96q0 -43 30.5 -68
t86.5 -25zM392 720h52q0 -132 -93 -132q-28 0 -55.5 18t-50.5 36t-39 18q-37 0 -37 -72h-52q0 132 94 132q35 0 81.5 -36.5t63.5 -36.5q36 0 36 73z" />
    <glyph glyph-name="adieresis" unicode="&#xe4;" horiz-adv-x="558" 
d="M403 0v53h-22q-52 -66 -157 -66q-83 0 -132 48t-49 116q0 69 48 118t145 49h164v20q0 48 -30 76.5t-93 28.5q-110 0 -117 -73h-85q5 69 59.5 108t140.5 39q97 0 152.5 -45t55.5 -129v-343h-80zM245 61q63 0 109 41.5t46 101.5v46h-151q-121 0 -121 -96q0 -43 30.5 -68
t86.5 -25zM412 635h-83v92h83v-92zM230 635h-83v92h83v-92z" />
    <glyph glyph-name="aring" unicode="&#xe5;" horiz-adv-x="558" 
d="M403 0v53h-22q-52 -66 -157 -66q-83 0 -132 48t-49 116q0 69 48 118t145 49h164v20q0 48 -30 76.5t-93 28.5q-110 0 -117 -73h-85q5 69 59.5 108t140.5 39q97 0 152.5 -45t55.5 -129v-343h-80zM245 61q63 0 109 41.5t46 101.5v46h-151q-121 0 -121 -96q0 -43 30.5 -68
t86.5 -25zM280 795q45 0 76.5 -31.5t31.5 -76.5q0 -44 -31.5 -76t-76.5 -32q-46 0 -78 32t-32 76q0 45 32 76.5t78 31.5zM280 630q24 0 40.5 16t16.5 41t-16.5 41.5t-40.5 16.5q-25 0 -41.5 -16.5t-16.5 -41.5t16.5 -41t41.5 -16z" />
    <glyph glyph-name="ae" unicode="&#xe6;" horiz-adv-x="900" 
d="M850 251h-376q1 -88 41.5 -139t115.5 -51q102 0 127 78h86q-14 -69 -68.5 -110.5t-144.5 -41.5q-122 0 -187 97h-22q-29 -42 -79 -69.5t-115 -27.5q-87 0 -136 47.5t-49 117.5q0 68 47.5 117.5t144.5 49.5h157v19q0 48 -30.5 76.5t-91.5 28.5q-53 0 -83 -19.5t-33 -53.5
h-85q6 69 59.5 108t140.5 39q117 0 169 -74h22q64 74 170 74q103 0 161.5 -69t58.5 -167v-30zM392 201v50h-139q-61 0 -93 -24.5t-32 -69.5t31 -70.5t85 -25.5q63 0 105.5 40t42.5 100zM627 443q-63 0 -100 -34.5t-48 -89.5h284q-6 54 -41 89t-95 35z" />
    <glyph glyph-name="ccedilla" unicode="&#xe7;" horiz-adv-x="553" 
d="M423 152h85q-15 -76 -70.5 -120.5t-141.5 -44.5l-18 -47h13q11 8 32 8q28 0 48 -22t20 -56q0 -35 -24 -60t-71 -25q-40 0 -63.5 20.5t-25.5 48.5h54q6 -24 36 -24q17 0 27 10.5t10 27.5t-10 27t-26 10q-20 0 -31 -11h-52l38 96q-95 14 -148.5 86t-53.5 176q0 117 65 191
t180 74q87 0 141.5 -43.5t67.5 -115.5h-85q-27 85 -124 85q-81 0 -120.5 -53.5t-39.5 -135.5q0 -83 40 -138t120 -55q106 0 127 91z" />
    <glyph glyph-name="egrave" unicode="&#xe8;" horiz-adv-x="569" 
d="M519 282v-29h-384q2 -91 43 -141.5t118 -50.5q104 0 128 78h86q-13 -68 -68.5 -110t-145.5 -42q-115 0 -180 75t-65 195q0 118 65 189t178 71q107 0 165 -67.5t60 -167.5zM292 443q-65 0 -104 -33.5t-48 -85.5h291q-4 51 -41 85t-98 34zM276 582l-108 145h98l86 -145h-76
z" />
    <glyph glyph-name="eacute" unicode="&#xe9;" horiz-adv-x="569" 
d="M519 282v-29h-384q2 -91 43 -141.5t118 -50.5q104 0 128 78h86q-13 -68 -68.5 -110t-145.5 -42q-115 0 -180 75t-65 195q0 118 65 189t178 71q107 0 165 -67.5t60 -167.5zM292 443q-65 0 -104 -33.5t-48 -85.5h291q-4 51 -41 85t-98 34zM430 727l-109 -145h-75l86 145h98
z" />
    <glyph glyph-name="ecircumflex" unicode="&#xea;" horiz-adv-x="569" 
d="M519 282v-29h-384q2 -91 43 -141.5t118 -50.5q104 0 128 78h86q-13 -68 -68.5 -110t-145.5 -42q-115 0 -180 75t-65 195q0 118 65 189t178 71q107 0 165 -67.5t60 -167.5zM292 443q-65 0 -104 -33.5t-48 -85.5h291q-4 51 -41 85t-98 34zM339 727l106 -145h-75l-64 86h-22
l-63 -86h-74l107 145h85z" />
    <glyph glyph-name="edieresis" unicode="&#xeb;" horiz-adv-x="569" 
d="M519 282v-29h-384q2 -91 43 -141.5t118 -50.5q104 0 128 78h86q-13 -68 -68.5 -110t-145.5 -42q-115 0 -180 75t-65 195q0 118 65 189t178 71q107 0 165 -67.5t60 -167.5zM292 443q-65 0 -104 -33.5t-48 -85.5h291q-4 51 -41 85t-98 34zM426 635h-83v92h83v-92zM244 635
h-83v92h83v-92z" />
    <glyph glyph-name="igrave" unicode="&#xec;" horiz-adv-x="254" 
d="M92 582l-108 145h98l86 -145h-76zM169 504v-504h-85v504h85z" />
    <glyph glyph-name="iacute" unicode="&#xed;" horiz-adv-x="254" 
d="M275 727l-109 -145h-75l86 145h98zM169 504v-504h-85v504h85z" />
    <glyph glyph-name="icircumflex" unicode="&#xee;" horiz-adv-x="254" 
d="M169 504v-504h-85v504h85zM171 727l106 -145h-75l-64 86h-22l-63 -86h-74l107 145h85z" />
    <glyph glyph-name="idieresis" unicode="&#xef;" horiz-adv-x="254" 
d="M260 635h-83v92h83v-92zM78 635h-83v92h83v-92zM169 504v-504h-85v504h85z" />
    <glyph glyph-name="eth" unicode="&#xf0;" horiz-adv-x="592" 
d="M142 554v55h165q-51 55 -143 118h104q79 -56 134 -118h112v-55h-70q97 -126 97 -296q0 -120 -63.5 -195.5t-183.5 -75.5q-111 0 -177 71.5t-66 176.5t63.5 175t165.5 70q81 0 124 -43h24q-22 60 -73 117h-213zM296 61q80 0 120 49t40 124q0 76 -40 125t-120 49
t-121 -49.5t-41 -124.5t41 -124t121 -49z" />
    <glyph glyph-name="ntilde" unicode="&#xf1;" horiz-adv-x="604" 
d="M530 0h-85v302q0 139 -128 139q-66 0 -108 -49.5t-42 -118.5v-273h-85v504h82v-54h22q22 30 62 48.5t90 18.5q92 0 142 -52.5t50 -144.5v-320zM423 720h52q0 -132 -93 -132q-28 0 -55.5 18t-50.5 36t-39 18q-37 0 -37 -72h-52q0 132 94 132q35 0 81.5 -36.5t63.5 -36.5
q36 0 36 73z" />
    <glyph glyph-name="ograve" unicode="&#xf2;" horiz-adv-x="598" 
d="M299 517q115 0 181.5 -75t66.5 -190t-66.5 -190t-181.5 -75t-181.5 75t-66.5 190t66.5 190t181.5 75zM299 61q79 0 121 55.5t42 135.5t-42 135.5t-121 55.5t-121 -55.5t-42 -135.5t42 -135.5t121 -55.5zM270 582l-108 145h98l86 -145h-76z" />
    <glyph glyph-name="oacute" unicode="&#xf3;" horiz-adv-x="598" 
d="M299 517q115 0 181.5 -75t66.5 -190t-66.5 -190t-181.5 -75t-181.5 75t-66.5 190t66.5 190t181.5 75zM299 61q79 0 121 55.5t42 135.5t-42 135.5t-121 55.5t-121 -55.5t-42 -135.5t42 -135.5t121 -55.5zM444 727l-109 -145h-75l86 145h98z" />
    <glyph glyph-name="ocircumflex" unicode="&#xf4;" horiz-adv-x="598" 
d="M299 517q115 0 181.5 -75t66.5 -190t-66.5 -190t-181.5 -75t-181.5 75t-66.5 190t66.5 190t181.5 75zM299 61q79 0 121 55.5t42 135.5t-42 135.5t-121 55.5t-121 -55.5t-42 -135.5t42 -135.5t121 -55.5zM342 727l106 -145h-75l-64 86h-22l-63 -86h-74l107 145h85z" />
    <glyph glyph-name="otilde" unicode="&#xf5;" horiz-adv-x="598" 
d="M299 517q115 0 181.5 -75t66.5 -190t-66.5 -190t-181.5 -75t-181.5 75t-66.5 190t66.5 190t181.5 75zM299 61q79 0 121 55.5t42 135.5t-42 135.5t-121 55.5t-121 -55.5t-42 -135.5t42 -135.5t121 -55.5zM410 720h52q0 -132 -93 -132q-28 0 -55.5 18t-50.5 36t-39 18
q-37 0 -37 -72h-52q0 132 94 132q35 0 81.5 -36.5t63.5 -36.5q36 0 36 73z" />
    <glyph glyph-name="odieresis" unicode="&#xf6;" horiz-adv-x="598" 
d="M299 517q115 0 181.5 -75t66.5 -190t-66.5 -190t-181.5 -75t-181.5 75t-66.5 190t66.5 190t181.5 75zM299 61q79 0 121 55.5t42 135.5t-42 135.5t-121 55.5t-121 -55.5t-42 -135.5t42 -135.5t121 -55.5zM432 635h-83v92h83v-92zM250 635h-83v92h83v-92z" />
    <glyph glyph-name="divide" unicode="&#xf7;" horiz-adv-x="684" 
d="M392 25h-100v111h100v-111zM392 433h-100v111h100v-111zM597 248h-510v73h510v-73z" />
    <glyph glyph-name="oslash" unicode="&#xf8;" horiz-adv-x="601" 
d="M51 0l60 70q-58 71 -58 182q0 115 66.5 190t181.5 75q91 0 150 -47l29 34h70l-60 -71q59 -71 59 -181q0 -115 -66.5 -190t-181.5 -75q-92 0 -151 47l-29 -34h-70zM301 61q79 0 121 55.5t42 135.5q0 66 -29 116l-234 -274q39 -33 100 -33zM138 252q0 -67 28 -116l234 274
q-41 33 -99 33q-79 0 -121 -55.5t-42 -135.5z" />
    <glyph glyph-name="ugrave" unicode="&#xf9;" horiz-adv-x="604" 
d="M74 504h85v-302q0 -139 128 -139q65 0 107.5 49t42.5 119v273h85v-504h-82v54h-22q-22 -30 -62 -48.5t-90 -18.5q-92 0 -142 52.5t-50 144.5v320zM278 582l-108 145h98l86 -145h-76z" />
    <glyph glyph-name="uacute" unicode="&#xfa;" horiz-adv-x="604" 
d="M74 504h85v-302q0 -139 128 -139q65 0 107.5 49t42.5 119v273h85v-504h-82v54h-22q-22 -30 -62 -48.5t-90 -18.5q-92 0 -142 52.5t-50 144.5v320zM429 727l-109 -145h-75l86 145h98z" />
    <glyph glyph-name="ucircumflex" unicode="&#xfb;" horiz-adv-x="604" 
d="M74 504h85v-302q0 -139 128 -139q65 0 107.5 49t42.5 119v273h85v-504h-82v54h-22q-22 -30 -62 -48.5t-90 -18.5q-92 0 -142 52.5t-50 144.5v320zM340 727l106 -145h-75l-64 86h-22l-63 -86h-74l107 145h85z" />
    <glyph glyph-name="udieresis" unicode="&#xfc;" horiz-adv-x="604" 
d="M74 504h85v-302q0 -139 128 -139q65 0 107.5 49t42.5 119v273h85v-504h-82v54h-22q-22 -30 -62 -48.5t-90 -18.5q-92 0 -142 52.5t-50 144.5v320zM429 635h-83v92h83v-92zM247 635h-83v92h83v-92z" />
    <glyph glyph-name="yacute" unicode="&#xfd;" horiz-adv-x="538" 
d="M218 -200h-86l104 247l-215 457h91l154 -332h25l140 332h89zM421 727l-109 -145h-75l86 145h98z" />
    <glyph glyph-name="thorn" unicode="&#xfe;" horiz-adv-x="615" 
d="M324 443q-79 0 -118.5 -55t-39.5 -136t39.5 -136t118.5 -55q74 0 114.5 52.5t40.5 138.5t-40.5 138.5t-114.5 52.5zM82 727h85v-277h22q52 67 154 67t161.5 -75t59.5 -190q0 -117 -59.5 -191t-161.5 -74q-104 0 -154 67h-22v-254h-85v927z" />
    <glyph glyph-name="ydieresis" unicode="&#xff;" horiz-adv-x="538" 
d="M218 -200h-86l104 247l-215 457h91l154 -332h25l140 332h89zM405 635h-83v92h83v-92zM223 635h-83v92h83v-92z" />
    <glyph glyph-name="Amacron" unicode="&#x100;" horiz-adv-x="688" 
d="M573 0l-74 219h-313l-74 -219h-92l247 714h152l248 -714h-94zM322 622l-109 -321h258l-109 321h-40zM484 810h-282v63h282v-63z" />
    <glyph glyph-name="amacron" unicode="&#x101;" horiz-adv-x="558" 
d="M403 0v53h-22q-52 -66 -157 -66q-83 0 -132 48t-49 116q0 69 48 118t145 49h164v20q0 48 -30 76.5t-93 28.5q-110 0 -117 -73h-85q5 69 59.5 108t140.5 39q97 0 152.5 -45t55.5 -129v-343h-80zM245 61q63 0 109 41.5t46 101.5v46h-151q-121 0 -121 -96q0 -43 30.5 -68
t86.5 -25zM425 639h-282v64h282v-64z" />
    <glyph glyph-name="Abreve" unicode="&#x102;" horiz-adv-x="687" 
d="M573 0l-74 219h-313l-74 -219h-92l247 714h152l248 -714h-94zM322 622l-109 -321h258l-109 321h-40zM421 896h61q0 -62 -36.5 -95.5t-102.5 -33.5q-64 0 -100.5 33.5t-37.5 95.5h61q0 -73 77 -73q78 0 78 73z" />
    <glyph glyph-name="abreve" unicode="&#x103;" horiz-adv-x="557" 
d="M403 0v53h-22q-52 -66 -157 -66q-83 0 -132 48t-49 116q0 69 48 118t145 49h164v20q0 48 -30 76.5t-93 28.5q-110 0 -117 -73h-85q5 69 59.5 108t140.5 39q97 0 152.5 -45t55.5 -129v-343h-80zM245 61q63 0 109 41.5t46 101.5v46h-151q-121 0 -121 -96q0 -43 30.5 -68
t86.5 -25zM358 727h61q0 -69 -36.5 -107t-101.5 -38q-66 0 -102.5 38t-36.5 107h61q0 -88 78 -88q77 0 77 88z" />
    <glyph glyph-name="Aogonek" unicode="&#x104;" horiz-adv-x="688" 
d="M573 0l-74 219h-313l-74 -219h-92l247 714h152l248 -714q-31 -16 -51.5 -40.5t-20.5 -49.5q0 -52 74 -52v-58h-21q-58 0 -91 25t-33 70q0 32 20 61t51 44h-22zM322 622l-109 -321h258l-109 321h-40z" />
    <glyph glyph-name="aogonek" unicode="&#x105;" horiz-adv-x="558" 
d="M403 0v53h-22q-52 -66 -157 -66q-83 0 -132 48t-49 116q0 69 48 118t145 49h164v20q0 48 -30 76.5t-93 28.5q-110 0 -117 -73h-85q5 69 59.5 108t140.5 39q97 0 152.5 -45t55.5 -129v-343q-31 -16 -51.5 -40.5t-20.5 -49.5q0 -52 74 -52v-58h-21q-58 0 -91 25t-33 70
q0 29 17.5 58t45.5 47zM245 61q63 0 109 41.5t46 101.5v46h-151q-121 0 -121 -96q0 -43 30.5 -68t86.5 -25z" />
    <glyph glyph-name="Cacute" unicode="&#x106;" horiz-adv-x="722" 
d="M573 203h95q-23 -99 -96 -157.5t-187 -58.5q-156 0 -243 103t-87 267t88 267t243 103q108 0 180 -53.5t94 -146.5h-95q-42 118 -179 118q-118 0 -179 -83t-61 -205q0 -123 60.5 -205.5t178.5 -82.5q74 0 122 35.5t66 98.5zM520 896l-109 -129h-76l85 129h100z" />
    <glyph glyph-name="cacute" unicode="&#x107;" horiz-adv-x="553" 
d="M423 152h85q-15 -76 -70.5 -120.5t-141.5 -44.5q-114 0 -179.5 74.5t-65.5 190.5q0 117 65 191t180 74q87 0 141.5 -43.5t67.5 -115.5h-85q-27 85 -124 85q-81 0 -120.5 -53.5t-39.5 -135.5q0 -83 40 -138t120 -55q106 0 127 91zM422 727l-109 -145h-75l86 145h98z" />
    <glyph glyph-name="Ccaron" unicode="&#x10c;" horiz-adv-x="722" 
d="M573 203h95q-23 -99 -96 -157.5t-187 -58.5q-156 0 -243 103t-87 267t88 267t243 103q108 0 180 -53.5t94 -146.5h-95q-42 118 -179 118q-118 0 -179 -83t-61 -205q0 -123 60.5 -205.5t178.5 -82.5q74 0 122 35.5t66 98.5zM335 767l-106 129h79l60 -71h22l60 71h77
l-106 -129h-86z" />
    <glyph glyph-name="ccaron" unicode="&#x10d;" horiz-adv-x="553" 
d="M423 152h85q-15 -76 -70.5 -120.5t-141.5 -44.5q-114 0 -179.5 74.5t-65.5 190.5q0 117 65 191t180 74q87 0 141.5 -43.5t67.5 -115.5h-85q-27 85 -124 85q-81 0 -120.5 -53.5t-39.5 -135.5q0 -83 40 -138t120 -55q106 0 127 91zM251 582l-106 145h75l64 -86h22l63 86h74
l-107 -145h-85z" />
    <glyph glyph-name="Dcaron" unicode="&#x10e;" horiz-adv-x="743" 
d="M91 714h267q161 0 245.5 -96t84.5 -261t-85 -261t-245 -96h-267v714zM181 82h177q122 0 180.5 76.5t58.5 198.5t-58.5 198.5t-180.5 76.5h-177v-550zM295 767l-106 129h79l60 -71h22l60 71h77l-106 -129h-86z" />
    <glyph glyph-name="dcaron" unicode="&#x10f;" horiz-adv-x="700" 
d="M627 627v100h102v-120l-53 -71h-54l54 71v20h-49zM450 727h85v-727h-82v54h-22q-54 -67 -157 -67q-102 0 -161.5 75t-59.5 190q0 117 59.5 191t161.5 74t154 -67h22v277zM293 61q79 0 118.5 55t39.5 136t-39.5 136t-118.5 55q-74 0 -114.5 -52.5t-40.5 -138.5
t40.5 -138.5t114.5 -52.5z" />
    <glyph glyph-name="Dcroat" unicode="&#x110;" horiz-adv-x="749" 
d="M20 332v74h77v308h267q161 0 245.5 -96t84.5 -261t-85 -261t-245 -96h-267v332h-77zM187 82h177q122 0 180.5 76.5t58.5 198.5t-58.5 198.5t-180.5 76.5h-177v-226h234v-74h-234v-250z" />
    <glyph glyph-name="dslash" unicode="&#x111;" horiz-adv-x="624" 
d="M448 727h85v-88h79v-61h-79v-578h-82v54h-22q-54 -67 -157 -67q-102 0 -161.5 75t-59.5 190q0 117 59.5 191t161.5 74t154 -67h22v128h-162v61h162v88zM291 61q79 0 118.5 55t39.5 136t-39.5 136t-118.5 55q-74 0 -114.5 -52.5t-40.5 -138.5t40.5 -138.5t114.5 -52.5z
" />
    <glyph glyph-name="Emacron" unicode="&#x112;" horiz-adv-x="652" 
d="M181 82h423v-82h-513v714h497v-82h-407v-221h328v-82h-328v-247zM488 810h-282v63h282v-63z" />
    <glyph glyph-name="emacron" unicode="&#x113;" horiz-adv-x="569" 
d="M519 282v-29h-384q2 -91 43 -141.5t118 -50.5q104 0 128 78h86q-13 -68 -68.5 -110t-145.5 -42q-115 0 -180 75t-65 195q0 118 65 189t178 71q107 0 165 -67.5t60 -167.5zM292 443q-65 0 -104 -33.5t-48 -85.5h291q-4 51 -41 85t-98 34zM438 639h-282v64h282v-64z" />
    <glyph glyph-name="Edotaccent" unicode="&#x116;" horiz-adv-x="652" 
d="M181 82h423v-82h-513v714h497v-82h-407v-221h328v-82h-328v-247zM392 807h-90v89h90v-89z" />
    <glyph glyph-name="edotaccent" unicode="&#x117;" horiz-adv-x="569" 
d="M519 282v-29h-384q2 -91 43 -141.5t118 -50.5q104 0 128 78h86q-13 -68 -68.5 -110t-145.5 -42q-115 0 -180 75t-65 195q0 118 65 189t178 71q107 0 165 -67.5t60 -167.5zM292 443q-65 0 -104 -33.5t-48 -85.5h291q-4 51 -41 85t-98 34zM340 635h-90v92h90v-92z" />
    <glyph glyph-name="Eogonek" unicode="&#x118;" horiz-adv-x="652" 
d="M181 82h423v-82q-31 -16 -51.5 -40.5t-20.5 -49.5q0 -52 74 -52v-58h-21q-58 0 -91 25t-33 70q0 32 20 61t51 44h-441v714h497v-82h-407v-221h328v-82h-328v-247z" />
    <glyph glyph-name="eogonek" unicode="&#x119;" horiz-adv-x="569" 
d="M519 282v-29h-384q2 -91 43 -141.5t118 -50.5q104 0 128 78h86q-17 -88 -106 -131q-82 -40 -82 -94q0 -52 74 -52v-58h-21q-58 0 -91 25t-33 70q0 50 45 88q-115 0 -180 75t-65 195q0 118 65 189t178 71q107 0 165 -67.5t60 -167.5zM292 443q-65 0 -104 -33.5t-48 -85.5
h291q-4 51 -41 85t-98 34z" />
    <glyph glyph-name="Ecaron" unicode="&#x11a;" horiz-adv-x="652" 
d="M181 82h423v-82h-513v714h497v-82h-407v-221h328v-82h-328v-247zM305 767l-106 129h79l60 -71h22l60 71h77l-106 -129h-86z" />
    <glyph glyph-name="ecaron" unicode="&#x11b;" horiz-adv-x="569" 
d="M519 282v-29h-384q2 -91 43 -141.5t118 -50.5q104 0 128 78h86q-13 -68 -68.5 -110t-145.5 -42q-115 0 -180 75t-65 195q0 118 65 189t178 71q107 0 165 -67.5t60 -167.5zM292 443q-65 0 -104 -33.5t-48 -85.5h291q-4 51 -41 85t-98 34zM243 582l-106 145h75l64 -86h22
l63 86h74l-107 -145h-85z" />
    <glyph glyph-name="uni0122" unicode="&#x122;" horiz-adv-x="746" 
d="M373 379h313v-72q0 -64 -17 -119.5t-51.5 -101.5t-94 -72.5t-137.5 -26.5q-157 0 -244 104t-87 266q0 163 88 266.5t245 103.5q111 0 183 -53t93 -146h-94q-37 117 -182 117q-119 0 -180.5 -82t-61.5 -206q0 -79 24 -142.5t80 -104.5t137 -41q105 0 156 61t51 156v13
h-221v80zM387 -220h-55l55 61v18h-46v83h100v-101z" />
    <glyph glyph-name="uni0123" unicode="&#x123;" horiz-adv-x="616" 
d="M452 504h82v-479q0 -107 -63 -169.5t-172 -62.5q-98 0 -157.5 40t-70.5 114h84q21 -82 143 -82q76 0 113.5 43t37.5 121v40h-22q-52 -67 -151 -67q-102 0 -163 72t-61 185t61 185.5t163 72.5t154 -67h22v54zM292 76q77 0 118 53t41 130q0 78 -41 131t-118 53
q-73 0 -114 -50t-41 -134q0 -83 41 -133t114 -50zM307 736h55l-55 -61v-18h46v-83h-100v101z" />
    <glyph glyph-name="Itilde" unicode="&#x128;" horiz-adv-x="284" 
d="M97 714h90v-714h-90v714zM257 896h51q0 -129 -94 -129q-28 0 -55.5 17.5t-50.5 35.5t-39 18q-38 0 -38 -71h-51q0 129 94 129q28 0 55.5 -18t50.5 -35.5t39 -17.5q38 0 38 71z" />
    <glyph glyph-name="itilde" unicode="&#x129;" horiz-adv-x="254" 
d="M239 720h52q0 -132 -93 -132q-28 0 -55.5 18t-50.5 36t-39 18q-37 0 -37 -72h-52q0 132 94 132q35 0 81.5 -36.5t63.5 -36.5q36 0 36 73zM169 504v-504h-85v504h85z" />
    <glyph glyph-name="Imacron" unicode="&#x12a;" horiz-adv-x="284" 
d="M97 714h90v-714h-90v714zM284 810h-282v63h282v-63z" />
    <glyph glyph-name="imacron" unicode="&#x12b;" horiz-adv-x="254" 
d="M268 639h-282v64h282v-64zM169 504v-504h-85v504h85z" />
    <glyph glyph-name="Iogonek" unicode="&#x12e;" horiz-adv-x="284" 
d="M97 714h90v-714q-31 -16 -51.5 -40.5t-20.5 -49.5q0 -52 74 -52v-58h-21q-58 0 -91 25t-33 70q0 32 20 61t51 44h-18v714z" />
    <glyph glyph-name="iogonek" unicode="&#x12f;" horiz-adv-x="254" 
d="M169 504v-504q-31 -16 -51.5 -40.5t-20.5 -49.5q0 -52 74 -52v-58h-21q-58 0 -91 25t-33 70q0 32 20 61t51 44h-13v504h85zM172 635h-90v92h90v-92z" />
    <glyph glyph-name="dotlessi" unicode="&#x131;" horiz-adv-x="254" 
d="M169 504v-504h-85v504h85z" />
    <glyph glyph-name="uni0136" unicode="&#x136;" horiz-adv-x="718" 
d="M91 0v714h90v-354l367 354h110l-224 -224l251 -490h-96l-214 412h-22l-172 -165v-247h-90zM377 -220h-55l55 61v18h-46v83h100v-101z" />
    <glyph glyph-name="uni0137" unicode="&#x137;" horiz-adv-x="552" 
d="M540 0h-91l-144 274h-22l-116 -128v-146h-85v727h85v-476l238 253h101l-145 -155zM302 -220h-55l55 61v18h-46v83h100v-101z" />
    <glyph glyph-name="kgreenlandic" unicode="&#x138;" horiz-adv-x="553" 
d="M540 0h-91l-144 274h-22l-116 -128v-146h-85v504h85v-253l238 253h101l-145 -155z" />
    <glyph glyph-name="Lacute" unicode="&#x139;" horiz-adv-x="623" 
d="M181 85h401v-85h-491v714h90v-629zM283 896l-109 -129h-76l85 129h100z" />
    <glyph glyph-name="lacute" unicode="&#x13a;" horiz-adv-x="249" 
d="M82 727h85v-727h-85v727zM273 896l-109 -129h-76l85 129h100z" />
    <glyph glyph-name="uni013B" unicode="&#x13b;" horiz-adv-x="623" 
d="M181 85h401v-85h-491v714h90v-629zM334 -220h-55l55 61v18h-46v83h100v-101z" />
    <glyph glyph-name="uni013C" unicode="&#x13c;" horiz-adv-x="249" 
d="M82 727h85v-727h-85v727zM120 -220h-55l55 61v18h-46v83h100v-101z" />
    <glyph glyph-name="Lcaron" unicode="&#x13d;" horiz-adv-x="623" 
d="M418 614h-49v100h102v-120l-53 -71h-53l53 71v20zM181 85h401v-85h-491v714h90v-629z" />
    <glyph glyph-name="lcaron" unicode="&#x13e;" horiz-adv-x="333" 
d="M260 627v100h102v-120l-53 -71h-53l53 71v20h-49zM82 727h85v-727h-85v727z" />
    <glyph glyph-name="Lslash" unicode="&#x141;" horiz-adv-x="641" 
d="M199 85h401v-85h-491v309l-89 -36v78l89 36v327h90v-291l174 70v-77l-174 -71v-260z" />
    <glyph glyph-name="lslash" unicode="&#x142;" horiz-adv-x="337" 
d="M27 267v81l99 45v334h85v-296l99 45v-81l-99 -45v-350h-85v312z" />
    <glyph glyph-name="Nacute" unicode="&#x143;" horiz-adv-x="764" 
d="M587 714h88v-714h-142l-332 597h-22v-597h-88v714h142l332 -597h22v597zM522 896l-109 -129h-76l85 129h100z" />
    <glyph glyph-name="nacute" unicode="&#x144;" horiz-adv-x="604" 
d="M530 0h-85v302q0 139 -128 139q-66 0 -108 -49.5t-42 -118.5v-273h-85v504h82v-54h22q22 30 62 48.5t90 18.5q92 0 142 -52.5t50 -144.5v-320zM448 727l-109 -145h-75l86 145h98z" />
    <glyph glyph-name="uni0145" unicode="&#x145;" horiz-adv-x="764" 
d="M587 714h88v-714h-142l-332 597h-22v-597h-88v714h142l332 -597h22v597zM372 -220h-55l55 61v18h-46v83h100v-101z" />
    <glyph glyph-name="uni0146" unicode="&#x146;" horiz-adv-x="604" 
d="M530 0h-85v302q0 139 -128 139q-66 0 -108 -49.5t-42 -118.5v-273h-85v504h82v-54h22q22 30 62 48.5t90 18.5q92 0 142 -52.5t50 -144.5v-320zM302 -220h-55l55 61v18h-46v83h100v-101z" />
    <glyph glyph-name="Ncaron" unicode="&#x147;" horiz-adv-x="764" 
d="M587 714h88v-714h-142l-332 597h-22v-597h-88v714h142l332 -597h22v597zM339 767l-106 129h79l60 -71h22l60 71h77l-106 -129h-86z" />
    <glyph glyph-name="ncaron" unicode="&#x148;" horiz-adv-x="604" 
d="M530 0h-85v302q0 139 -128 139q-66 0 -108 -49.5t-42 -118.5v-273h-85v504h82v-54h22q22 30 62 48.5t90 18.5q92 0 142 -52.5t50 -144.5v-320zM262 582l-106 145h75l64 -86h22l63 86h74l-107 -145h-85z" />
    <glyph glyph-name="Eng" unicode="&#x14a;" horiz-adv-x="764" 
d="M674 714v-685q0 -108 -57.5 -168t-160.5 -61h-50v78h48q120 0 133 122h-55l-332 597h-22v-597h-88v714h142l332 -597h22v597h88z" />
    <glyph glyph-name="eng" unicode="&#x14b;" horiz-adv-x="604" 
d="M305 -126h46q50 0 72 25.5t22 76.5v326q0 139 -128 139q-66 0 -108 -49.5t-42 -118.5v-273h-85v504h82v-54h22q22 30 62 48.5t90 18.5q92 0 142 -52.5t50 -144.5v-347q0 -83 -42 -128t-120 -45h-63v74z" />
    <glyph glyph-name="Omacron" unicode="&#x14c;" horiz-adv-x="776" 
d="M388 727q157 0 245 -105t88 -265t-88 -265t-245 -105q-158 0 -245.5 104.5t-87.5 265.5t87.5 265.5t245.5 104.5zM388 69q120 0 181 83t61 205t-61 205t-181 83t-181 -83t-61 -205t61 -205t181 -83zM529 810h-282v63h282v-63z" />
    <glyph glyph-name="omacron" unicode="&#x14d;" horiz-adv-x="598" 
d="M299 517q115 0 181.5 -75t66.5 -190t-66.5 -190t-181.5 -75t-181.5 75t-66.5 190t66.5 190t181.5 75zM299 61q79 0 121 55.5t42 135.5t-42 135.5t-121 55.5t-121 -55.5t-42 -135.5t42 -135.5t121 -55.5zM440 639h-282v64h282v-64z" />
    <glyph glyph-name="Ohungarumlaut" unicode="&#x150;" horiz-adv-x="776" 
d="M388 727q157 0 245 -105t88 -265t-88 -265t-245 -105q-158 0 -245.5 104.5t-87.5 265.5t87.5 265.5t245.5 104.5zM388 69q120 0 181 83t61 205t-61 205t-181 83t-181 -83t-61 -205t61 -205t181 -83zM441 896l-99 -129h-72l77 129h94zM597 896l-100 -129h-71l77 129h94z
" />
    <glyph glyph-name="ohungarumlaut" unicode="&#x151;" horiz-adv-x="598" 
d="M299 517q115 0 181.5 -75t66.5 -190t-66.5 -190t-181.5 -75t-181.5 75t-66.5 190t66.5 190t181.5 75zM299 61q79 0 121 55.5t42 135.5t-42 135.5t-121 55.5t-121 -55.5t-42 -135.5t42 -135.5t121 -55.5zM347 727l-98 -145h-72l76 145h94zM503 727l-99 -145h-71l76 145h94
z" />
    <glyph glyph-name="OE" unicode="&#x152;" horiz-adv-x="1085" 
d="M665 82h372v-82h-462v50h-22q-63 -63 -174 -63q-152 0 -238 103.5t-86 266.5t86 266.5t238 103.5q112 0 174 -62h22v49h447v-82h-357v-221h277v-82h-277v-247zM386 69q72 0 121 31t68 79v357q-19 47 -68 78t-121 31q-61 0 -108 -24t-75.5 -64.5t-42.5 -91t-14 -108.5
t14 -108.5t42.5 -91t75.5 -64.5t108 -24z" />
    <glyph glyph-name="oe" unicode="&#x153;" horiz-adv-x="966" 
d="M916 253h-376q1 -89 41 -140.5t115 -51.5q100 0 127 78h86q-13 -68 -68 -110t-145 -42q-124 0 -187 97h-23q-63 -97 -191 -97q-113 0 -178.5 75t-65.5 190t65.5 190t178.5 75q125 0 190 -94h24q62 94 188 94q103 0 161 -68.5t58 -166.5v-29zM295 61q78 0 119 55.5
t41 135.5t-41 135.5t-119 55.5q-77 0 -118 -55.5t-41 -135.5t41 -135.5t118 -55.5zM694 443q-64 0 -101.5 -33t-48.5 -86h284q-4 51 -39 85t-95 34z" />
    <glyph glyph-name="Racute" unicode="&#x154;" horiz-adv-x="707" 
d="M91 714h316q113 0 174 -54.5t61 -153.5q0 -135 -109 -183l114 -323h-93l-107 302q-28 -3 -58 -3h-208v-299h-90v714zM181 379h213q157 0 157 127q0 63 -37 95.5t-120 32.5h-213v-255zM462 896l-109 -129h-76l85 129h100z" />
    <glyph glyph-name="racute" unicode="&#x155;" horiz-adv-x="399" 
d="M370 504v-80h-42q-76 0 -118.5 -45t-42.5 -127v-252h-85v504h82v-60h22q48 60 146 60h38zM338 727l-109 -145h-75l86 145h98z" />
    <glyph glyph-name="uni0156" unicode="&#x156;" horiz-adv-x="707" 
d="M91 714h316q113 0 174 -54.5t61 -153.5q0 -135 -109 -183l114 -323h-93l-107 302q-28 -3 -58 -3h-208v-299h-90v714zM181 379h213q157 0 157 127q0 63 -37 95.5t-120 32.5h-213v-255zM350 -220h-55l55 61v18h-46v83h100v-101z" />
    <glyph glyph-name="uni0157" unicode="&#x157;" horiz-adv-x="399" 
d="M370 504v-80h-42q-76 0 -118.5 -45t-42.5 -127v-252h-85v504h82v-60h22q48 60 146 60h38zM124 -220h-55l55 61v18h-46v83h100v-101z" />
    <glyph glyph-name="Rcaron" unicode="&#x158;" horiz-adv-x="707" 
d="M91 714h316q113 0 174 -54.5t61 -153.5q0 -135 -109 -183l114 -323h-93l-107 302q-28 -3 -58 -3h-208v-299h-90v714zM181 379h213q157 0 157 127q0 63 -37 95.5t-120 32.5h-213v-255zM305 767l-106 129h79l60 -71h22l60 71h77l-106 -129h-86z" />
    <glyph glyph-name="rcaron" unicode="&#x159;" horiz-adv-x="399" 
d="M370 504v-80h-42q-76 0 -118.5 -45t-42.5 -127v-252h-85v504h82v-60h22q48 60 146 60h38zM178 582l-106 145h75l64 -86h22l63 86h74l-107 -145h-85z" />
    <glyph glyph-name="Sacute" unicode="&#x15a;" horiz-adv-x="664" 
d="M291 427q40 -6 135 -27q86 -19 132.5 -66.5t46.5 -134.5q0 -90 -70.5 -151t-199.5 -61q-123 0 -201 59t-86 153h91q11 -68 65 -99t135 -31q77 0 126 34t49 94q0 54 -31 81.5t-90 40.5q-17 4 -70 14.5t-71 14.5q-173 35 -173 181q0 86 67 142t184 56q109 0 178 -52.5
t81 -140.5h-91q-26 111 -170 111q-68 0 -113 -30t-45 -84q0 -47 32.5 -69.5t88.5 -34.5zM457 896l-109 -129h-76l85 129h100z" />
    <glyph glyph-name="sacute" unicode="&#x15b;" horiz-adv-x="514" 
d="M222 314l48 -8l57 -9q144 -25 144 -152q0 -66 -55 -112t-152 -46q-104 0 -159.5 42t-64.5 117h86q12 -85 134 -85q59 0 92.5 21t33.5 61q0 33 -22 52t-70 27l-113 19q-121 22 -121 127q0 66 50.5 107.5t148.5 41.5q88 0 139.5 -38.5t59.5 -105.5h-85q-5 35 -37 52.5
t-81 17.5q-50 0 -79.5 -17.5t-29.5 -49.5q0 -28 18 -42t58 -20zM386 727l-109 -145h-75l86 145h98z" />
    <glyph glyph-name="Scedilla" unicode="&#x15e;" horiz-adv-x="664" 
d="M291 427q40 -6 135 -27q86 -19 132.5 -66.5t46.5 -134.5q0 -90 -70.5 -151t-199.5 -61h-6l-18 -47h13q11 8 32 8q28 0 48 -22t20 -56q0 -35 -24 -60t-71 -25q-40 0 -63.5 20.5t-25.5 48.5h54q6 -24 36 -24q17 0 27 10.5t10 27.5t-10 27t-26 10q-20 0 -31 -11h-52l38 96
q-104 12 -167 68t-71 141h91q11 -68 65 -99t135 -31q77 0 126 34t49 94q0 54 -31 81.5t-90 40.5q-17 4 -70 14.5t-71 14.5q-173 35 -173 181q0 86 67 142t184 56q109 0 178 -52.5t81 -140.5h-91q-26 111 -170 111q-68 0 -113 -30t-45 -84q0 -47 32.5 -69.5t88.5 -34.5z" />
    <glyph glyph-name="scedilla" unicode="&#x15f;" horiz-adv-x="514" 
d="M222 314l48 -8l57 -9q144 -25 144 -152q0 -66 -55 -112t-152 -46h-10l-18 -47h13q11 8 32 8q28 0 48 -22t20 -56q0 -35 -24 -60t-71 -25q-40 0 -63.5 20.5t-25.5 48.5h54q6 -24 36 -24q17 0 27 10.5t10 27.5t-10 27t-26 10q-20 0 -31 -11h-52l38 97q-79 10 -122 50
t-49 105h86q12 -85 134 -85q59 0 92.5 21t33.5 61q0 33 -22 52t-70 27l-113 19q-121 22 -121 127q0 66 50.5 107.5t148.5 41.5q88 0 139.5 -38.5t59.5 -105.5h-85q-5 35 -37 52.5t-81 17.5q-50 0 -79.5 -17.5t-29.5 -49.5q0 -28 18 -42t58 -20z" />
    <glyph glyph-name="Scaron" unicode="&#x160;" horiz-adv-x="664" 
d="M291 427q40 -6 135 -27q86 -19 132.5 -66.5t46.5 -134.5q0 -90 -70.5 -151t-199.5 -61q-123 0 -201 59t-86 153h91q11 -68 65 -99t135 -31q77 0 126 34t49 94q0 54 -31 81.5t-90 40.5q-17 4 -70 14.5t-71 14.5q-173 35 -173 181q0 86 67 142t184 56q109 0 178 -52.5
t81 -140.5h-91q-26 111 -170 111q-68 0 -113 -30t-45 -84q0 -47 32.5 -69.5t88.5 -34.5zM286 767l-106 129h79l60 -71h22l60 71h77l-106 -129h-86z" />
    <glyph glyph-name="scaron" unicode="&#x161;" horiz-adv-x="514" 
d="M222 314l48 -8l57 -9q144 -25 144 -152q0 -66 -55 -112t-152 -46q-104 0 -159.5 42t-64.5 117h86q12 -85 134 -85q59 0 92.5 21t33.5 61q0 33 -22 52t-70 27l-113 19q-121 22 -121 127q0 66 50.5 107.5t148.5 41.5q88 0 139.5 -38.5t59.5 -105.5h-85q-5 35 -37 52.5
t-81 17.5q-50 0 -79.5 -17.5t-29.5 -49.5q0 -28 18 -42t58 -20zM216 582l-106 145h75l64 -86h22l63 86h74l-107 -145h-85z" />
    <glyph glyph-name="uni0162" unicode="&#x162;" horiz-adv-x="597" 
d="M578 714v-80h-234v-634h-90v634h-236v80h560zM295 -220h-55l55 61v18h-46v83h100v-101z" />
    <glyph glyph-name="uni0163" unicode="&#x163;" horiz-adv-x="384" 
d="M199 504h127v-74h-127v-277q0 -40 20.5 -58.5t69.5 -18.5h37v-76h-39q-86 0 -129.5 32t-43.5 109v289h-87v74h87v152h85v-152zM215 -220h-55l55 61v18h-46v83h100v-101z" />
    <glyph glyph-name="Tcaron" unicode="&#x164;" horiz-adv-x="597" 
d="M578 714v-80h-234v-634h-90v634h-236v80h560zM255 767l-106 129h79l60 -71h22l60 71h77l-106 -129h-86z" />
    <glyph glyph-name="tcaron" unicode="&#x165;" horiz-adv-x="388" 
d="M351 645h-48v100h102v-119l-53 -72h-54l53 72v19zM199 504h127v-74h-127v-277q0 -40 20.5 -58.5t69.5 -18.5h37v-76h-39q-86 0 -129.5 32t-43.5 109v289h-87v74h87v152h85v-152z" />
    <glyph glyph-name="Tbar" unicode="&#x166;" horiz-adv-x="597" 
d="M578 714v-80h-234v-228h160v-74h-160v-332h-90v332h-162v74h162v228h-236v80h560z" />
    <glyph glyph-name="tbar" unicode="&#x167;" horiz-adv-x="376" 
d="M27 250v74h87v106h-87v74h87v152h85v-152h127v-74h-127v-106h127v-74h-127v-97q0 -40 20.5 -58.5t69.5 -18.5h37v-76h-39q-86 0 -129.5 32t-43.5 109v109h-87z" />
    <glyph glyph-name="Utilde" unicode="&#x168;" horiz-adv-x="740" 
d="M561 714h90v-459q0 -128 -72.5 -198t-208.5 -70t-208.5 70t-72.5 198v459h90v-458q0 -86 49.5 -136.5t141.5 -50.5t141.5 50.5t49.5 136.5v458zM483 896h51q0 -129 -94 -129q-28 0 -55.5 17.5t-50.5 35.5t-39 18q-38 0 -38 -71h-51q0 129 94 129q28 0 55.5 -18
t50.5 -35.5t39 -17.5q38 0 38 71z" />
    <glyph glyph-name="utilde" unicode="&#x169;" horiz-adv-x="605" 
d="M75 504h85v-302q0 -139 128 -139q65 0 107.5 49t42.5 119v273h85v-504h-82v54h-22q-22 -30 -62 -48.5t-90 -18.5q-92 0 -142 52.5t-50 144.5v320zM411 720h52q0 -132 -93 -132q-28 0 -55.5 18t-50.5 36t-39 18q-37 0 -37 -72h-52q0 132 94 132q35 0 81.5 -36.5
t63.5 -36.5q36 0 36 73z" />
    <glyph glyph-name="Umacron" unicode="&#x16a;" horiz-adv-x="740" 
d="M561 714h90v-459q0 -128 -72.5 -198t-208.5 -70t-208.5 70t-72.5 198v459h90v-458q0 -86 49.5 -136.5t141.5 -50.5t141.5 50.5t49.5 136.5v458zM511 810h-282v63h282v-63z" />
    <glyph glyph-name="umacron" unicode="&#x16b;" horiz-adv-x="605" 
d="M75 504h85v-302q0 -139 128 -139q65 0 107.5 49t42.5 119v273h85v-504h-82v54h-22q-22 -30 -62 -48.5t-90 -18.5q-92 0 -142 52.5t-50 144.5v320zM439 639h-282v64h282v-64z" />
    <glyph glyph-name="Uring" unicode="&#x16e;" horiz-adv-x="740" 
d="M561 714h90v-459q0 -128 -72.5 -198t-208.5 -70t-208.5 70t-72.5 198v459h90v-458q0 -86 49.5 -136.5t141.5 -50.5t141.5 50.5t49.5 136.5v458zM371 970q45 0 76.5 -32t31.5 -76q0 -45 -31.5 -77t-76.5 -32q-46 0 -78 32t-32 77q0 44 32 76t78 32zM371 804
q24 0 40.5 16.5t16.5 41.5q0 24 -16.5 40.5t-40.5 16.5q-25 0 -41.5 -16.5t-16.5 -40.5q0 -25 16.5 -41.5t41.5 -16.5z" />
    <glyph glyph-name="uring" unicode="&#x16f;" horiz-adv-x="605" 
d="M75 504h85v-302q0 -139 128 -139q65 0 107.5 49t42.5 119v273h85v-504h-82v54h-22q-22 -30 -62 -48.5t-90 -18.5q-92 0 -142 52.5t-50 144.5v320zM300 795q45 0 76.5 -31.5t31.5 -76.5q0 -44 -31.5 -76t-76.5 -32q-46 0 -78 32t-32 76q0 45 32 76.5t78 31.5zM300 630
q24 0 40.5 16t16.5 41t-16.5 41.5t-40.5 16.5q-25 0 -41.5 -16.5t-16.5 -41.5t16.5 -41t41.5 -16z" />
    <glyph glyph-name="Uhungarumlaut" unicode="&#x170;" horiz-adv-x="740" 
d="M561 714h90v-459q0 -128 -72.5 -198t-208.5 -70t-208.5 70t-72.5 198v459h90v-458q0 -86 49.5 -136.5t141.5 -50.5t141.5 50.5t49.5 136.5v458zM411 896l-99 -129h-72l77 129h94zM567 896l-100 -129h-71l77 129h94z" />
    <glyph glyph-name="uhungarumlaut" unicode="&#x171;" horiz-adv-x="605" 
d="M75 504h85v-302q0 -139 128 -139q65 0 107.5 49t42.5 119v273h85v-504h-82v54h-22q-22 -30 -62 -48.5t-90 -18.5q-92 0 -142 52.5t-50 144.5v320zM332 727l-98 -145h-72l76 145h94zM488 727l-99 -145h-71l76 145h94z" />
    <glyph glyph-name="Uogonek" unicode="&#x172;" horiz-adv-x="740" 
d="M561 714h90v-459q0 -183 -151 -246q-99 -41 -99 -99q0 -52 74 -52v-58h-21q-58 0 -91 25t-33 70q0 52 50 92h-10q-136 0 -208.5 70t-72.5 198v459h90v-458q0 -86 49.5 -136.5t141.5 -50.5t141.5 50.5t49.5 136.5v458z" />
    <glyph glyph-name="uogonek" unicode="&#x173;" horiz-adv-x="605" 
d="M75 504h85v-302q0 -139 128 -139q65 0 107.5 49t42.5 119v273h85v-504q-31 -16 -51.5 -40.5t-20.5 -49.5q0 -52 74 -52v-58h-21q-58 0 -91 25t-33 70q0 30 17 58.5t44 46.5v54h-22q-22 -30 -62 -48.5t-90 -18.5q-92 0 -142 52.5t-50 144.5v320z" />
    <glyph glyph-name="Ydieresis" unicode="&#x178;" horiz-adv-x="643" 
d="M307 389h28l191 325h97l-257 -441v-273h-90v273l-257 441h97zM454 807h-83v89h83v-89zM272 807h-83v89h83v-89z" />
    <glyph glyph-name="Zacute" unicode="&#x179;" horiz-adv-x="645" 
d="M582 714v-103l-423 -507v-22h437v-82h-548v104l424 506v22h-397v82h507zM463 896l-109 -129h-76l85 129h100z" />
    <glyph glyph-name="zacute" unicode="&#x17a;" horiz-adv-x="515" 
d="M467 0h-419v96l307 313v21h-290v74h399v-95l-306 -313v-22h309v-74zM400 727l-109 -145h-75l86 145h98z" />
    <glyph glyph-name="Zdotaccent" unicode="&#x17b;" horiz-adv-x="645" 
d="M582 714v-103l-423 -507v-22h437v-82h-548v104l424 506v22h-397v82h507zM368 807h-90v89h90v-89z" />
    <glyph glyph-name="zdotaccent" unicode="&#x17c;" horiz-adv-x="515" 
d="M467 0h-419v96l307 313v21h-290v74h399v-95l-306 -313v-22h309v-74zM303 635h-90v92h90v-92z" />
    <glyph glyph-name="Zcaron" unicode="&#x17d;" horiz-adv-x="645" 
d="M582 714v-103l-423 -507v-22h437v-82h-548v104l424 506v22h-397v82h507zM280 767l-106 129h79l60 -71h22l60 71h77l-106 -129h-86z" />
    <glyph glyph-name="zcaron" unicode="&#x17e;" horiz-adv-x="515" 
d="M467 0h-419v96l307 313v21h-290v74h399v-95l-306 -313v-22h309v-74zM225 582l-106 145h75l64 -86h22l63 86h74l-107 -145h-85z" />
    <glyph glyph-name="florin" unicode="&#x192;" horiz-adv-x="432" 
d="M135 -200h-85l98 555h-94v71h106l22 125q17 93 65.5 134.5t135.5 41.5h39v-74h-41q-95 0 -115 -114l-21 -113h121v-71h-133z" />
    <glyph glyph-name="circumflex" unicode="&#x2c6;" horiz-adv-x="378" 
d="M232 727l106 -145h-75l-64 86h-22l-63 -86h-74l107 145h85z" />
    <glyph glyph-name="caron" unicode="&#x2c7;" horiz-adv-x="378" 
d="M146 582l-106 145h75l64 -86h22l63 86h74l-107 -145h-85z" />
    <glyph glyph-name="breve" unicode="&#x2d8;" horiz-adv-x="357" 
d="M256 727h61q0 -69 -36.5 -107t-101.5 -38q-66 0 -102.5 38t-36.5 107h61q0 -88 78 -88q77 0 77 88z" />
    <glyph glyph-name="dotaccent" unicode="&#x2d9;" horiz-adv-x="170" 
d="M130 635h-90v92h90v-92z" />
    <glyph glyph-name="ring" unicode="&#x2da;" horiz-adv-x="298" 
d="M150 795q45 0 76.5 -31.5t31.5 -76.5q0 -44 -31.5 -76t-76.5 -32q-46 0 -78 32t-32 76q0 45 32 76.5t78 31.5zM150 630q24 0 40.5 16t16.5 41t-16.5 41.5t-40.5 16.5q-25 0 -41.5 -16.5t-16.5 -41.5t16.5 -41t41.5 -16z" />
    <glyph glyph-name="ogonek" unicode="&#x2db;" horiz-adv-x="224" 
d="M115 7l54 -7q-31 -16 -51.5 -40.5t-20.5 -49.5q0 -52 74 -52v-58h-21q-58 0 -91 25t-33 70q0 37 26 68.5t63 43.5z" />
    <glyph glyph-name="tilde" unicode="&#x2dc;" horiz-adv-x="407" 
d="M315 720h52q0 -132 -93 -132q-28 0 -55.5 18t-50.5 36t-39 18q-37 0 -37 -72h-52q0 132 94 132q35 0 81.5 -36.5t63.5 -36.5q36 0 36 73z" />
    <glyph glyph-name="hungarumlaut" unicode="&#x2dd;" horiz-adv-x="406" 
d="M210 727l-98 -145h-72l76 145h94zM366 727l-99 -145h-71l76 145h94z" />
    <glyph glyph-name="uni03A9" unicode="&#x3a9;" horiz-adv-x="758" 
d="M569 100v-22h132v-78h-275v78q186 114 186 300q0 122 -64 194.5t-169 72.5q-106 0 -169.5 -72.5t-63.5 -194.5q0 -187 185 -300v-78h-275v78h133v22q-134 116 -134 282q0 153 88 249t236 96t236 -96t88 -249q0 -166 -134 -282z" />
    <glyph glyph-name="pi" unicode="&#x3c0;" horiz-adv-x="615" 
d="M565 0h-36q-77 0 -109 37.5t-32 106.5v286h-196v-430h-85v430h-80v74h538v-74h-92v-284q0 -72 57 -72h35v-74z" />
    <glyph glyph-name="uni0401" unicode="&#x401;" horiz-adv-x="652" 
d="M181 82h423v-82h-513v714h497v-82h-407v-221h328v-82h-328v-247zM467 807h-83v89h83v-89zM285 807h-83v89h83v-89z" />
    <glyph glyph-name="uni0402" unicode="&#x402;" horiz-adv-x="799" 
d="M747 204q0 -103 -60.5 -160t-173.5 -57q-34 0 -53 4v82q12 -4 43 -4q154 0 154 136q0 67 -42.5 102.5t-146.5 35.5q-81 0 -162 -19v-324h-90v634h-198v80h544v-80h-256v-229q90 18 177 18q137 0 200.5 -60t63.5 -159z" />
    <glyph glyph-name="uni0403" unicode="&#x403;" horiz-adv-x="623" 
d="M470 902l-109 -145h-75l86 145h98zM579 632h-398v-632h-90v714h488v-82z" />
    <glyph glyph-name="uni0404" unicode="&#x404;" horiz-adv-x="717" 
d="M572 194h95q-21 -94 -95.5 -150.5t-187.5 -56.5q-154 0 -241.5 104t-87.5 266q0 163 87 266.5t242 103.5q107 0 179.5 -51.5t95.5 -142.5h-95q-42 113 -181 113q-106 0 -164 -67t-69 -172h334v-80h-335q4 -112 64 -185.5t171 -73.5q73 0 121.5 33.5t66.5 92.5z" />
    <glyph glyph-name="uni0405" unicode="&#x405;" horiz-adv-x="664" 
d="M291 427q40 -6 135 -27q86 -19 132.5 -66.5t46.5 -134.5q0 -90 -70.5 -151t-199.5 -61q-123 0 -201 59t-86 153h91q11 -68 65 -99t135 -31q77 0 126 34t49 94q0 54 -31 81.5t-90 40.5q-17 4 -70 14.5t-71 14.5q-173 35 -173 181q0 86 67 142t184 56q109 0 178 -52.5
t81 -140.5h-91q-26 111 -170 111q-68 0 -113 -30t-45 -84q0 -47 32.5 -69.5t88.5 -34.5z" />
    <glyph glyph-name="uni0406" unicode="&#x406;" horiz-adv-x="284" 
d="M97 714h90v-714h-90v714z" />
    <glyph glyph-name="uni0407" unicode="&#x407;" horiz-adv-x="284" 
d="M97 714h90v-714h-90v714zM276 807h-83v89h83v-89zM94 807h-83v89h83v-89z" />
    <glyph glyph-name="uni0408" unicode="&#x408;" horiz-adv-x="582" 
d="M268 -13q-100 0 -161.5 59.5t-68.5 168.5h90q12 -146 142 -146q62 0 97.5 39.5t35.5 118.5v487h90v-486q0 -114 -59.5 -177.5t-165.5 -63.5z" />
    <glyph glyph-name="uni0409" unicode="&#x409;" horiz-adv-x="1125" 
d="M825 0h-296v632h-278v-197q0 -174 -23.5 -269.5t-69 -130.5t-125.5 -35h-20v89h19q49 0 76.5 25t42.5 101.5t15 220.5v278h453v-273h206q118 0 183 -58.5t65 -161.5q0 -105 -64.5 -163t-183.5 -58zM619 80h190q173 0 173 141q0 140 -173 140h-190v-281z" />
    <glyph glyph-name="uni040A" unicode="&#x40a;" horiz-adv-x="1157" 
d="M863 0h-293v336h-389v-336h-90v714h90v-294h389v294h90v-287h203q116 0 179 -55.5t63 -157.5q0 -100 -63.5 -157t-178.5 -57zM660 80h190q87 0 125.5 34.5t38.5 99.5q0 133 -164 133h-190v-267z" />
    <glyph glyph-name="uni040B" unicode="&#x40b;" horiz-adv-x="805" 
d="M747 0h-90v198q0 23 -1 35t-5.5 32t-16.5 31t-31 23t-51 17t-75 5q-86 0 -171 -20v-321h-90v634h-198v80h544v-80h-256v-230q87 19 182 19q52 0 92.5 -7t67.5 -17.5t46 -29t29.5 -35.5t16 -43t6.5 -44.5t1 -47.5v-199z" />
    <glyph glyph-name="uni040C" unicode="&#x40c;" horiz-adv-x="689" 
d="M91 0v714h90v-305h216l143 305h95l-160 -347l169 -367h-95l-152 327h-216v-327h-90zM485 896l-109 -129h-76l85 129h100z" />
    <glyph glyph-name="uni040E" unicode="&#x40e;" horiz-adv-x="637" 
d="M313 339h28l179 375h94l-341 -714h-93l102 214l-264 500h97zM414 904h73q-2 -73 -50 -114t-125 -41q-75 0 -123 41t-50 114h73q1 -42 28 -66t72 -24t73 24t29 66z" />
    <glyph glyph-name="uni040F" unicode="&#x40f;" horiz-adv-x="750" 
d="M330 -175v175h-239v714h90v-632h388v632h90v-714h-239v-175h-90z" />
    <glyph glyph-name="uni0410" unicode="&#x410;" horiz-adv-x="687" 
d="M573 0l-74 219h-313l-74 -219h-92l247 714h152l248 -714h-94zM322 622l-109 -321h258l-109 321h-40z" />
    <glyph glyph-name="uni0411" unicode="&#x411;" horiz-adv-x="687" 
d="M181 424h215q114 0 176.5 -56t62.5 -156t-62.5 -156t-176.5 -56h-305v714h489v-82h-399v-208zM181 80h200q87 0 125.5 34t38.5 99q0 132 -164 132h-200v-265z" />
    <glyph glyph-name="uni0412" unicode="&#x412;" horiz-adv-x="701" 
d="M552 388v-22q45 -21 72.5 -66t27.5 -99q0 -90 -62 -145.5t-180 -55.5h-319v714h311q109 0 168.5 -51.5t59.5 -129.5q0 -103 -78 -145zM181 634v-223h219q139 0 139 114q0 56 -40 82.5t-101 26.5h-217zM181 80h223q69 0 113 29.5t44 98.5q0 65 -43.5 94.5t-112.5 29.5
h-224v-252z" />
    <glyph glyph-name="uni0413" unicode="&#x413;" horiz-adv-x="623" 
d="M579 632h-398v-632h-90v714h488v-82z" />
    <glyph glyph-name="uni0414" unicode="&#x414;" horiz-adv-x="758" 
d="M628 82h103v-257h-89v175h-541v-175h-89v257h74q90 190 90 488v144h452v-632zM539 82v550h-277v-77q0 -292 -80 -473h357z" />
    <glyph glyph-name="uni0415" unicode="&#x415;" horiz-adv-x="652" 
d="M181 82h423v-82h-513v714h497v-82h-407v-221h328v-82h-328v-247z" />
    <glyph glyph-name="uni0416" unicode="&#x416;" horiz-adv-x="1026" 
d="M743 322h-185v-322h-89v322h-186l-132 -322h-95l150 362l-141 352h95l123 -310h186v310h89v-310h185l124 310h95l-142 -352l151 -362h-95z" />
    <glyph glyph-name="uni0417" unicode="&#x417;" horiz-adv-x="659" 
d="M491 527q0 56 -43.5 87t-111.5 31q-142 0 -167 -112h-92q12 90 80.5 142t178.5 52q117 0 181.5 -54t64.5 -135q0 -103 -75 -145v-22q103 -43 103 -170q0 -90 -71.5 -152t-197.5 -62q-129 0 -203.5 55.5t-90.5 153.5h94q34 -127 201 -127q80 0 128 36t48 98
q0 128 -163 128h-114v82h115q71 0 103 32t32 82z" />
    <glyph glyph-name="uni0418" unicode="&#x418;" horiz-adv-x="765" 
d="M91 714h88v-605h22l332 605h141v-714h-88v605h-22l-332 -605h-141v714z" />
    <glyph glyph-name="uni0419" unicode="&#x419;" horiz-adv-x="765" 
d="M91 714h88v-605h22l332 605h141v-714h-88v605h-22l-332 -605h-141v714zM484 904h73q-2 -73 -50 -114t-125 -41q-75 0 -123 41t-50 114h73q1 -42 28 -66t72 -24t73 24t29 66z" />
    <glyph glyph-name="uni041A" unicode="&#x41a;" horiz-adv-x="677" 
d="M91 0v714h90v-305h216l143 305h95l-160 -347l169 -367h-95l-152 327h-216v-327h-90z" />
    <glyph glyph-name="uni041B" unicode="&#x41b;" horiz-adv-x="726" 
d="M13 89h19q50 0 77 26t42 105.5t15 231.5v262h469v-714h-90v632h-294v-197q0 -174 -23.5 -269.5t-69 -130.5t-125.5 -35h-20v89z" />
    <glyph glyph-name="uni041C" unicode="&#x41c;" horiz-adv-x="862" 
d="M91 0v714h150l180 -335h22l177 335h151v-714h-88v612h-22l-183 -339h-94l-183 339h-22v-612h-88z" />
    <glyph glyph-name="uni041D" unicode="&#x41d;" horiz-adv-x="761" 
d="M580 714h90v-714h-90v326h-399v-326h-90v714h90v-304h399v304z" />
    <glyph glyph-name="uni041E" unicode="&#x41e;" horiz-adv-x="776" 
d="M388 727q157 0 245 -105t88 -265t-88 -265t-245 -105q-158 0 -245.5 104.5t-87.5 265.5t87.5 265.5t245.5 104.5zM388 69q120 0 181 83t61 205t-61 205t-181 83t-181 -83t-61 -205t61 -205t181 -83z" />
    <glyph glyph-name="uni041F" unicode="&#x41f;" horiz-adv-x="754" 
d="M91 714h572v-714h-90v632h-392v-632h-90v714z" />
    <glyph glyph-name="uni0420" unicode="&#x420;" horiz-adv-x="687" 
d="M91 714h302q116 0 179 -56t63 -157q0 -102 -63 -158.5t-179 -56.5h-212v-286h-90v714zM181 366h197q166 0 166 134t-166 134h-197v-268z" />
    <glyph glyph-name="uni0421" unicode="&#x421;" horiz-adv-x="718" 
d="M573 203h95q-23 -99 -96 -157.5t-187 -58.5q-156 0 -243 103t-87 267t88 267t243 103q108 0 180 -53.5t94 -146.5h-95q-42 118 -179 118q-118 0 -179 -83t-61 -205q0 -123 60.5 -205.5t178.5 -82.5q74 0 122 35.5t66 98.5z" />
    <glyph glyph-name="uni0422" unicode="&#x422;" horiz-adv-x="597" 
d="M578 714v-80h-234v-634h-90v634h-236v80h560z" />
    <glyph glyph-name="uni0423" unicode="&#x423;" horiz-adv-x="637" 
d="M313 339h28l179 375h94l-341 -714h-93l102 214l-264 500h97z" />
    <glyph glyph-name="uni0424" unicode="&#x424;" horiz-adv-x="852" 
d="M470 655h12q151 0 238.5 -73.5t87.5 -214.5q0 -142 -87 -215t-239 -73h-12v-92h-88v92h-12q-152 0 -239 73t-87 215q0 141 87.5 214.5t238.5 73.5h12v82h88v-82zM370 159h12v416h-12q-112 0 -174.5 -52.5t-62.5 -155.5q0 -104 62.5 -156t174.5 -52zM470 159h12
q111 0 174 52t63 156q0 103 -62.5 155.5t-174.5 52.5h-12v-416z" />
    <glyph glyph-name="uni0425" unicode="&#x425;" horiz-adv-x="647" 
d="M522 0l-180 324h-37l-185 -324h-98l214 377l-183 337h97l156 -285h37l158 285h96l-185 -333l213 -381h-103z" />
    <glyph glyph-name="uni0426" unicode="&#x426;" horiz-adv-x="788" 
d="M672 -175v175h-581v714h90v-632h387v632h90v-632h103v-257h-89z" />
    <glyph glyph-name="uni0427" unicode="&#x427;" horiz-adv-x="680" 
d="M58 714h90v-204q0 -28 1.5 -42.5t10.5 -37t27 -34t53.5 -20.5t87.5 -9q86 0 171 20v327h90v-714h-90v304q-87 -19 -182 -19q-72 0 -122.5 14t-76.5 33t-40 52.5t-17 59t-3 66.5v204z" />
    <glyph glyph-name="uni0428" unicode="&#x428;" horiz-adv-x="1008" 
d="M460 82v632h88v-632h281v632h88v-714h-826v714h88v-632h281z" />
    <glyph glyph-name="uni0429" unicode="&#x429;" horiz-adv-x="1047" 
d="M931 -175v175h-840v714h88v-632h281v632h88v-632h281v632h88v-632h103v-257h-89z" />
    <glyph glyph-name="uni042A" unicode="&#x42a;" horiz-adv-x="781" 
d="M481 0h-296v632h-183v82h273v-273h206q118 0 183 -58.5t65 -161.5q0 -105 -64.5 -163t-183.5 -58zM275 80h190q173 0 173 141q0 140 -173 140h-190v-281z" />
    <glyph glyph-name="uni042B" unicode="&#x42b;" horiz-adv-x="899" 
d="M718 714h90v-714h-90v714zM181 80h177q173 0 173 141q0 140 -173 140h-177v-281zM374 0h-283v714h90v-273h193q118 0 183 -58.5t65 -161.5q0 -105 -64.5 -163t-183.5 -58z" />
    <glyph glyph-name="uni042C" unicode="&#x42c;" horiz-adv-x="687" 
d="M181 80h190q173 0 173 141q0 140 -173 140h-190v-281zM387 0h-296v714h90v-273h206q118 0 183 -58.5t65 -161.5q0 -105 -64.5 -163t-183.5 -58z" />
    <glyph glyph-name="uni042D" unicode="&#x42d;" horiz-adv-x="714" 
d="M47 194h95q18 -59 66.5 -92.5t121.5 -33.5q111 0 171 73.5t64 185.5h-335v80h334q-11 105 -69 172t-164 67q-139 0 -181 -113h-95q23 91 95.5 142.5t179.5 51.5q155 0 242 -103.5t87 -266.5q0 -162 -87.5 -266t-241.5 -104q-113 0 -187.5 56.5t-95.5 150.5z" />
    <glyph glyph-name="uni042E" unicode="&#x42e;" horiz-adv-x="1033" 
d="M653 727q153 0 239 -105t86 -265t-86 -265t-239 -105q-146 0 -230.5 94.5t-93.5 244.5h-148v-326h-90v714h90v-304h150q15 140 99 228.5t223 88.5zM653 68q59 0 105 24t73.5 65t41.5 91.5t14 108.5t-14 108.5t-41.5 91.5t-73.5 65t-105 24t-105 -24t-73.5 -65
t-41.5 -91.5t-14 -108.5t14 -108.5t41.5 -91.5t73.5 -65t105 -24z" />
    <glyph glyph-name="uni042F" unicode="&#x42f;" horiz-adv-x="713" 
d="M306 714h316v-714h-90v299h-208q-30 0 -58 3l-107 -302h-93l114 323q-109 48 -109 183q0 99 61 153.5t174 54.5zM319 379h213v255h-213q-83 0 -120 -32.5t-37 -95.5q0 -127 157 -127z" />
    <glyph glyph-name="uni0430" unicode="&#x430;" horiz-adv-x="557" 
d="M403 0v53h-22q-52 -66 -157 -66q-83 0 -132 48t-49 116q0 69 48 118t145 49h164v20q0 48 -30 76.5t-93 28.5q-110 0 -117 -73h-85q5 69 59.5 108t140.5 39q97 0 152.5 -45t55.5 -129v-343h-80zM245 61q63 0 109 41.5t46 101.5v46h-151q-121 0 -121 -96q0 -43 30.5 -68
t86.5 -25z" />
    <glyph glyph-name="uni0431" unicode="&#x431;" horiz-adv-x="602" 
d="M312 499q111 0 175 -72.5t64 -183.5q0 -110 -67.5 -183t-181.5 -73q-120 0 -185.5 79t-65.5 226q0 57 3.5 102t16 94t33.5 83.5t58 60.5t88 34l134 22q28 4 37.5 11t11.5 28h79q-2 -47 -23 -74.5t-76 -37.5l-155 -26q-63 -11 -92.5 -52.5t-38.5 -110.5h22q31 41 69.5 57
t93.5 16zM300 61q79 0 121.5 53.5t42.5 129.5t-42.5 129t-121.5 53t-121.5 -53t-42.5 -129t42.5 -129.5t121.5 -53.5z" />
    <glyph glyph-name="uni0432" unicode="&#x432;" horiz-adv-x="569" 
d="M437 278v-22q37 -9 59.5 -40t22.5 -78q0 -138 -178 -138h-259v504h250q76 0 117.5 -33.5t41.5 -93.5q0 -35 -15.5 -61t-38.5 -38zM166 72h170q98 0 98 75q0 76 -98 76h-170v-151zM166 432v-137h158q43 0 62.5 19t19.5 49q0 69 -82 69h-158z" />
    <glyph glyph-name="uni0433" unicode="&#x433;" horiz-adv-x="491" 
d="M82 0v504h378v-74h-293v-430h-85z" />
    <glyph glyph-name="uni0434" unicode="&#x434;" horiz-adv-x="652" 
d="M531 74h93v-217h-83v143h-436v-143h-83v217h67q62 132 62 292v138h380v-430zM446 74v356h-216v-64q0 -171 -55 -292h271z" />
    <glyph glyph-name="uni0435" unicode="&#x435;" horiz-adv-x="569" 
d="M519 282v-29h-384q2 -91 43 -141.5t118 -50.5q104 0 128 78h86q-13 -68 -68.5 -110t-145.5 -42q-115 0 -180 75t-65 195q0 118 65 189t178 71q107 0 165 -67.5t60 -167.5zM292 443q-65 0 -104 -33.5t-48 -85.5h291q-4 51 -41 85t-98 34z" />
    <glyph glyph-name="uni0436" unicode="&#x436;" horiz-adv-x="790" 
d="M225 221l-97 -221h-89l114 259l-107 245h88l91 -209h129v209h82v-209h129l91 209h88l-107 -245l115 -259h-90l-97 221h-129v-221h-82v221h-129z" />
    <glyph glyph-name="uni0437" unicode="&#x437;" horiz-adv-x="527" 
d="M371 366q0 37 -30.5 57t-80.5 20q-54 0 -83.5 -18.5t-38.5 -59.5h-81q7 72 62 112t143 40q90 0 141.5 -40t51.5 -100q0 -40 -15.5 -66.5t-38.5 -35.5v-22q31 -9 51.5 -37.5t20.5 -76.5q0 -65 -55.5 -108.5t-153.5 -43.5q-101 0 -158 41t-69 115h82q25 -82 145 -82
q56 0 90 20.5t34 60.5q0 39 -25.5 58.5t-85.5 19.5h-89v74h85q51 0 74.5 20t23.5 52z" />
    <glyph glyph-name="uni0438" unicode="&#x438;" horiz-adv-x="614" 
d="M202 0h-120v504h83v-390h22l221 390h124v-504h-83v390h-22z" />
    <glyph glyph-name="uni0439" unicode="&#x439;" horiz-adv-x="614" 
d="M202 0h-120v504h83v-390h22l221 390h124v-504h-83v390h-22zM392 724h69q-2 -70 -43 -108t-113 -38q-71 0 -112 38t-43 108h69q2 -85 86 -85q82 0 87 85z" />
    <glyph glyph-name="uni043A" unicode="&#x43a;" horiz-adv-x="560" 
d="M430 0l-112 222h-151v-222h-85v504h85v-208h153l105 208h89l-123 -243l130 -261h-91z" />
    <glyph glyph-name="uni043B" unicode="&#x43b;" horiz-adv-x="608" 
d="M25 0v80h17q53 0 76 49.5t23 179.5v195h386v-504h-86v430h-221v-123q0 -171 -41.5 -239t-136.5 -68h-17z" />
    <glyph glyph-name="uni043C" unicode="&#x43c;" horiz-adv-x="702" 
d="M82 0v504h135l124 -230h22l124 230h133v-504h-83v405h-22l-117 -216h-94l-117 216h-22v-405h-83z" />
    <glyph glyph-name="uni043D" unicode="&#x43d;" horiz-adv-x="613" 
d="M531 0h-85v222h-279v-222h-85v504h85v-208h279v208h85v-504z" />
    <glyph glyph-name="uni043E" unicode="&#x43e;" horiz-adv-x="598" 
d="M299 517q115 0 181.5 -75t66.5 -190t-66.5 -190t-181.5 -75t-181.5 75t-66.5 190t66.5 190t181.5 75zM299 61q79 0 121 55.5t42 135.5t-42 135.5t-121 55.5t-121 -55.5t-42 -135.5t42 -135.5t121 -55.5z" />
    <glyph glyph-name="uni043F" unicode="&#x43f;" horiz-adv-x="609" 
d="M527 0h-85v430h-275v-430h-85v504h445v-504z" />
    <glyph glyph-name="uni0440" unicode="&#x440;" horiz-adv-x="615" 
d="M324 443q-79 0 -118.5 -55t-39.5 -136t39.5 -136t118.5 -55q74 0 114.5 52.5t40.5 138.5t-40.5 138.5t-114.5 52.5zM82 504h82v-54h22q54 67 157 67q102 0 161.5 -75t59.5 -190q0 -117 -59.5 -191t-161.5 -74q-104 0 -154 67h-22v-254h-85v704z" />
    <glyph glyph-name="uni0441" unicode="&#x441;" horiz-adv-x="553" 
d="M423 152h85q-15 -76 -70.5 -120.5t-141.5 -44.5q-114 0 -179.5 74.5t-65.5 190.5q0 117 65 191t180 74q87 0 141.5 -43.5t67.5 -115.5h-85q-27 85 -124 85q-81 0 -120.5 -53.5t-39.5 -135.5q0 -83 40 -138t120 -55q106 0 127 91z" />
    <glyph glyph-name="uni0442" unicode="&#x442;" horiz-adv-x="494" 
d="M30 430v74h434v-74h-174v-430h-85v430h-175z" />
    <glyph glyph-name="uni0443" unicode="&#x443;" horiz-adv-x="538" 
d="M218 -200h-86l104 247l-215 457h91l154 -332h25l140 332h89z" />
    <glyph glyph-name="uni0444" unicode="&#x444;" horiz-adv-x="715" 
d="M400 0v-200h-84v200h-16q-117 0 -183 70t-66 182q0 113 65 182.5t183 69.5h17v223h84v-223h16q117 0 182.5 -70t65.5 -182q0 -118 -69 -185t-195 -67zM135 252q0 -78 42 -129t123 -51h16v360h-16q-80 0 -122.5 -51t-42.5 -129zM400 72h14q81 0 123.5 51t42.5 129
t-42.5 129t-123.5 51h-14v-360z" />
    <glyph glyph-name="uni0445" unicode="&#x445;" horiz-adv-x="552" 
d="M419 0l-125 211h-36l-128 -211h-93l157 258l-141 246h90l116 -200h36l118 200h89l-143 -243l156 -261h-96z" />
    <glyph glyph-name="uni0446" unicode="&#x446;" horiz-adv-x="643" 
d="M438 504h85v-430h92v-217h-82v143h-451v504h85v-430h271v430z" />
    <glyph glyph-name="uni0447" unicode="&#x447;" horiz-adv-x="551" 
d="M53 504h85v-142q0 -24 3 -37.5t14 -30.5t38.5 -25t71.5 -8q66 0 126 13v230h86v-504h-86v199q-67 -14 -144 -14q-53 0 -90.5 10.5t-57 25t-30.5 39.5t-13.5 45t-2.5 50v149z" />
    <glyph glyph-name="uni0448" unicode="&#x448;" horiz-adv-x="809" 
d="M644 504h83v-504h-645v504h83v-430h198v430h83v-430h198v430z" />
    <glyph glyph-name="uni0449" unicode="&#x449;" horiz-adv-x="848" 
d="M644 504h83v-430h93v-217h-83v143h-655v504h83v-430h198v430h83v-430h198v430z" />
    <glyph glyph-name="uni044A" unicode="&#x44a;" horiz-adv-x="633" 
d="M19 430v74h235v-168h149q92 0 141.5 -44t49.5 -123t-50 -124t-141 -45h-234v430h-150zM254 74h138q63 0 89.5 24t26.5 71t-26.5 71t-89.5 24h-138v-190z" />
    <glyph glyph-name="uni044B" unicode="&#x44b;" horiz-adv-x="744" 
d="M82 504h85v-168h139q91 0 140.5 -44t49.5 -123q0 -80 -49.5 -124.5t-140.5 -44.5h-224v504zM167 264v-190h127q63 0 90 24t27 71t-27 71t-90 24h-127zM577 504h85v-504h-85v504z" />
    <glyph glyph-name="uni044C" unicode="&#x44c;" horiz-adv-x="545" 
d="M167 504v-168h149q91 0 140.5 -44t49.5 -123q0 -80 -49.5 -124.5t-140.5 -44.5h-234v504h85zM167 74h137q63 0 90 24t27 71t-27 71t-90 24h-137v-190z" />
    <glyph glyph-name="uni044D" unicode="&#x44d;" horiz-adv-x="560" 
d="M50 146h83q21 -85 135 -85q69 0 109.5 44t44.5 115h-227v72h226q-6 69 -44.5 110t-108.5 41q-108 0 -131 -79h-83q15 70 71 111.5t142 41.5q112 0 177 -73.5t65 -191.5q0 -119 -65 -192t-178 -73q-85 0 -143.5 44t-72.5 115z" />
    <glyph glyph-name="uni044E" unicode="&#x44e;" horiz-adv-x="818" 
d="M523 517q112 0 178 -75.5t66 -189.5t-66 -189.5t-178 -75.5q-104 0 -168.5 66t-73.5 169h-115v-222h-84v504h84v-208h118q12 99 75.5 160t163.5 61zM523 61q77 0 118 55.5t41 135.5t-41 135.5t-118 55.5t-118 -55.5t-41 -135.5t41 -135.5t118 -55.5z" />
    <glyph glyph-name="uni044F" unicode="&#x44f;" horiz-adv-x="577" 
d="M245 504h251v-504h-86v199h-153q-20 0 -31 1l-76 -200h-89l85 219q-78 37 -78 132q0 73 45.5 113t131.5 40zM410 432h-156q-55 0 -78 -21t-23 -61q0 -39 23 -59t78 -20h156v161z" />
    <glyph glyph-name="uni0451" unicode="&#x451;" horiz-adv-x="569" 
d="M519 282v-29h-384q2 -91 43 -141.5t118 -50.5q104 0 128 78h86q-13 -68 -68.5 -110t-145.5 -42q-115 0 -180 75t-65 195q0 118 65 189t178 71q107 0 165 -67.5t60 -167.5zM292 443q-65 0 -104 -33.5t-48 -85.5h291q-4 51 -41 85t-98 34zM426 632h-83v92h83v-92zM244 632
h-83v92h83v-92z" />
    <glyph glyph-name="uni0452" unicode="&#x452;" horiz-adv-x="632" 
d="M557 286v-313q0 -83 -42 -128t-120 -45h-63v73h47q93 0 93 103v292q0 139 -128 139q-66 0 -108 -49.5t-42 -118.5v-239h-85v578h-82v61h82v88h85v-88h208v-61h-208v-162h22q21 30 60.5 48.5t89.5 18.5q91 0 141 -52.5t50 -144.5z" />
    <glyph glyph-name="uni0453" unicode="&#x453;" horiz-adv-x="491" 
d="M400 727l-109 -145h-75l86 145h98zM82 0v504h378v-74h-293v-430h-85z" />
    <glyph glyph-name="uni0454" unicode="&#x454;" horiz-adv-x="555" 
d="M427 146h83q-14 -71 -72.5 -115t-143.5 -44q-113 0 -178 73t-65 192q0 118 65 191.5t177 73.5q86 0 142 -41.5t71 -111.5h-83q-23 79 -131 79q-70 0 -108.5 -41t-44.5 -110h226v-72h-227q4 -71 44.5 -115t109.5 -44q114 0 135 85z" />
    <glyph glyph-name="uni0455" unicode="&#x455;" horiz-adv-x="514" 
d="M222 314l48 -8l57 -9q144 -25 144 -152q0 -66 -55 -112t-152 -46q-104 0 -159.5 42t-64.5 117h86q12 -85 134 -85q59 0 92.5 21t33.5 61q0 33 -22 52t-70 27l-113 19q-121 22 -121 127q0 66 50.5 107.5t148.5 41.5q88 0 139.5 -38.5t59.5 -105.5h-85q-5 35 -37 52.5
t-81 17.5q-50 0 -79.5 -17.5t-29.5 -49.5q0 -28 18 -42t58 -20z" />
    <glyph glyph-name="uni0456" unicode="&#x456;" horiz-adv-x="254" 
d="M172 635h-90v92h90v-92zM169 504v-504h-85v504h85z" />
    <glyph glyph-name="uni0457" unicode="&#x457;" horiz-adv-x="254" 
d="M260 635h-83v92h83v-92zM78 635h-83v92h83v-92zM169 504v-504h-85v504h85z" />
    <glyph glyph-name="uni0458" unicode="&#x458;" horiz-adv-x="265" 
d="M183 635h-90v92h90v-92zM19 -200h-63v74h46q50 0 72 25.5t22 76.5v528h85v-531q0 -83 -42 -128t-120 -45z" />
    <glyph glyph-name="uni0459" unicode="&#x459;" horiz-adv-x="890" 
d="M521 74h129q63 0 89.5 24t26.5 71t-26.5 71t-89.5 24h-129v-190zM141 504h380v-168h139q92 0 141.5 -44t49.5 -123t-50 -124t-141 -45h-224v430h-216v-123q0 -171 -41.5 -239t-136.5 -68h-17v80h17q53 0 76 49.5t23 179.5v195z" />
    <glyph glyph-name="uni045A" unicode="&#x45a;" horiz-adv-x="876" 
d="M647 0h-225v222h-255v-222h-85v504h85v-208h255v208h85v-168h140q91 0 140.5 -44t49.5 -123q0 -80 -49.5 -124.5t-140.5 -44.5zM507 74h128q63 0 90 24t27 71t-27 71t-90 24h-128v-190z" />
    <glyph glyph-name="uni045B" unicode="&#x45b;" horiz-adv-x="631" 
d="M402 639v-61h-208v-162h22q21 30 60.5 48.5t89.5 18.5q91 0 141 -52.5t50 -144.5v-286h-85v268q0 139 -128 139q-66 0 -108 -49.5t-42 -118.5v-239h-85v578h-82v61h82v88h85v-88h208z" />
    <glyph glyph-name="uni045C" unicode="&#x45c;" horiz-adv-x="560" 
d="M416 727l-109 -145h-75l86 145h98zM430 0l-112 222h-151v-222h-85v504h85v-208h153l105 208h89l-123 -243l130 -261h-91z" />
    <glyph glyph-name="uni045E" unicode="&#x45e;" horiz-adv-x="538" 
d="M218 -200h-86l104 247l-215 457h91l154 -332h25l140 332h89zM353 724h69q-2 -70 -43 -108t-113 -38q-71 0 -112 38t-43 108h69q2 -85 86 -85q82 0 87 85z" />
    <glyph glyph-name="uni045F" unicode="&#x45f;" horiz-adv-x="605" 
d="M438 504h85v-504h-179v-143h-83v143h-179v504h85v-430h271v430z" />
    <glyph glyph-name="uni0490" unicode="&#x490;" horiz-adv-x="623" 
d="M181 632v-632h-90v714h396v150h92v-232h-398z" />
    <glyph glyph-name="uni0491" unicode="&#x491;" horiz-adv-x="481" 
d="M367 625h83v-195h-283v-430h-85v504h285v121z" />
    <glyph glyph-name="uni0492" unicode="&#x492;" horiz-adv-x="655" 
d="M28 317v74h96v323h487v-82h-397v-241h245v-74h-245v-317h-90v317h-96z" />
    <glyph glyph-name="uni0493" unicode="&#x493;" horiz-adv-x="517" 
d="M24 195v70h86v239h376v-74h-291v-165h191v-70h-191v-195h-85v195h-86z" />
    <glyph glyph-name="uni049A" unicode="&#x49a;" horiz-adv-x="723" 
d="M91 0v714h90v-305h216l143 305h95l-160 -347l131 -285h90v-257h-89v175h-58l-152 327h-216v-327h-90z" />
    <glyph glyph-name="uni049B" unicode="&#x49b;" horiz-adv-x="593" 
d="M430 0l-112 222h-151v-222h-85v504h85v-208h153l105 208h89l-123 -243l94 -187h80v-217h-82v143h-53z" />
    <glyph glyph-name="uni04A2" unicode="&#x4a2;" horiz-adv-x="800" 
d="M580 714h90v-632h103v-257h-89v175h-104v326h-399v-326h-90v714h90v-304h399v304z" />
    <glyph glyph-name="uni04A3" unicode="&#x4a3;" horiz-adv-x="651" 
d="M531 504v-430h92v-217h-82v143h-95v222h-279v-222h-85v504h85v-208h279v208h85z" />
    <glyph glyph-name="uni04AE" unicode="&#x4ae;" horiz-adv-x="643" 
d="M307 389h28l191 325h97l-257 -441v-273h-90v273l-257 441h97z" />
    <glyph glyph-name="uni04AF" unicode="&#x4af;" horiz-adv-x="539" 
d="M185 -40l-163 544h88l141 -464h41l136 464h89l-165 -544h-41v-160h-85v160h-41z" />
    <glyph glyph-name="uni04B0" unicode="&#x4b0;" horiz-adv-x="643" 
d="M307 389h28l191 325h97l-228 -391h156v-74h-185v-249h-90v249h-184v74h155l-228 391h97z" />
    <glyph glyph-name="uni04B1" unicode="&#x4b1;" horiz-adv-x="539" 
d="M77 -69v69h96l-151 504h88l141 -464h41l136 464h89l-153 -504h97v-69h-150v-131h-85v131h-149z" />
    <glyph glyph-name="uni04BA" unicode="&#x4ba;" horiz-adv-x="680" 
d="M622 0h-90v204q0 28 -1.5 42.5t-10.5 37t-27 34t-53.5 20.5t-87.5 9q-86 0 -171 -20v-327h-90v714h90v-304q87 19 182 19q72 0 122.5 -14t76.5 -33t40 -52.5t17 -59t3 -66.5v-204z" />
    <glyph glyph-name="uni04BB" unicode="&#x4bb;" horiz-adv-x="604" 
d="M530 0h-85v302q0 139 -128 139q-66 0 -108 -49.5t-42 -118.5v-273h-85v727h85v-277h22q21 30 60.5 48.5t89.5 18.5q91 0 141 -52.5t50 -144.5v-320z" />
    <glyph glyph-name="uni04D8" unicode="&#x4d8;" horiz-adv-x="757" 
d="M371 69q113 0 172 72t66 185h-464q2 -111 59 -184t167 -73zM369 727q157 0 245 -104t88 -266q0 -160 -87 -265t-243 -105q-151 0 -234 104t-83 277q0 26 1 38h552q-10 106 -71 172.5t-169 66.5q-148 0 -184 -112h-94q21 91 95 142.5t184 51.5z" />
    <glyph glyph-name="uni04D9" unicode="&#x4d9;" horiz-adv-x="570" 
d="M51 247q0 22 1 33h381q-8 79 -50 121t-110 42q-104 0 -128 -78h-84q12 68 68 110t144 42q114 0 180 -76.5t66 -193.5t-65 -188.5t-177 -71.5q-108 0 -167 68.5t-59 191.5zM278 61q69 0 109.5 37.5t45.5 110.5h-299q1 -69 38.5 -108.5t105.5 -39.5z" />
    <glyph glyph-name="uni04E8" unicode="&#x4e8;" horiz-adv-x="776" 
d="M388 727q157 0 245 -105t88 -265t-88 -265t-245 -105q-158 0 -245.5 104.5t-87.5 265.5t87.5 265.5t245.5 104.5zM388 69q112 0 172 72t69 185h-482q6 -112 67.5 -184.5t173.5 -72.5zM388 645q-108 0 -167.5 -66t-72.5 -173h479q-10 105 -70.5 172t-168.5 67z" />
    <glyph glyph-name="uni04E9" unicode="&#x4e9;" horiz-adv-x="598" 
d="M299 517q115 0 181.5 -75t66.5 -190t-66.5 -190t-181.5 -75t-181.5 75t-66.5 190t66.5 190t181.5 75zM299 61q70 0 111 44.5t50 113.5h-322q6 -69 47.5 -113.5t113.5 -44.5zM299 443q-69 0 -110 -43t-50 -109h320q-9 66 -50 109t-110 43z" />
    <glyph glyph-name="endash" unicode="&#x2013;" horiz-adv-x="617" 
d="M568 241h-520v72h520v-72z" />
    <glyph glyph-name="emdash" unicode="&#x2014;" horiz-adv-x="877" 
d="M828 241h-780v72h780v-72z" />
    <glyph glyph-name="quoteleft" unicode="&#x2018;" horiz-adv-x="258" 
d="M131 599h50v-116h-104v135l56 96h54l-56 -96v-19z" />
    <glyph glyph-name="quoteright" unicode="&#x2019;" horiz-adv-x="258" 
d="M127 598h-50v116h104v-135l-56 -96h-54l56 96v19z" />
    <glyph glyph-name="quotesinglbase" unicode="&#x201a;" horiz-adv-x="258" 
d="M127 0h-50v116h104v-135l-56 -96h-54l56 96v19z" />
    <glyph glyph-name="quotedblleft" unicode="&#x201c;" horiz-adv-x="433" 
d="M131 599h50v-116h-104v135l56 96h54l-56 -96v-19zM306 599h50v-116h-104v135l56 96h54l-56 -96v-19z" />
    <glyph glyph-name="quotedblright" unicode="&#x201d;" horiz-adv-x="433" 
d="M127 598h-50v116h104v-135l-56 -96h-54l56 96v19zM302 598h-50v116h104v-135l-56 -96h-54l56 96v19z" />
    <glyph glyph-name="quotedblbase" unicode="&#x201e;" horiz-adv-x="433" 
d="M127 0h-50v116h104v-135l-56 -96h-54l56 96v19zM302 0h-50v116h104v-135l-56 -96h-54l56 96v19z" />
    <glyph glyph-name="dagger" unicode="&#x2020;" horiz-adv-x="549" 
d="M234 434h-188v72h188v208h81v-208h188v-72h-188v-586h-81v586z" />
    <glyph glyph-name="daggerdbl" unicode="&#x2021;" horiz-adv-x="549" 
d="M234 434h-188v72h188v208h81v-208h188v-72h-188v-305h188v-72h-188v-209h-81v209h-188v72h188v305z" />
    <glyph glyph-name="bullet" unicode="&#x2022;" horiz-adv-x="429" 
d="M67 356q0 61 43 104t104 43t104 -43t43 -104t-43 -104t-104 -43t-104 43t-43 104z" />
    <glyph glyph-name="ellipsis" unicode="&#x2026;" horiz-adv-x="754" 
d="M181 0h-104v116h104v-116zM429 0h-104v116h104v-116zM677 0h-104v116h104v-116z" />
    <glyph glyph-name="perthousand" unicode="&#x2030;" horiz-adv-x="1252" 
d="M268 0h-78l424 700h77zM209 714q77 0 119 -53.5t42 -135.5t-42 -135.5t-119 -53.5t-119 53.5t-42 135.5t42 135.5t119 53.5zM209 399q45 0 68.5 34.5t23.5 91.5t-23.5 91.5t-68.5 34.5t-68.5 -34.5t-23.5 -91.5t23.5 -91.5t68.5 -34.5zM671 365q77 0 119 -53.5t42 -135.5
t-42 -135.5t-119 -53.5t-119 53.5t-42 135.5t42 135.5t119 53.5zM671 50q45 0 68.5 34.5t23.5 91.5t-23.5 91.5t-68.5 34.5t-68.5 -34.5t-23.5 -91.5t23.5 -91.5t68.5 -34.5zM1043 365q77 0 119 -53.5t42 -135.5t-42 -135.5t-119 -53.5t-119 53.5t-42 135.5t42 135.5
t119 53.5zM1043 50q45 0 68.5 34.5t23.5 91.5t-23.5 91.5t-68.5 34.5t-68.5 -34.5t-23.5 -91.5t23.5 -91.5t68.5 -34.5z" />
    <glyph glyph-name="guilsinglleft" unicode="&#x2039;" horiz-adv-x="355" 
d="M135 295v-22l162 -172h-94l-145 150v65l145 151h94z" />
    <glyph glyph-name="guilsinglright" unicode="&#x203a;" horiz-adv-x="355" 
d="M220 273v22l-162 172h94l145 -151v-65l-145 -150h-94z" />
    <glyph glyph-name="fraction" unicode="&#x2044;" horiz-adv-x="236" 
d="M-57 0h-77l424 700h76z" />
    <glyph glyph-name="Euro" unicode="&#x20ac;" horiz-adv-x="674" 
d="M415 319l-19 -57h-193q29 -197 181 -197q65 0 104.5 35t48.5 100h87q-13 -100 -77 -156.5t-164 -56.5q-108 0 -179 70t-89 205h-80l19 57h56q-2 48 1 73h-76l19 57h63q20 129 91.5 197t174.5 68q97 0 159 -53t76 -148h-88q-19 123 -147 123q-70 0 -116 -48.5t-62 -138.5
h255l-19 -57h-242q-3 -41 -2 -73h218z" />
    <glyph glyph-name="uni20B4" unicode="&#x20b4;" horiz-adv-x="650" 
d="M38 261v57h574v-57h-415q-16 -28 -16 -66q0 -62 43 -96t114 -34q138 0 163 116h88q-15 -90 -78.5 -142t-171.5 -52q-114 0 -180 58t-66 148q0 35 13 68h-68zM38 448h413q25 30 25 72q0 55 -37.5 85.5t-97.5 30.5q-121 0 -145 -101h-87q12 81 74.5 130t157.5 49
q101 0 161.5 -55.5t60.5 -134.5q0 -43 -18 -76h67v-57h-574v57z" />
    <glyph glyph-name="uni20B8" unicode="&#x20b8;" horiz-adv-x="526" 
d="M18 513v57h489v-57h-201v-513h-87v513h-201zM18 643v57h489v-57h-489z" />
    <glyph glyph-name="uni20BD" unicode="&#x20bd;" horiz-adv-x="684" 
d="M44 288v77h97v335h258q112 0 172.5 -54t60.5 -151q0 -98 -60.5 -152.5t-172.5 -54.5h-170v-73h236v-57h-236v-158h-88v158h-97v57h97v73h-97zM229 365h159q156 0 156 130q0 128 -156 128h-159v-258z" />
    <glyph glyph-name="uni2116" unicode="&#x2116;" horiz-adv-x="1150" 
d="M576 700h86v-700h-138l-326 585h-21v-585h-86v700h138l326 -585h21v585zM1086 212h-323v60h323v-60zM924 714q77 0 119 -53.5t42 -135.5t-42 -135.5t-119 -53.5t-119 53.5t-42 135.5t42 135.5t119 53.5zM924 399q45 0 68.5 34.5t23.5 91.5t-23.5 91.5t-68.5 34.5
t-68.5 -34.5t-23.5 -91.5t23.5 -91.5t68.5 -34.5z" />
    <glyph glyph-name="trademark" unicode="&#x2122;" horiz-adv-x="852" 
d="M506 714l85 -172h13l83 172h101v-380h-60v313h-12l-86 -175h-66l-87 175h-11v-313h-61v380h101zM341 714v-56h-127v-324h-62v324h-128v56h317z" />
    <glyph glyph-name="Omega" unicode="&#x2126;" horiz-adv-x="758" 
d="M569 100v-22h132v-78h-275v78q186 114 186 300q0 122 -64 194.5t-169 72.5q-106 0 -169.5 -72.5t-63.5 -194.5q0 -187 185 -300v-78h-275v78h133v22q-134 116 -134 282q0 153 88 249t236 96t236 -96t88 -249q0 -166 -134 -282z" />
    <glyph glyph-name="arrowleft" unicode="&#x2190;" horiz-adv-x="818" 
d="M208 290h552v-76h-552v-22l192 -192h-103l-251 252l251 252h103l-192 -192v-22z" />
    <glyph glyph-name="arrowup" unicode="&#x2191;" horiz-adv-x="678" 
d="M301 0v552h-22l-192 -192v103l252 251l252 -251v-103l-192 192h-22v-552h-76z" />
    <glyph glyph-name="arrowright" unicode="&#x2192;" horiz-adv-x="818" 
d="M58 290h552v22l-192 192h103l251 -252l-251 -252h-103l192 192v22h-552v76z" />
    <glyph glyph-name="arrowdown" unicode="&#x2193;" horiz-adv-x="678" 
d="M377 714v-552h22l192 192v-103l-252 -251l-252 251v103l192 -192h22v552h76z" />
    <glyph glyph-name="uni2196" unicode="&#x2196;" horiz-adv-x="705" 
d="M565 183l-391 390l-15 -16v-271l-72 73v355h355l73 -72h-271l-16 -15l390 -391z" />
    <glyph glyph-name="uni2197" unicode="&#x2197;" horiz-adv-x="705" 
d="M531 573l-391 -390l-53 53l390 391l-16 15h-271l73 72h355v-355l-72 -73v271z" />
    <glyph glyph-name="uni2198" unicode="&#x2198;" horiz-adv-x="705" 
d="M174 141l391 390l53 -53l-390 -391l16 -15h271l-73 -72h-355v355l72 73v-271z" />
    <glyph glyph-name="uni2199" unicode="&#x2199;" horiz-adv-x="705" 
d="M140 531l391 -390l15 16v271l72 -73v-355h-355l-73 72h271l16 15l-390 391z" />
    <glyph glyph-name="partialdiff" unicode="&#x2202;" horiz-adv-x="592" 
d="M296 61q80 0 120 49t40 124t-40 124t-120 49t-121 -49t-41 -124t41 -124t121 -49zM164 727h104q273 -197 273 -469q0 -120 -63.5 -195.5t-183.5 -75.5q-111 0 -177 71.5t-66 176.5t63 175.5t165 70.5q81 0 124 -43h25q-62 147 -264 289z" />
    <glyph glyph-name="increment" unicode="&#x2206;" horiz-adv-x="639" 
d="M373 700l226 -601v-99h-559v99l227 601h106zM519 78v22l-188 504h-22l-188 -504v-22h398z" />
    <glyph glyph-name="product" unicode="&#x220f;" horiz-adv-x="597" 
d="M471 -200h-82v839h-181v-839h-83v839h-96v75h539v-75h-97v-839z" />
    <glyph glyph-name="summation" unicode="&#x2211;" horiz-adv-x="553" 
d="M143 78h382v-78h-487v99l200 247v22l-191 248v98h461v-78h-357v-21l186 -243v-31l-194 -242v-21z" />
    <glyph glyph-name="minus" unicode="&#x2212;" horiz-adv-x="682" 
d="M595 248h-508v73h508v-73z" />
    <glyph glyph-name="radical" unicode="&#x221a;" horiz-adv-x="643" 
d="M36 504h78l124 -412h21l198 608h158v-69h-103l-207 -631h-114z" />
    <glyph glyph-name="infinity" unicode="&#x221e;" horiz-adv-x="931" 
d="M453 324h25q24 25 32 33t33 30t41.5 30.5t43 17.5t52.5 9q73 0 118.5 -44t45.5 -118t-45.5 -118t-118.5 -44q-42 0 -83 21t-65 43t-54 56h-25q-30 -34 -54 -56t-65 -43t-83 -21q-73 0 -118.5 44t-45.5 118t45.5 118t118.5 44q26 0 52.5 -9t43 -17.5t41.5 -30.5t33 -30
t32 -33zM422 282q-28 34 -47.5 53.5t-53.5 38.5t-67 19q-48 0 -80 -29.5t-32 -81.5t32 -81.5t80 -29.5t88 30.5t80 80.5zM509 282q40 -50 80 -80.5t88 -30.5t80 29.5t32 81.5t-32 81.5t-80 29.5q-33 0 -67 -19t-53.5 -38.5t-47.5 -53.5z" />
    <glyph glyph-name="integral" unicode="&#x222b;" horiz-adv-x="477" 
d="M426 727h39v-74h-41q-52 0 -78.5 -29t-36.5 -84l-100 -564q-17 -94 -65.5 -135t-134.5 -41h-39v74h40q96 0 116 113l99 564q17 93 65.5 134.5t135.5 41.5z" />
    <glyph glyph-name="approxequal" unicode="&#x2248;" horiz-adv-x="670" 
d="M516 460h67q0 -75 -34.5 -111.5t-94.5 -36.5q-41 0 -85.5 27t-84.5 54.5t-71 27.5q-59 0 -59 -80h-67q0 148 129 148q34 0 69 -17t60 -37.5t56 -37.5t56 -17q59 0 59 80zM516 250h67q0 -75 -34.5 -111.5t-94.5 -36.5q-41 0 -85.5 27t-84.5 54.5t-71 27.5q-59 0 -59 -80
h-67q0 148 129 148q34 0 69 -17t60 -37.5t56 -37.5t56 -17q59 0 59 80z" />
    <glyph glyph-name="notequal" unicode="&#x2260;" horiz-adv-x="680" 
d="M593 420v-74h-174l-80 -125h254v-74h-302l-78 -123h-79l79 123h-126v74h174l81 125h-255v74h303l81 124h75l-80 -124h127z" />
    <glyph glyph-name="lessequal" unicode="&#x2264;" horiz-adv-x="681" 
d="M87 0v74h507v-74h-507zM594 118l-507 171v84l507 171v-77l-390 -125v-22l390 -125v-77z" />
    <glyph glyph-name="greaterequal" unicode="&#x2265;" horiz-adv-x="681" 
d="M594 289l-507 -171v77l389 125v22l-389 125v77l507 -171v-84zM594 74v-74h-507v74h507z" />
    <glyph glyph-name="lozenge" unicode="&#x25ca;" horiz-adv-x="534" 
d="M311 714l165 -357l-165 -357h-88l-165 357l165 357h88zM278 96l114 261l-114 261h-22l-114 -261l114 -261h22z" />
    <glyph glyph-name="commaaccent" unicode="&#xf6c3;" horiz-adv-x="176" 
d="M90 -220h-55l55 61v18h-46v83h100v-101z" />
    <glyph glyph-name="uniFEFF" unicode="&#xfeff;" horiz-adv-x="0" 
 />
    <glyph glyph-name="eight.numr" horiz-adv-x="375" 
d="M188 666q-31 0 -50.5 -14t-19.5 -40q0 -25 19.5 -39t50.5 -14q30 0 49.5 14t19.5 39t-19.5 39.5t-49.5 14.5zM188 382q37 0 60 17.5t23 45.5q0 27 -23 44t-60 17q-38 0 -61 -17t-23 -44q0 -28 23 -45.5t61 -17.5zM97 528v13q-43 25 -43 75q0 47 37 76t97 29t96.5 -29
t36.5 -76q0 -51 -43 -75v-13q58 -28 58 -90q0 -49 -40.5 -80.5t-108.5 -31.5t-108 31.5t-40 80.5q0 62 58 90z" />
    <glyph glyph-name="nine.numr" horiz-adv-x="369" 
d="M171 460q-57 0 -94.5 36t-37.5 91q0 58 38 96t102 38q151 0 151 -187q0 -92 -39 -150t-117 -58q-50 0 -83.5 28.5t-41.5 73.5h65q14 -45 62 -45q79 0 90 106h-16q-29 -29 -79 -29zM181 664q-33 0 -55 -20t-22 -56q0 -35 22 -53.5t56 -18.5t55 18.5t21 53.5q0 36 -22 56
t-55 20z" />
    <glyph glyph-name="zero.dnom" horiz-adv-x="381" 
d="M342 190q0 -98 -41.5 -147.5t-110.5 -49.5t-110 49.5t-41 147.5q0 99 41 148.5t110 49.5t110.5 -49.5t41.5 -148.5zM190 52q87 0 87 138q0 139 -87 139q-86 0 -86 -139q0 -138 86 -138z" />
    <glyph glyph-name="one.dnom" horiz-adv-x="331" 
d="M199 58h93v-58h-253v58h94v246h-16l-78 -45v65l95 57h65v-323z" />
    <glyph glyph-name="two.dnom" horiz-adv-x="362" 
d="M139 58h184v-58h-284v72l45 32q13 10 39.5 28t35.5 25q28 20 41 30.5t29 33.5t16 45q0 29 -18 46t-49 17q-73 0 -74 -69h-65q2 64 40.5 96t99.5 32q59 0 95 -31t36 -88q0 -69 -77 -127l-94 -69v-15z" />
    <glyph glyph-name="three.dnom" horiz-adv-x="368" 
d="M229 251v-14q43 -6 71 -36.5t28 -79.5q0 -59 -40.5 -93.5t-104.5 -34.5q-63 0 -103.5 35.5t-42.5 90.5h64q3 -31 26 -49t56 -18q36 0 58 19t22 51q0 33 -21.5 51.5t-57.5 18.5q-24 0 -36 -3v59l76 59v16h-159v58h247v-66z" />
    <glyph glyph-name="seven.numr" horiz-adv-x="342" 
d="M39 714h264v-63l-169 -318h-69l161 302v21h-187v58z" />
    <glyph glyph-name="five.dnom" horiz-adv-x="363" 
d="M194 261q59 0 94.5 -37.5t35.5 -92.5q0 -63 -39 -100.5t-102 -37.5q-67 0 -103.5 34t-40.5 91h65q8 -66 77 -66q36 0 57 20t21 58q0 34 -20 54.5t-55 20.5q-50 0 -75 -34h-61l20 210h236v-58h-185l-7 -80h20q21 18 62 18z" />
    <glyph glyph-name="six.dnom" horiz-adv-x="369" 
d="M198 254q57 0 94.5 -36t37.5 -91q0 -58 -38 -96t-102 -38q-151 0 -151 187q0 92 39 150t117 58q50 0 83.5 -28.5t41.5 -73.5h-65q-13 45 -62 45q-79 0 -90 -106h16q29 29 79 29zM188 50q33 0 55 20t22 56q0 35 -22 53.5t-56 18.5t-55 -18.5t-21 -53.5q0 -36 22 -56
t55 -20z" />
    <glyph glyph-name="seven.dnom" horiz-adv-x="342" 
d="M39 381h264v-63l-169 -318h-69l161 302v21h-187v58z" />
    <glyph glyph-name="eight.dnom" horiz-adv-x="375" 
d="M188 333q-31 0 -50.5 -14t-19.5 -40q0 -25 19.5 -39t50.5 -14q30 0 49.5 14t19.5 39t-19.5 39.5t-49.5 14.5zM188 49q37 0 60 17.5t23 45.5q0 27 -23 44t-60 17q-38 0 -61 -17t-23 -44q0 -28 23 -45.5t61 -17.5zM97 195v13q-43 25 -43 75q0 47 37 76t97 29t96.5 -29
t36.5 -76q0 -51 -43 -75v-13q58 -28 58 -90q0 -49 -40.5 -80.5t-108.5 -31.5t-108 31.5t-40 80.5q0 62 58 90z" />
    <glyph glyph-name="nine.dnom" horiz-adv-x="369" 
d="M171 127q-57 0 -94.5 36t-37.5 91q0 58 38 96t102 38q151 0 151 -187q0 -92 -39 -150t-117 -58q-50 0 -83.5 28.5t-41.5 73.5h65q14 -45 62 -45q79 0 90 106h-16q-29 -29 -79 -29zM181 331q-33 0 -55 -20t-22 -56q0 -35 22 -53.5t56 -18.5t55 18.5t21 53.5q0 36 -22 56
t-55 20z" />
    <glyph glyph-name="zero.onum" horiz-adv-x="607" 
d="M304 517q110 0 181.5 -72.5t71.5 -192.5t-71.5 -192.5t-181.5 -72.5t-182 72.5t-72 192.5t72 192.5t182 72.5zM304 63q79 0 123 51.5t44 137.5t-43.5 137.5t-123.5 51.5t-124 -51.5t-44 -137.5t44 -137.5t124 -51.5z" />
    <glyph glyph-name="one.onum" horiz-adv-x="460" 
d="M60 0v76h142v339h-21l-121 -80v90l121 79h107v-428h131v-76h-359z" />
    <glyph glyph-name="two.onum" horiz-adv-x="547" 
d="M499 76v-76h-448v97l78 38l117 58q77 39 112 70.5t35 78.5q0 45 -32 72t-91 27q-66 0 -100.5 -33.5t-34.5 -94.5h-85q0 88 58.5 146t162.5 58q99 0 153 -52t54 -120q0 -39 -14 -70t-43.5 -55.5t-53.5 -39t-65 -35.5l-60 -30l-36 -18v-21h293z" />
    <glyph glyph-name="three.onum" horiz-adv-x="568" 
d="M77 504h410v-96l-174 -149v-21q91 -2 148 -58t57 -153q0 -107 -68.5 -168.5t-176.5 -61.5q-105 0 -172.5 59.5t-71.5 148.5h85q6 -60 50 -96t109 -36q72 0 116 41.5t44 112.5q0 70 -42 109.5t-118 39.5q-37 0 -59 -6v91l171 147v22h-308v74z" />
    <glyph glyph-name="four.onum" horiz-adv-x="612" 
d="M470 76h97v-76h-97v-196h-85v196h-346v99l309 405h122v-428zM128 76h259v335h-22l-237 -313v-22z" />
    <glyph glyph-name="five.onum" horiz-adv-x="595" 
d="M317 278q103 0 163.5 -66t60.5 -166q0 -113 -66 -181t-173 -68q-112 0 -174.5 58t-68.5 150h85q8 -64 48.5 -98t105.5 -34q71 0 114.5 46t43.5 123q0 72 -43 118t-112 46q-94 0 -140 -67h-86l31 365h399v-74h-330l-16 -200h22q53 48 136 48z" />
    <glyph glyph-name="six.onum" horiz-adv-x="593" 
d="M325 455q97 0 159.5 -63.5t62.5 -163.5q0 -103 -63.5 -172t-172.5 -69q-255 0 -255 344q0 110 27 194t88 136.5t149 52.5q86 0 141.5 -46.5t67.5 -120.5h-85q-26 91 -124 91q-83 0 -130 -67t-51 -183h22q22 27 64 47t100 20zM310 63q68 0 110 42.5t42 118.5q0 75 -43 116
t-111 41q-66 0 -109.5 -41.5t-43.5 -114.5q0 -75 44 -118.5t111 -43.5z" />
    <glyph glyph-name="seven.onum" horiz-adv-x="548" 
d="M495 407l-303 -603h-90l302 605v21h-355v74h446v-97z" />
    <glyph glyph-name="eight.onum" horiz-adv-x="609" 
d="M447 380v-22q41 -14 75.5 -59t34.5 -108q0 -89 -69 -146.5t-183 -57.5t-183 57.5t-69 146.5q0 63 34 108t76 59v22q-34 14 -61.5 53t-27.5 94q0 83 64.5 135t166.5 52t166.5 -52t64.5 -135q0 -54 -28 -93.5t-61 -53.5zM305 640q-62 0 -104.5 -31t-42.5 -85t42.5 -86
t104.5 -32t104.5 32t42.5 86t-42.5 85t-104.5 31zM305 63q77 0 122 36t45 97q0 62 -45 97.5t-122 35.5t-122 -35.5t-45 -97.5q0 -61 45 -97t122 -36z" />
    <glyph glyph-name="nine.onum" horiz-adv-x="593" 
d="M266 49q-97 0 -159.5 63.5t-62.5 163.5q0 103 63.5 172t172.5 69q255 0 255 -344q0 -169 -66.5 -273t-197.5 -104q-86 0 -141.5 46.5t-67.5 120.5h85q26 -91 124 -91q83 0 130 64t51 180h-22q-56 -67 -164 -67zM281 441q-67 0 -109.5 -42.5t-42.5 -118.5q0 -75 43 -116
t111 -41q66 0 109.5 41.5t43.5 114.5q0 75 -44 118.5t-111 43.5z" />
    <glyph glyph-name="zero.tnum" 
d="M315 714q117 0 187.5 -91.5t70.5 -272.5t-70.5 -272t-187.5 -91t-187 91t-70 272q0 182 70 273t187 91zM146 350q0 -127 36 -198l222 454q-37 30 -89 30q-85 0 -127 -75.5t-42 -210.5zM315 65q85 0 127.5 75.5t42.5 209.5q0 124 -36 197l-221 -454q35 -28 87 -28z" />
    <glyph glyph-name="one.tnum" 
d="M63 0v78h229v530h-20l-161 -105v92l160 105h109v-622h190v-78h-507z" />
    <glyph glyph-name="two.tnum" 
d="M163 507h-88q6 101 70.5 154t162.5 53q102 0 164.5 -55.5t62.5 -157.5q0 -124 -155 -253l-176 -148v-22h353v-78h-481v99l103 84q96 77 159 135q24 21 38.5 36t33 39.5t28 51.5t9.5 56q0 65 -38 100t-103 35q-61 0 -98.5 -32.5t-44.5 -96.5z" />
    <glyph glyph-name="three.tnum" 
d="M107 700h409v-98l-175 -150v-21q93 -2 150.5 -58t57.5 -155q0 -107 -69 -169t-178 -62q-105 0 -172 59t-73 150h88q6 -59 49.5 -95t107.5 -36q73 0 116 41t43 112q0 70 -41 109.5t-117 39.5q-37 0 -61 -6v93l171 148v22h-306v76z" />
    <glyph glyph-name="four.tnum" 
d="M484 242h96v-78h-96v-164h-86v164h-346v100l309 436h123v-458zM144 242h255v359h-22l-233 -337v-22z" />
    <glyph glyph-name="five.tnum" 
d="M335 471q102 0 163.5 -67t61.5 -167q0 -113 -66.5 -181.5t-173.5 -68.5q-111 0 -174.5 58t-69.5 151h87q8 -64 48 -97.5t105 -33.5q70 0 113 45.5t43 122.5q0 73 -41.5 118.5t-111.5 45.5q-94 0 -139 -66h-88l31 369h400v-76h-329l-16 -202h22q54 49 135 49z" />
    <glyph glyph-name="six.tnum" 
d="M340 456q96 0 160 -64.5t64 -163.5q0 -103 -64.5 -172t-173.5 -69q-119 0 -188 82t-69 262q0 169 67.5 276t198.5 107q87 0 142.5 -46.5t67.5 -120.5h-87q-26 89 -123 89q-83 0 -130 -66t-51 -182h22q22 27 64.5 47.5t99.5 20.5zM325 65q66 0 108.5 42t42.5 117t-43 115
t-110 40q-66 0 -109 -41t-43 -113q0 -74 44 -117t110 -43z" />
    <glyph glyph-name="seven.tnum" 
d="M532 602l-303 -602h-92l304 602v22h-355v76h446v-98z" />
    <glyph glyph-name="eight.tnum" 
d="M459 380v-22q41 -14 75 -58.5t34 -108.5q0 -88 -69.5 -146t-183.5 -58t-183.5 58t-69.5 146q0 63 34 108t75 59v22q-33 14 -60.5 53t-27.5 94q0 83 65 135t167 52t167 -52t65 -135q0 -53 -28 -93t-60 -54zM315 638q-63 0 -104.5 -30.5t-41.5 -84.5t41.5 -85t104.5 -31
t104.5 31t41.5 85t-41.5 84.5t-104.5 30.5zM315 65q77 0 121.5 36.5t44.5 97.5q0 62 -44 97t-122 35t-122 -35t-44 -97q0 -61 44.5 -97.5t121.5 -36.5z" />
    <glyph glyph-name="nine.tnum" 
d="M290 245q-96 0 -160 64.5t-64 163.5q0 103 64.5 172t173.5 69q119 0 188 -82t69 -262q0 -169 -67.5 -276t-198.5 -107q-87 0 -142.5 46.5t-67.5 120.5h87q26 -89 123 -89q83 0 130 66t51 182h-22q-22 -27 -64.5 -47.5t-99.5 -20.5zM305 636q-66 0 -108.5 -42t-42.5 -117
t43 -115t110 -40q66 0 109 41t43 113q0 74 -44 117t-110 43z" />
    <glyph glyph-name="dollar.tnum" 
d="M287 798h55v-85q87 -8 143 -59.5t66 -128.5h-86q-21 98 -123 110v-233l56 -13q172 -39 172 -196q0 -86 -58.5 -144t-169.5 -62v-85h-55v87q-99 9 -157.5 63.5t-70.5 143.5h87q22 -112 141 -130v266l-47 11q-156 37 -156 178q0 78 52.5 132.5t150.5 60.5v84zM342 321v-256
q64 3 102.5 36t38.5 90q0 101 -118 125zM287 413v223q-55 -4 -87 -32t-32 -80q0 -48 28 -74t91 -37z" />
    <glyph glyph-name="Euro.tnum" 
d="M386 319l-19 -57h-184q13 -97 57.5 -147t117.5 -50q63 0 100 35.5t47 99.5h87q-15 -101 -75.5 -157t-158.5 -56q-107 0 -175.5 69.5t-86.5 205.5h-73l19 57h49q-2 48 1 73h-69l19 57h56q20 129 89 197t171 68q95 0 152.5 -52t75.5 -149h-88q-21 123 -140 123
q-69 0 -114 -48t-59 -139h246l-19 -57h-234q-5 -39 0 -73h208z" />
    <glyph glyph-name="sterling.tnum" 
d="M199 78h382v-78h-533v77h19q69 0 69 92v116h-88v74h88v139q0 102 56 159t153 57q94 0 147 -53t56 -148h-87q-5 123 -115 123q-62 0 -92 -37.5t-30 -99.5v-140h215v-74h-215v-105q0 -30 -4.5 -47t-20.5 -33v-22z" />
    <glyph glyph-name="yen.tnum" 
d="M116 302v57h95l-176 341h92l173 -341h28l174 341h92l-176 -341h94v-57h-124l-30 -58l-1 -15h155v-57h-155v-172h-86v172h-155v57h155v15l-31 58h-124z" />
    <glyph glyph-name="uni20BD.tnum" 
d="M43 288v77h86v335h237q111 0 171 -54t60 -151q0 -98 -60 -152.5t-171 -54.5h-149v-73h222v-57h-222v-158h-88v158h-86v57h86v73h-86zM217 365h136q156 0 156 132q0 62 -36.5 94t-119.5 32h-136v-258z" />
    <glyph glyph-name="uni20B4.tnum" 
d="M44 318h542v-57h-396q-15 -29 -15 -66q0 -59 40.5 -94.5t104.5 -35.5q129 0 157 116h88q-15 -89 -78.5 -141.5t-165.5 -52.5q-108 0 -170.5 60t-62.5 146q0 36 12 68h-56v57zM44 448h387q26 26 26 72q0 53 -34 84.5t-91 31.5q-113 0 -138 -101h-87q12 80 72.5 129.5
t151.5 49.5q96 0 154.5 -57t58.5 -136q0 -41 -17 -73h59v-57h-542v57z" />
    <glyph glyph-name="uni20B8.tnum" 
d="M70 513v57h489v-57h-201v-513h-87v513h-201zM70 643v57h489v-57h-489z" />
    <glyph glyph-name="cent.tnum" 
d="M453 152h85q-13 -70 -62.5 -113.5t-126.5 -50.5v-68h-55v69q-100 10 -156.5 82.5t-56.5 180.5t56 179.5t157 83.5v69h55v-68q77 -6 125.5 -48.5t60.5 -109.5h-85q-24 73 -101 83v-379q85 10 104 90zM166 254q0 -74 32 -127t96 -64v377q-66 -11 -97 -61.5t-31 -124.5z" />
    <glyph glyph-name="circumflex.cap" horiz-adv-x="378" 
d="M232 896l106 -129h-79l-60 71h-22l-60 -71h-77l106 129h86z" />
    <glyph glyph-name="dieresis.cap" horiz-adv-x="345" 
d="M305 807h-83v89h83v-89zM123 807h-83v89h83v-89z" />
    <glyph glyph-name="acute.cap" horiz-adv-x="266" 
d="M226 896l-109 -129h-76l85 129h100z" />
    <glyph glyph-name="grave.cap" horiz-adv-x="266" 
d="M149 767l-108 129h99l86 -129h-77z" />
    <glyph glyph-name="ring.cap" horiz-adv-x="298" 
d="M150 967q45 0 76.5 -32t31.5 -76q0 -45 -31.5 -77t-76.5 -32q-46 0 -78 32t-32 77q0 44 32 76t78 32zM150 801q24 0 40.5 16.5t16.5 41.5q0 24 -16.5 40.5t-40.5 16.5q-25 0 -41.5 -16.5t-16.5 -40.5q0 -25 16.5 -41.5t41.5 -16.5z" />
    <glyph glyph-name="caron.cap" horiz-adv-x="378" 
d="M146 767l-106 129h79l60 -71h22l60 71h77l-106 -129h-86z" />
    <glyph glyph-name="dotaccent.cap" horiz-adv-x="170" 
d="M130 807h-90v89h90v-89z" />
    <glyph glyph-name="breve.cap" horiz-adv-x="357" 
d="M256 896h61q0 -62 -36.5 -95.5t-102.5 -33.5q-64 0 -100.5 33.5t-37.5 95.5h61q0 -73 77 -73q78 0 78 73z" />
    <glyph glyph-name="hungarumlaut.cap" horiz-adv-x="407" 
d="M211 896l-99 -129h-72l77 129h94zM367 896l-100 -129h-71l77 129h94z" />
    <glyph glyph-name="tilde.cap" horiz-adv-x="408" 
d="M317 896h51q0 -129 -94 -129q-28 0 -55.5 17.5t-50.5 35.5t-39 18q-38 0 -38 -71h-51q0 129 94 129q28 0 55.5 -18t50.5 -35.5t39 -17.5q38 0 38 71z" />
    <glyph glyph-name="macron.cap" horiz-adv-x="362" 
d="M322 810h-282v63h282v-63z" />
    <glyph glyph-name="cyrbreve" horiz-adv-x="421" 
d="M297 724h69q-2 -70 -43 -108t-113 -38q-71 0 -112 38t-43 108h69q2 -85 86 -85q82 0 87 85z" />
    <glyph glyph-name="cyrbreve.cap" horiz-adv-x="428" 
d="M315 904h73q-2 -73 -50 -114t-125 -41q-75 0 -123 41t-50 114h73q1 -42 28 -66t72 -24t73 24t29 66z" />
    <glyph glyph-name="hyphen.case" horiz-adv-x="369" 
d="M322 325h-273v75h273v-75z" />
    <glyph glyph-name="endash.case" horiz-adv-x="617" 
d="M568 326h-520v72h520v-72z" />
    <glyph glyph-name="emdash.case" horiz-adv-x="877" 
d="M828 326h-780v72h780v-72z" />
    <glyph glyph-name="emdash.ss02.case" horiz-adv-x="1445" 
d="M1396 326h-1348v72h1348v-72z" />
    <glyph glyph-name="bracketleft.case" horiz-adv-x="324" 
d="M266 -93h-189v900h189v-68h-109v-764h109v-68z" />
    <glyph glyph-name="bracketright.case" horiz-adv-x="324" 
d="M247 -93h-189v68h109v764h-109v68h189v-900z" />
    <glyph glyph-name="braceleft.case" horiz-adv-x="390" 
d="M174 368v-22q55 -18 55 -105v-167q0 -99 89 -99h33v-68h-39q-73 0 -118 41.5t-45 117.5v160q0 49 -13.5 72.5t-49.5 23.5h-14v70h14q36 0 49.5 23.5t13.5 72.5v160q0 76 45 117.5t118 41.5h39v-68h-33q-89 0 -89 -99v-167q0 -87 -55 -105z" />
    <glyph glyph-name="braceright.case" horiz-adv-x="390" 
d="M216 346v22q-55 18 -55 105v167q0 99 -89 99h-33v68h39q73 0 118 -41.5t45 -117.5v-160q0 -49 13.5 -72.5t49.5 -23.5h14v-70h-14q-36 0 -49.5 -23.5t-13.5 -72.5v-160q0 -76 -45 -117.5t-118 -41.5h-39v68h33q89 0 89 99v167q0 87 55 105z" />
    <glyph glyph-name="parenleft.case" horiz-adv-x="294" 
d="M128 360q0 -239 161 -453h-82q-159 188 -159 453q0 254 152 447h82q-154 -210 -154 -447z" />
    <glyph glyph-name="parenright.case" horiz-adv-x="294" 
d="M166 360q0 237 -154 447h82q152 -193 152 -447q0 -265 -159 -453h-82q161 214 161 453z" />
    <glyph glyph-name="guillemotright.case" horiz-adv-x="564" 
d="M220 339v22l-162 172h94l145 -151v-65l-145 -150h-94zM428 339v22l-162 172h94l146 -151v-65l-146 -150h-94z" />
    <glyph glyph-name="guillemotleft.case" horiz-adv-x="564" 
d="M135 361v-22l162 -172h-94l-145 150v65l145 151h94zM344 361v-22l162 -172h-94l-146 150v65l146 151h94z" />
    <glyph glyph-name="guilsinglright.case" horiz-adv-x="355" 
d="M220 339v22l-162 172h94l145 -151v-65l-145 -150h-94z" />
    <glyph glyph-name="guilsinglleft.case" horiz-adv-x="355" 
d="M135 361v-22l162 -172h-94l-145 150v65l145 151h94z" />
    <glyph glyph-name="exclamdown.case" horiz-adv-x="314" 
d="M201 0h-88v295l17 230h55l16 -230v-295zM105 714h104v-116h-104v116z" />
    <glyph glyph-name="questiondown.case" horiz-adv-x="547" 
d="M280 -13q-98 0 -156.5 52.5t-58.5 140.5q0 38 7.5 66t29 54t35.5 39t50 42q40 31 52.5 50.5t12.5 65.5v28h86v-28q0 -43 -11.5 -72.5t-29 -48t-55.5 -49.5q-33 -27 -49 -42.5t-29 -42.5t-13 -62q0 -49 34.5 -84t93.5 -35q129 0 136 133h86q-4 -97 -62.5 -152t-158.5 -55z
M243 714h104v-116h-104v116z" />
    <glyph glyph-name="a.ss03" horiz-adv-x="615" 
d="M451 504h82v-504h-82v54h-22q-54 -67 -157 -67q-102 0 -161.5 75t-59.5 190q0 117 59.5 191t161.5 74q105 0 157 -67h22v54zM291 61q79 0 118.5 55t39.5 136t-39.5 136t-118.5 55q-74 0 -114.5 -52.5t-40.5 -138.5t40.5 -138.5t114.5 -52.5z" />
    <glyph glyph-name="aacute.ss03" horiz-adv-x="615" 
d="M451 504h82v-504h-82v54h-22q-54 -67 -157 -67q-102 0 -161.5 75t-59.5 190q0 117 59.5 191t161.5 74q105 0 157 -67h22v54zM291 61q79 0 118.5 55t39.5 136t-39.5 136t-118.5 55q-74 0 -114.5 -52.5t-40.5 -138.5t40.5 -138.5t114.5 -52.5zM435 727l-109 -145h-75
l86 145h98z" />
    <glyph glyph-name="agrave.ss03" horiz-adv-x="615" 
d="M451 504h82v-504h-82v54h-22q-54 -67 -157 -67q-102 0 -161.5 75t-59.5 190q0 117 59.5 191t161.5 74q105 0 157 -67h22v54zM291 61q79 0 118.5 55t39.5 136t-39.5 136t-118.5 55q-74 0 -114.5 -52.5t-40.5 -138.5t40.5 -138.5t114.5 -52.5zM273 582l-108 145h98l86 -145
h-76z" />
    <glyph glyph-name="acircumflex.ss03" horiz-adv-x="615" 
d="M451 504h82v-504h-82v54h-22q-54 -67 -157 -67q-102 0 -161.5 75t-59.5 190q0 117 59.5 191t161.5 74q105 0 157 -67h22v54zM291 61q79 0 118.5 55t39.5 136t-39.5 136t-118.5 55q-74 0 -114.5 -52.5t-40.5 -138.5t40.5 -138.5t114.5 -52.5zM343 727l106 -145h-75l-64 86
h-22l-63 -86h-74l107 145h85z" />
    <glyph glyph-name="adieresis.ss03" horiz-adv-x="615" 
d="M451 504h82v-504h-82v54h-22q-54 -67 -157 -67q-102 0 -161.5 75t-59.5 190q0 117 59.5 191t161.5 74q105 0 157 -67h22v54zM291 61q79 0 118.5 55t39.5 136t-39.5 136t-118.5 55q-74 0 -114.5 -52.5t-40.5 -138.5t40.5 -138.5t114.5 -52.5zM431 635h-83v92h83v-92z
M249 635h-83v92h83v-92z" />
    <glyph glyph-name="atilde.ss03" horiz-adv-x="615" 
d="M451 504h82v-504h-82v54h-22q-54 -67 -157 -67q-102 0 -161.5 75t-59.5 190q0 117 59.5 191t161.5 74q105 0 157 -67h22v54zM291 61q79 0 118.5 55t39.5 136t-39.5 136t-118.5 55q-74 0 -114.5 -52.5t-40.5 -138.5t40.5 -138.5t114.5 -52.5zM410 720h52q0 -132 -93 -132
q-28 0 -55.5 18t-50.5 36t-39 18q-37 0 -37 -72h-52q0 132 94 132q35 0 81.5 -36.5t63.5 -36.5q36 0 36 73z" />
    <glyph glyph-name="aring.ss03" horiz-adv-x="615" 
d="M294 795q45 0 76.5 -31.5t31.5 -76.5q0 -44 -31.5 -76t-76.5 -32q-46 0 -78 32t-32 76q0 45 32 76.5t78 31.5zM294 630q24 0 40.5 16t16.5 41t-16.5 41.5t-40.5 16.5q-25 0 -41.5 -16.5t-16.5 -41.5t16.5 -41t41.5 -16zM451 504h82v-504h-82v54h-22q-54 -67 -157 -67
q-102 0 -161.5 75t-59.5 190q0 117 59.5 191t161.5 74q105 0 157 -67h22v54zM291 61q79 0 118.5 55t39.5 136t-39.5 136t-118.5 55q-74 0 -114.5 -52.5t-40.5 -138.5t40.5 -138.5t114.5 -52.5z" />
    <glyph glyph-name="amacron.ss03" horiz-adv-x="615" 
d="M451 504h82v-504h-82v54h-22q-54 -67 -157 -67q-102 0 -161.5 75t-59.5 190q0 117 59.5 191t161.5 74q105 0 157 -67h22v54zM291 61q79 0 118.5 55t39.5 136t-39.5 136t-118.5 55q-74 0 -114.5 -52.5t-40.5 -138.5t40.5 -138.5t114.5 -52.5zM445 639h-282v64h282v-64z
" />
    <glyph glyph-name="abreve.ss03" horiz-adv-x="615" 
d="M451 504h82v-504h-82v54h-22q-54 -67 -157 -67q-102 0 -161.5 75t-59.5 190q0 117 59.5 191t161.5 74q105 0 157 -67h22v54zM291 61q79 0 118.5 55t39.5 136t-39.5 136t-118.5 55q-74 0 -114.5 -52.5t-40.5 -138.5t40.5 -138.5t114.5 -52.5zM378 727h61q0 -69 -36.5 -107
t-101.5 -38q-66 0 -102.5 38t-36.5 107h61q0 -88 78 -88q77 0 77 88z" />
    <glyph glyph-name="aogonek.ss03" horiz-adv-x="615" 
d="M533 504v-504q-31 -16 -51.5 -40.5t-20.5 -49.5q0 -52 74 -52v-58h-21q-58 0 -91 25t-33 70q0 30 17 58.5t44 46.5v54h-22q-54 -67 -157 -67q-102 0 -161.5 75t-59.5 190q0 117 59.5 191t161.5 74q105 0 157 -67h22v54h82zM291 61q79 0 118.5 55t39.5 136t-39.5 136
t-118.5 55q-74 0 -114.5 -52.5t-40.5 -138.5t40.5 -138.5t114.5 -52.5z" />
    <glyph glyph-name="t.ss04" horiz-adv-x="354" 
d="M199 0h-85v430h-87v74h87v152h85v-152h127v-74h-127v-430z" />
    <glyph glyph-name="tcaron.ss04" horiz-adv-x="388" 
d="M351 645h-48v100h102v-119l-53 -72h-54l53 72v19zM199 0h-85v430h-87v74h87v152h85v-152h127v-74h-127v-430z" />
    <glyph glyph-name="uni0163.ss04" horiz-adv-x="354" 
d="M199 0h-85v430h-87v74h87v152h85v-152h127v-74h-127v-430zM153 -220h-55l55 61v18h-46v83h100v-101z" />
    <glyph glyph-name="Y.ss05" horiz-adv-x="637" 
d="M313 339h28l179 375h94l-341 -714h-93l102 214l-264 500h97z" />
    <glyph glyph-name="Yacute.ss05" horiz-adv-x="637" 
d="M313 339h28l179 375h94l-341 -714h-93l102 214l-264 500h97zM452 896l-109 -129h-76l85 129h100z" />
    <glyph glyph-name="Ydieresis.ss05" horiz-adv-x="637" 
d="M313 339h28l179 375h94l-341 -714h-93l102 214l-264 500h97zM458 807h-83v89h83v-89zM276 807h-83v89h83v-89z" />
    <glyph glyph-name="ampersand.ss06" horiz-adv-x="656" 
d="M620 414v-76h-70v-123q0 -104 -69.5 -166t-180.5 -62t-182 59.5t-71 151.5q0 70 33 112.5t81 58.5v22q-87 35 -87 142q0 83 61.5 132t153.5 49t147.5 -42.5t66.5 -118.5h-86q-22 85 -129 85q-59 0 -93.5 -30t-34.5 -78q0 -53 35 -84.5t102 -31.5h43v-76h-43
q-75 0 -119 -34t-44 -103q0 -63 46.5 -100t119.5 -37q81 0 122.5 39.5t41.5 111.5v199h156z" />
    <glyph glyph-name="zero.ss07" horiz-adv-x="625" 
d="M313 714q117 0 187.5 -91.5t70.5 -272.5t-70.5 -272t-187.5 -91t-187 91t-70 272q0 182 70 273t187 91zM144 350q0 -127 36 -198l222 454q-38 30 -89 30q-85 0 -127 -75.5t-42 -210.5zM313 65q85 0 127.5 75.5t42.5 209.5q0 124 -36 197l-221 -454q35 -28 87 -28z" />
    <glyph glyph-name="emdash.ss02" horiz-adv-x="1445" 
d="M1396 241h-1348v72h1348v-72z" />
    <glyph glyph-name="uni0430.ss03" horiz-adv-x="615" 
d="M451 504h82v-504h-82v54h-22q-54 -67 -157 -67q-102 0 -161.5 75t-59.5 190q0 117 59.5 191t161.5 74q105 0 157 -67h22v54zM291 61q79 0 118.5 55t39.5 136t-39.5 136t-118.5 55q-74 0 -114.5 -52.5t-40.5 -138.5t40.5 -138.5t114.5 -52.5z" />
    <glyph glyph-name="uni0423.ss08" horiz-adv-x="640" 
d="M122 0v87h27q41 0 65.5 15t44.5 58l27 55l-263 499h95l199 -375h28l179 375h93l-263 -554q-43 -89 -86.5 -124.5t-117.5 -35.5h-28z" />
    <glyph glyph-name="uni040E.ss08" horiz-adv-x="640" 
d="M122 0v87h27q41 0 65.5 15t44.5 58l27 55l-263 499h95l199 -375h28l179 375h93l-263 -554q-43 -89 -86.5 -124.5t-117.5 -35.5h-28zM428 904h73q-2 -73 -50 -114t-125 -41q-75 0 -123 41t-50 114h73q1 -42 28 -66t72 -24t73 24t29 66z" />
    <glyph glyph-name="six.numr" horiz-adv-x="369" 
d="M198 587q57 0 94.5 -36t37.5 -91q0 -58 -38 -96t-102 -38q-151 0 -151 187q0 92 39 150t117 58q50 0 83.5 -28.5t41.5 -73.5h-65q-13 45 -62 45q-79 0 -90 -106h16q29 29 79 29zM188 383q33 0 55 20t22 56q0 35 -22 53.5t-56 18.5t-55 -18.5t-21 -53.5q0 -36 22 -56
t55 -20z" />
    <glyph glyph-name="five.numr" horiz-adv-x="363" 
d="M194 594q59 0 94.5 -37.5t35.5 -92.5q0 -63 -39 -100.5t-102 -37.5q-67 0 -103.5 34t-40.5 91h65q8 -66 77 -66q36 0 57 20t21 58q0 34 -20 54.5t-55 20.5q-50 0 -75 -34h-61l20 210h236v-58h-185l-7 -80h20q21 18 62 18z" />
    <glyph glyph-name="four.numr" horiz-adv-x="385" 
d="M294 477h52v-58h-52v-86h-65v86h-192v64l171 231h86v-237zM110 477h120v158h-16l-104 -142v-16z" />
    <glyph glyph-name="three.numr" horiz-adv-x="364" 
d="M228 584v-14q43 -6 71 -36.5t28 -79.5q0 -59 -40.5 -93.5t-104.5 -34.5q-63 0 -103.5 35.5t-42.5 90.5h64q3 -31 26 -49t56 -18q36 0 58 19t22 51q0 33 -21.5 51.5t-57.5 18.5q-24 0 -36 -3v59l76 59v16h-159v58h247v-66z" />
    <glyph glyph-name="two.numr" horiz-adv-x="362" 
d="M139 391h184v-58h-284v72l45 32q13 10 39.5 28t35.5 25q28 20 41 30.5t29 33.5t16 45q0 29 -18 46t-49 17q-73 0 -74 -69h-65q2 64 40.5 96t99.5 32q59 0 95 -31t36 -88q0 -69 -77 -127l-94 -69v-15z" />
    <glyph glyph-name="quotedbl.ss01" horiz-adv-x="317" 
d="M80 473v241h34v-241h-34zM203 473v241h34v-241h-34z" />
    <glyph glyph-name="numbersign.ss01" horiz-adv-x="551" 
d="M300 0l32 208h-159l-32 -208h-34l32 208h-104v31h110l34 222h-102v31h107l33 208h34l-34 -208h161l33 208h34l-33 -208h104v-31h-109l-35 -222h103v-31h-108l-32 -208h-35zM213 461l-35 -222h160l35 222h-160z" />
    <glyph glyph-name="quotesingle.ss01" horiz-adv-x="194" 
d="M80 473v241h34v-241h-34z" />
    <glyph glyph-name="parenleft.ss01" horiz-adv-x="238" 
d="M190 759h42q-148 -188 -148 -450t148 -450h-43q-139 189 -139 450q0 260 140 450z" />
    <glyph glyph-name="parenright.ss01" horiz-adv-x="240" 
d="M6 759h42q140 -190 140 -450q0 -261 -139 -450h-43q148 188 148 450t-148 450z" />
    <glyph glyph-name="bracketleft.ss01" horiz-adv-x="258" 
d="M198 -141h-118v900h118v-31h-84v-838h84v-31z" />
    <glyph glyph-name="bracketright.ss01" horiz-adv-x="258" 
d="M178 -141h-118v31h84v838h-84v31h118v-900z" />
    <glyph glyph-name="braceleft.ss01" horiz-adv-x="337" 
d="M137 318v-18q36 -14 36 -91v-215q0 -55 21.5 -79.5t72.5 -24.5h30v-31h-30q-63 0 -95.5 31.5t-32.5 104.5v204q0 51 -8.5 73t-37.5 22h-13v30h13q29 0 37.5 22t8.5 73v204q0 73 32.5 104.5t95.5 31.5h30v-31h-30q-51 0 -72.5 -24.5t-21.5 -79.5v-215q0 -77 -36 -91z" />
    <glyph glyph-name="braceright.ss01" horiz-adv-x="337" 
d="M200 300v18q-36 14 -36 91v215q0 55 -21.5 79.5t-72.5 24.5h-30v31h30q63 0 95.5 -31.5t32.5 -104.5v-204q0 -51 8.5 -73t37.5 -22h13v-30h-13q-29 0 -37.5 -22t-8.5 -73v-204q0 -73 -32.5 -104.5t-95.5 -31.5h-30v31h30q51 0 72.5 24.5t21.5 79.5v215q0 77 36 91z" />
    <glyph glyph-name="asterisk.ss01" horiz-adv-x="452" 
d="M209 714h34l-1 -180l170 60l10 -35l-170 -55l107 -141l-28 -23l-105 147l-105 -147l-28 23l108 142l-171 54l11 35l169 -60z" />
    <glyph glyph-name="plus.ss01" horiz-adv-x="682" 
d="M325 300v238h33v-238h237v-31h-237v-238h-33v238h-238v31h238z" />
    <glyph glyph-name="minus.ss01" horiz-adv-x="682" 
d="M595 269h-508v31h508v-31z" />
    <glyph glyph-name="less.ss01" horiz-adv-x="678" 
d="M591 78v-33l-504 216v44l504 216v-33l-454 -196v-18z" />
    <glyph glyph-name="equal.ss01" horiz-adv-x="680" 
d="M593 203v-31h-506v31h506zM593 395v-31h-506v31h506z" />
    <glyph glyph-name="greater.ss01" horiz-adv-x="678" 
d="M87 45v33l454 196v18l-454 196v33l504 -216v-44z" />
    <glyph glyph-name="hyphen.ss01" horiz-adv-x="371" 
d="M322 262h-273v31h273v-31z" />
    <glyph glyph-name="endash.ss01" horiz-adv-x="617" 
d="M568 262h-520v31h520v-31z" />
    <glyph glyph-name="emdash.ss01" horiz-adv-x="877" 
d="M828 262h-780v31h780v-31z" />
    <glyph glyph-name="emdash.ss01.ss02" horiz-adv-x="1445" 
d="M1396 262h-1348v31h1348v-31z" />
    <glyph glyph-name="underscore.ss01" horiz-adv-x="505" 
d="M506 -117h-507v31h507v-31z" />
    <glyph glyph-name="slash.ss01" horiz-adv-x="365" 
d="M36 -141h-36l302 900h33z" />
    <glyph glyph-name="bar.ss01" horiz-adv-x="214" 
d="M90 -141v900h34v-900h-34z" />
    <glyph glyph-name="backslash.ss01" horiz-adv-x="365" 
d="M365 -141h-36l-299 900h33z" />
    <glyph glyph-name="degree.ss01" horiz-adv-x="461" 
d="M40 523q0 85 54.5 141.5t135.5 56.5t136 -56.5t55 -141.5q0 -84 -55 -140.5t-136 -56.5t-135.5 56t-54.5 141zM74 523q0 -71 44 -118.5t112 -47.5t112.5 47.5t44.5 118.5q0 72 -44 119.5t-113 47.5q-68 0 -112 -47.5t-44 -119.5z" />
    <glyph glyph-name="guillemotleft.ss01" horiz-adv-x="484" 
d="M94 293v-18l166 -174h-42l-160 163v39l159 164h42zM260 293v-18l166 -174h-42l-160 163v39l159 164h42z" />
    <glyph glyph-name="guillemotright.ss01" horiz-adv-x="484" 
d="M390 275v18l-166 174h42l160 -163v-39l-159 -164h-42zM224 275v18l-166 174h42l160 -163v-39l-159 -164h-42z" />
    <glyph glyph-name="guilsinglleft.ss01" horiz-adv-x="318" 
d="M94 293v-18l166 -174h-42l-160 163v39l159 164h42z" />
    <glyph glyph-name="guilsinglright.ss01" horiz-adv-x="318" 
d="M224 275v18l-165 174h42l159 -164v-39l-160 -163h-42z" />
    <glyph glyph-name="quoteleft.ss01" horiz-adv-x="234" 
d="M106 610h33v-102h-64v119l48 87h31l-48 -87v-17z" />
    <glyph glyph-name="quoteright.ss01" horiz-adv-x="234" 
d="M123 612h-33v102h64v-119l-48 -87h-31l48 87v17z" />
    <glyph glyph-name="quotesinglbase.ss01" horiz-adv-x="234" 
d="M123 0h-33v102h64v-119l-48 -87h-31l48 87v17z" />
    <glyph glyph-name="quotedblleft.ss01" horiz-adv-x="371" 
d="M243 610h33v-102h-64v119l48 87h31l-48 -87v-17zM106 610h33v-102h-64v119l48 87h31l-48 -87v-17z" />
    <glyph glyph-name="quotedblright.ss01" horiz-adv-x="371" 
d="M123 612h-33v102h64v-119l-48 -87h-31l48 87v17zM260 612h-33v102h64v-119l-48 -87h-31l48 87v17z" />
    <glyph glyph-name="quotedblbase.ss01" horiz-adv-x="371" 
d="M123 0h-33v102h64v-119l-48 -87h-31l48 87v17zM260 0h-33v102h64v-119l-48 -87h-31l48 87v17z" />
    <glyph glyph-name="arrowleft.ss01" horiz-adv-x="818" 
d="M297 504h46l-214 -216v-20h631v-31h-631v-21l214 -216h-46l-251 252z" />
    <glyph glyph-name="arrowup.ss01" horiz-adv-x="678" 
d="M591 463v-46l-216 216h-19v-633h-34v633h-19l-216 -216v46l252 251z" />
    <glyph glyph-name="arrowright.ss01" horiz-adv-x="818" 
d="M475 504h46l251 -252l-251 -252h-46l214 216v21h-631v31h631v20z" />
    <glyph glyph-name="arrowdown.ss01" horiz-adv-x="678" 
d="M591 297v-46l-252 -251l-252 251v46l216 -216h19v633h34v-633h19z" />
    <glyph glyph-name="uni2196.ss01" horiz-adv-x="690" 
d="M442 714l32 -32h-303l-13 -14l445 -447l-23 -23l-447 446l-13 -14v-304l-33 33v355h355z" />
    <glyph glyph-name="uni2197.ss01" horiz-adv-x="690" 
d="M216 682l32 32h355v-355l-33 -33v304l-13 14l-447 -446l-23 23l445 447l-13 14h-303z" />
    <glyph glyph-name="uni2198.ss01" horiz-adv-x="690" 
d="M474 32l-32 -32h-355v355l33 33v-304l13 -14l447 446l23 -23l-445 -447l13 -14h303z" />
    <glyph glyph-name="uni2199.ss01" horiz-adv-x="690" 
d="M248 0l-32 32h303l13 14l-445 447l23 23l447 -446l13 14v304l33 -33v-355h-355z" />
    <glyph glyph-name="parenleft.ss01.case" horiz-adv-x="238" 
d="M190 807h42q-148 -188 -148 -450t148 -450h-43q-139 189 -139 450q0 260 140 450z" />
    <glyph glyph-name="parenright.ss01.case" horiz-adv-x="238" 
d="M6 807h42q140 -190 140 -450q0 -261 -139 -450h-43q148 188 148 450t-148 450z" />
    <glyph glyph-name="bracketleft.ss01.case" horiz-adv-x="258" 
d="M198 -93h-118v900h118v-31h-84v-838h84v-31z" />
    <glyph glyph-name="bracketright.ss01.case" horiz-adv-x="258" 
d="M178 -93h-118v31h84v838h-84v31h118v-900z" />
    <glyph glyph-name="braceleft.ss01.case" horiz-adv-x="337" 
d="M137 366v-18q36 -14 36 -91v-215q0 -55 21.5 -79.5t72.5 -24.5h30v-31h-30q-63 0 -95.5 31.5t-32.5 104.5v204q0 51 -8.5 73t-37.5 22h-13v30h13q29 0 37.5 22t8.5 73v204q0 73 32.5 104.5t95.5 31.5h30v-31h-30q-51 0 -72.5 -24.5t-21.5 -79.5v-215q0 -77 -36 -91z" />
    <glyph glyph-name="braceright.ss01.case" horiz-adv-x="337" 
d="M200 348v18q-36 14 -36 91v215q0 55 -21.5 79.5t-72.5 24.5h-30v31h30q63 0 95.5 -31.5t32.5 -104.5v-204q0 -51 8.5 -73t37.5 -22h13v-30h-13q-29 0 -37.5 -22t-8.5 -73v-204q0 -73 -32.5 -104.5t-95.5 -31.5h-30v31h30q51 0 72.5 24.5t21.5 79.5v215q0 77 36 91z" />
    <glyph glyph-name="guillemotleft.ss01.case" horiz-adv-x="484" 
d="M94 359v-18l166 -174h-42l-160 163v39l159 164h42zM260 359v-18l166 -174h-42l-160 163v39l159 164h42z" />
    <glyph glyph-name="guillemotright.ss01.case" horiz-adv-x="484" 
d="M390 341v18l-166 174h42l160 -163v-39l-159 -164h-42zM224 341v18l-166 174h42l160 -163v-39l-159 -164h-42z" />
    <glyph glyph-name="guilsinglleft.ss01.case" horiz-adv-x="318" 
d="M94 359v-18l166 -174h-42l-160 163v39l159 164h42z" />
    <glyph glyph-name="guilsinglright.ss01.case" horiz-adv-x="318" 
d="M224 341v18l-165 174h42l159 -164v-39l-160 -163h-42z" />
    <glyph glyph-name="hyphen.ss01.case" horiz-adv-x="371" 
d="M322 347h-273v31h273v-31z" />
    <glyph glyph-name="endash.ss01.case" horiz-adv-x="617" 
d="M568 347h-520v31h520v-31z" />
    <glyph glyph-name="emdash.ss01.case" horiz-adv-x="877" 
d="M828 347h-780v31h780v-31z" />
    <glyph glyph-name="emdash.ss01.ss02.case" horiz-adv-x="1445" 
d="M1396 347h-1348v31h1348v-31z" />
    <glyph glyph-name="one.numr" horiz-adv-x="331" 
d="M199 391h93v-58h-253v58h94v246h-16l-78 -45v65l95 57h65v-323z" />
    <glyph glyph-name="zero.numr" horiz-adv-x="381" 
d="M342 523q0 -98 -41.5 -147.5t-110.5 -49.5t-110 49.5t-41 147.5q0 99 41 148.5t110 49.5t110.5 -49.5t41.5 -148.5zM190 385q87 0 87 138q0 139 -87 139q-86 0 -86 -139q0 -138 86 -138z" />
    <glyph glyph-name="four.dnom" horiz-adv-x="385" 
d="M294 144h52v-58h-52v-86h-65v86h-192v64l171 231h86v-237zM110 144h120v158h-16l-104 -142v-16z" />
    </font>
</defs>
</svg>
